<svg width="78" height="78" viewBox="0 0 40 40" fill="none" xmlns="http://www.w3.org/2000/svg">
<g id="google">
<path id="vector" d="M37.5022 20.3883C37.5022 18.9494 37.3831 17.8994 37.1252 16.8105H20.3594V23.3049H30.2006C30.0022 24.9189 28.9308 27.3494 26.5498 28.9827L26.5164 29.2001L31.8175 33.2246L32.1847 33.2605C35.5577 30.2077 37.5022 25.716 37.5022 20.3883Z" fill="#4285F4"/>
<path id="vector_2" d="M20.3576 37.5C25.179 37.5 29.2265 35.9443 32.183 33.261L26.548 28.9831C25.0401 30.0137 23.0163 30.7331 20.3576 30.7331C15.6355 30.7331 11.6276 27.6804 10.1989 23.4609L9.98946 23.4784L4.47736 27.659L4.40527 27.8554C7.34174 33.572 13.3735 37.5 20.3576 37.5Z" fill="#34A853"/>
<path id="vector_3" d="M10.2003 23.4614C9.8233 22.3726 9.60513 21.2058 9.60513 20.0003C9.60513 18.7947 9.8233 17.6281 10.1804 16.5392L10.1705 16.3073L4.58927 12.0596L4.40667 12.1447C3.1964 14.5169 2.50195 17.1809 2.50195 20.0003C2.50195 22.8198 3.1964 25.4836 4.40667 27.8558L10.2003 23.4614Z" fill="#FBBC05"/>
<path id="vector_4" d="M20.3577 9.26662C23.7109 9.26662 25.9727 10.6861 27.2625 11.8722L32.3021 7.05C29.207 4.23056 25.1791 2.5 20.3577 2.5C13.3735 2.5 7.34176 6.42775 4.40527 12.1444L10.1791 16.5389C11.6276 12.3194 15.6355 9.26662 20.3577 9.26662Z" fill="#EB4335"/>
</g>
</svg>
