<svg width="77" height="78" viewBox="0 0 77 78" fill="none" xmlns="http://www.w3.org/2000/svg">
<rect x="0.274658" y="0.90625" width="76.2632" height="76.2632" rx="38.1316" fill="url(#paint0_linear_246_1530)"/>
<path d="M32.0596 39.1355C32.0596 35.6226 34.9058 32.7741 38.4177 32.7741C41.9296 32.7741 44.7773 35.6226 44.7773 39.1355C44.7773 42.6484 41.9296 45.4969 38.4177 45.4969C34.9058 45.4969 32.0596 42.6484 32.0596 39.1355ZM28.6218 39.1355C28.6218 44.5473 33.0074 48.9342 38.4177 48.9342C43.828 48.9342 48.2136 44.5473 48.2136 39.1355C48.2136 33.7236 43.828 29.3367 38.4177 29.3367C33.0074 29.3367 28.6218 33.7236 28.6218 39.1355ZM46.3122 28.9482C46.312 29.4011 46.4461 29.8439 46.6975 30.2206C46.9489 30.5972 47.3063 30.8909 47.7245 31.0644C48.1427 31.2379 48.603 31.2834 49.0471 31.1952C49.4912 31.107 49.8992 30.8891 50.2195 30.569C50.5398 30.2489 50.758 29.8409 50.8465 29.3967C50.935 28.9526 50.8899 28.4921 50.7168 28.0736C50.5437 27.6551 50.2504 27.2974 49.874 27.0456C49.4977 26.7938 49.0551 26.6594 48.6023 26.6592H48.6014C47.9945 26.6595 47.4125 26.9007 46.9833 27.3299C46.5541 27.7591 46.3127 28.3411 46.3122 28.9482ZM30.7105 54.6684C28.8505 54.5836 27.8396 54.2737 27.1678 54.0119C26.2771 53.6651 25.6416 53.252 24.9734 52.5845C24.3053 51.9171 23.8917 51.282 23.5465 50.3911C23.2846 49.7194 22.9747 48.7078 22.8902 46.8473C22.7977 44.8359 22.7792 44.2316 22.7792 39.1356C22.7792 34.0396 22.7992 33.4371 22.8902 31.4239C22.9749 29.5634 23.287 28.5539 23.5465 27.8802C23.8932 26.9892 24.3062 26.3536 24.9734 25.6852C25.6407 25.0168 26.2756 24.6031 27.1678 24.2578C27.8393 23.9958 28.8505 23.6859 30.7105 23.6014C32.7214 23.5088 33.3254 23.4904 38.4177 23.4904C43.5099 23.4904 44.1146 23.5104 46.1272 23.6014C47.9871 23.6861 48.9964 23.9983 49.6699 24.2578C50.5606 24.6031 51.1961 25.0178 51.8642 25.6852C52.5324 26.3526 52.9445 26.9892 53.2912 27.8802C53.5531 28.5519 53.8629 29.5634 53.9475 31.4239C54.04 33.4371 54.0584 34.0396 54.0584 39.1356C54.0584 44.2316 54.04 44.8342 53.9475 46.8473C53.8628 48.7078 53.5514 49.7191 53.2912 50.3911C52.9445 51.282 52.5315 51.9177 51.8642 52.5845C51.197 53.2514 50.5606 53.6651 49.6699 54.0119C48.9984 54.2739 47.9871 54.5838 46.1272 54.6684C44.1163 54.7609 43.5122 54.7794 38.4177 54.7794C33.3232 54.7794 32.7208 54.7609 30.7105 54.6684ZM30.5525 20.1683C28.5216 20.2608 27.1339 20.5829 25.9219 21.0547C24.6668 21.5418 23.6043 22.1953 22.5425 23.2557C21.4808 24.3161 20.8291 25.3806 20.3421 26.6361C19.8705 27.8492 19.5485 29.2366 19.456 31.268C19.362 33.3027 19.3405 33.9532 19.3405 39.1355C19.3405 44.3177 19.362 44.9682 19.456 47.0029C19.5485 49.0345 19.8705 50.4218 20.3421 51.6348C20.8291 52.8896 21.4809 53.9553 22.5425 55.0152C23.6041 56.0751 24.6668 56.7278 25.9219 57.2163C27.1362 57.688 28.5216 58.0101 30.5525 58.1026C32.5877 58.1952 33.2369 58.2182 38.4177 58.2182C43.5985 58.2182 44.2488 58.1967 46.2829 58.1026C48.3139 58.0101 49.7007 57.688 50.9134 57.2163C52.1678 56.7278 53.2311 56.0756 54.2928 55.0152C55.3546 53.9548 56.0049 52.8896 56.4933 51.6348C56.9649 50.4218 57.2884 49.0344 57.3794 47.0029C57.4719 44.9667 57.4934 44.3177 57.4934 39.1355C57.4934 33.9532 57.4719 33.3027 57.3794 31.268C57.2869 29.2364 56.9649 27.8484 56.4933 26.6361C56.0049 25.3814 55.3529 24.3178 54.2928 23.2557C53.2328 22.1937 52.1678 21.5418 50.915 21.0547C49.7007 20.5829 48.3137 20.2593 46.2844 20.1683C44.2503 20.0758 43.6 20.0527 38.4192 20.0527C33.2384 20.0527 32.5877 20.0743 30.5525 20.1683Z" fill="white"/>
<defs>
<linearGradient id="paint0_linear_246_1530" x1="75.0721" y1="77.1694" x2="-1.19112" y2="0.906248" gradientUnits="userSpaceOnUse">
<stop stop-color="#FBE18A"/>
<stop offset="0.21" stop-color="#FCBB45"/>
<stop offset="0.38" stop-color="#F75274"/>
<stop offset="0.52" stop-color="#D53692"/>
<stop offset="0.74" stop-color="#8F39CE"/>
<stop offset="1" stop-color="#5B4FE9"/>
</linearGradient>
</defs>
</svg>
