<svg width="78" height="78" viewBox="0 0 40 40" fill="none" xmlns="http://www.w3.org/2000/svg">
<g clip-path="url(#clip0_14779_1877)">
<path d="M0 0H40V40H0V0Z" fill="black"/>
<path d="M9.7666 28.9143L9.8466 29.1443C9.8366 29.1193 9.8066 29.0393 9.7666 28.9143ZM13.0116 23.6693C13.1566 22.4243 13.6466 21.7293 14.5666 21.0143C15.8866 20.0493 17.5316 20.5943 17.5316 20.5943V17.3493C17.9316 17.3393 18.3316 17.3643 18.7266 17.4243V21.5993C18.7266 21.5993 17.0816 21.0543 15.7616 22.0193C14.8416 22.7343 14.3516 23.4293 14.2066 24.6743C14.2016 25.3493 14.3216 26.2343 14.8816 26.9943C14.7416 26.9193 14.6016 26.8343 14.4566 26.7393C13.2316 25.8793 13.0066 24.5843 13.0116 23.6693ZM25.5316 11.3493C24.6266 10.3143 24.2816 9.2643 24.1566 8.5293H25.2966C25.2966 8.5293 25.0716 10.4593 26.7266 12.3543L26.7516 12.3793C26.3016 12.0893 25.8916 11.7393 25.5316 11.3493ZM31.0266 14.2893V18.3793C31.0266 18.3793 29.5716 18.3193 28.4916 18.0343C26.9866 17.6343 26.0216 17.0193 26.0216 17.0193C26.0216 17.0193 25.3516 16.5793 25.3016 16.5493V24.9993C25.3016 25.4693 25.1766 26.6443 24.8016 27.6243C24.3116 28.9043 23.5516 29.7493 23.4116 29.9193C23.4116 29.9193 22.4866 31.0593 20.8616 31.8243C19.3966 32.5143 18.1066 32.4993 17.7216 32.5143C17.7216 32.5143 15.4966 32.6043 13.4916 31.2493C13.0566 30.9493 12.6516 30.6093 12.2816 30.2343L12.2916 30.2443C14.2966 31.6043 16.5216 31.5093 16.5216 31.5093C16.9066 31.4943 18.1966 31.5093 19.6616 30.8193C21.2866 30.0543 22.2116 28.9143 22.2116 28.9143C22.3516 28.7443 23.1116 27.8993 23.6016 26.6193C23.9766 25.6393 24.1016 24.4643 24.1016 23.9943V15.5493C24.1566 15.5793 24.8216 16.0193 24.8216 16.0193C24.8216 16.0193 25.7866 16.6343 27.2916 17.0343C28.3716 17.3193 29.8266 17.3793 29.8266 17.3793V14.1743C30.3266 14.2893 30.7516 14.3193 31.0266 14.2893Z" fill="#EE1D52"/>
<path d="M29.8266 14.1693V17.3743C29.8266 17.3743 28.3716 17.3143 27.2916 17.0293C25.7866 16.6293 24.8216 16.0143 24.8216 16.0143C24.8216 16.0143 24.1516 15.5743 24.1016 15.5443V23.9943C24.1016 24.4643 23.9766 25.6393 23.6016 26.6193C23.1116 27.8993 22.3516 28.7443 22.2116 28.9143C22.2116 28.9143 21.2866 30.0543 19.6616 30.8193C18.1966 31.5093 16.9066 31.4943 16.5216 31.5093C16.5216 31.5093 14.2966 31.5993 12.2916 30.2443L12.2816 30.2343C12.0716 30.0193 11.8716 29.7943 11.6866 29.5593C11.0466 28.7443 10.6566 27.7843 10.5566 27.5093V27.5043C10.3966 27.0293 10.0666 25.8793 10.1116 24.7743C10.1916 22.8193 10.8516 21.6143 11.0266 21.3143C11.4866 20.4943 12.0916 19.7593 12.8016 19.1443C13.4316 18.6143 14.1466 18.1893 14.9116 17.8943C15.7416 17.5443 16.6316 17.3593 17.5316 17.3443V20.5893C17.5316 20.5893 15.8866 20.0443 14.5666 21.0093C13.6466 21.7243 13.1566 22.4193 13.0116 23.6643C13.0066 24.5793 13.2316 25.8743 14.4616 26.7393C14.6066 26.8343 14.7466 26.9193 14.8866 26.9943C15.1016 27.2843 15.3616 27.5393 15.6616 27.7493C16.8666 28.5443 17.8716 28.5993 19.1616 28.0843C20.0216 27.7393 20.6666 26.9643 20.9666 26.0993C21.1566 25.5593 21.1516 25.0193 21.1516 24.4593V8.5293H24.1516C24.2766 9.2643 24.6166 10.3143 25.5266 11.3493C25.8916 11.7393 26.3016 12.0893 26.7466 12.3793C26.8766 12.5243 27.5516 13.2243 28.4216 13.6593C28.8666 13.8843 29.3416 14.0543 29.8266 14.1693Z" fill="white"/>
<path d="M9.36133 26.5195L9.43633 26.7345C9.42633 26.7095 9.39633 26.6345 9.36133 26.5195Z" fill="#69C9D0"/>
<path d="M14.9112 17.8999C14.1412 18.1949 13.4312 18.6199 12.8012 19.1499C12.0862 19.7649 11.4862 20.5049 11.0262 21.3249C10.8512 21.6249 10.1912 22.8249 10.1112 24.7849C10.0662 25.8949 10.4012 27.0399 10.5562 27.5149V27.5199C10.6562 27.7899 11.0462 28.7549 11.6862 29.5699C11.8712 29.8049 12.0712 30.0299 12.2812 30.2449C11.6012 29.7749 11.0012 29.2099 10.4862 28.5649C9.85117 27.7599 9.46117 26.8049 9.36117 26.5249V26.5149C9.20117 26.0399 8.86617 24.8899 8.91617 23.7799C8.99617 21.8249 9.65617 20.6199 9.83117 20.3199C10.2912 19.4999 10.8912 18.7599 11.6062 18.1449C12.2362 17.6149 12.9512 17.1899 13.7162 16.8949C14.1962 16.6949 14.6962 16.5499 15.2062 16.4549C15.9762 16.3199 16.7612 16.3099 17.5362 16.4199V17.3499C16.6312 17.3649 15.7412 17.5499 14.9112 17.8999Z" fill="#69C9D0"/>
<path d="M24.1566 8.52941H21.1566V24.4594C21.1566 25.0194 21.1566 25.5594 20.9716 26.0994C20.6666 26.9594 20.0216 27.7394 19.1666 28.0844C17.8766 28.6044 16.8666 28.5444 15.6666 27.7494C15.3666 27.5444 15.1066 27.2894 14.8916 26.9994C15.9166 27.5444 16.8316 27.5344 17.9666 27.0794C18.8266 26.7344 19.4716 25.9544 19.7716 25.0944C19.9616 24.5544 19.9566 24.0144 19.9566 23.4544V7.52441H24.1016C24.0966 7.52441 24.0516 7.91941 24.1566 8.52941ZM29.8266 13.2844V14.1694C29.3416 14.0544 28.8666 13.8844 28.4216 13.6594C27.5566 13.2294 26.8816 12.5244 26.7466 12.3794C26.9016 12.4794 27.0566 12.5694 27.2216 12.6544C28.2816 13.1794 29.3166 13.3394 29.8266 13.2844Z" fill="#69C9D0"/>
</g>
<defs>
<clipPath id="clip0_14779_1877">
<rect width="40" height="40" rx="20" fill="white"/>
</clipPath>
</defs>
</svg>
