<svg width="24" height="25" viewBox="0 0 24 25" fill="none" xmlns="http://www.w3.org/2000/svg">
<g id="icons8-apps 1">
<path id="Vector" d="M19.828 7.69424L19.8281 7.69432C20.1592 8.02542 20.1592 8.56495 19.8281 8.89606L19.828 8.89613L17.0001 11.7249C17.0001 11.7249 17 11.7249 17 11.7249C16.8347 11.8902 16.6185 11.9732 16.3992 11.9732C16.1799 11.9732 15.9638 11.8902 15.7984 11.7249C15.7984 11.7249 15.7984 11.7249 15.7983 11.7249L12.9704 8.89613L12.9703 8.89606C12.6392 8.56495 12.6392 8.02542 12.9703 7.69432L12.9704 7.69424L15.7984 4.86544L15.7987 4.86518C16.1289 4.53452 16.6695 4.53452 16.9997 4.86518L17 4.86544L19.828 7.69424ZM4.79922 6.24519H8.79922C9.26741 6.24519 9.64922 6.627 9.64922 7.09519V11.0952C9.64922 11.5634 9.26741 11.9452 8.79922 11.9452H4.79922C4.33103 11.9452 3.94922 11.5634 3.94922 11.0952V7.09519C3.94922 6.627 4.33103 6.24519 4.79922 6.24519ZM4.79922 15.0452H8.79922C9.26741 15.0452 9.64922 15.427 9.64922 15.8952V19.8952C9.64922 20.3634 9.26741 20.7452 8.79922 20.7452H4.79922C4.33103 20.7452 3.94922 20.3634 3.94922 19.8952V15.8952C3.94922 15.427 4.33103 15.0452 4.79922 15.0452ZM13.5992 15.0452H17.5992C18.0674 15.0452 18.4492 15.427 18.4492 15.8952V19.8952C18.4492 20.3634 18.0674 20.7452 17.5992 20.7452H13.5992C13.131 20.7452 12.7492 20.3634 12.7492 19.8952V15.8952C12.7492 15.427 13.131 15.0452 13.5992 15.0452Z" stroke="#000" stroke-width="1.5"/>
</g>
</svg>
