<svg width="20" height="20" viewBox="0 0 20 20" fill="none" xmlns="http://www.w3.org/2000/svg">
<path d="M9.03342 11.2833H7.78341C6.82508 11.2833 6.05008 10.4833 6.05008 9.49167C6.05008 9.15 6.33341 8.86667 6.67508 8.86667C7.01675 8.86667 7.30008 9.15 7.30008 9.49167C7.30008 9.79167 7.51675 10.0333 7.78341 10.0333H9.03342C9.22508 10.0333 9.37508 9.85833 9.37508 9.64167C9.37508 9.35 9.32508 9.33333 9.13341 9.26667L7.12508 8.56667C6.40008 8.31667 6.04175 7.80833 6.04175 7.01667C6.04175 6.11667 6.75841 5.375 7.63341 5.375H8.88341C9.84175 5.375 10.6167 6.175 10.6167 7.16667C10.6167 7.50833 10.3334 7.79167 9.99175 7.79167C9.65008 7.79167 9.36675 7.50833 9.36675 7.16667C9.36675 6.86667 9.15008 6.625 8.88341 6.625H7.63341C7.44175 6.625 7.29175 6.8 7.29175 7.01667C7.29175 7.30833 7.34175 7.325 7.53341 7.39167L9.54175 8.09167C10.2667 8.35 10.6167 8.85833 10.6167 9.64167C10.6251 10.55 9.90842 11.2833 9.03342 11.2833Z" fill="#7B879D"/>
<path d="M8.33325 11.9502C7.99159 11.9502 7.70825 11.6668 7.70825 11.3252V10.7085C7.70825 10.3668 7.99159 10.0835 8.33325 10.0835C8.67492 10.0835 8.95825 10.3668 8.95825 10.7085V11.3252C8.95825 11.6752 8.67492 11.9502 8.33325 11.9502Z" fill="#7B879D"/>
<path d="M8.33325 6.6168C7.99159 6.6168 7.70825 6.33346 7.70825 5.9918V5.3418C7.70825 5.00013 7.99159 4.7168 8.33325 4.7168C8.67492 4.7168 8.95825 5.00013 8.95825 5.3418V5.9918C8.95825 6.33346 8.67492 6.6168 8.33325 6.6168Z" fill="#7B879D"/>
<path d="M8.32508 15.5999C4.30841 15.5999 1.04175 12.3332 1.04175 8.31654C1.04175 4.29987 4.30841 1.0332 8.32508 1.0332C12.3417 1.0332 15.6084 4.29987 15.6084 8.31654C15.6084 12.3332 12.3334 15.5999 8.32508 15.5999ZM8.32508 2.29154C5.00008 2.29154 2.29175 4.99987 2.29175 8.32487C2.29175 11.6499 5.00008 14.3499 8.32508 14.3499C11.6501 14.3499 14.3584 11.6415 14.3584 8.31654C14.3584 4.99154 11.6501 2.29154 8.32508 2.29154Z" fill="#7B879D"/>
<path d="M14.1834 18.9336C12.6418 18.9336 11.1918 18.1836 10.3001 16.9169C10.1001 16.6336 10.1668 16.2419 10.4501 16.0419C10.7334 15.8419 11.1251 15.9086 11.3251 16.1919C11.9834 17.1252 13.0501 17.6752 14.1834 17.6752C16.1168 17.6752 17.6834 16.1086 17.6834 14.1752C17.6834 13.0502 17.1334 11.9836 16.2168 11.3252C15.9334 11.1252 15.8751 10.7336 16.0751 10.4502C16.2751 10.1669 16.6668 10.1086 16.9501 10.3086C18.1918 11.2002 18.9334 12.6419 18.9334 14.1752C18.9334 16.8086 16.8084 18.9336 14.1834 18.9336Z" fill="#7B879D"/>
</svg>
