<svg width="24" height="25" viewBox="0 0 24 25" fill="none" xmlns="http://www.w3.org/2000/svg">
<g id="Group">
<g id="Group_2">
<path id="Path" fill-rule="evenodd" clip-rule="evenodd" d="M11 20.0873V8.19829C11 7.50829 10.645 6.86729 10.06 6.50229L6.06 4.00229C4.728 3.17029 3 4.12729 3 5.69829V17.5863C3 18.2763 3.355 18.9173 3.94 19.2823L7.94 21.7823C9.272 22.6153 11 21.6573 11 20.0873Z" fill="#CF1644" stroke="#CF1644" stroke-width="1.8" stroke-linecap="round" stroke-linejoin="round"/>
<path id="Path_2" d="M9 12.6953V14.1953" stroke="white" stroke-width="1.8" stroke-linecap="round" stroke-linejoin="round"/>
<path id="Path_3" d="M15 12.4453H21" stroke="#CF1644" stroke-width="1.8" stroke-linecap="round" stroke-linejoin="round"/>
<path id="Path_4" d="M19 14.4453L21 12.4453L19 10.4453" stroke="#CF1644" stroke-width="1.8" stroke-linecap="round" stroke-linejoin="round"/>
<path id="Path_5" d="M9.75 20.9453H14.25C15.4931 20.9453 16.5 20.0503 16.5 18.9453V17.9453" stroke="#CF1644" stroke-width="1.8" stroke-linecap="round" stroke-linejoin="round"/>
<path id="Path_6" d="M17 6.69531V5.69531C17 4.59031 16.105 3.69531 15 3.69531H5" stroke="#CF1644" stroke-width="1.8" stroke-linecap="round" stroke-linejoin="round"/>
</g>
</g>
</svg>
