<svg width="24" height="25" viewBox="0 0 24 25" fill="none" xmlns="http://www.w3.org/2000/svg">
<g id="vuesax/linear/notification">
<g id="notification">
<path id="Vector" d="M12.0201 3.60547C8.71009 3.60547 6.02009 6.29547 6.02009 9.60547V12.4955C6.02009 13.1055 5.76009 14.0355 5.45009 14.5555L4.30009 16.4655C3.59009 17.6455 4.08009 18.9555 5.38009 19.3955C9.69009 20.8355 14.3401 20.8355 18.6501 19.3955C19.8601 18.9955 20.3901 17.5655 19.7301 16.4655L18.5801 14.5555C18.2801 14.0355 18.0201 13.1055 18.0201 12.4955V9.60547C18.0201 6.30547 15.3201 3.60547 12.0201 3.60547Z" stroke="#000" stroke-width="1.5" stroke-miterlimit="10" stroke-linecap="round"/>
<path id="Vector_2" d="M13.8699 3.89525C13.5599 3.80525 13.2399 3.73525 12.9099 3.69525C11.9499 3.57525 11.0299 3.64525 10.1699 3.89525C10.4599 3.15525 11.1799 2.63525 12.0199 2.63525C12.8599 2.63525 13.5799 3.15525 13.8699 3.89525Z" stroke="#000" stroke-width="1.5" stroke-miterlimit="10" stroke-linecap="round" stroke-linejoin="round"/>
<path id="Vector_3" d="M15.02 19.7554C15.02 21.4054 13.67 22.7554 12.02 22.7554C11.2 22.7554 10.44 22.4154 9.90002 21.8754C9.36002 21.3354 9.02002 20.5754 9.02002 19.7554" stroke="#000" stroke-width="1.5" stroke-miterlimit="10"/>
</g>
</g>
</svg>
