<svg width="24" height="25" viewBox="0 0 24 25" fill="none" xmlns="http://www.w3.org/2000/svg">
<g id="Group">
<path id="Path" fill-rule="evenodd" clip-rule="evenodd" d="M12.8005 3.69141C13.2226 3.69141 13.5992 3.95644 13.7419 4.35368L14.2501 5.76927C14.3308 5.99188 14.4874 6.17891 14.6923 6.29749L16.1999 7.16785C16.4046 7.28598 16.6446 7.3278 16.8772 7.2859L18.3578 7.01879C18.7736 6.94319 19.192 7.13699 19.4033 7.50299L20.2036 8.88357C20.4154 9.24858 20.3754 9.70724 20.1035 10.03L19.1321 11.1785C18.9791 11.3591 18.8951 11.5881 18.895 11.8248V13.5655C18.8951 13.8022 18.9791 14.0312 19.1321 14.2118L20.1035 15.3603C20.3754 15.6831 20.4154 16.1417 20.2036 16.5067L19.4033 17.8873C19.1922 18.2529 18.7743 18.4467 18.3588 18.3715L16.8782 18.1044C16.6456 18.0625 16.4056 18.1043 16.2009 18.2225L14.6933 19.0928C14.4884 19.2114 14.3318 19.3984 14.2511 19.621L13.7429 21.0366C13.6001 21.4342 13.223 21.6993 12.8005 21.6989H11.1998C10.7777 21.6989 10.4011 21.4339 10.2584 21.0366L9.75023 19.621C9.66959 19.3987 9.51345 19.2118 9.30905 19.0928L7.80042 18.2225C7.59569 18.1043 7.35576 18.0625 7.12314 18.1044L5.64252 18.3715C5.22675 18.4471 4.80832 18.2533 4.59709 17.8873L3.79675 16.5067C3.58495 16.1417 3.62498 15.6831 3.8968 15.3603L4.8682 14.2118C5.02119 14.0312 5.1052 13.8022 5.1053 13.5655V11.8248C5.1052 11.5881 5.02119 11.3591 4.8682 11.1785L3.9068 10.03C3.63498 9.70724 3.59496 9.24858 3.80676 8.88357L4.60709 7.50299C4.81819 7.13738 5.23609 6.94365 5.65153 7.01879L7.13214 7.2859C7.36476 7.3278 7.6047 7.28598 7.80942 7.16785L9.31805 6.29749C9.52245 6.17854 9.67859 5.99159 9.75924 5.76927L10.2674 4.35368C10.409 3.95952 10.7811 3.69524 11.1998 3.69141H12.8005Z" stroke="#000" stroke-width="1.5" stroke-linecap="round" stroke-linejoin="round"/>
<circle id="Oval" cx="12.0002" cy="12.6945" r="2.75115" stroke="#000" stroke-width="1.5" stroke-linecap="round" stroke-linejoin="round"/>
</g>
</svg>
