<svg width="24" height="24" viewBox="0 0 24 24" fill="none" xmlns="http://www.w3.org/2000/svg">
<g id="Group">
<g id="Group_2">
<path id="Path" d="M3 5H7" stroke="#000" stroke-width="1.5" stroke-linecap="round" stroke-linejoin="round"/>
<path id="Path_2" d="M5 3V7" stroke="#000" stroke-width="1.5" stroke-linecap="round" stroke-linejoin="round"/>
<path id="Path_3" d="M6 17V20" stroke="#000" stroke-width="1.5" stroke-linecap="round" stroke-linejoin="round"/>
<path id="Path_4" d="M7.5 18.5H4.5" stroke="#000" stroke-width="1.5" stroke-linecap="round" stroke-linejoin="round"/>
<g id="Path_5">
<path fill-rule="evenodd" clip-rule="evenodd" d="M21 12L17.21 10.476C16.452 10.171 15.851 9.571 15.546 8.813L14.011 5L12.476 8.813C12.171 9.571 11.57 10.172 10.812 10.476L7.022 12H7L10.79 13.524C11.548 13.829 12.149 14.429 12.454 15.187L13.989 19L15.524 15.187C15.829 14.429 16.43 13.828 17.188 13.524L20.978 12" fill="#000"/>
<path d="M21 12L17.21 10.476C16.452 10.171 15.851 9.571 15.546 8.813L14.011 5L12.476 8.813C12.171 9.571 11.57 10.172 10.812 10.476L7.022 12H7L10.79 13.524C11.548 13.829 12.149 14.429 12.454 15.187L13.989 19L15.524 15.187C15.829 14.429 16.43 13.828 17.188 13.524L20.978 12" stroke="#000" stroke-width="1.5" stroke-linecap="round" stroke-linejoin="round"/>
</g>
</g>
</g>
</svg>
