<svg width="24" height="25" viewBox="0 0 24 25" fill="none" xmlns="http://www.w3.org/2000/svg">
<g id="Group">
<g id="Group_2">
<path id="Path" fill-rule="evenodd" clip-rule="evenodd" d="M19 17.6953H18C17.448 17.6953 17 17.2473 17 16.6953V11.6953C17 11.1433 17.448 10.6953 18 10.6953H19C20.105 10.6953 21 11.5903 21 12.6953V15.6953C21 16.8003 20.105 17.6953 19 17.6953Z" stroke="#000" stroke-width="1.5" stroke-linecap="round" stroke-linejoin="round"/>
<path id="Path_2" fill-rule="evenodd" clip-rule="evenodd" d="M6 17.6953H5C3.895 17.6953 3 16.8003 3 15.6953V12.6953C3 11.5903 3.895 10.6953 5 10.6953H6C6.552 10.6953 7 11.1433 7 11.6953V16.6953C7 17.2473 6.552 17.6953 6 17.6953Z" stroke="#000" stroke-width="1.5" stroke-linecap="round" stroke-linejoin="round"/>
<path id="Path_3" d="M18.5 10.6953V10.1953C18.5 6.60531 15.59 3.69531 12 3.69531V3.69531C8.41 3.69531 5.5 6.60531 5.5 10.1953V10.6953" stroke="#000" stroke-width="1.5" stroke-linecap="round" stroke-linejoin="round"/>
<path id="Path_4" fill-rule="evenodd" clip-rule="evenodd" d="M12.625 21.9453H11.375C10.685 21.9453 10.125 21.3853 10.125 20.6953V20.6953C10.125 20.0053 10.685 19.4453 11.375 19.4453H12.625C13.315 19.4453 13.875 20.0053 13.875 20.6953V20.6953C13.875 21.3853 13.315 21.9453 12.625 21.9453Z" stroke="#000" stroke-width="1.5" stroke-linecap="round" stroke-linejoin="round"/>
<path id="Path_5" d="M13.875 20.6953H16C17.105 20.6953 18 19.8003 18 18.6953V17.6953" stroke="#000" stroke-width="1.5" stroke-linecap="round" stroke-linejoin="round"/>
</g>
</g>
</svg>
