<svg width="21" height="20" viewBox="0 0 21 20" fill="none" xmlns="http://www.w3.org/2000/svg">
<path d="M10.6652 18.9583C6.29854 18.9583 2.74854 15.4083 2.74854 11.0417C2.74854 6.675 6.29854 3.125 10.6652 3.125C15.0319 3.125 18.5819 6.675 18.5819 11.0417C18.5819 15.4083 15.0319 18.9583 10.6652 18.9583ZM10.6652 4.375C6.9902 4.375 3.99854 7.36667 3.99854 11.0417C3.99854 14.7167 6.9902 17.7083 10.6652 17.7083C14.3402 17.7083 17.3319 14.7167 17.3319 11.0417C17.3319 7.36667 14.3402 4.375 10.6652 4.375Z" fill="#7B879D"/>
<path d="M10.6665 11.4582C10.3248 11.4582 10.0415 11.1748 10.0415 10.8332V6.6665C10.0415 6.32484 10.3248 6.0415 10.6665 6.0415C11.0082 6.0415 11.2915 6.32484 11.2915 6.6665V10.8332C11.2915 11.1748 11.0082 11.4582 10.6665 11.4582Z" fill="#7B879D"/>
<path d="M13.1665 2.2915H8.1665C7.82484 2.2915 7.5415 2.00817 7.5415 1.6665C7.5415 1.32484 7.82484 1.0415 8.1665 1.0415H13.1665C13.5082 1.0415 13.7915 1.32484 13.7915 1.6665C13.7915 2.00817 13.5082 2.2915 13.1665 2.2915Z" fill="#7B879D"/>
</svg>
