<svg width="24" height="25" viewBox="0 0 24 25" fill="none" xmlns="http://www.w3.org/2000/svg">
<g id="vuesax/linear/wallet-minus">
<g id="wallet-minus">
<path id="Vector" d="M14.2617 16.6934H9.26172" stroke="#000" stroke-width="1.4" stroke-miterlimit="10" stroke-linecap="round" stroke-linejoin="round"/>
<path id="Vector_2" d="M12.66 3.21345L12.63 3.28345L9.72996 10.0134H6.87996C6.19996 10.0134 5.54996 10.1534 4.95996 10.4034L6.70996 6.22345L6.74996 6.12345L6.81996 5.96345C6.83996 5.90345 6.85996 5.84345 6.88996 5.79345C8.19996 2.76345 9.67996 2.07345 12.66 3.21345Z" stroke="#000" stroke-width="1.4" stroke-linecap="round" stroke-linejoin="round"/>
<path id="Vector_3" d="M18.05 10.2134C17.6 10.0734 17.12 10.0134 16.64 10.0134H9.72998L12.63 3.28338L12.66 3.21338C12.81 3.26338 12.95 3.33338 13.1 3.39338L15.31 4.32338C16.54 4.83338 17.4 5.36338 17.92 6.00338C18.02 6.12338 18.1 6.23338 18.17 6.36338C18.26 6.50338 18.33 6.64338 18.37 6.79338C18.41 6.88338 18.44 6.97338 18.46 7.05338C18.73 7.89338 18.57 8.92338 18.05 10.2134Z" stroke="#000" stroke-width="1.4" stroke-linecap="round" stroke-linejoin="round"/>
<path id="Vector_4" d="M21.5217 14.8937V16.8437C21.5217 17.0437 21.5117 17.2437 21.5017 17.4437C21.3117 20.9337 19.3617 22.6937 15.6617 22.6937H7.86172C7.62172 22.6937 7.38172 22.6737 7.15172 22.6437C3.97172 22.4337 2.27172 20.7337 2.06172 17.5537C2.03172 17.3237 2.01172 17.0837 2.01172 16.8437V14.8937C2.01172 12.8837 3.23172 11.1537 4.97172 10.4037C5.57172 10.1537 6.21172 10.0137 6.89172 10.0137H16.6517C17.1417 10.0137 17.6217 10.0837 18.0617 10.2137C20.0517 10.8237 21.5217 12.6837 21.5217 14.8937Z" stroke="#000" stroke-width="1.4" stroke-linecap="round" stroke-linejoin="round"/>
<path id="Vector_5" d="M6.71 6.22363L4.96 10.4036C3.22 11.1536 2 12.8836 2 14.8936V11.9636C2 9.12363 4.02 6.75363 6.71 6.22363Z" stroke="#000" stroke-width="1.4" stroke-linecap="round" stroke-linejoin="round"/>
<path id="Vector_6" d="M21.5186 11.963V14.893C21.5186 12.693 20.0586 10.823 18.0586 10.223C18.5786 8.92297 18.7286 7.90297 18.4786 7.05297C18.4586 6.96297 18.4286 6.87297 18.3886 6.79297C20.2486 7.75297 21.5186 9.72297 21.5186 11.963Z" stroke="#000" stroke-width="1.4" stroke-linecap="round" stroke-linejoin="round"/>
</g>
</g>
</svg>
