<svg width="41" height="41" viewBox="0 0 41 41" fill="none" xmlns="http://www.w3.org/2000/svg">
<g id="icons8-target 1">
<path id="Vector" d="M20.5 36C11.953 36 5 29.047 5 20.5C5 11.953 11.953 5 20.5 5C29.047 5 36 11.953 36 20.5C36 29.047 29.047 36 20.5 36ZM20.5 9C14.159 9 9 14.159 9 20.5C9 26.841 14.159 32 20.5 32C26.841 32 32 26.841 32 20.5C32 14.159 26.841 9 20.5 9Z" fill="#F0F3FF"/>
<path id="Vector_2" d="M21.5 1.5H19.5V8.5H21.5V1.5Z" fill="#D0DBFF"/>
<path id="Vector_3" d="M39.5 19.5H32.5V21.5H39.5V19.5Z" fill="#D0DBFF"/>
<g id="Group">
<path id="Vector_4" d="M8.5 19.5H1.5V21.5H8.5V19.5Z" fill="#D0DBFF"/>
</g>
<g id="Group_2">
<path id="Vector_5" d="M21.5 32.5H19.5V39.5H21.5V32.5Z" fill="#D0DBFF"/>
</g>
<circle id="Ellipse 226" cx="20.5" cy="20.5" r="8" fill="#2A50D7"/>
</g>
</svg>
