<svg width="41" height="41" viewBox="0 0 41 41" fill="none" xmlns="http://www.w3.org/2000/svg">
<g id="icons8-result 1" clip-path="url(#clip0_345_1863)">
<g id="Group">
<path id="Vector" d="M32.4062 21.0312V21.0307L32.4375 6.46875C32.4375 6.46858 32.4375 6.46841 32.4375 6.46824C32.4374 5.93558 32.2413 5.43859 31.8857 5.08303C31.4943 4.6916 31.0263 4.5 30.5 4.5H10.5C9.41932 4.5 8.5625 5.35682 8.5625 6.4375V34.5625C8.5625 35.6432 9.41932 36.5 10.5 36.5H19.4375C20.1068 36.5 20.625 37.0182 20.625 37.6875C20.625 38.3568 20.1068 38.875 19.4375 38.875H10.5C8.11193 38.875 6.1875 36.9506 6.1875 34.5625V6.4375C6.1875 4.04943 8.11193 2.125 10.5 2.125H30.5C31.664 2.125 32.7265 2.59174 33.5518 3.41697C34.3805 4.24574 34.8125 5.3096 34.8125 6.46875V6.46929L34.7812 21.0312H32.4062ZM32.4062 21.0312C32.4062 21.7006 32.9244 22.2188 33.5938 22.2188M32.4062 21.0312L33.5938 22.2188M33.5938 22.2188C34.2629 22.2188 34.781 21.7008 34.7812 21.0318L33.5938 22.2188Z" fill="#D0DBFF" stroke="#D0DBFF" stroke-width="0.5"/>
<path id="Vector_2" d="M32.5 24.5C30.3783 24.5 28.3434 25.3429 26.8431 26.8431C25.3429 28.3434 24.5 30.3783 24.5 32.5C24.5 34.6217 25.3429 36.6566 26.8431 38.1569C28.3434 39.6571 30.3783 40.5 32.5 40.5C34.6217 40.5 36.6566 39.6571 38.1569 38.1569C39.6571 36.6566 40.5 34.6217 40.5 32.5C40.5 30.3783 39.6571 28.3434 38.1569 26.8431C36.6566 25.3429 34.6217 24.5 32.5 24.5Z" fill="#2A50D7"/>
<path id="Vector_3" d="M37.9707 26.5L32.5778 32.4471L30.646 29.989C30.2436 29.4736 29.4789 29.3943 28.9557 29.7907C28.4326 30.1872 28.3521 30.9405 28.7545 31.4559L31.5717 35.0242C31.7729 35.3018 32.1351 35.4604 32.4973 35.5H32.5376C32.8998 35.5 33.2217 35.3414 33.423 35.1035L39.5 28.3634C39.0975 27.6894 38.5744 27.0551 37.9707 26.5Z" fill="white"/>
<path id="Vector_4" d="M26.375 18.875H12.625C12.0938 18.875 11.6875 18.4688 11.6875 17.9375C11.6875 17.4062 12.0938 17 12.625 17H26.375C26.9062 17 27.3125 17.4062 27.3125 17.9375C27.3125 18.4688 26.9062 18.875 26.375 18.875ZM23.25 9.5H15.75C15.2188 9.5 14.8125 9.09375 14.8125 8.5625C14.8125 8.03125 15.2188 7.625 15.75 7.625H23.25C23.7812 7.625 24.1875 8.03125 24.1875 8.5625C24.1875 9.09375 23.7812 9.5 23.25 9.5ZM26.375 23.5625H12.625C12.0938 23.5625 11.6875 23.1562 11.6875 22.625C11.6875 22.0938 12.0938 21.6875 12.625 21.6875H26.375C26.9062 21.6875 27.3125 22.0938 27.3125 22.625C27.3125 23.1562 26.9062 23.5625 26.375 23.5625ZM21.375 28.25H12.625C12.0938 28.25 11.6875 27.8438 11.6875 27.3125C11.6875 26.7812 12.0938 26.375 12.625 26.375H21.375C21.9062 26.375 22.3125 26.7812 22.3125 27.3125C22.3125 27.8438 21.9062 28.25 21.375 28.25Z" fill="#F0F3FF"/>
</g>
</g>
<defs>
<clipPath id="clip0_345_1863">
<rect width="40" height="40" fill="white" transform="translate(0.5 0.5)"/>
</clipPath>
</defs>
</svg>
