<svg width="89" height="87" viewBox="0 0 89 87" fill="none" xmlns="http://www.w3.org/2000/svg">
<path d="M44.5607 50.0252C56.4654 50.0252 68.3724 50.0252 80.2771 50.0252C81.9184 50.0252 82.3994 50.3551 83.0181 51.9172C84.7528 56.2928 86.4898 60.6683 88.2175 65.0461C89.002 67.0324 88.1101 68.3543 86.0019 68.359C84.9014 68.3621 84.3512 68.9237 84.3512 70.0437C84.3512 73.8325 84.3559 77.6237 84.3512 81.4125C84.3465 84.6241 82.2943 86.6928 79.1075 86.6928C56.0522 86.6952 32.9992 86.6952 9.94392 86.6928C6.75003 86.6928 4.70015 84.6288 4.69548 81.4172C4.69081 77.3032 4.68381 73.1916 4.70482 69.0777C4.70716 68.531 4.6091 68.2765 4.00674 68.3449C3.51879 68.4014 3.01682 68.3778 2.5242 68.3496C1.08135 68.2648 0.121781 66.9052 0.647091 65.548C2.48685 60.8049 4.37096 56.0807 6.25741 51.3564C6.65431 50.3645 7.46212 50.0134 8.4964 50.0181C13.1822 50.0323 17.8703 50.0252 22.556 50.0252H44.563H44.5607ZM61.9917 63.5476C61.9403 63.5405 61.8889 63.5311 61.8376 63.524C61.464 64.4665 61.0928 65.409 60.7193 66.3515C60.0375 68.0668 59.6079 68.359 57.7892 68.359C41.7777 68.359 25.7663 68.3661 9.75481 68.3401C9.01704 68.3401 8.86061 68.5263 8.86762 69.2497C8.90731 73.1869 8.88629 77.1242 8.88629 81.0591C8.88629 82.4045 8.94233 82.4634 10.2568 82.4634C25.3367 82.4634 40.4166 82.4634 55.4965 82.4634C57.446 82.4634 59.3978 82.4516 61.3473 82.4728C61.7956 82.4775 62.008 82.4304 62.0057 81.879C61.9847 75.7693 61.9917 69.6573 61.9917 63.5476ZM5.70175 64.1272H6.79906C22.6307 64.1272 38.4601 64.1272 54.2918 64.1249C55.2163 64.1249 56.3463 64.4052 57.0071 63.9741C57.6304 63.5688 57.7705 62.3977 58.1044 61.5566C59.0616 59.1461 60.0072 56.7334 60.9854 54.2546H60.285C43.6385 54.2546 26.9943 54.2546 10.3478 54.2546C10.2614 54.2546 10.1704 54.2664 10.0863 54.2546C9.75014 54.2028 9.56103 54.3394 9.43495 54.6646C8.21156 57.789 6.9765 60.9086 5.70408 64.1296L5.70175 64.1272ZM66.3366 63.5193C66.2875 63.5287 66.2362 63.5382 66.1872 63.5499C66.1872 69.6596 66.1942 75.7693 66.1731 81.879C66.1731 82.4328 66.3879 82.4728 66.8339 82.4705C70.9079 82.4563 74.9844 82.4469 79.0584 82.4728C79.9036 82.4775 80.1768 82.1335 80.1721 81.3135C80.1487 77.2302 80.1487 73.1469 80.1744 69.0635C80.1791 68.4862 80.0297 68.3378 79.46 68.3449C76.4039 68.3731 73.3477 68.359 70.2916 68.359C68.5966 68.359 68.1366 68.0409 67.4899 66.4222C67.1047 65.4538 66.7218 64.4877 66.3366 63.5193ZM67.1888 54.2546C68.4612 57.4779 69.6986 60.5929 70.9196 63.7149C71.048 64.0424 71.2301 64.1343 71.5687 64.1343C75.4606 64.1225 79.3549 64.1272 83.2679 64.1272C83.2539 64 83.2656 63.9104 83.2352 63.835C82.0352 60.7931 80.8235 57.7536 79.6328 54.7094C79.4927 54.3512 79.2989 54.2452 78.9253 54.2475C75.0591 54.2617 71.1928 54.257 67.1888 54.257V54.2546Z" fill="#C7C7C7"/>
<path d="M21.4634 22.3018C21.4634 20.4521 21.4517 18.6001 21.4657 16.7505C21.4891 13.8971 23.5413 11.8048 26.3546 11.7435C26.7912 11.7341 27.2325 11.6964 27.6644 11.7459C30.3049 12.0569 32.6373 11.2628 34.9931 10.0871C41.061 7.05931 47.2059 4.19178 53.3369 1.29127C57.0584 -0.468837 60.5908 1.84498 60.5978 6.01079C60.6025 8.2445 60.6095 10.4758 60.5885 12.7096C60.5838 13.1879 60.6936 13.407 61.1955 13.5696C65.0688 14.8325 67.581 18.2962 67.5833 22.297C67.588 26.3003 65.0898 29.7309 61.1979 31.0198C60.7309 31.1753 60.5768 31.3732 60.5838 31.8728C60.6142 34.1347 60.6025 36.3967 60.5955 38.6587C60.5815 42.7468 57.0047 45.0629 53.3369 43.3217C46.4495 40.0512 39.5714 36.7572 32.7027 33.4491C31.8949 33.0603 31.0964 32.8694 30.1976 32.8765C28.659 32.8883 27.1087 33.0367 25.5795 32.787C23.1631 32.3935 21.4984 30.419 21.4704 27.9426C21.4494 26.0623 21.4657 24.182 21.4657 22.3018H21.4634ZM56.4 22.3112C56.4 20.6383 56.4 18.9653 56.4 17.2924C56.4 13.506 56.4047 9.7195 56.3954 5.93304C56.3954 4.96698 55.9915 4.70544 55.1346 5.09658C54.4202 5.42174 53.7361 5.82465 53.0054 6.09797C52.3563 6.34066 52.1695 6.70352 52.1719 7.40097C52.1976 17.1746 52.2116 26.9506 52.1579 36.7242C52.1509 37.8105 52.431 38.4019 53.442 38.7082C53.9369 38.859 54.3875 39.1535 54.8615 39.3773C56.0405 39.9334 56.3977 39.7143 56.3977 38.4254C56.3977 33.0532 56.3977 27.681 56.3977 22.3112H56.4ZM29.8473 22.3465C29.8473 20.438 29.8333 18.5271 29.8567 16.6185C29.8614 16.1426 29.7586 15.9329 29.238 15.9564C28.3671 15.9965 27.4916 15.98 26.6184 15.9635C25.9741 15.9517 25.6472 16.2086 25.6495 16.8942C25.6612 20.5063 25.6589 24.1208 25.6495 27.7329C25.6495 28.362 25.946 28.6542 26.5484 28.6589C27.4216 28.6636 28.2971 28.6306 29.1679 28.673C29.7049 28.6989 29.8684 28.5316 29.859 27.985C29.8263 26.1047 29.8473 24.2268 29.8473 22.3465Z" fill="#8C8CAE"/>
<path d="M31.9042 45.5864C30.6225 45.5864 29.343 45.5981 28.0613 45.584C26.4714 45.5675 25.6612 44.7334 25.6565 43.117C25.6495 40.9139 25.6869 38.7085 25.6355 36.5054C25.6192 35.8104 25.8713 35.7679 26.469 35.6878C29.7843 35.2354 32.691 36.3452 35.5044 37.9145C36.3659 38.3951 37.5612 38.5931 38.0679 39.307C38.6072 40.0657 38.1823 41.2933 38.229 42.3135C38.2406 42.5774 38.2336 42.8413 38.229 43.1076C38.215 44.764 37.4071 45.5746 35.7448 45.5864C34.4631 45.5958 33.1837 45.5864 31.9019 45.5864H31.9042Z" fill="#8C8CAE"/>
<path d="M17.2749 10.4173C17.2282 11.2326 16.892 11.8899 16.1589 12.2717C15.3651 12.6864 14.583 12.5945 13.8592 12.0737C11.7323 10.5445 9.60772 9.00828 7.48313 7.47673C6.44418 6.72745 5.39823 5.98759 4.36629 5.22889C3.24562 4.40421 2.9748 3.20017 3.66587 2.17757C4.36395 1.14554 5.64804 0.966467 6.80606 1.7935C9.95559 4.0437 13.0911 6.31746 16.2336 8.57709C16.864 9.02948 17.2376 9.61854 17.2749 10.4173Z" fill="#C7C7C7"/>
<path d="M17.2749 35.8104C17.2282 36.5526 16.9364 37.1322 16.355 37.5517C13.1215 39.8867 9.89488 42.2335 6.64496 44.5449C5.6317 45.266 4.36862 45.035 3.70089 44.102C2.9958 43.1194 3.19425 41.8565 4.24721 41.0907C7.4481 38.7604 10.6677 36.456 13.8826 34.1446C14.6063 33.6238 15.3791 33.5343 16.1729 33.9678C16.9037 34.366 17.2305 35.0187 17.2749 35.8104Z" fill="#C7C7C7"/>
<path d="M85.7474 42.7588C85.7287 44.5283 83.9636 45.5062 82.5395 44.6296C81.797 44.1725 81.1083 43.6283 80.4009 43.1193C77.849 41.2814 75.2972 39.4459 72.75 37.601C71.9702 37.0379 71.62 36.2697 71.8395 35.306C72.0356 34.446 72.7407 33.8405 73.6162 33.7203C74.1929 33.6402 74.7042 33.8169 75.1711 34.1515C78.3837 36.4653 81.5986 38.7768 84.8088 41.0929C85.4135 41.5288 85.7334 42.1273 85.7497 42.7612L85.7474 42.7588Z" fill="#C7C7C7"/>
<path d="M85.7544 3.34374C85.717 4.09302 85.4299 4.67972 84.8509 5.09913C81.6196 7.43651 78.393 9.78096 75.1431 12.0948C74.1228 12.8205 72.8738 12.6061 72.1944 11.6801C71.4753 10.6999 71.6597 9.43224 72.7127 8.66646C75.9346 6.3173 79.1775 3.99406 82.4181 1.67082C83.1138 1.17365 83.8679 1.11475 84.6361 1.52002C85.3738 1.91115 85.7007 2.56147 85.7544 3.34374Z" fill="#C7C7C7"/>
<path d="M10.2918 25.2261C8.75088 25.2261 7.20997 25.2402 5.66672 25.2214C4.20286 25.2049 3.28765 24.3684 3.29466 23.1031C3.30166 21.8473 4.23788 21.0014 5.68774 20.9943C8.79991 20.9825 11.9121 20.9755 15.0243 20.999C16.2476 21.0084 17.0905 21.7389 17.2492 22.818C17.3893 23.7629 16.8383 24.7124 15.9441 25.0753C15.5542 25.2332 15.148 25.2237 14.7418 25.2261C13.2592 25.2308 11.7743 25.2261 10.2918 25.2261Z" fill="#C7C7C7"/>
<path d="M78.7012 25.2261C77.1883 25.2261 75.6754 25.2403 74.1648 25.2214C72.6963 25.2049 71.7788 24.3826 71.7764 23.1173C71.7741 21.8614 72.7127 20.999 74.1532 20.992C77.235 20.9778 80.3191 20.9755 83.401 20.992C84.8321 20.999 85.7684 21.8897 85.745 23.1479C85.724 24.3802 84.8228 25.1978 83.4103 25.2167C81.839 25.2379 80.2701 25.2214 78.6989 25.2214L78.7012 25.2261Z" fill="#C7C7C7"/>
<path d="M52.9073 75.4113C53.7805 75.4113 54.6513 75.3996 55.5245 75.4137C56.874 75.4349 57.8079 76.3232 57.7939 77.5508C57.7799 78.7454 56.8623 79.6266 55.5666 79.6384C53.7945 79.6549 52.0201 79.6549 50.2481 79.6384C48.95 79.6266 48.0348 78.7454 48.0208 77.5508C48.0067 76.3562 48.9243 75.4585 50.2037 75.4137C50.2621 75.4137 50.3205 75.4137 50.3788 75.4137C51.2217 75.4137 52.0645 75.4137 52.9073 75.4137V75.4113Z" fill="#C7C7C7"/>
</svg>
