<svg width="20" height="20" viewBox="0 0 20 20" fill="none" xmlns="http://www.w3.org/2000/svg">
<g clip-path="url(#clip0_246_1364)">
<mask id="path-1-outside-1_246_1364" maskUnits="userSpaceOnUse" x="0" y="0" width="20" height="20" fill="black">
<rect fill="white" width="20" height="20"/>
<path d="M10 19C14.9662 19 19 14.9662 19 10C19 5.0338 14.9662 1 10 1C5.0338 1 1 5.0338 1 10C1 14.9662 5.0338 19 10 19ZM10 18.2174C5.4572 18.2174 1.78261 14.5428 1.78261 10C1.78261 5.4572 5.4572 1.78261 10 1.78261C14.5428 1.78261 18.2174 5.4572 18.2174 10C18.2174 14.5428 14.5428 18.2174 10 18.2174ZM13.135 13.5263C13.294 13.5248 13.4361 13.4285 13.4973 13.2818C13.5569 13.1335 13.5217 12.9654 13.4071 12.8538L7.8142 7.26087H11.2962C11.4383 7.2624 11.5698 7.18903 11.6401 7.06675C11.712 6.94446 11.712 6.79467 11.6401 6.67238C11.5698 6.5501 11.4383 6.47673 11.2962 6.47826H6.92918C6.80384 6.45686 6.67697 6.49813 6.58679 6.58679C6.49813 6.67697 6.45686 6.80384 6.47826 6.92918V11.2962C6.47673 11.4032 6.518 11.5041 6.5929 11.579C6.6678 11.6539 6.77021 11.6951 6.87568 11.6936C7.0912 11.6906 7.26393 11.5132 7.26087 11.2962V7.8142L12.8538 13.4071C12.9271 13.4835 13.028 13.5248 13.135 13.5263Z"/>
</mask>
<path d="M10 19C14.9662 19 19 14.9662 19 10C19 5.0338 14.9662 1 10 1C5.0338 1 1 5.0338 1 10C1 14.9662 5.0338 19 10 19ZM10 18.2174C5.4572 18.2174 1.78261 14.5428 1.78261 10C1.78261 5.4572 5.4572 1.78261 10 1.78261C14.5428 1.78261 18.2174 5.4572 18.2174 10C18.2174 14.5428 14.5428 18.2174 10 18.2174ZM13.135 13.5263C13.294 13.5248 13.4361 13.4285 13.4973 13.2818C13.5569 13.1335 13.5217 12.9654 13.4071 12.8538L7.8142 7.26087H11.2962C11.4383 7.2624 11.5698 7.18903 11.6401 7.06675C11.712 6.94446 11.712 6.79467 11.6401 6.67238C11.5698 6.5501 11.4383 6.47673 11.2962 6.47826H6.92918C6.80384 6.45686 6.67697 6.49813 6.58679 6.58679C6.49813 6.67697 6.45686 6.80384 6.47826 6.92918V11.2962C6.47673 11.4032 6.518 11.5041 6.5929 11.579C6.6678 11.6539 6.77021 11.6951 6.87568 11.6936C7.0912 11.6906 7.26393 11.5132 7.26087 11.2962V7.8142L12.8538 13.4071C12.9271 13.4835 13.028 13.5248 13.135 13.5263Z" fill="#0CAC9E"/>
<path d="M10 19C14.9662 19 19 14.9662 19 10C19 5.0338 14.9662 1 10 1C5.0338 1 1 5.0338 1 10C1 14.9662 5.0338 19 10 19ZM10 18.2174C5.4572 18.2174 1.78261 14.5428 1.78261 10C1.78261 5.4572 5.4572 1.78261 10 1.78261C14.5428 1.78261 18.2174 5.4572 18.2174 10C18.2174 14.5428 14.5428 18.2174 10 18.2174ZM13.135 13.5263C13.294 13.5248 13.4361 13.4285 13.4973 13.2818C13.5569 13.1335 13.5217 12.9654 13.4071 12.8538L7.8142 7.26087H11.2962C11.4383 7.2624 11.5698 7.18903 11.6401 7.06675C11.712 6.94446 11.712 6.79467 11.6401 6.67238C11.5698 6.5501 11.4383 6.47673 11.2962 6.47826H6.92918C6.80384 6.45686 6.67697 6.49813 6.58679 6.58679C6.49813 6.67697 6.45686 6.80384 6.47826 6.92918V11.2962C6.47673 11.4032 6.518 11.5041 6.5929 11.579C6.6678 11.6539 6.77021 11.6951 6.87568 11.6936C7.0912 11.6906 7.26393 11.5132 7.26087 11.2962V7.8142L12.8538 13.4071C12.9271 13.4835 13.028 13.5248 13.135 13.5263Z" stroke="#0CAC9E" stroke-width="0.6" mask="url(#path-1-outside-1_246_1364)"/>
</g>
<defs>
<clipPath id="clip0_246_1364">
<rect width="20" height="20" fill="white" transform="matrix(-1 0 0 -1 20 20)"/>
</clipPath>
</defs>
</svg>
