<svg width="21" height="20" viewBox="0 0 21 20" fill="none" xmlns="http://www.w3.org/2000/svg">
<g id="Cursor, Select, Hand/Cursor, Select, Hand">
<g id="Group">
<g id="Group_2">
<path id="Path" fill-rule="evenodd" clip-rule="evenodd" d="M11.1172 10.8677V6.96203C11.1172 6.2434 10.534 5.66016 9.81537 5.66016C9.09673 5.66016 8.51349 6.2434 8.51349 6.96203V13.4714L6.74989 12.8838C6.23521 12.712 5.66759 12.8465 5.28311 13.2301C4.68685 13.8264 4.73198 14.8045 5.37858 15.3444L8.89798 18.2771C9.2113 18.5366 9.60446 18.6789 10.0098 18.6789H13.9241C14.7998 18.6789 15.5375 18.0271 15.6469 17.1583L16.1182 13.389C16.2336 12.4646 15.5992 11.6149 14.6809 11.4613L11.1172 10.8677Z" stroke="#EC8E00" stroke-width="1.3" stroke-linecap="round" stroke-linejoin="round"/>
<path id="Path_2" d="M4.60938 6.5282H5.47729" stroke="#EC8E00" stroke-width="1.3" stroke-linecap="round" stroke-linejoin="round"/>
<path id="Path_3" d="M15.0242 6.5282H14.1562" stroke="#EC8E00" stroke-width="1.3" stroke-linecap="round" stroke-linejoin="round"/>
<path id="Path_4" d="M13.496 2.84845L12.8798 3.45599" stroke="#EC8E00" stroke-width="1.3" stroke-linecap="round" stroke-linejoin="round"/>
<path id="Path_5" d="M6.12975 2.84845L6.74597 3.45599" stroke="#EC8E00" stroke-width="1.3" stroke-linecap="round" stroke-linejoin="round"/>
<path id="Path_6" d="M9.81701 1.3208V2.18872" stroke="#EC8E00" stroke-width="1.3" stroke-linecap="round" stroke-linejoin="round"/>
</g>
</g>
</g>
</svg>
