<svg width="21" height="20" viewBox="0 0 21 20" fill="none" xmlns="http://www.w3.org/2000/svg">
<mask id="path-1-outside-1_246_1370" maskUnits="userSpaceOnUse" x="0.5" y="0" width="20" height="20" fill="black">
<rect fill="white" x="0.5" width="20" height="20"/>
<path d="M10.5 1C5.5338 1 1.5 5.0338 1.5 10C1.5 14.9662 5.5338 19 10.5 19C15.4662 19 19.5 14.9662 19.5 10C19.5 5.0338 15.4662 1 10.5 1ZM10.5 1.78261C15.0428 1.78261 18.7174 5.4572 18.7174 10C18.7174 14.5428 15.0428 18.2174 10.5 18.2174C5.9572 18.2174 2.28261 14.5428 2.28261 10C2.28261 5.4572 5.9572 1.78261 10.5 1.78261ZM7.36498 6.47368C7.20601 6.4752 7.06386 6.5715 7.00272 6.71824C6.9431 6.86651 6.97826 7.03465 7.0929 7.14623L12.6858 12.7391H9.2038C9.06165 12.7376 8.9302 12.811 8.85988 12.9333C8.78804 13.0555 8.78804 13.2053 8.85988 13.3276C8.9302 13.4499 9.06165 13.5233 9.2038 13.5217H13.5708C13.6962 13.5431 13.823 13.5019 13.9132 13.4132C14.0019 13.323 14.0431 13.1962 14.0217 13.0708V8.7038C14.0233 8.59681 13.982 8.49592 13.9071 8.42103C13.8322 8.34613 13.7298 8.30486 13.6243 8.30639C13.4088 8.30944 13.2361 8.48675 13.2391 8.7038V12.1858L7.64623 6.5929C7.57286 6.51647 7.47198 6.4752 7.36498 6.47368Z"/>
</mask>
<path d="M10.5 1C5.5338 1 1.5 5.0338 1.5 10C1.5 14.9662 5.5338 19 10.5 19C15.4662 19 19.5 14.9662 19.5 10C19.5 5.0338 15.4662 1 10.5 1ZM10.5 1.78261C15.0428 1.78261 18.7174 5.4572 18.7174 10C18.7174 14.5428 15.0428 18.2174 10.5 18.2174C5.9572 18.2174 2.28261 14.5428 2.28261 10C2.28261 5.4572 5.9572 1.78261 10.5 1.78261ZM7.36498 6.47368C7.20601 6.4752 7.06386 6.5715 7.00272 6.71824C6.9431 6.86651 6.97826 7.03465 7.0929 7.14623L12.6858 12.7391H9.2038C9.06165 12.7376 8.9302 12.811 8.85988 12.9333C8.78804 13.0555 8.78804 13.2053 8.85988 13.3276C8.9302 13.4499 9.06165 13.5233 9.2038 13.5217H13.5708C13.6962 13.5431 13.823 13.5019 13.9132 13.4132C14.0019 13.323 14.0431 13.1962 14.0217 13.0708V8.7038C14.0233 8.59681 13.982 8.49592 13.9071 8.42103C13.8322 8.34613 13.7298 8.30486 13.6243 8.30639C13.4088 8.30944 13.2361 8.48675 13.2391 8.7038V12.1858L7.64623 6.5929C7.57286 6.51647 7.47198 6.4752 7.36498 6.47368Z" fill="#F43F5E"/>
<path d="M10.5 1C5.5338 1 1.5 5.0338 1.5 10C1.5 14.9662 5.5338 19 10.5 19C15.4662 19 19.5 14.9662 19.5 10C19.5 5.0338 15.4662 1 10.5 1ZM10.5 1.78261C15.0428 1.78261 18.7174 5.4572 18.7174 10C18.7174 14.5428 15.0428 18.2174 10.5 18.2174C5.9572 18.2174 2.28261 14.5428 2.28261 10C2.28261 5.4572 5.9572 1.78261 10.5 1.78261ZM7.36498 6.47368C7.20601 6.4752 7.06386 6.5715 7.00272 6.71824C6.9431 6.86651 6.97826 7.03465 7.0929 7.14623L12.6858 12.7391H9.2038C9.06165 12.7376 8.9302 12.811 8.85988 12.9333C8.78804 13.0555 8.78804 13.2053 8.85988 13.3276C8.9302 13.4499 9.06165 13.5233 9.2038 13.5217H13.5708C13.6962 13.5431 13.823 13.5019 13.9132 13.4132C14.0019 13.323 14.0431 13.1962 14.0217 13.0708V8.7038C14.0233 8.59681 13.982 8.49592 13.9071 8.42103C13.8322 8.34613 13.7298 8.30486 13.6243 8.30639C13.4088 8.30944 13.2361 8.48675 13.2391 8.7038V12.1858L7.64623 6.5929C7.57286 6.51647 7.47198 6.4752 7.36498 6.47368Z" stroke="#F43F5E" stroke-width="0.6" mask="url(#path-1-outside-1_246_1370)"/>
</svg>
