<svg width="204" height="120" viewBox="0 0 154 70" fill="none" xmlns="http://www.w3.org/2000/svg">
<g clip-path="url(#clip0_1473_2503)">
<path d="M103.12 39.39H93.18L91.53 44.15H86.27L95.25 19.15H101.08L110.06 44.15H104.77L103.12 39.39ZM101.76 35.38L98.15 24.94L94.54 35.38H101.76Z" fill="black"/>
<path d="M113.33 28.84C114.13 27.29 115.22 26.1 116.6 25.26C117.98 24.43 119.52 24.01 121.21 24.01C122.5 24.01 123.73 24.29 124.89 24.85C126.05 25.41 126.99 26.16 127.68 27.08V17.67H132.76V44.13H127.68V41.2C127.06 42.18 126.19 42.96 125.07 43.56C123.95 44.16 122.65 44.45 121.17 44.45C119.5 44.45 117.98 44.02 116.59 43.16C115.21 42.3 114.12 41.09 113.32 39.53C112.52 37.97 112.12 36.17 112.12 34.15C112.12 32.13 112.52 30.37 113.32 28.82L113.33 28.84ZM127.01 31.11C126.53 30.24 125.89 29.57 125.08 29.11C124.27 28.65 123.4 28.41 122.47 28.41C121.54 28.41 120.68 28.64 119.89 29.09C119.1 29.54 118.47 30.2 117.98 31.07C117.49 31.94 117.25 32.97 117.25 34.16C117.25 35.35 117.49 36.39 117.98 37.29C118.47 38.18 119.11 38.87 119.91 39.35C120.71 39.83 121.56 40.07 122.47 40.07C123.38 40.07 124.27 39.84 125.08 39.37C125.89 38.9 126.53 38.24 127.01 37.37C127.49 36.5 127.72 35.46 127.72 34.24C127.72 33.02 127.48 31.98 127.01 31.11Z" fill="black"/>
<path d="M140.89 43.59C139.6 43.01 138.58 42.21 137.83 41.21C137.08 40.21 136.67 39.1 136.6 37.88H141.64C141.73 38.64 142.11 39.27 142.77 39.78C143.43 40.28 144.24 40.53 145.22 40.53C146.2 40.53 146.92 40.34 147.46 39.96C148 39.58 148.26 39.09 148.26 38.49C148.26 37.85 147.93 37.36 147.28 37.04C146.62 36.72 145.58 36.37 144.15 35.98C142.67 35.62 141.46 35.25 140.52 34.87C139.58 34.49 138.77 33.9 138.09 33.12C137.41 32.34 137.07 31.27 137.07 29.94C137.07 28.84 137.39 27.84 138.02 26.94C138.65 26.03 139.56 25.32 140.74 24.79C141.92 24.27 143.31 24 144.91 24C147.27 24 149.15 24.59 150.56 25.77C151.97 26.95 152.74 28.54 152.89 30.54H148.1C148.03 29.75 147.7 29.13 147.12 28.66C146.54 28.19 145.75 27.96 144.78 27.96C143.87 27.96 143.18 28.13 142.69 28.46C142.2 28.79 141.96 29.26 141.96 29.86C141.96 30.53 142.29 31.03 142.96 31.38C143.63 31.73 144.66 32.08 146.07 32.43C147.5 32.79 148.68 33.16 149.61 33.54C150.54 33.92 151.35 34.51 152.02 35.31C152.7 36.11 153.05 37.16 153.08 38.48C153.08 39.62 152.76 40.65 152.13 41.56C151.5 42.47 150.59 43.18 149.41 43.69C148.23 44.2 146.85 44.46 145.28 44.46C143.71 44.46 142.2 44.17 140.92 43.58L140.89 43.59Z" fill="black"/>
<path d="M52.8601 57.9199C53.3901 57.6099 54.0001 57.45 54.7001 57.45C55.4001 57.45 56.0701 57.62 56.6601 57.97C57.2501 58.32 57.7101 58.8 58.0401 59.43C58.3701 60.06 58.5401 60.78 58.5401 61.61C58.5401 62.44 58.3701 63.1599 58.0401 63.7999C57.7101 64.4399 57.2401 64.94 56.6601 65.29C56.0701 65.64 55.4201 65.82 54.7001 65.82C53.9801 65.82 53.4001 65.6599 52.8701 65.3499C52.3401 65.0399 51.9401 64.65 51.6601 64.19V69.5299H50.3101V57.57H51.6601V59.06C51.9301 58.6 52.3201 58.21 52.8501 57.9L52.8601 57.9199ZM56.8001 60.0099C56.5501 59.5599 56.2201 59.21 55.8001 58.97C55.3801 58.73 54.9201 58.6199 54.4201 58.6199C53.9201 58.6199 53.4701 58.7399 53.0501 58.9799C52.6301 59.2199 52.3001 59.5699 52.0401 60.0299C51.7901 60.4899 51.6601 61.0199 51.6601 61.6199C51.6601 62.2199 51.7801 62.7699 52.0401 63.2299C52.2901 63.6899 52.6301 64.0399 53.0501 64.2799C53.4701 64.5199 53.9301 64.6399 54.4201 64.6399C54.9101 64.6399 55.3801 64.5199 55.8001 64.2799C56.2201 64.0399 56.5501 63.6899 56.8001 63.2299C57.0501 62.7699 57.1701 62.23 57.1701 61.61C57.1701 60.99 57.0501 60.4699 56.8001 60.0099Z" fill="black"/>
<path d="M61.8001 65.31C61.1801 64.96 60.7001 64.47 60.3501 63.84C60.0001 63.2 59.8301 62.47 59.8301 61.63C59.8301 60.79 60.0101 60.07 60.3701 59.43C60.7301 58.79 61.2201 58.31 61.8401 57.97C62.4601 57.63 63.1601 57.46 63.9301 57.46C64.7001 57.46 65.3901 57.63 66.0201 57.97C66.6401 58.31 67.1301 58.8 67.4901 59.43C67.8501 60.06 68.0301 60.8 68.0301 61.63C68.0301 62.46 67.8401 63.21 67.4801 63.84C67.1101 64.48 66.6101 64.97 65.9801 65.31C65.3501 65.66 64.6501 65.83 63.8801 65.83C63.1101 65.83 62.4301 65.66 61.8201 65.31H61.8001ZM65.2301 64.3C65.6501 64.07 66.0001 63.73 66.2601 63.28C66.5201 62.83 66.6501 62.27 66.6501 61.62C66.6501 60.97 66.5201 60.42 66.2701 59.96C66.0101 59.51 65.6801 59.17 65.2601 58.95C64.8501 58.73 64.4001 58.62 63.9101 58.62C63.4201 58.62 62.9601 58.73 62.5601 58.95C62.1501 59.17 61.8201 59.51 61.5801 59.96C61.3301 60.41 61.2101 60.97 61.2101 61.62C61.2101 62.27 61.3301 62.84 61.5701 63.29C61.8101 63.74 62.1301 64.08 62.5401 64.3C62.9401 64.52 63.3901 64.63 63.8701 64.63C64.3501 64.63 64.8101 64.52 65.2301 64.29V64.3Z" fill="black"/>
<path d="M80.6001 57.59L78.0701 65.7H76.6801L74.7301 59.26L72.7801 65.7H71.3901L68.8501 57.59H70.2301L72.0901 64.4L74.1001 57.59H75.4801L77.4501 64.41L79.2801 57.59H80.6101H80.6001Z" fill="black"/>
<path d="M89.28 62.14H82.8C82.85 62.94 83.12 63.56 83.62 64.01C84.12 64.46 84.72 64.68 85.43 64.68C86.01 64.68 86.5 64.54 86.89 64.27C87.28 64 87.55 63.64 87.71 63.18H89.16C88.94 63.96 88.51 64.59 87.86 65.08C87.21 65.57 86.4 65.81 85.43 65.81C84.66 65.81 83.97 65.64 83.37 65.29C82.76 64.94 82.29 64.45 81.94 63.82C81.59 63.18 81.42 62.45 81.42 61.61C81.42 60.77 81.59 60.04 81.92 59.41C82.25 58.78 82.73 58.29 83.33 57.95C83.93 57.61 84.63 57.44 85.42 57.44C86.21 57.44 86.87 57.61 87.46 57.94C88.05 58.27 88.51 58.74 88.83 59.32C89.15 59.91 89.31 60.57 89.31 61.31C89.31 61.57 89.3 61.84 89.27 62.12L89.28 62.14ZM87.59 59.72C87.36 59.35 87.05 59.07 86.67 58.88C86.29 58.69 85.85 58.59 85.38 58.59C84.7 58.59 84.12 58.81 83.64 59.24C83.16 59.67 82.89 60.28 82.82 61.05H87.94C87.94 60.54 87.83 60.1 87.6 59.73L87.59 59.72Z" fill="black"/>
<path d="M93.4601 57.82C93.9001 57.56 94.4301 57.44 95.0701 57.44V58.83H94.7201C93.2101 58.83 92.4601 59.65 92.4601 61.29V65.7H91.1101V57.59H92.4601V58.91C92.7001 58.45 93.0301 58.09 93.4701 57.83L93.4601 57.82Z" fill="black"/>
<path d="M103.97 62.14H97.4901C97.5401 62.94 97.8101 63.56 98.3101 64.01C98.8101 64.46 99.4101 64.68 100.12 64.68C100.7 64.68 101.19 64.54 101.58 64.27C101.97 64 102.24 63.64 102.4 63.18H103.85C103.63 63.96 103.2 64.59 102.55 65.08C101.9 65.57 101.09 65.81 100.12 65.81C99.3501 65.81 98.6601 65.64 98.0601 65.29C97.4501 64.94 96.9801 64.45 96.6301 63.82C96.2801 63.18 96.1101 62.45 96.1101 61.61C96.1101 60.77 96.2801 60.04 96.6101 59.41C96.9401 58.78 97.4201 58.29 98.0201 57.95C98.6201 57.61 99.3201 57.44 100.11 57.44C100.9 57.44 101.56 57.61 102.15 57.94C102.74 58.27 103.2 58.74 103.52 59.32C103.84 59.91 104 60.57 104 61.31C104 61.57 103.99 61.84 103.96 62.12L103.97 62.14ZM102.28 59.72C102.05 59.35 101.74 59.07 101.36 58.88C100.98 58.69 100.54 58.59 100.07 58.59C99.3901 58.59 98.8101 58.81 98.3301 59.24C97.8501 59.67 97.5801 60.28 97.5101 61.05H102.63C102.63 60.54 102.52 60.1 102.29 59.73L102.28 59.72Z" fill="black"/>
<path d="M105.8 59.43C106.13 58.8 106.6 58.32 107.18 57.97C107.77 57.62 108.43 57.45 109.16 57.45C109.79 57.45 110.38 57.6 110.92 57.89C111.46 58.18 111.88 58.56 112.16 59.04V54.75H113.52V65.7H112.16V64.18C111.89 64.66 111.5 65.06 110.98 65.37C110.46 65.68 109.85 65.84 109.15 65.84C108.45 65.84 107.78 65.66 107.19 65.31C106.6 64.95 106.14 64.46 105.81 63.82C105.47 63.18 105.31 62.45 105.31 61.63C105.31 60.81 105.48 60.07 105.81 59.45L105.8 59.43ZM111.79 60.03C111.54 59.58 111.21 59.23 110.79 58.99C110.37 58.75 109.91 58.63 109.41 58.63C108.91 58.63 108.45 58.75 108.03 58.98C107.61 59.22 107.28 59.56 107.04 60.02C106.79 60.47 106.67 61.01 106.67 61.62C106.67 62.23 106.79 62.78 107.04 63.24C107.29 63.7 107.62 64.05 108.03 64.29C108.44 64.53 108.9 64.65 109.41 64.65C109.92 64.65 110.37 64.53 110.79 64.29C111.21 64.05 111.54 63.7 111.79 63.24C112.04 62.78 112.16 62.25 112.16 61.63C112.16 61.01 112.04 60.49 111.79 60.03Z" fill="black"/>
<path d="M122.31 57.91C122.84 57.6 123.45 57.45 124.13 57.45C124.86 57.45 125.52 57.62 126.1 57.97C126.68 58.32 127.14 58.8 127.48 59.43C127.82 60.06 127.98 60.78 127.98 61.61C127.98 62.44 127.81 63.16 127.48 63.8C127.15 64.44 126.68 64.94 126.1 65.29C125.51 65.64 124.86 65.82 124.14 65.82C123.42 65.82 122.83 65.67 122.3 65.36C121.77 65.05 121.38 64.66 121.11 64.19V65.68H119.76V54.73H121.11V59.08C121.39 58.6 121.79 58.2 122.32 57.9L122.31 57.91ZM126.23 60.01C125.98 59.56 125.65 59.21 125.23 58.97C124.81 58.73 124.35 58.62 123.85 58.62C123.35 58.62 122.9 58.74 122.48 58.98C122.06 59.22 121.73 59.57 121.47 60.03C121.22 60.49 121.09 61.02 121.09 61.62C121.09 62.22 121.21 62.77 121.47 63.23C121.72 63.69 122.06 64.04 122.48 64.28C122.9 64.52 123.36 64.64 123.85 64.64C124.34 64.64 124.81 64.52 125.23 64.28C125.65 64.04 125.98 63.69 126.23 63.23C126.48 62.77 126.6 62.23 126.6 61.61C126.6 60.99 126.48 60.47 126.23 60.01Z" fill="black"/>
<path d="M136.74 57.59L131.86 69.52H130.47L132.07 65.61L128.8 57.59H130.29L132.83 64.16L135.35 57.59H136.74Z" fill="black"/>
<path d="M148.13 63.4H143.63L142.8 65.69H141.38L145.11 55.44H146.66L150.37 65.69H148.95L148.12 63.4H148.13ZM147.75 62.3L145.89 57.09L144.03 62.3H147.76H147.75Z" fill="black"/>
<path d="M153.35 55.38V65.69H152V55.38H153.35Z" fill="black"/>
<path d="M37.73 64.43C37.56 65.38 37.12 66.12 36.17 66.47C35.01 66.69 34.18 66.23 33.6 65.24C33.05 64.29 32.49 63.3399 31.93 62.3899C31.48 61.6099 31.03 60.84 30.58 60.06C30.19 59.39 29.88 58.68 29.39 58.08C29.38 57.94 29.39 57.79 29.2 57.75C28.85 56.87 28.3 56.1 27.83 55.29C27.43 54.62 27.13 53.8799 26.6 53.2799C26.56 53.1799 26.53 53.0799 26.49 52.9799C26.08 52.3099 25.79 51.57 25.27 50.97C24.42 49.21 23.32 47.5899 22.38 45.8899C22.21 45.5499 21.92 45.66 21.66 45.7C19.13 46.04 16.6 46.3899 14.07 46.7299C13.57 46.7699 13.08 46.82 12.58 46.86C11.9 46.79 11.23 46.72 10.55 46.65C9.70004 46.4 8.85004 46.16 8.00004 45.91V45.9399C7.93004 45.8999 7.86004 45.85 7.79004 45.81C7.73004 45.77 7.66004 45.7299 7.60004 45.6899C6.82004 45.2299 6.05004 44.78 5.27004 44.32C4.99004 44.09 4.71004 43.8499 4.44004 43.6199C3.12004 42.2899 2.05004 40.7999 1.36004 39.0499L0.700044 36.6399C0.590044 35.8299 0.480044 35.01 0.370044 34.2C0.260044 33.38 0.150044 32.56 0.0400436 31.74C0.0400436 30.75 -0.0699564 29.75 0.0900436 28.76C0.230044 28.07 0.380044 27.38 0.520044 26.69C0.530044 26.64 0.540044 26.59 0.540044 26.53C0.930044 25.7 1.32004 24.8699 1.70004 24.0499C2.05004 23.6699 2.30004 23.23 2.54004 22.78C3.08004 22.33 3.56004 21.81 3.99004 21.26C4.19004 21.12 4.38004 20.97 4.58004 20.83C5.26004 20.31 5.99004 19.8699 6.74004 19.4799C8.07004 18.8799 9.45004 18.4699 10.9 18.3099C11.99 18.1899 13.07 18.02 14.16 17.86L16.62 17.53L19.06 17.2L21.52 16.87C22.33 16.76 23.15 16.65 23.96 16.54C25.07 16.4 26.19 16.29 27.3 16.12C28.48 15.94 29.67 15.79 30.78 15.32C31.11 15.27 31.43 15.22 31.76 15.16C32.41 14.96 33.07 14.78 33.67 14.44C34.53 14.32 35.27 13.9 36.05 13.57C36.8 13.25 37.57 12.98 38.25 12.52C39.01 12.22 39.75 11.88 40.4 11.38C40.55 11.38 40.66 11.3 40.72 11.17C41.58 10.86 42.28 10.3 43.03 9.81995C43.73 9.41995 44.41 8.97995 45.01 8.43995C45.16 8.34995 45.31 8.25995 45.46 8.16995C46.11 7.77995 46.74 7.34995 47.28 6.80995C47.38 6.79995 47.46 6.76995 47.47 6.64995L47.45 6.67995C48.18 6.30995 48.77 5.73995 49.38 5.20995C49.54 5.07995 49.7 4.95995 49.85 4.82995C50.68 4.12995 51.53 3.47995 52.29 2.66995C52.84 2.07995 53.68 1.63995 54.32 1.04995C54.77 0.709951 55.23 0.379951 55.68 0.0399511C57.16 -0.140049 57.86 0.239951 58.4 1.49995C59.05 6.28995 59.72 11.08 60.33 15.88C60.43 16.63 60.64 17.05 61.44 16.99C62.35 17.15 63.18 17.5599 64.05 17.8799C64.11 17.9199 64.18 17.96 64.24 18C64.28 18.04 64.32 18.0599 64.38 18.0499L64.36 18.01C64.39 18.12 64.46 18.17 64.57 18.17H64.55C65.28 18.75 66.07 19.27 66.67 20C66.72 20.05 66.78 20.1 66.83 20.15C67.46 21.02 68.04 21.9 68.41 22.91C68.71 23.81 68.88 24.73 68.95 25.67L68.98 27.33C68.76 28.26 68.56 29.2 68.19 30.09C68.14 30.2 68.09 30.32 68.05 30.43C67.54 31.16 67.03 31.8899 66.52 32.6199C66.38 32.7599 66.23 32.8999 66.09 33.0299C65.41 33.6799 64.59 34.14 63.81 34.65C63.48 34.74 63.16 34.83 62.93 35.11C62.93 35.19 62.9 35.2699 62.91 35.3499C63.57 40.2699 64.24 45.1999 64.91 50.1199C64.92 50.3399 64.94 50.56 64.95 50.77C64.69 51.35 64.31 51.83 63.83 52.24C62.89 52.53 62.02 52.48 61.27 51.77C61.04 51.45 60.72 51.2299 60.38 51.0499C59.74 50.4699 59.07 49.93 58.32 49.49C58.07 49.23 57.75 49.09 57.44 48.95C56.81 48.52 56.15 48.15 55.44 47.88C53.99 47.05 52.47 46.42 50.84 46.02C49.03 45.26 47.11 44.8799 45.17 44.6199C44.46 44.3099 43.69 44.38 42.95 44.27C42.06 44.22 41.18 43.9399 40.27 44.0999C39.48 44.0499 38.7 44 37.91 43.95C35.93 44.05 33.95 43.9999 31.99 44.3899C30.23 44.3899 28.52 44.77 26.72 45C27.34 46.03 27.75 47.0199 28.44 47.8499C28.79 48.7299 29.34 49.5 29.81 50.31C30.21 50.98 30.51 51.72 31.04 52.32C31.08 52.42 31.11 52.5199 31.15 52.6199L32.37 54.63C33.23 56.32 34.22 57.94 35.21 59.56C35.56 60.32 35.98 61.05 36.48 61.72C36.8 62.65 37.58 63.36 37.67 64.39L37.73 64.43ZM32.37 19.4599L29.46 20.04C27.49 20.31 25.51 20.58 23.54 20.87C23.23 20.92 22.87 20.83 22.62 21.11C22.59 21.21 22.53 21.32 22.55 21.41C23.4 27.77 24.25 34.14 25.09 40.5C25.15 40.99 25.42 40.99 25.78 40.93C27.14 40.74 28.5 40.55 29.86 40.36C32.31 40 34.79 39.8499 37.26 39.7299C37.87 39.8999 38.49 39.7 39.1 39.79C40.15 39.82 41.21 39.8499 42.26 39.8899C43.03 40.1399 43.84 40.1099 44.64 40.2099C46.37 40.4399 48.07 40.8399 49.77 41.2099C50.64 41.4599 51.5 41.72 52.37 41.97C52.64 42.11 52.91 42.2499 53.23 42.2599C53.76 42.6599 54.41 42.7399 55 42.9799C56.65 43.7299 58.29 44.4799 59.83 45.4399C59.96 45.5199 60.15 45.64 60.11 45.31C60.1 45.15 60.09 44.98 60.07 44.82C58.38 32.1799 56.69 19.54 54.99 6.89995L54.9 6.19995C54.17 6.92995 53.38 7.34995 52.82 8.05995C51.26 9.21995 49.7 10.39 48.14 11.55C47.44 11.96 46.76 12.4 46.16 12.96C46.11 12.97 46.05 12.99 46 13C45.26 13.44 44.51 13.85 43.85 14.41C42.25 15.25 40.64 16.09 39.04 16.93C38.25 17.27 37.46 17.6099 36.67 17.9599C35.72 18.2899 34.78 18.6299 33.83 18.9599C33.36 19.1599 32.82 19.1499 32.39 19.4599H32.37ZM63.23 29.93C63.79 29.42 64.24 28.83 64.48 28.11C64.92 27.14 64.96 26.13 64.72 25.1C64.6 24.39 64.34 23.7399 63.82 23.2199C63.46 22.5799 62.96 22.09 62.29 21.77C61.95 21.57 61.63 21.3 61.15 21.35C61.56 24.38 61.96 27.3799 62.36 30.3799C62.36 30.4099 62.35 30.4399 62.36 30.4599C62.36 30.4799 62.39 30.51 62.4 30.5C62.76 30.44 62.99 30.18 63.22 29.93H63.23ZM19.99 34.06C19.87 33.19 19.76 32.3299 19.64 31.4599C19.54 30.6899 19.43 29.93 19.33 29.16C19.21 28.29 19.1 27.4299 18.98 26.5599C18.88 25.7899 18.77 25.03 18.67 24.26C18.59 23.58 18.47 22.8999 18.44 22.2199C18.41 21.6599 18.18 21.5599 17.66 21.6399C15.57 21.9499 13.47 22.18 11.38 22.5C9.93004 22.72 8.50004 23.09 7.36004 24.12C6.65004 24.52 6.14004 25.1099 5.74004 25.7999C5.48004 26.0099 5.33004 26.29 5.20004 26.59C4.84004 27.12 4.64004 27.72 4.47004 28.33C4.34004 29.05 4.10004 29.76 4.22004 30.49C4.56004 32.5 4.50004 34.5599 5.04004 36.5299C5.11004 37.1799 5.35004 37.76 5.75004 38.27C5.99004 39.1 6.53004 39.7099 7.17004 40.2599C7.29004 40.3499 7.40004 40.4399 7.52004 40.5299C8.11004 41.2199 8.85004 41.66 9.71004 41.91C10.52 42.37 11.4 42.49 12.31 42.52C12.53 42.5 12.75 42.4799 12.96 42.4599C13.04 42.4799 13.12 42.5299 13.19 42.5299C15.66 42.2299 18.13 41.9199 20.59 41.6199C20.92 41.5799 20.98 41.43 20.93 41.13C20.81 40.4 20.71 39.67 20.6 38.95C20.48 38.08 20.37 37.2199 20.25 36.3499C20.15 35.5799 20.04 34.8199 19.94 34.0499L19.99 34.06Z" fill="#006EF8"/>
<path d="M71.84 32.2899C71.49 30.4199 72.74 29.2599 74.6 29.7299C75.83 30.0299 77.07 30.2899 78.3 30.5699C78.58 30.6499 78.87 30.7399 79.15 30.8099C80.53 31.1899 81.96 31.3699 83.28 31.9299C83.53 32.1699 83.79 32.4099 84.04 32.6499C84.12 33.2199 84.41 33.7699 84.15 34.3799C83.68 35.4799 83.11 35.8099 81.49 35.7999C81.45 35.7099 81.39 35.6699 81.3 35.6999C80.5 35.5199 79.73 35.2199 78.91 35.1699C78.13 34.8499 77.31 34.6999 76.48 34.5399C75.43 34.2799 74.38 34.0299 73.34 33.7399C72.6 33.5299 72.05 33.0599 71.83 32.2899H71.84Z" fill="#006EF8"/>
<path d="M71.7101 24.9899C71.5701 24.1199 71.8201 23.3699 72.4101 22.7299C72.8601 22.3999 73.3701 22.2599 73.9201 22.1899C76.4201 21.8699 78.9101 21.5399 81.4101 21.1999C82.8701 21.0099 83.7001 21.5499 84.1301 22.9899C83.9201 24.6499 83.3601 25.2199 81.7301 25.4399C81.1901 25.5099 80.6601 25.5999 80.1201 25.6799C79.2801 25.6199 78.4701 25.7299 77.6801 26.0099C77.6201 26.0199 77.5701 26.0299 77.5101 26.0399C76.5701 26.1299 75.6101 26.1399 74.6901 26.3199C73.3401 26.5899 72.3701 26.1799 71.7101 24.9799V24.9899Z" fill="#006EF8"/>
<path d="M76.34 17.23C75.21 17.64 74.18 18.27 73.2 18.92C71.86 19.81 69.83 19 69.76 17.31C69.78 16.23 70.39 15.55 71.31 15.1C72.08 14.72 72.84 14.31 73.54 13.8C74.47 13.44 75.3 12.88 76.16 12.39C76.64 12.15 77.15 11.96 77.56 11.59C77.77 11.49 77.98 11.39 78.19 11.28C79.62 10.46 81.56 11.35 81.48 13.23C81.54 13.74 81.11 14.06 80.97 14.49C80.75 14.64 80.53 14.79 80.3 14.93C79.02 15.77 77.58 16.34 76.34 17.23Z" fill="#006EF8"/>
</g>
<defs>
<clipPath id="clip0_1473_2503">
<rect width="153.35" height="69.54" fill="white"/>
</clipPath>
</defs>
</svg>
