<svg width="86" height="96" viewBox="0 0 86 96" fill="none" xmlns="http://www.w3.org/2000/svg">
<g id="Layer_1" clip-path="url(#clip0_1328_1698)">
<path id="Vector" d="M11.652 37.5197C7.58419 37.2571 4.92759 34.4335 4.91755 30.3444C4.91001 26.1602 4.91755 21.9761 4.91252 17.792C4.91252 17.4193 4.87988 17.0442 4.8623 16.6715C4.9075 15.4886 4.90248 14.3006 5.01045 13.1226C5.42727 8.60836 8.73421 5.15952 13.1962 4.53677C17.3996 3.94904 21.4974 6.36749 23.1723 10.4241C23.2325 10.5691 23.2827 10.7167 23.338 10.8617C22.4792 11.3995 21.4824 11.5245 20.5357 11.7971C19.6268 9.12607 17.0631 7.30536 14.3261 7.38289C11.4084 7.46542 8.90747 9.37366 8.13158 12.1097C7.81018 13.2402 7.86542 14.3956 7.91313 15.5511C7.92066 19.175 7.92819 22.7989 7.93573 26.4228C7.92066 27.9709 7.84784 29.519 7.9081 31.0621C7.97088 32.6302 9.0054 33.8407 10.5095 34.3159C10.6526 34.3734 10.7882 34.4635 10.9363 34.486C13.505 34.9011 15.4862 33.208 15.5088 30.4544C15.5515 25.1123 15.5239 19.7702 15.5188 14.4281C15.5188 14.028 15.5314 13.6128 15.2326 13.2802C14.306 12.4174 13.5327 12.6349 13.1686 13.8629C13.161 18.4222 13.151 22.979 13.1435 27.5383C13.1435 27.8509 13.1686 28.166 13.1334 28.4736C13.043 29.2414 12.6463 29.7616 11.8353 29.8292C10.9966 29.8992 10.4467 29.504 10.281 28.6712C10.2031 28.2785 10.1981 27.8659 10.1981 27.4607C10.178 23.3091 10.163 19.1575 10.1479 15.0059C10.3287 14.2206 10.1479 13.3927 10.4467 12.6174C11.0619 11.0268 12.1818 10.0539 13.8942 9.89137C15.903 9.70129 17.2715 10.6692 18.1604 12.4098C18.3663 13.0701 18.419 13.7479 18.4165 14.4381C18.4065 19.7402 18.4165 25.0423 18.409 30.3444C18.4039 34.536 15.8428 37.2445 11.6394 37.5197H11.652Z" fill="#98A2B3"/>
<path id="Vector_2" d="M39.8425 24.1319C39.8601 25.3674 39.1244 26.0377 37.889 25.9101C36.7565 25.7926 35.6341 25.7501 34.5871 26.3128C33.9543 26.6529 33.3868 27.0731 33.4822 27.8884C33.5827 28.7537 34.0673 29.339 34.9712 29.449C36.1489 29.5941 37.3366 29.6641 38.5117 29.8216C41.0352 30.1618 42.6448 31.5848 43.3955 34.0083C44.1287 36.3717 43.8098 38.465 41.8186 40.1057C41.3667 40.4783 41.2587 40.8309 41.3742 41.3937C41.5701 42.3315 41.0227 43.2144 40.184 43.4645C39.2499 43.7421 38.2882 43.3719 37.9392 42.4316C37.6881 41.7538 37.2964 41.6288 36.6737 41.6513C35.6467 41.6888 34.6825 41.4187 33.8212 40.861C33.1006 40.3933 32.6084 39.758 32.7767 38.8302C33.0227 37.4796 34.0723 36.9294 35.2675 37.6097C36.4176 38.2624 37.54 38.4125 38.7528 37.8648C39.5839 37.4896 40.1765 36.9319 40.1564 35.9565C40.1313 34.8161 39.4659 33.8732 38.474 33.5931C37.3843 33.2855 36.2493 33.2655 35.1294 33.188C31.4835 32.9379 29.1584 29.8992 30.0447 26.5229C30.2983 25.555 30.8106 24.7447 31.6191 24.1494C32.0184 23.8543 32.1464 23.5742 32.0083 23.049C31.6995 21.876 32.1313 21.0032 33.0679 20.6556C34.0623 20.2854 34.916 20.6731 35.4609 21.8485C35.6693 22.2987 35.9405 22.3412 36.3422 22.3262C37.1231 22.2962 37.9066 22.2362 38.6649 22.5188C39.4157 22.7989 39.8526 23.3041 39.8425 24.1344V24.1319Z" fill="#98A2B3"/>
<path id="Vector_3" d="M73.2612 66.2309C73.2311 67.0237 72.6636 67.4413 71.8827 67.6789C69.4596 68.4142 67.0391 69.157 64.616 69.8898C54.326 73.0035 44.0361 76.1147 33.7437 79.2234C32.7267 79.5311 31.7123 79.8462 30.6878 80.1288C29.696 80.4039 28.9327 80.0163 28.6841 79.1484C28.4556 78.3506 28.8975 77.6378 29.8793 77.3377C33.7336 76.1573 37.5955 74.9968 41.4548 73.8288C51.2652 70.8552 61.0755 67.879 70.8859 64.9053C71.1244 64.8328 71.3655 64.7478 71.6115 64.7203C72.4803 64.6202 73.2336 65.273 73.2612 66.2334V66.2309Z" fill="#98A2B3"/>
<path id="Vector_4" d="M22.8911 56.247C22.0775 56.1494 21.5176 55.8068 21.3745 55.019C21.2213 54.1787 21.6331 53.6109 22.4014 53.3583C23.8854 52.8707 25.387 52.4355 26.881 51.9828C38.0347 48.604 49.1884 45.2252 60.3446 41.8488C61.452 41.5137 62.5593 41.1836 63.6666 40.856C64.8066 40.5183 65.6277 40.846 65.8863 41.7363C66.1349 42.5841 65.6603 43.3144 64.5605 43.6495C59.5085 45.1851 54.4489 46.6957 49.3943 48.2263C40.8721 50.8048 32.3499 53.3884 23.8277 55.9719C23.4987 56.0719 23.1698 56.1644 22.8861 56.247H22.8911Z" fill="#98A2B3"/>
<path id="Vector_5" d="M68.3745 50.2796C68.3092 51.0499 67.7367 51.4501 66.9533 51.6827C63.6614 52.6681 60.3721 53.6635 57.0827 54.6589C46.7049 57.8001 36.3296 60.9413 25.9543 64.0825C24.8871 64.4052 24.0911 64.0575 23.8325 63.1747C23.5764 62.2918 24.0459 61.6141 25.1432 61.2814C38.6874 57.1748 52.234 53.0657 65.7782 48.9591C66.1975 48.8316 66.6118 48.689 67.0613 48.729C67.8221 48.7991 68.3971 49.4218 68.3745 50.2821V50.2796Z" fill="#98A2B3"/>
<path id="Vector_6" d="M27.908 72.2057C26.8986 72.2082 26.2684 71.708 26.2056 70.9377C26.1378 70.1074 26.5747 69.5947 27.3657 69.3546C30.1478 68.5093 32.9224 67.6489 35.7046 66.8086C45.186 63.9375 54.6674 61.0714 64.1513 58.2027C65.5876 57.7676 67.0213 57.3274 68.4576 56.8972C69.6629 56.5371 70.5141 56.8622 70.7702 57.7551C71.0163 58.6204 70.5141 59.3332 69.349 59.6908C64.1789 61.2689 59.0038 62.837 53.8312 64.4052C45.7259 66.8611 37.6205 69.3146 29.5151 71.7655C28.92 71.9456 28.3148 72.0957 27.9106 72.2057H27.908Z" fill="#98A2B3"/>
<path id="Vector_7" d="M7.91563 15.5511C7.86541 14.3956 7.81268 13.2427 8.13408 12.1097C8.90997 9.37366 11.4084 7.46542 14.3286 7.38288C17.0681 7.30535 19.6293 9.12607 20.5382 11.7971C19.7523 12.0122 18.9965 12.3448 18.1704 12.4098C17.2815 10.6692 15.9131 9.70129 13.9043 9.89136C12.1918 10.0539 11.0694 11.0268 10.4567 12.6174C10.1579 13.3927 10.3387 14.2206 10.1579 15.0059C9.41216 15.1884 8.6639 15.3685 7.91814 15.5511H7.91563Z" fill="#EAECF0"/>
<path id="Vector_8" d="M38.3232 89.4424C39.9554 88.7272 41.6955 88.332 43.3904 87.8068C48.4926 86.2262 53.62 84.7181 58.7349 83.1775C61.7581 82.2671 64.7763 81.3493 67.7969 80.4339C67.7969 83.195 67.802 85.9561 67.7969 88.7197C67.7969 89.0273 67.7442 89.3324 67.7166 89.64C58.308 89.635 48.8994 89.63 39.4933 89.6175C39.1016 89.6175 38.6748 89.7476 38.3232 89.4424Z" fill="#EAECF0"/>
<path id="Vector_9" d="M67.7168 89.6425C58.3082 89.6375 48.9021 89.6325 39.4935 89.62C39.1018 89.62 38.675 89.7501 38.3234 89.4449C34.798 90.3053 31.3354 91.3882 27.9029 92.5387C24.6889 93.6166 21.9846 92.1685 21.0279 89.6325C17.7737 89.6325 14.5195 89.635 11.2653 89.6225C14.5195 89.635 17.7737 89.63 21.0279 89.6325C20.6061 88.262 20.1817 86.8914 19.7674 85.5184C17.3418 77.5203 14.9187 69.5197 12.4982 61.519C11.1347 57.0123 9.81143 52.4905 8.39524 47.9987C7.66706 45.6853 7.10712 43.3169 6.18057 41.066C5.27663 37.3446 4.0337 33.7207 2.92636 30.0592C2.16303 27.5333 1.50516 24.9748 0.563544 22.5038C0.556012 22.8464 0.540946 23.1916 0.540946 23.5342C0.540946 45.8329 0.540946 68.1316 0.540946 90.4303C0.540946 90.7104 0.533413 90.993 0.548479 91.2732C0.666494 93.3039 1.6985 94.7145 3.50388 95.5998C3.77507 95.7324 4.12158 95.7174 4.31744 96.0025H63.6842C66.9635 94.6795 67.9302 93.1589 67.7168 89.6425Z" fill="#EAECF0"/>
<g id="Group">
<path id="Vector_10" d="M85.474 70.8977C85.4162 70.1124 85.1049 69.3871 84.8965 68.6368C83.8695 65.203 82.8551 61.7666 81.818 58.3378C79.1464 49.5068 76.4672 40.6759 73.7829 31.8474C71.8244 25.4049 69.8533 18.9674 67.8922 12.5249C67.0937 9.90137 66.2274 7.29285 65.5394 4.63931C64.9644 2.41594 63.7793 0.827823 61.6173 0H59.1742C56.9093 0.89535 54.5464 1.48058 52.2263 2.19836C46.9458 3.8315 41.6426 5.39711 36.352 6.99523C32.1662 8.26073 27.9855 9.53372 23.7997 10.8017C23.654 10.8467 23.4933 10.8442 23.3377 10.8642C22.4789 11.402 21.4821 11.527 20.5354 11.7996C19.7495 12.0147 18.9937 12.3473 18.1676 12.4123C18.3735 13.0726 18.4262 13.7504 18.4237 14.4406C18.4137 19.7427 18.4237 25.0448 18.4162 30.3469C18.4111 34.5385 15.85 37.247 11.6466 37.5222C7.57885 37.2596 4.92225 34.4359 4.9122 30.3469C4.90467 26.1627 4.9122 21.9786 4.90718 17.7944C4.90718 17.4218 4.87454 17.0467 4.85696 16.674C4.64102 16.699 4.41754 16.699 4.21164 16.7565C2.21794 17.3143 0.146392 19.15 0.560701 22.5038C1.50231 24.9748 2.16019 27.5333 2.92352 30.0592C4.03085 33.7207 5.27378 37.3446 6.17773 41.066C7.10428 43.3169 7.66422 45.6853 8.3924 47.9987C9.80858 52.4905 11.1294 57.0098 12.4953 61.519C14.9159 69.5196 17.339 77.5178 19.7646 85.5184C20.1814 86.8914 20.6057 88.262 21.0251 89.6325C21.9817 92.171 24.6835 93.6191 27.9001 92.5386C31.3326 91.3882 34.7952 90.3028 38.3206 89.4449C39.9527 88.7297 41.6928 88.3345 43.3877 87.8093C48.49 86.2287 53.6174 84.7206 58.7322 83.18C61.7554 82.2696 64.7736 81.3518 67.7943 80.4364C72.4848 79.0108 77.1853 77.6128 81.8657 76.1522C84.3441 75.3769 85.6523 73.3987 85.4715 70.8977H85.474ZM30.0495 26.5229C30.3031 25.555 30.8153 24.7447 31.6238 24.1494C32.0231 23.8543 32.1511 23.5742 32.013 23.049C31.7042 21.876 32.1361 21.0032 33.0727 20.6556C34.067 20.2854 34.9207 20.6731 35.4656 21.8485C35.674 22.2987 35.9452 22.3412 36.347 22.3262C37.1279 22.2962 37.9113 22.2362 38.6696 22.5188C39.4204 22.7989 39.8573 23.3041 39.8473 24.1344C39.8648 25.3699 39.1291 26.0402 37.8937 25.9126C36.7613 25.7951 35.6389 25.7526 34.5918 26.3153C33.959 26.6554 33.3916 27.0756 33.487 27.8909C33.5874 28.7562 34.072 29.3415 34.976 29.4515C36.1536 29.5966 37.3413 29.6666 38.5164 29.8241C41.04 30.1643 42.6495 31.5873 43.4003 34.0108C44.1335 36.3742 43.8146 38.4675 41.8234 40.1082C41.3714 40.4808 41.2634 40.8334 41.3789 41.3962C41.5748 42.334 41.0274 43.2169 40.1887 43.467C39.2547 43.7446 38.293 43.3744 37.9439 42.4341C37.6928 41.7563 37.3011 41.6313 36.6784 41.6538C35.6514 41.6913 34.6872 41.4212 33.826 40.8635C33.1053 40.3958 32.6132 39.7605 32.7814 38.8327C33.0275 37.4821 34.0771 36.9319 35.2723 37.6122C36.4223 38.2649 37.5447 38.415 38.7575 37.8673C39.5886 37.4921 40.1812 36.9344 40.1611 35.959C40.136 34.8186 39.4706 33.8757 38.4788 33.5956C37.389 33.288 36.2541 33.268 35.1342 33.1905C31.4883 32.9404 29.1631 29.9017 30.0495 26.5254V26.5229ZM21.3741 55.019C21.2209 54.1787 21.6327 53.6109 22.4011 53.3583C23.8851 52.8707 25.3866 52.4355 26.8806 51.9828C38.0343 48.604 49.188 45.2252 60.3443 41.8488C61.4516 41.5137 62.5589 41.1836 63.6663 40.856C64.8062 40.5183 65.6273 40.846 65.886 41.7363C66.1345 42.5841 65.66 43.3144 64.5602 43.6495C59.5081 45.1851 54.4485 46.6957 49.3939 48.2263C40.8717 50.8048 32.3495 53.3883 23.8273 55.9719C23.4984 56.0719 23.1694 56.1644 22.8857 56.247C22.0721 56.1494 21.5122 55.8068 21.3691 55.019H21.3741ZM23.8348 63.1747C23.5787 62.2918 24.0483 61.6141 25.1456 61.2814C38.6897 57.1748 52.2364 53.0657 65.7805 48.9591C66.1998 48.8316 66.6141 48.689 67.0636 48.729C67.8244 48.7991 68.3994 49.4218 68.3768 50.2821C68.3115 51.0524 67.7391 51.4526 66.9556 51.6852C63.6638 52.6706 60.3744 53.666 57.085 54.6613C46.7072 57.8026 36.3319 60.9438 25.9566 64.085C24.8894 64.4077 24.0935 64.06 23.8348 63.1772V63.1747ZM26.2077 70.9377C26.1399 70.1074 26.5768 69.5947 27.3678 69.3546C30.1499 68.5093 32.9245 67.6489 35.7067 66.8086C45.1881 63.9375 54.6695 61.0714 64.1534 58.2027C65.5897 57.7676 67.0234 57.3274 68.4597 56.8972C69.665 56.5371 70.5162 56.8622 70.7723 57.7551C71.0184 58.6204 70.5162 59.3332 69.3511 59.6908C64.181 61.2689 59.0059 62.837 53.8333 64.4052C45.7279 66.8611 37.6225 69.3146 29.5171 71.7655C28.922 71.9456 28.3169 72.0956 27.9126 72.2057C26.9057 72.2082 26.273 71.708 26.2102 70.9377H26.2077ZM71.8821 67.6789C69.4591 68.4142 67.0385 69.157 64.6154 69.8898C54.3255 73.0035 44.0355 76.1147 33.7431 79.2234C32.7262 79.5311 31.7117 79.8462 30.6873 80.1288C29.6954 80.4039 28.9321 80.0163 28.6835 79.1484C28.455 78.3506 28.8969 77.6378 29.8787 77.3377C33.7331 76.1572 37.5949 74.9968 41.4543 73.8288C51.2646 70.8552 61.075 67.879 70.8853 64.9053C71.1238 64.8328 71.3649 64.7478 71.611 64.7203C72.4798 64.6202 73.233 65.273 73.2607 66.2334C73.2305 67.0262 72.663 67.4438 71.8821 67.6814V67.6789Z" fill="#D0D5DD"/>
<path id="Vector_11" d="M7.9133 31.0621C7.97608 32.6302 9.01059 33.8407 10.5147 34.3159C10.6578 34.3734 10.7934 34.4635 10.9415 34.486C13.5102 34.9011 15.4914 33.208 15.514 30.4544C15.5567 25.1123 15.5291 19.7702 15.524 14.4281C15.524 14.028 15.5366 13.6128 15.2378 13.2802C14.605 13.6678 13.9296 13.9079 13.1738 13.8629C13.1662 18.4222 13.1562 22.979 13.1487 27.5383C13.1487 27.8509 13.1738 28.166 13.1386 28.4736C13.0482 29.2414 12.6515 29.7616 11.8405 29.8291C11.0018 29.8992 10.4519 29.504 10.2862 28.6712C10.2083 28.2785 10.2033 27.8659 10.2033 27.4607C10.1832 23.3091 10.1681 19.1575 10.1531 15.0059C9.40733 15.1884 8.65906 15.3685 7.9133 15.5511C7.92083 19.175 7.92837 22.7989 7.9359 26.4228C7.92083 27.9709 7.84802 29.519 7.90828 31.0621H7.9133Z" fill="#D0D5DD"/>
</g>
<path id="Vector_12" d="M15.2403 13.2827C14.6075 13.6703 13.9321 13.9104 13.1763 13.8654C13.5404 12.6374 14.3137 12.4199 15.2403 13.2827Z" fill="#EAECF0"/>
</g>
<defs>
<clipPath id="clip0_1328_1698">
<rect width="84.9836" height="96" fill="white" transform="translate(0.508301)"/>
</clipPath>
</defs>
</svg>
