<svg width="20" height="21" viewBox="0 0 20 21" fill="none" xmlns="http://www.w3.org/2000/svg">
<path d="M15.1167 18.5167C14.3833 18.7333 13.5167 18.8333 12.5 18.8333H7.5C6.48333 18.8333 5.61666 18.7333 4.88333 18.5167C5.06666 16.35 7.29166 14.6416 10 14.6416C12.7083 14.6416 14.9333 16.35 15.1167 18.5167Z" stroke="#9E9E9E" stroke-width="1.5" stroke-linecap="round" stroke-linejoin="round"/>
<path d="M12.5 2.16666H7.49999C3.33332 2.16666 1.66666 3.83333 1.66666 8V13C1.66666 16.15 2.61666 17.875 4.88332 18.5167C5.06666 16.35 7.29166 14.6416 9.99999 14.6416C12.7083 14.6416 14.9333 16.35 15.1167 18.5167C17.3833 17.875 18.3333 16.15 18.3333 13V8C18.3333 3.83333 16.6667 2.16666 12.5 2.16666ZM9.99999 12.3083C8.34999 12.3083 7.01666 10.9667 7.01666 9.31668C7.01666 7.66668 8.34999 6.33333 9.99999 6.33333C11.65 6.33333 12.9833 7.66668 12.9833 9.31668C12.9833 10.9667 11.65 12.3083 9.99999 12.3083Z" stroke="#9E9E9E" stroke-width="1.5" stroke-linecap="round" stroke-linejoin="round"/>
<path d="M12.9833 9.31668C12.9833 10.9667 11.65 12.3083 10 12.3083C8.35 12.3083 7.01666 10.9667 7.01666 9.31668C7.01666 7.66668 8.35 6.33334 10 6.33334C11.65 6.33334 12.9833 7.66668 12.9833 9.31668Z" stroke="#9E9E9E" stroke-width="1.5" stroke-linecap="round" stroke-linejoin="round"/>
</svg>
