<svg width="24" height="25" viewBox="0 0 24 25" fill="none" xmlns="http://www.w3.org/2000/svg">
<g id="message-text-square-01">
<path id="Icon" d="M7 9H12M7 12.5H15M9.68375 18.5H16.2C17.8802 18.5 18.7202 18.5 19.362 18.173C19.9265 17.8854 20.3854 17.4265 20.673 16.862C21 16.2202 21 15.3802 21 13.7V8.3C21 6.61984 21 5.77976 20.673 5.13803C20.3854 4.57354 19.9265 4.1146 19.362 3.82698C18.7202 3.5 17.8802 3.5 16.2 3.5H7.8C6.11984 3.5 5.27976 3.5 4.63803 3.82698C4.07354 4.1146 3.6146 4.57354 3.32698 5.13803C3 5.77976 3 6.61984 3 8.3V20.8355C3 21.3684 3 21.6348 3.10923 21.7716C3.20422 21.8906 3.34827 21.9599 3.50054 21.9597C3.67563 21.9595 3.88367 21.7931 4.29976 21.4602L6.68521 19.5518C7.17252 19.162 7.41617 18.9671 7.68749 18.8285C7.9282 18.7055 8.18443 18.6156 8.44921 18.5613C8.74767 18.5 9.0597 18.5 9.68375 18.5Z" stroke="#98A2B3" stroke-width="2" stroke-linecap="round" stroke-linejoin="round"/>
</g>
</svg>
