<svg width="205" height="65" viewBox="0 0 205 65" fill="none" xmlns="http://www.w3.org/2000/svg">
<path d="M53.7928 32.323C53.7928 27.4043 57.4466 23.7906 62.6239 23.7906C66.9626 23.7906 70.2364 26.3257 71.1749 30.0643H67.75C66.9626 28.0822 65.085 26.7773 62.6239 26.7773C59.3248 26.7773 57.092 29.1112 57.092 32.323C57.092 35.5348 59.3248 37.8938 62.6239 37.8938C65.085 37.8938 66.9626 36.5633 67.75 34.5816H71.1749C70.2364 38.3202 66.9626 40.8548 62.6239 40.8548C57.4466 40.8548 53.7928 37.2416 53.7928 32.323Z" fill="#0044DD"/>
<path d="M83.1554 34.3302C83.1554 32.1468 81.6837 30.5916 79.4758 30.5916C77.2679 30.5916 75.7702 32.1468 75.7702 34.3302C75.7702 36.5136 77.2679 38.0694 79.4758 38.0694C81.6837 38.0694 83.1554 36.5136 83.1554 34.3302ZM72.7258 34.3302C72.7258 30.5666 75.5177 27.8057 79.4758 27.8057C83.4345 27.8057 86.2258 30.5666 86.2258 34.3302C86.2258 38.0945 83.4345 40.8548 79.4758 40.8548C75.5177 40.8548 72.7258 38.0945 72.7258 34.3302Z" fill="#0044DD"/>
<path d="M88.2076 34.0794C88.2076 29.9395 90.694 27.8062 94.3984 27.8062C98.104 27.8062 100.59 29.9138 100.59 34.0794V40.5287H97.5702V34.0794C97.5702 31.721 96.302 30.5916 94.3984 30.5916C92.496 30.5916 91.2272 31.721 91.2272 34.0794V40.5287H88.2076V34.0794Z" fill="#0044DD"/>
<path d="M101.608 28.1321H104.906L108.383 37.7938L111.859 28.1321H115.082L110.159 40.5284H106.53L101.608 28.1321Z" fill="#0044DD"/>
<path d="M125.919 33.0008C125.437 31.3442 124.066 30.5164 122.418 30.5164C120.717 30.5164 119.397 31.3698 118.915 33.0008H125.919ZM115.668 34.3302C115.668 30.5666 118.459 27.8062 122.418 27.8062C126.376 27.8062 129.116 30.5666 129.116 34.3302V35.3843H118.839C119.245 37.192 120.641 38.1452 122.418 38.1452C123.762 38.1452 124.752 37.7684 125.386 36.9651H128.609C127.67 39.3241 125.386 40.8548 122.418 40.8548C118.459 40.8548 115.668 38.0945 115.668 34.3302Z" fill="#0044DD"/>
<path d="M131.099 33.3272C131.099 29.588 133.331 27.806 136.605 27.806C139.878 27.806 142.086 29.588 142.086 33.3768V33.4526H139.091V33.3272C139.091 31.3194 138.076 30.5919 136.605 30.5919C135.133 30.5919 134.118 31.3194 134.118 33.3272V40.5284H131.099V33.3272Z" fill="#0044DD"/>
<path d="M143.712 35.7606V23.741H146.731V28.1318H153.202V30.843H146.731V35.7606C146.731 37.4172 147.594 38.0699 148.838 38.0699C150.081 38.0699 150.944 37.4417 150.944 35.7606V35.4345H153.963V35.7606C153.963 39.1987 151.883 40.8548 148.838 40.8548C145.792 40.8548 143.712 39.1987 143.712 35.7606Z" fill="#0044DD"/>
<path d="M165.638 33.0008C165.156 31.3442 163.786 30.5164 162.136 30.5164C160.436 30.5164 159.116 31.3698 158.634 33.0008H165.638ZM155.386 34.3302C155.386 30.5666 158.178 27.8062 162.136 27.8062C166.094 27.8062 168.834 30.5666 168.834 34.3302V35.3843H158.557C158.964 37.192 160.36 38.1452 162.136 38.1452C163.48 38.1452 164.47 37.7684 165.105 36.9651H168.328C167.388 39.3241 165.105 40.8548 162.136 40.8548C158.178 40.8548 155.386 38.0945 155.386 34.3302Z" fill="#0044DD"/>
<path d="M180.738 34.3302C180.738 32.1468 179.267 30.5917 177.059 30.5917C174.851 30.5917 173.354 32.1468 173.354 34.3302C173.354 36.5136 174.851 38.0694 177.059 38.0694C179.267 38.0694 180.738 36.5136 180.738 34.3302ZM170.309 34.2054C170.309 29.9646 173.506 27.8057 176.551 27.8057C178.353 27.8057 179.849 28.5588 180.738 29.9395V22.712H183.757V34.2299C183.757 38.2444 181.017 40.8548 177.084 40.8548C173.101 40.8548 170.309 38.1452 170.309 34.2054Z" fill="#0044DD"/>
<path d="M186.678 28.1323H189.697V40.5287H186.678V28.1323ZM186.196 24.5442C186.196 23.3892 187.033 22.5364 188.201 22.5364C189.367 22.5364 190.206 23.3892 190.206 24.5442C190.206 25.6986 189.367 26.5264 188.201 26.5264C187.033 26.5264 186.196 25.6986 186.196 24.5442Z" fill="#0044DD"/>
<path d="M192.617 34.0794C192.617 29.9395 195.104 27.8062 198.808 27.8062C202.514 27.8062 205 29.9138 205 34.0794V40.5287H201.98V34.0794C201.98 31.721 200.712 30.5916 198.808 30.5916C196.905 30.5916 195.636 31.721 195.636 34.0794V40.5287H192.617V34.0794Z" fill="#0044DD"/>
<path d="M33.2866 1.63077C33.2939 2.53768 32.5544 3.27849 31.6373 3.28462C30.7202 3.29131 29.971 2.56054 29.9648 1.65418C29.9575 0.746707 30.6971 0.00590062 31.6141 -0.000230789C32.5312 -0.00747728 33.2804 0.723853 33.2866 1.63077Z" fill="#0044DD"/>
<path d="M3.32235 32.3789C3.32855 33.2858 2.59013 34.0271 1.67303 34.0333C0.755934 34.04 0.00681017 33.3092 4.60674e-05 32.4023C-0.00671803 31.4954 0.73226 30.754 1.64936 30.7479C2.56702 30.7417 3.31615 31.472 3.32235 32.3789Z" fill="#0044DD"/>
<path d="M10.1276 25.1752C11.7916 25.1869 13.1495 23.8631 13.1602 22.2176C13.1732 20.5737 11.8333 19.2304 10.1699 19.2187C8.50706 19.207 7.14973 20.5308 7.13733 22.1763C7.12662 23.8213 8.46479 25.1635 10.1276 25.1752Z" fill="#0044DD"/>
<path d="M24.359 10.8096C24.3714 12.4539 23.0321 13.7967 21.3693 13.8085C19.7059 13.8202 18.3485 12.4963 18.3356 10.8514C18.3243 9.20643 19.6625 7.86362 21.3264 7.85247C22.9898 7.84076 24.3472 9.16407 24.359 10.8096Z" fill="#0044DD"/>
<path d="M39.4446 10.9415C39.5066 12.5854 40.9039 13.868 42.5662 13.8078C44.2279 13.7465 45.5261 12.3641 45.4641 10.7197C45.4021 9.07587 44.0041 7.79326 42.3424 7.85457C40.6796 7.91589 39.3826 9.29717 39.4446 10.9415Z" fill="#0044DD"/>
<path d="M33.2866 63.1045C33.2939 62.1976 32.5544 61.4574 31.6373 61.4507C30.7202 61.444 29.971 62.1748 29.9648 63.0822C29.9575 63.9886 30.6971 64.7294 31.6141 64.7367C32.5312 64.7428 33.2804 64.0115 33.2866 63.1045Z" fill="#0044DD"/>
<path d="M10.1276 39.5606C11.7916 39.5484 13.1495 40.8728 13.1602 42.5172C13.1732 44.1621 11.8333 45.5049 10.1699 45.5172C8.50706 45.5289 7.14973 44.205 7.13733 42.5595C7.12662 40.9146 8.46479 39.5723 10.1276 39.5606Z" fill="#0044DD"/>
<path d="M24.359 53.9262C24.3714 52.2807 23.0321 50.939 21.3693 50.9262C19.7059 50.9145 18.3485 52.2395 18.3356 53.8833C18.3243 55.5288 19.6625 56.871 21.3264 56.8827C22.9898 56.895 24.3472 55.5717 24.359 53.9262Z" fill="#0044DD"/>
<path d="M39.4446 53.7943C39.5066 52.15 40.9039 50.8673 42.5662 50.9275C44.2279 50.99 45.5261 52.3713 45.4641 54.0156C45.4021 55.66 44.0041 56.9426 42.3424 56.8813C40.6796 56.8194 39.3826 55.4382 39.4446 53.7943Z" fill="#0044DD"/>
<path d="M32.5042 42.8997C26.6166 42.8997 21.8445 38.1862 21.831 32.3673C21.8445 26.549 26.6166 21.8361 32.5042 21.8361C34.8462 21.8361 37.013 22.5836 38.7728 23.8495C39.8917 24.6549 41.4463 24.4989 42.4254 23.5301L45.9371 20.0579C46.6834 19.3193 46.6456 18.1114 45.8531 17.4202L45.8486 17.4169C44.8244 16.5222 43.3605 16.2786 42.1188 16.8439C41.6842 17.0429 41.1988 17.1521 40.6882 17.1482C38.823 17.1348 37.4053 15.4776 37.3343 13.1047C37.2373 9.82766 35.0401 7.56845 31.9382 7.58963C29.2664 7.60859 26.4255 9.05452 26.2896 14.6237C26.2502 16.2591 25.031 17.7123 23.3935 17.9453C22.1917 18.1159 21.1286 17.6359 20.4156 16.8416C20.3457 16.7602 20.2752 16.6783 20.1963 16.6047C20.1935 16.6014 20.1901 16.5992 20.1873 16.5958L20.1862 16.5969C19.5098 15.967 18.5481 15.632 17.5014 15.8444C16.3831 16.0707 15.4614 16.952 15.1999 18.0501C14.9152 19.2541 15.3803 20.3556 16.2106 21.0384C17.0871 21.9738 17.4834 23.3528 16.8402 24.8372C16.2985 26.0903 14.984 26.8456 13.6075 26.8361C13.4114 26.835 13.9001 26.8389 13.386 26.835C10.2824 26.811 7.84451 29.3004 7.97359 32.3673C7.84451 35.4348 10.2835 37.9242 13.3871 37.9002C13.9001 37.8963 13.4119 37.9002 13.6075 37.8991C14.984 37.8897 16.2985 38.645 16.8402 39.8975C17.4834 41.3824 17.0871 42.7609 16.2106 43.6957C15.3803 44.3797 14.9152 45.4805 15.1999 46.6851C15.4614 47.7838 16.3831 48.6645 17.5014 48.8908C18.5481 49.1032 19.5098 48.7682 20.1862 48.1383L20.1873 48.1394C20.1901 48.1366 20.1935 48.1339 20.1963 48.1305C20.2752 48.0564 20.3457 47.9755 20.4156 47.893C21.1286 47.0998 22.1917 46.6194 23.3935 46.7905C25.031 47.0224 26.2502 48.4761 26.2896 50.1116C26.4255 55.6813 29.2664 57.1266 31.9382 57.1445C35.0401 57.1673 37.2373 54.9081 37.3343 51.6305C37.4053 49.2576 38.823 47.6004 40.6882 47.587C41.1988 47.5831 41.6842 47.6935 42.1188 47.8908C43.3605 48.4572 44.8244 48.2119 45.8486 47.3195L45.8531 47.315C46.6456 46.6227 46.6834 45.4159 45.9371 44.6773L42.4254 41.2046C41.4463 40.2364 39.8917 40.0803 38.7728 40.8852C37.013 42.1517 34.8462 42.8997 32.5042 42.8997Z" fill="#0044DD"/>
</svg>
