 <svg width="248" height="96" viewBox="0 0 248 96" fill="none" xmlns="http://www.w3.org/2000/svg">
      <g filter="url(#filter0_d_4406_864)">
        <rect x="45.5" y="24" width="46" height="48" rx="10" fill="#0044DD" shape-rendering="crispEdges" />
        <path
          d="M71.2576 33.7813C71.261 34.2155 70.9109 34.5703 70.4768 34.5732C70.0426 34.5764 69.688 34.2265 69.6851 33.7925C69.6816 33.3579 70.0317 33.0032 70.4659 33.0002C70.9 32.9968 71.2546 33.347 71.2576 33.7813Z"
          fill="white" />
        <path
          d="M57.0728 48.5051C57.0757 48.9394 56.7261 49.2944 56.292 49.2973C55.8579 49.3005 55.5032 48.9506 55.5 48.5163C55.4968 48.082 55.8466 47.727 56.2808 47.7241C56.7152 47.7212 57.0698 48.0708 57.0728 48.5051Z"
          fill="white" />
        <path
          d="M60.2943 45.0556C61.082 45.0612 61.7249 44.4273 61.7299 43.6393C61.7361 42.8522 61.1018 42.2089 60.3143 42.2033C59.5272 42.1977 58.8846 42.8316 58.8788 43.6196C58.8737 44.4073 59.5072 45.05 60.2943 45.0556Z"
          fill="white" />
        <path
          d="M67.0314 38.1762C67.0372 38.9636 66.4032 39.6067 65.616 39.6123C64.8286 39.6179 64.186 38.9839 64.1799 38.1962C64.1746 37.4085 64.808 36.7655 65.5958 36.7602C66.3832 36.7546 67.0257 37.3883 67.0314 38.1762Z"
          fill="white" />
        <path
          d="M74.1728 38.2398C74.2021 39.0269 74.8636 39.6411 75.6505 39.6123C76.4372 39.5829 77.0517 38.921 77.0223 38.1335C76.993 37.3464 76.3312 36.7322 75.5446 36.7616C74.7574 36.7909 74.1434 37.4524 74.1728 38.2398Z"
          fill="white" />
        <path
          d="M71.2576 63.2184C71.261 62.7841 70.9109 62.4297 70.4768 62.4265C70.0426 62.4233 69.688 62.7732 69.6851 63.2078C69.6816 63.6418 70.0317 63.9965 70.4659 64C70.9 64.0029 71.2546 63.6527 71.2576 63.2184Z"
          fill="white" />
        <path
          d="M60.2943 51.944C61.082 51.9381 61.7249 52.5723 61.7299 53.3598C61.7361 54.1475 61.1018 54.7905 60.3143 54.7963C59.5272 54.802 58.8846 54.168 58.8788 53.38C58.8737 52.5924 59.5072 51.9496 60.2943 51.944Z"
          fill="white" />
        <path
          d="M67.0314 58.8235C67.0372 58.0355 66.4032 57.393 65.616 57.3869C64.8286 57.3813 64.186 58.0157 64.1799 58.8029C64.1746 59.5909 64.808 60.2336 65.5958 60.2392C66.3832 60.2451 67.0257 59.6114 67.0314 58.8235Z"
          fill="white" />
        <path
          d="M74.1728 58.76C74.2021 57.9726 74.8636 57.3584 75.6505 57.3872C76.4372 57.4171 77.0517 58.0786 77.0223 58.866C76.993 59.6534 76.3312 60.2676 75.5446 60.2382C74.7574 60.2086 74.1434 59.5472 74.1728 58.76Z"
          fill="white" />
        <path
          d="M70.8872 53.5429C68.1001 53.5429 65.841 51.2858 65.8346 48.4994C65.841 45.7132 68.1001 43.4564 70.8872 43.4564C71.996 43.4564 73.0217 43.8143 73.8548 44.4205C74.3844 44.8062 75.1204 44.7315 75.5839 44.2676L77.2463 42.6049C77.5996 42.2512 77.5817 41.6728 77.2065 41.3418L77.2044 41.3402C76.7195 40.9118 76.0266 40.7951 75.4387 41.0658C75.233 41.1611 75.0032 41.2134 74.7615 41.2115C73.8785 41.2051 73.2074 40.4116 73.1738 39.2753C73.1279 37.706 72.0878 36.6242 70.6193 36.6343C69.3545 36.6434 68.0096 37.3358 67.9453 40.0026C67.9267 40.7858 67.3495 41.4817 66.5743 41.5932C66.0054 41.6749 65.5022 41.4451 65.1646 41.0647C65.1315 41.0258 65.0982 40.9865 65.0608 40.9513C65.0595 40.9497 65.0579 40.9486 65.0565 40.947L65.056 40.9476C64.7358 40.6459 64.2806 40.4855 63.785 40.5872C63.2556 40.6956 62.8194 41.1176 62.6955 41.6434C62.5608 42.22 62.7809 42.7474 63.174 43.0744C63.5889 43.5223 63.7765 44.1827 63.472 44.8935C63.2156 45.4935 62.5933 45.8552 61.9417 45.8507C61.8489 45.8502 62.0802 45.852 61.8368 45.8502C60.3676 45.8387 59.2136 47.0308 59.2747 48.4994C59.2136 49.9683 60.3682 51.1604 61.8374 51.1489C62.0802 51.147 61.8491 51.1489 61.9417 51.1483C62.5933 51.1438 63.2156 51.5055 63.472 52.1053C63.7765 52.8164 63.5889 53.4765 63.174 53.9241C62.7809 54.2516 62.5608 54.7788 62.6955 55.3556C62.8194 55.8817 63.2556 56.3035 63.785 56.4118C64.2806 56.5135 64.7358 56.3531 65.056 56.0515L65.0565 56.052C65.0579 56.0507 65.0595 56.0493 65.0608 56.0477C65.0982 56.0122 65.1315 55.9735 65.1646 55.934C65.5022 55.5542 66.0054 55.3241 66.5743 55.4061C67.3495 55.5171 67.9267 56.2132 67.9453 56.9964C68.0096 59.6635 69.3545 60.3556 70.6193 60.3642C72.0878 60.3751 73.1279 59.2933 73.1738 57.7238C73.2074 56.5875 73.8785 55.7939 74.7615 55.7875C75.0032 55.7856 75.233 55.8385 75.4387 55.933C76.0266 56.2042 76.7195 56.0867 77.2044 55.6594L77.2065 55.6572C77.5817 55.3257 77.5996 54.7478 77.2463 54.3941L75.5839 52.7312C75.1204 52.2676 74.3844 52.1928 73.8548 52.5783C73.0217 53.1847 71.996 53.5429 70.8872 53.5429Z"
          fill="white" />
      </g>
      <path
        d="M113.186 45.8882H110.951C110.887 45.5216 110.769 45.1968 110.598 44.9138C110.427 44.6269 110.214 44.3838 109.959 44.1845C109.703 43.9853 109.413 43.8358 109.086 43.7362C108.763 43.6326 108.414 43.5808 108.04 43.5808C107.374 43.5808 106.784 43.7482 106.27 44.0829C105.756 44.4137 105.354 44.8999 105.063 45.5415C104.772 46.1791 104.626 46.9582 104.626 47.8788C104.626 48.8153 104.772 49.6044 105.063 50.246C105.358 50.8836 105.76 51.3658 106.27 51.6926C106.784 52.0154 107.372 52.1768 108.034 52.1768C108.4 52.1768 108.743 52.129 109.062 52.0333C109.385 51.9337 109.674 51.7882 109.929 51.5969C110.188 51.4057 110.405 51.1705 110.58 50.8916C110.76 50.6126 110.883 50.2938 110.951 49.9351L113.186 49.9471C113.103 50.5289 112.921 51.0749 112.643 51.585C112.368 52.0951 112.007 52.5454 111.561 52.936C111.114 53.3225 110.592 53.6254 109.994 53.8446C109.397 54.0598 108.733 54.1674 108.004 54.1674C106.928 54.1674 105.967 53.9183 105.123 53.4202C104.278 52.922 103.612 52.2027 103.126 51.2622C102.64 50.3217 102.397 49.1939 102.397 47.8788C102.397 46.5597 102.642 45.4319 103.132 44.4954C103.622 43.5549 104.29 42.8356 105.134 42.3374C105.979 41.8393 106.936 41.5902 108.004 41.5902C108.685 41.5902 109.319 41.6858 109.905 41.8771C110.491 42.0684 111.013 42.3494 111.471 42.72C111.929 43.0866 112.306 43.537 112.601 44.071C112.9 44.601 113.095 45.2067 113.186 45.8882ZM119.127 54.1793C118.23 54.1793 117.453 53.9821 116.796 53.5875C116.138 53.193 115.628 52.6411 115.265 51.9317C114.907 51.2223 114.727 50.3934 114.727 49.445C114.727 48.4965 114.907 47.6656 115.265 46.9522C115.628 46.2389 116.138 45.685 116.796 45.2904C117.453 44.8959 118.23 44.6986 119.127 44.6986C120.024 44.6986 120.801 44.8959 121.458 45.2904C122.116 45.685 122.624 46.2389 122.983 46.9522C123.345 47.6656 123.527 48.4965 123.527 49.445C123.527 50.3934 123.345 51.2223 122.983 51.9317C122.624 52.6411 122.116 53.193 121.458 53.5875C120.801 53.9821 120.024 54.1793 119.127 54.1793ZM119.139 52.4458C119.625 52.4458 120.032 52.3123 120.358 52.0453C120.685 51.7743 120.928 51.4116 121.088 50.9573C121.251 50.503 121.333 49.9969 121.333 49.439C121.333 48.8771 121.251 48.369 121.088 47.9147C120.928 47.4564 120.685 47.0917 120.358 46.8207C120.032 46.5497 119.625 46.4142 119.139 46.4142C118.641 46.4142 118.226 46.5497 117.895 46.8207C117.569 47.0917 117.324 47.4564 117.16 47.9147C117.001 48.369 116.921 48.8771 116.921 49.439C116.921 49.9969 117.001 50.503 117.16 50.9573C117.324 51.4116 117.569 51.7743 117.895 52.0453C118.226 52.3123 118.641 52.4458 119.139 52.4458ZM127.527 48.62V54H125.363V44.8182H127.431V46.3784H127.539C127.75 45.8643 128.087 45.4558 128.549 45.1529C129.016 44.8501 129.591 44.6986 130.277 44.6986C130.911 44.6986 131.462 44.8341 131.933 45.1051C132.407 45.3761 132.774 45.7686 133.033 46.2827C133.296 46.7968 133.425 47.4205 133.421 48.1538V54H131.257V48.4885C131.257 47.8748 131.098 47.3946 130.779 47.0479C130.464 46.7012 130.028 46.5278 129.47 46.5278C129.091 46.5278 128.755 46.6115 128.46 46.7789C128.169 46.9423 127.94 47.1794 127.772 47.4902C127.609 47.8011 127.527 48.1777 127.527 48.62ZM143.494 44.8182L140.224 54H137.833L134.563 44.8182H136.87L138.98 51.6388H139.076L141.192 44.8182H143.494ZM148.744 54.1793C147.823 54.1793 147.028 53.988 146.359 53.6055C145.693 53.2189 145.181 52.6729 144.822 51.9676C144.464 51.2582 144.284 50.4233 144.284 49.4629C144.284 48.5184 144.464 47.6895 144.822 46.9761C145.185 46.2588 145.691 45.7009 146.341 45.3024C146.99 44.8999 147.753 44.6986 148.63 44.6986C149.196 44.6986 149.73 44.7903 150.232 44.9736C150.738 45.1529 151.185 45.4319 151.571 45.8105C151.962 46.1891 152.269 46.6713 152.492 47.2571C152.715 47.8389 152.826 48.5324 152.826 49.3374V50.0009H145.3V48.5423H150.752C150.748 48.1279 150.658 47.7592 150.483 47.4364C150.308 47.1097 150.063 46.8526 149.748 46.6653C149.437 46.478 149.074 46.3844 148.66 46.3844C148.218 46.3844 147.829 46.492 147.494 46.7071C147.16 46.9184 146.898 47.1973 146.711 47.544C146.528 47.8868 146.434 48.2634 146.43 48.6738V49.9471C146.43 50.4811 146.528 50.9394 146.723 51.322C146.918 51.7006 147.191 51.9915 147.542 52.1947C147.893 52.394 148.303 52.4936 148.774 52.4936C149.088 52.4936 149.373 52.4498 149.628 52.3621C149.883 52.2704 150.105 52.1369 150.292 51.9616C150.479 51.7862 150.621 51.569 150.716 51.31L152.737 51.5372C152.609 52.0712 152.366 52.5374 152.007 52.936C151.653 53.3305 151.198 53.6374 150.645 53.8565C150.091 54.0717 149.457 54.1793 148.744 54.1793ZM154.657 54V44.8182H156.755V46.3485H156.851C157.018 45.8185 157.305 45.41 157.712 45.123C158.122 44.8321 158.59 44.6867 159.117 44.6867C159.236 44.6867 159.37 44.6926 159.517 44.7046C159.668 44.7126 159.794 44.7265 159.894 44.7464V46.737C159.802 46.7052 159.656 46.6773 159.457 46.6533C159.262 46.6255 159.073 46.6115 158.889 46.6115C158.495 46.6115 158.14 46.6972 157.825 46.8685C157.514 47.0359 157.269 47.2691 157.09 47.5679C156.911 47.8668 156.821 48.2115 156.821 48.6021V54H154.657ZM166.409 44.8182V46.492H161.131V44.8182H166.409ZM162.434 42.6184H164.598V51.2383C164.598 51.5292 164.642 51.7524 164.73 51.9078C164.821 52.0592 164.941 52.1628 165.088 52.2186C165.236 52.2744 165.399 52.3023 165.578 52.3023C165.714 52.3023 165.837 52.2924 165.949 52.2724C166.065 52.2525 166.152 52.2346 166.212 52.2186L166.577 53.9103C166.461 53.9502 166.296 53.994 166.081 54.0418C165.869 54.0897 165.61 54.1176 165.303 54.1255C164.761 54.1415 164.273 54.0598 163.839 53.8804C163.405 53.6971 163.06 53.4142 162.805 53.0316C162.554 52.649 162.43 52.1708 162.434 51.5969V42.6184ZM172.185 54.1793C171.265 54.1793 170.47 53.988 169.8 53.6055C169.135 53.2189 168.623 52.6729 168.264 51.9676C167.905 51.2582 167.726 50.4233 167.726 49.4629C167.726 48.5184 167.905 47.6895 168.264 46.9761C168.627 46.2588 169.133 45.7009 169.782 45.3024C170.432 44.8999 171.195 44.6986 172.072 44.6986C172.638 44.6986 173.172 44.7903 173.674 44.9736C174.18 45.1529 174.626 45.4319 175.013 45.8105C175.403 46.1891 175.71 46.6713 175.933 47.2571C176.157 47.8389 176.268 48.5324 176.268 49.3374V50.0009H168.742V48.5423H174.194C174.19 48.1279 174.1 47.7592 173.925 47.4364C173.75 47.1097 173.504 46.8526 173.19 46.6653C172.879 46.478 172.516 46.3844 172.102 46.3844C171.659 46.3844 171.271 46.492 170.936 46.7071C170.601 46.9184 170.34 47.1973 170.153 47.544C169.97 47.8868 169.876 48.2634 169.872 48.6738V49.9471C169.872 50.4811 169.97 50.9394 170.165 51.322C170.36 51.7006 170.633 51.9915 170.984 52.1947C171.335 52.394 171.745 52.4936 172.215 52.4936C172.53 52.4936 172.815 52.4498 173.07 52.3621C173.325 52.2704 173.546 52.1369 173.734 51.9616C173.921 51.7862 174.062 51.569 174.158 51.31L176.178 51.5372C176.051 52.0712 175.808 52.5374 175.449 52.936C175.095 53.3305 174.64 53.6374 174.086 53.8565C173.532 54.0717 172.899 54.1793 172.185 54.1793ZM181.506 54.1614C180.785 54.1614 180.139 53.9761 179.569 53.6055C178.999 53.2348 178.549 52.6969 178.218 51.9915C177.888 51.2861 177.722 50.4293 177.722 49.421C177.722 48.4008 177.89 47.54 178.224 46.8387C178.563 46.1333 179.019 45.6013 179.593 45.2426C180.167 44.88 180.807 44.6986 181.512 44.6986C182.05 44.6986 182.492 44.7903 182.839 44.9736C183.186 45.1529 183.461 45.3701 183.664 45.6252C183.867 45.8762 184.025 46.1134 184.136 46.3365H184.226V41.7576H186.396V54H184.268V52.5534H184.136C184.025 52.7766 183.863 53.0137 183.652 53.2647C183.441 53.5118 183.162 53.723 182.815 53.8984C182.469 54.0737 182.032 54.1614 181.506 54.1614ZM182.11 52.386C182.568 52.386 182.959 52.2625 183.282 52.0154C183.604 51.7643 183.849 51.4156 184.017 50.9693C184.184 50.5229 184.268 50.0029 184.268 49.4091C184.268 48.8153 184.184 48.2992 184.017 47.8609C183.853 47.4225 183.61 47.0818 183.288 46.8387C182.969 46.5956 182.576 46.474 182.11 46.474C181.628 46.474 181.225 46.5995 180.902 46.8506C180.58 47.1017 180.337 47.4484 180.173 47.8907C180.01 48.3331 179.928 48.8392 179.928 49.4091C179.928 49.983 180.01 50.495 180.173 50.9454C180.341 51.3917 180.586 51.7444 180.908 52.0034C181.235 52.2585 181.636 52.386 182.11 52.386ZM188.702 54V44.8182H190.866V54H188.702ZM189.79 43.515C189.447 43.515 189.152 43.4015 188.905 43.1743C188.658 42.9432 188.534 42.6662 188.534 42.3434C188.534 42.0166 188.658 41.7396 188.905 41.5125C189.152 41.2813 189.447 41.1658 189.79 41.1658C190.137 41.1658 190.431 41.2813 190.675 41.5125C190.922 41.7396 191.045 42.0166 191.045 42.3434C191.045 42.6662 190.922 42.9432 190.675 43.1743C190.431 43.4015 190.137 43.515 189.79 43.515ZM195.255 48.62V54H193.091V44.8182H195.159V46.3784H195.267C195.478 45.8643 195.815 45.4558 196.277 45.1529C196.743 44.8501 197.319 44.6986 198.005 44.6986C198.638 44.6986 199.19 44.8341 199.661 45.1051C200.135 45.3761 200.501 45.7686 200.76 46.2827C201.024 46.7968 201.153 47.4205 201.149 48.1538V54H198.985V48.4885C198.985 47.8748 198.826 47.3946 198.507 47.0479C198.192 46.7012 197.756 46.5278 197.198 46.5278C196.819 46.5278 196.482 46.6115 196.188 46.7789C195.897 46.9423 195.667 47.1794 195.5 47.4902C195.337 47.8011 195.255 48.1777 195.255 48.62Z"
        fill="#101828" />
      <defs>
        <filter id="filter0_d_4406_864" x="29.5" y="8" width="78" height="80" filterUnits="userSpaceOnUse"
          color-interpolation-filters="sRGB">
          <feFlood flood-opacity="0" result="BackgroundImageFix" />
          <feColorMatrix in="SourceAlpha" type="matrix" values="0 0 0 0 0 0 0 0 0 0 0 0 0 0 0 0 0 0 127 0"
            result="hardAlpha" />
          <feOffset />
          <feGaussianBlur stdDeviation="8" />
          <feComposite in2="hardAlpha" operator="out" />
          <feColorMatrix type="matrix" values="0 0 0 0 0 0 0 0 0 0 0 0 0 0 0 0 0 0 0.08 0" />
          <feBlend mode="normal" in2="BackgroundImageFix" result="effect1_dropShadow_4406_864" />
          <feBlend mode="normal" in="SourceGraphic" in2="effect1_dropShadow_4406_864" result="shape" />
        </filter>
      </defs>
    </svg>