<svg width="24" height="24" viewBox="0 0 24 24" fill="none" xmlns="http://www.w3.org/2000/svg">
<g id="Frame">
<g id="Group">
<g id="Group_2">
<g id="Group_3">
<path id="Vector" d="M21.4 17.6C21.4 17.5 21.3 17.4 21.2 17.3L18.2 14.3C17.8 13.9 17.2 13.9 16.8 14.3C16.4 14.7 16.4 15.3 16.8 15.7L18.1 17H3.5C2.9 17 2.5 17.4 2.5 18C2.5 18.6 2.9 19 3.5 19H18.1L16.8 20.3C16.4 20.7 16.4 21.3 16.8 21.7C17.2 22.1 17.8 22.1 18.2 21.7L21.2 18.7C21.3 18.6 21.4 18.5 21.4 18.4C21.5 18.1 21.5 17.9 21.4 17.6ZM8.5 10V14C8.5 14.6 8.9 15 9.5 15C10.1 15 10.5 14.6 10.5 14V4H12.5V14C12.5 14.6 12.9 15 13.5 15C14.1 15 14.5 14.6 14.5 14V4H15.5C16.1 4 16.5 3.6 16.5 3C16.5 2.4 16.1 2 15.5 2H8.5C6.3 2 4.5 3.8 4.5 6C4.5 8.2 6.3 10 8.5 10ZM8.5 4V8C7.4 8 6.5 7.1 6.5 6C6.5 4.9 7.4 4 8.5 4Z" fill="#465373"/>
</g>
</g>
</g>
</g>
</svg>
