<svg width="24" height="24" viewBox="0 0 24 24" fill="none" xmlns="http://www.w3.org/2000/svg">
<g id="Frame">
<g id="Group">
<g id="Group_2">
<g id="Group_3">
<path id="Vector" d="M20.5004 17H5.90039L7.20039 15.7C7.60039 15.3 7.60039 14.7 7.20039 14.3C6.80039 13.9 6.20039 13.9 5.80039 14.3L2.80039 17.3C2.70039 17.4 2.60039 17.5 2.60039 17.6C2.50039 17.8 2.50039 18.1 2.60039 18.4C2.60039 18.5 2.70039 18.6 2.80039 18.7L5.80039 21.7C6.20039 22.1 6.80039 22.1 7.20039 21.7C7.60039 21.3 7.60039 20.7 7.20039 20.3L5.90039 19H20.5004C21.1004 19 21.5004 18.6 21.5004 18C21.5004 17.4 21.0004 17 20.5004 17ZM11.5004 10V14C11.5004 14.6 11.9004 15 12.5004 15C13.1004 15 13.5004 14.6 13.5004 14V4H15.5004V14C15.5004 14.6 15.9004 15 16.5004 15C17.1004 15 17.5004 14.6 17.5004 14V4H18.5004C19.1004 4 19.5004 3.6 19.5004 3C19.5004 2.4 19.1004 2 18.5004 2H11.5004C9.30039 2 7.50039 3.8 7.50039 6C7.50039 8.2 9.30039 10 11.5004 10ZM11.5004 4V8C10.4004 8 9.50039 7.1 9.50039 6C9.50039 4.9 10.4004 4 11.5004 4Z" fill="#465373"/>
</g>
</g>
</g>
</g>
</svg>
