<svg width="20" height="20" viewBox="0 0 20 20" fill="none" xmlns="http://www.w3.org/2000/svg">
<g clip-path="url(#clip0_5799_1416)">
<path d="M7.49984 3.33341V1.66675M12.4998 16.6667V18.3334M3.33317 7.50008H1.6665M16.6665 12.5001H18.3332M4.09502 4.09526L2.9165 2.91675M15.9047 15.9049L17.0832 17.0834M9.99984 14.7141L8.23207 16.4819C6.93032 17.7836 4.81977 17.7836 3.51802 16.4819C2.21628 15.1801 2.21628 13.0696 3.51802 11.7678L5.28579 10.0001M14.7139 10.0001L16.4817 8.23231C17.7834 6.93057 17.7834 4.82002 16.4817 3.51827C15.1799 2.21652 13.0694 2.21652 11.7676 3.51827L9.99984 5.28604" stroke="#B42318" stroke-width="1.66667" stroke-linecap="round" stroke-linejoin="round"/>
</g>
<defs>
<clipPath id="clip0_5799_1416">
<rect width="20" height="20" fill="white"/>
</clipPath>
</defs>
</svg>
