<svg width="44" height="44" viewBox="0 0 44 44" fill="none" xmlns="http://www.w3.org/2000/svg">
<g id="instagram" filter="url(#filter0_d_3852_1013)">
<rect x="10" y="10" width="24" height="24" rx="12" fill="white" shape-rendering="crispEdges"/>
<rect x="10.6909" y="10.6909" width="22.6181" height="22.6181" rx="11.3091" stroke="white" stroke-width="1.38186" shape-rendering="crispEdges"/>
<rect id="bg" x="11.5" y="11.5" width="21" height="21" rx="8.29118" fill="url(#paint0_radial_3852_1013)"/>
<rect id="bg_2" x="11.5" y="11.5" width="21" height="21" rx="8.29118" fill="url(#paint1_radial_3852_1013)"/>
<rect id="bg_3" x="11.5" y="11.5" width="21" height="21" rx="8.29118" fill="url(#paint2_radial_3852_1013)"/>
<g id="instagram_2">
<path d="M27.25 17.875C27.25 18.4963 26.7463 19 26.125 19C25.5037 19 25 18.4963 25 17.875C25 17.2537 25.5037 16.75 26.125 16.75C26.7463 16.75 27.25 17.2537 27.25 17.875Z" fill="white"/>
<path fill-rule="evenodd" clip-rule="evenodd" d="M22 25.75C24.0711 25.75 25.75 24.0711 25.75 22C25.75 19.9289 24.0711 18.25 22 18.25C19.9289 18.25 18.25 19.9289 18.25 22C18.25 24.0711 19.9289 25.75 22 25.75ZM22 24.25C23.2426 24.25 24.25 23.2426 24.25 22C24.25 20.7574 23.2426 19.75 22 19.75C20.7574 19.75 19.75 20.7574 19.75 22C19.75 23.2426 20.7574 24.25 22 24.25Z" fill="white"/>
<path fill-rule="evenodd" clip-rule="evenodd" d="M14.5 21.7C14.5 19.1798 14.5 17.9196 14.9905 16.957C15.4219 16.1103 16.1103 15.4219 16.957 14.9905C17.9196 14.5 19.1798 14.5 21.7 14.5H22.3C24.8202 14.5 26.0804 14.5 27.043 14.9905C27.8897 15.4219 28.5781 16.1103 29.0095 16.957C29.5 17.9196 29.5 19.1798 29.5 21.7V22.3C29.5 24.8202 29.5 26.0804 29.0095 27.043C28.5781 27.8897 27.8897 28.5781 27.043 29.0095C26.0804 29.5 24.8202 29.5 22.3 29.5H21.7C19.1798 29.5 17.9196 29.5 16.957 29.0095C16.1103 28.5781 15.4219 27.8897 14.9905 27.043C14.5 26.0804 14.5 24.8202 14.5 22.3V21.7ZM21.7 16H22.3C23.5849 16 24.4583 16.0012 25.1334 16.0563C25.7911 16.1101 26.1274 16.2074 26.362 16.327C26.9265 16.6146 27.3854 17.0735 27.673 17.638C27.7926 17.8726 27.8899 18.2089 27.9437 18.8666C27.9988 19.5417 28 20.4151 28 21.7V22.3C28 23.5849 27.9988 24.4583 27.9437 25.1334C27.8899 25.7911 27.7926 26.1274 27.673 26.362C27.3854 26.9265 26.9265 27.3854 26.362 27.673C26.1274 27.7926 25.7911 27.8899 25.1334 27.9437C24.4583 27.9988 23.5849 28 22.3 28H21.7C20.4151 28 19.5417 27.9988 18.8666 27.9437C18.2089 27.8899 17.8726 27.7926 17.638 27.673C17.0735 27.3854 16.6146 26.9265 16.327 26.362C16.2074 26.1274 16.1101 25.7911 16.0563 25.1334C16.0012 24.4583 16 23.5849 16 22.3V21.7C16 20.4151 16.0012 19.5417 16.0563 18.8666C16.1101 18.2089 16.2074 17.8726 16.327 17.638C16.6146 17.0735 17.0735 16.6146 17.638 16.327C17.8726 16.2074 18.2089 16.1101 18.8666 16.0563C19.5417 16.0012 20.4151 16 21.7 16Z" fill="white"/>
</g>
</g>
<defs>
<filter id="filter0_d_3852_1013" x="0" y="0" width="44" height="44" filterUnits="userSpaceOnUse" color-interpolation-filters="sRGB">
<feFlood flood-opacity="0" result="BackgroundImageFix"/>
<feColorMatrix in="SourceAlpha" type="matrix" values="0 0 0 0 0 0 0 0 0 0 0 0 0 0 0 0 0 0 127 0" result="hardAlpha"/>
<feOffset/>
<feGaussianBlur stdDeviation="5"/>
<feComposite in2="hardAlpha" operator="out"/>
<feColorMatrix type="matrix" values="0 0 0 0 0 0 0 0 0 0 0 0 0 0 0 0 0 0 0.08 0"/>
<feBlend mode="normal" in2="BackgroundImageFix" result="effect1_dropShadow_3852_1013"/>
<feBlend mode="normal" in="SourceGraphic" in2="effect1_dropShadow_3852_1013" result="shape"/>
</filter>
<radialGradient id="paint0_radial_3852_1013" cx="0" cy="0" r="1" gradientUnits="userSpaceOnUse" gradientTransform="translate(19 27.25) rotate(-55.3758) scale(19.1397)">
<stop stop-color="#B13589"/>
<stop offset="0.79309" stop-color="#C62F94"/>
<stop offset="1" stop-color="#8A3AC8"/>
</radialGradient>
<radialGradient id="paint1_radial_3852_1013" cx="0" cy="0" r="1" gradientUnits="userSpaceOnUse" gradientTransform="translate(18.25 33.25) rotate(-65.1363) scale(16.9457)">
<stop stop-color="#E0E8B7"/>
<stop offset="0.444662" stop-color="#FB8A2E"/>
<stop offset="0.71474" stop-color="#E2425C"/>
<stop offset="1" stop-color="#E2425C" stop-opacity="0"/>
</radialGradient>
<radialGradient id="paint2_radial_3852_1013" cx="0" cy="0" r="1" gradientUnits="userSpaceOnUse" gradientTransform="translate(10.375 12.25) rotate(-8.1301) scale(29.1682 6.23877)">
<stop offset="0.156701" stop-color="#406ADC"/>
<stop offset="0.467799" stop-color="#6A45BE"/>
<stop offset="1" stop-color="#6A45BE" stop-opacity="0"/>
</radialGradient>
</defs>
</svg>
