<svg width="24" height="24" viewBox="0 0 24 24" fill="none" xmlns="http://www.w3.org/2000/svg">
<g id="monitor-03">
<path id="Icon" d="M2.27783 13.9444L21.7223 13.9444M8.11116 20.75H15.8889M6.9445 17.8333H17.0556C18.6891 17.8333 19.5058 17.8333 20.1297 17.5154C20.6786 17.2358 21.1247 16.7896 21.4044 16.2408C21.7223 15.6169 21.7223 14.8002 21.7223 13.1667V7.91667C21.7223 6.28318 21.7223 5.46644 21.4044 4.84253C21.1247 4.29372 20.6786 3.84753 20.1297 3.5679C19.5058 3.25 18.6891 3.25 17.0556 3.25H6.9445C5.31101 3.25 4.49427 3.25 3.87036 3.5679C3.32155 3.84753 2.87536 4.29372 2.59573 4.84253C2.27783 5.46644 2.27783 6.28318 2.27783 7.91667V13.1667C2.27783 14.8002 2.27783 15.6169 2.59573 16.2408C2.87536 16.7896 3.32155 17.2358 3.87036 17.5154C4.49427 17.8333 5.31101 17.8333 6.9445 17.8333Z" stroke="#1D2939" stroke-width="1.66667" stroke-linecap="round" stroke-linejoin="round"/>
</g>
</svg>
