<svg width="24" height="24" viewBox="0 0 24 24" fill="none" xmlns="http://www.w3.org/2000/svg">
<g id="notification-text">
<path id="Icon" d="M11.028 4.22222H7.91691C6.28342 4.22222 5.46668 4.22222 4.84277 4.54012C4.29397 4.81975 3.84777 5.26594 3.56814 5.81475C3.25024 6.43866 3.25024 7.2554 3.25024 8.88889V16.0833C3.25024 17.7168 3.25024 18.5336 3.56814 19.1575C3.84777 19.7063 4.29397 20.1525 4.84277 20.4321C5.46668 20.75 6.28342 20.75 7.91691 20.75H15.1114C16.7448 20.75 17.5616 20.75 18.1855 20.4321C18.7343 20.1525 19.1805 19.7063 19.4601 19.1575C19.778 18.5336 19.778 17.7168 19.778 16.0833V12.9722M12.9725 16.8611H7.13913M14.9169 12.9722H7.13913M19.896 4.10427C21.035 5.2433 21.035 7.09003 19.896 8.22906C18.7569 9.36809 16.9102 9.36809 15.7712 8.22906C14.6322 7.09003 14.6322 5.2433 15.7712 4.10427C16.9102 2.96524 18.7569 2.96524 19.896 4.10427Z" stroke="#1D2939" stroke-width="1.94444" stroke-linecap="round" stroke-linejoin="round"/>
</g>
</svg>
