<svg width="44" height="44" viewBox="0 0 44 44" fill="none" xmlns="http://www.w3.org/2000/svg">
<g id="snapchat" filter="url(#filter0_d_3852_1012)">
<rect x="10" y="10" width="24" height="24" rx="12" fill="white" shape-rendering="crispEdges"/>
<rect x="10.6909" y="10.6909" width="22.6181" height="22.6181" rx="11.3091" stroke="white" stroke-width="1.38186" shape-rendering="crispEdges"/>
<circle id="bg" cx="22" cy="22" r="10.5" fill="#FFFA37"/>
<path id="stroke" fill-rule="evenodd" clip-rule="evenodd" d="M25.7692 16.1391C25.045 15.2266 23.8504 14.5 22.0088 14.5C20.4318 14.5155 17.2778 15.3883 17.2778 18.7553C17.2778 19.2471 17.3168 19.9056 17.3508 20.3906C17.3107 20.3789 17.2614 20.3571 17.1833 20.3197L17.1725 20.3145C17.0344 20.2482 16.8244 20.1474 16.5324 20.1474C16.2373 20.1474 15.9521 20.2629 15.7403 20.4343C15.5298 20.6046 15.35 20.8664 15.35 21.1829C15.35 21.5788 15.5728 21.8416 15.8333 22.0101C16.0647 22.1598 16.3565 22.2554 16.5875 22.3311L16.6104 22.3386C16.8576 22.4197 17.0388 22.4815 17.1638 22.5594C17.261 22.62 17.2758 22.6584 17.2776 22.6948C17.2763 22.7 17.2734 22.7112 17.2669 22.7293C17.2536 22.7668 17.2314 22.8174 17.199 22.8807C17.1343 23.0071 17.04 23.1623 16.9278 23.328C16.7015 23.6621 16.4254 24.0048 16.2191 24.2032C16.0156 24.3989 15.6817 24.6422 15.3326 24.8358C15.1595 24.9318 14.9902 25.0114 14.8388 25.066C14.6824 25.1225 14.5678 25.144 14.4971 25.144C14.441 25.144 14.3925 25.1555 14.3714 25.1608C14.3416 25.1682 14.3108 25.178 14.2803 25.1895C14.2199 25.2122 14.1479 25.2463 14.0766 25.2942C13.9403 25.386 13.75 25.5709 13.75 25.8626C13.75 26.0149 13.7857 26.1438 13.8475 26.2556C13.9016 26.3535 13.9712 26.4278 14.0112 26.4706L14.0171 26.4769L14.0282 26.4888C14.2483 26.7256 14.6126 26.8903 14.9662 27.0034C15.2701 27.1005 15.6098 27.1729 15.9409 27.2163C15.9456 27.2377 15.9505 27.2607 15.9558 27.2859L15.9575 27.294C15.9784 27.3923 16.006 27.5225 16.0467 27.6425C16.085 27.7558 16.1545 27.9233 16.2967 28.0426C16.4779 28.1945 16.7148 28.2099 16.8694 28.2092C17.0354 28.2086 17.2291 28.1852 17.413 28.163L17.4286 28.1612C17.6873 28.13 17.9579 28.0978 18.2382 28.0978C18.7498 28.0978 19.0776 28.3115 19.5921 28.6628L19.5955 28.6652C19.7737 28.7869 19.9732 28.9231 20.2 29.0571C20.9591 29.5057 21.5759 29.5018 21.9255 29.4997C21.9486 29.4995 21.9705 29.4994 21.9912 29.4994C22.0119 29.4994 22.0339 29.4995 22.0571 29.4997C22.4072 29.5019 23.0405 29.506 23.8 29.0571C24.0268 28.9231 24.2263 28.7869 24.4045 28.6652L24.4079 28.6628C24.9224 28.3115 25.2502 28.0978 25.7618 28.0978C26.0421 28.0978 26.3127 28.13 26.5714 28.1612L26.587 28.163C26.7709 28.1852 26.9646 28.2086 27.1306 28.2092C27.2852 28.2099 27.5221 28.1945 27.7033 28.0426C27.8455 27.9233 27.915 27.7558 27.9533 27.6425C27.994 27.5225 28.0216 27.3923 28.0424 27.294L28.0442 27.2859C28.0495 27.2607 28.0544 27.2377 28.0591 27.2163C28.3902 27.1729 28.7299 27.1005 29.0338 27.0034C29.3874 26.8903 29.7518 26.7255 29.9719 26.4888L29.9829 26.4769L29.9888 26.4706C30.0288 26.4278 30.0984 26.3536 30.1525 26.2556C30.2143 26.1438 30.25 26.0149 30.25 25.8626C30.25 25.5709 30.0597 25.386 29.9234 25.2942C29.8521 25.2463 29.7801 25.2122 29.7197 25.1895C29.6892 25.178 29.6584 25.1682 29.6287 25.1608C29.6075 25.1555 29.559 25.144 29.5029 25.144C29.4322 25.144 29.3176 25.1225 29.1612 25.066C29.0098 25.0114 28.8405 24.9318 28.6674 24.8358C28.3183 24.6422 27.9844 24.3989 27.7809 24.2032C27.5746 24.0048 27.2985 23.6621 27.0722 23.328C26.96 23.1623 26.8657 23.0071 26.801 22.8807C26.7686 22.8174 26.7464 22.7668 26.7331 22.7293C26.7266 22.7112 26.7237 22.7 26.7224 22.6948C26.7242 22.6584 26.739 22.62 26.8362 22.5594C26.9612 22.4815 27.1424 22.4197 27.3896 22.3386L27.4125 22.3311C27.6435 22.2554 27.9353 22.1598 28.1667 22.0101C28.4272 21.8416 28.65 21.5788 28.65 21.1829C28.65 20.8664 28.4702 20.6046 28.2597 20.4343C28.0479 20.2629 27.7627 20.1474 27.4676 20.1474C27.1756 20.1474 26.9656 20.2482 26.8275 20.3145L26.8167 20.3197C26.7386 20.3571 26.6893 20.3789 26.6492 20.3906C26.6832 19.9056 26.7222 19.2471 26.7222 18.7553C26.7222 18.0878 26.4795 17.0343 25.7692 16.1391ZM18.8374 16.5796C18.2366 17.3316 18.0308 18.2246 18.0308 18.7553C18.0308 19.2474 18.0725 19.931 18.1076 20.4212C18.1193 20.584 18.0859 20.7737 17.9438 20.9244C17.7999 21.0768 17.6041 21.1263 17.4292 21.1263C17.1767 21.1263 16.9846 21.0339 16.8617 20.9748L16.8475 20.968C16.7104 20.9023 16.6383 20.8717 16.5324 20.8717C16.436 20.8717 16.3183 20.9131 16.225 20.9886C16.1304 21.0651 16.1029 21.14 16.1029 21.1829C16.1029 21.2702 16.1351 21.3325 16.2535 21.4091C16.3932 21.4995 16.5923 21.5674 16.8533 21.653L16.8761 21.6605C17.0928 21.7315 17.3613 21.8195 17.5732 21.9515C17.811 22.0998 18.0308 22.338 18.0308 22.7051C18.0308 22.8013 18.0042 22.8939 17.9792 22.9641C17.9521 23.0402 17.9155 23.1206 17.8744 23.2007C17.7922 23.3614 17.681 23.5428 17.5587 23.7234C17.3161 24.0815 17.0078 24.4688 16.7515 24.7154C16.4924 24.9646 16.1028 25.2448 15.7087 25.4633C15.5102 25.5734 15.303 25.6721 15.1032 25.7442C14.9244 25.8087 14.7316 25.8593 14.5467 25.8672C14.5421 25.8691 14.537 25.8715 14.5316 25.8741C14.5231 25.8784 14.5151 25.8831 14.5082 25.8878L14.5046 25.8902C14.5053 25.8952 14.5061 25.8989 14.5068 25.9015C14.5083 25.9073 14.51 25.9114 14.5124 25.9157C14.5196 25.9288 14.5311 25.9434 14.5773 25.993L14.5895 26.006C14.6728 26.0957 14.8781 26.212 15.2036 26.316C15.5136 26.4151 15.8802 26.4867 16.2265 26.5195C16.3998 26.5359 16.4997 26.6442 16.5419 26.7025C16.5854 26.7626 16.6103 26.826 16.6249 26.8681C16.653 26.9495 16.6742 27.0499 16.691 27.129L16.6936 27.141C16.7164 27.2489 16.7365 27.3411 16.7626 27.4182C16.7718 27.4454 16.7803 27.4662 16.7876 27.4814C16.8042 27.4833 16.8295 27.4851 16.8662 27.4849C17.0254 27.4843 17.1849 27.4606 17.3427 27.4415C17.5951 27.4111 17.9075 27.3735 18.2382 27.3735C19.0053 27.3735 19.5115 27.7193 20.0005 28.0534L20.0279 28.0722C20.2089 28.1958 20.3902 28.3195 20.5941 28.44C21.1688 28.7795 21.606 28.7771 21.9255 28.7753C21.948 28.7752 21.9699 28.7751 21.9912 28.7751C22.0123 28.7751 22.0341 28.7752 22.0565 28.7753C22.3794 28.777 22.8313 28.7795 23.4059 28.44C23.6098 28.3195 23.7911 28.1958 23.9721 28.0722L23.9995 28.0534C24.4885 27.7193 24.9947 27.3735 25.7618 27.3735C26.0925 27.3735 26.4049 27.4111 26.6573 27.4415L26.665 27.4425C26.8691 27.4671 27.0185 27.4845 27.1338 27.4849C27.1705 27.4851 27.1958 27.4833 27.2124 27.4814C27.2197 27.4662 27.2282 27.4454 27.2374 27.4182C27.2635 27.3411 27.2836 27.2489 27.3064 27.141L27.309 27.129C27.3258 27.0499 27.347 26.9495 27.3751 26.8681C27.3897 26.826 27.4146 26.7626 27.4581 26.7025C27.5003 26.6442 27.6002 26.5359 27.7735 26.5195C28.1198 26.4867 28.4864 26.4151 28.7964 26.316C29.1219 26.212 29.3272 26.0957 29.4105 26.006L29.4227 25.993C29.4689 25.9435 29.4804 25.9288 29.4876 25.9157C29.49 25.9114 29.4917 25.9073 29.4932 25.9015C29.4939 25.8989 29.4947 25.8952 29.4954 25.8902L29.4918 25.8878C29.4849 25.8831 29.4769 25.8784 29.4684 25.8741C29.463 25.8715 29.4579 25.8691 29.4533 25.8672C29.2684 25.8593 29.0756 25.8087 28.8968 25.7442C28.697 25.6721 28.4898 25.5734 28.2913 25.4633C27.8972 25.2448 27.5076 24.9646 27.2485 24.7154C26.9922 24.4688 26.6839 24.0815 26.4413 23.7234C26.319 23.5428 26.2078 23.3614 26.1256 23.2007C26.0845 23.1206 26.0479 23.0402 26.0208 22.9641C25.9958 22.8939 25.9692 22.8013 25.9692 22.7051C25.9692 22.338 26.189 22.0998 26.4268 21.9515C26.6387 21.8195 26.9072 21.7315 27.1239 21.6605L27.1467 21.653C27.4077 21.5674 27.6068 21.4995 27.7465 21.4091C27.8649 21.3325 27.8971 21.2702 27.8971 21.1829C27.8971 21.14 27.8696 21.0651 27.775 20.9886C27.6817 20.9131 27.564 20.8717 27.4676 20.8717C27.3617 20.8717 27.2896 20.9023 27.1525 20.968L27.1383 20.9748C27.0154 21.0339 26.8233 21.1263 26.5708 21.1263C26.3959 21.1263 26.2001 21.0768 26.0562 20.9244C25.9141 20.7737 25.8807 20.584 25.8924 20.4212C25.9275 19.931 25.9692 19.2474 25.9692 18.7553C25.9692 18.2232 25.767 17.3301 25.1707 16.5786C24.5881 15.8445 23.6143 15.2243 22.0088 15.2243C20.4032 15.2243 19.4245 15.8447 18.8374 16.5796Z" fill="black"/>
<path id="body" fill-rule="evenodd" clip-rule="evenodd" d="M18.8373 16.5794C18.2365 17.3314 18.0307 18.2244 18.0307 18.7551C18.0307 19.2472 18.0723 19.9308 18.1075 20.421C18.1192 20.5838 18.0858 20.7735 17.9437 20.9242C17.7997 21.0766 17.604 21.1261 17.4291 21.1261C17.1766 21.1261 16.9845 21.0337 16.8616 20.9746L16.8474 20.9678C16.7103 20.9021 16.6382 20.8715 16.5322 20.8715C16.4358 20.8715 16.3182 20.9129 16.2248 20.9884C16.1302 21.0649 16.1028 21.1399 16.1028 21.1827C16.1028 21.27 16.135 21.3323 16.2533 21.4089C16.3931 21.4993 16.5922 21.5672 16.8532 21.6528L16.876 21.6603C17.0927 21.7313 17.3612 21.8193 17.5731 21.9513C17.8109 22.0996 18.0307 22.3379 18.0307 22.7049C18.0307 22.8011 18.0041 22.8937 17.9791 22.9639C17.952 23.04 17.9154 23.1204 17.8743 23.2006C17.7921 23.3612 17.6808 23.5426 17.5586 23.7232C17.316 24.0813 17.0077 24.4686 16.7514 24.7152C16.4923 24.9644 16.1027 25.2446 15.7086 25.4631C15.5101 25.5732 15.3029 25.6719 15.1031 25.744C14.9242 25.8086 14.7315 25.8591 14.5466 25.867C14.542 25.869 14.5369 25.8713 14.5315 25.874C14.523 25.8782 14.515 25.8829 14.5081 25.8876L14.5045 25.89C14.5052 25.895 14.506 25.8987 14.5067 25.9013C14.5082 25.9071 14.5099 25.9112 14.5123 25.9155C14.5195 25.9286 14.531 25.9432 14.5772 25.9928L14.5893 26.0058C14.6727 26.0955 14.878 26.2118 15.2035 26.3158C15.5135 26.4149 15.8801 26.4865 16.2264 26.5193C16.3997 26.5357 16.4995 26.644 16.5418 26.7024C16.5853 26.7624 16.6102 26.8258 16.6248 26.8679C16.6529 26.9494 16.6741 27.0497 16.6909 27.1288L16.6934 27.1408C16.7163 27.2487 16.7363 27.3409 16.7624 27.418C16.7717 27.4452 16.7802 27.466 16.7875 27.4812C16.804 27.4831 16.8294 27.4849 16.8661 27.4847C17.0253 27.4841 17.1848 27.4604 17.3425 27.4413C17.595 27.4109 17.9074 27.3733 18.2381 27.3733C19.0052 27.3733 19.5114 27.7191 20.0003 28.0532L20.0278 28.072C20.2087 28.1956 20.3901 28.3193 20.594 28.4398C21.1687 28.7794 21.6059 28.7769 21.9254 28.7751C21.9478 28.775 21.9697 28.7749 21.9911 28.7749C22.0122 28.7749 22.034 28.775 22.0563 28.7751C22.3793 28.7768 22.8312 28.7793 23.4058 28.4398C23.6097 28.3193 23.791 28.1956 23.972 28.072L23.9994 28.0532C24.4884 27.7191 24.9946 27.3733 25.7617 27.3733C26.0924 27.3733 26.4048 27.4109 26.6572 27.4413L26.6648 27.4423C26.869 27.4669 27.0184 27.4843 27.1337 27.4847C27.1704 27.4849 27.1957 27.4831 27.2123 27.4812C27.2196 27.466 27.2281 27.4452 27.2373 27.418C27.2634 27.3409 27.2834 27.2487 27.3063 27.1408L27.3089 27.1288C27.3256 27.0497 27.3469 26.9494 27.375 26.8679C27.3896 26.8258 27.4144 26.7624 27.458 26.7024C27.5002 26.644 27.6001 26.5357 27.7734 26.5193C28.1197 26.4865 28.4863 26.4149 28.7963 26.3158C29.1218 26.2118 29.3271 26.0955 29.4104 26.0058L29.4225 25.9928C29.4688 25.9433 29.4802 25.9286 29.4875 25.9155C29.4899 25.9112 29.4916 25.9071 29.4931 25.9013C29.4938 25.8987 29.4946 25.895 29.4953 25.89L29.4917 25.8876C29.4847 25.8829 29.4768 25.8782 29.4682 25.874C29.4629 25.8713 29.4578 25.869 29.4532 25.867C29.2683 25.8591 29.0755 25.8086 28.8967 25.744C28.6969 25.6719 28.4897 25.5732 28.2912 25.4631C27.8971 25.2446 27.5075 24.9644 27.2484 24.7152C26.9921 24.4686 26.6838 24.0813 26.4412 23.7232C26.3189 23.5426 26.2077 23.3612 26.1255 23.2006C26.0844 23.1204 26.0478 23.04 26.0207 22.9639C25.9957 22.8937 25.9691 22.8011 25.9691 22.7049C25.9691 22.3379 26.1888 22.0996 26.4267 21.9513C26.6386 21.8193 26.907 21.7313 27.1238 21.6603L27.1465 21.6528C27.4076 21.5672 27.6067 21.4993 27.7464 21.4089C27.8647 21.3323 27.8969 21.27 27.8969 21.1827C27.8969 21.1399 27.8695 21.0649 27.7749 20.9884C27.6816 20.9129 27.5639 20.8715 27.4675 20.8715C27.3616 20.8715 27.2895 20.9021 27.1524 20.9678L27.1381 20.9746C27.0153 21.0337 26.8232 21.1261 26.5707 21.1261C26.3958 21.1261 26.2 21.0766 26.0561 20.9242C25.9139 20.7735 25.8806 20.5838 25.8922 20.421C25.9274 19.9308 25.9691 19.2472 25.9691 18.7551C25.9691 18.2231 25.7669 17.33 25.1705 16.5784C24.588 15.8443 23.6141 15.2241 22.0087 15.2241C20.4031 15.2241 19.4244 15.8445 18.8373 16.5794Z" fill="white"/>
</g>
<defs>
<filter id="filter0_d_3852_1012" x="0" y="0" width="44" height="44" filterUnits="userSpaceOnUse" color-interpolation-filters="sRGB">
<feFlood flood-opacity="0" result="BackgroundImageFix"/>
<feColorMatrix in="SourceAlpha" type="matrix" values="0 0 0 0 0 0 0 0 0 0 0 0 0 0 0 0 0 0 127 0" result="hardAlpha"/>
<feOffset/>
<feGaussianBlur stdDeviation="5"/>
<feComposite in2="hardAlpha" operator="out"/>
<feColorMatrix type="matrix" values="0 0 0 0 0 0 0 0 0 0 0 0 0 0 0 0 0 0 0.08 0"/>
<feBlend mode="normal" in2="BackgroundImageFix" result="effect1_dropShadow_3852_1012"/>
<feBlend mode="normal" in="SourceGraphic" in2="effect1_dropShadow_3852_1012" result="shape"/>
</filter>
</defs>
</svg>
