<svg width="68" height="68" viewBox="0 0 68 68" fill="none" xmlns="http://www.w3.org/2000/svg">
<g filter="url(#filter0_d_6380_2721)">
<rect x="10.5" y="10.5" width="47" height="47" rx="23.5" stroke="white" shape-rendering="crispEdges"/>
<path d="M22.6764 39.6887C22.9108 37.7479 23.7068 36.6612 25.2069 35.5473C27.3532 34.0386 30.0342 34.892 30.0342 34.892V29.8292C30.686 29.8126 31.338 29.8512 31.9827 29.9447V36.46C31.9827 36.46 29.3025 35.6065 27.1562 37.116C25.657 38.2292 24.8593 39.3166 24.6258 41.2575C24.6184 42.3114 24.8162 43.689 25.727 44.8802C25.5018 44.7647 25.2723 44.6332 25.0384 44.4855C23.0321 43.1383 22.6667 41.1171 22.6764 39.6887ZM43.0527 20.4682C41.5763 18.8503 41.018 17.2168 40.8161 16.0693H42.6734C42.6734 16.0693 42.3031 19.0781 45.0021 22.037L45.0395 22.0768C44.3121 21.6192 43.645 21.0791 43.0527 20.4682ZM52.0001 25.0551V31.4393C52.0001 31.4393 49.63 31.3465 47.876 30.9003C45.4269 30.2762 43.8528 29.3191 43.8528 29.3191C43.8528 29.3191 42.7654 28.6365 42.6775 28.5889V41.7723C42.6775 42.5064 42.4765 44.3396 41.8636 45.8685C41.0635 47.8687 39.8288 49.1816 39.6017 49.4499C39.6017 49.4499 38.1001 51.2246 35.4508 52.4197C33.0628 53.4978 30.9661 53.4705 30.3394 53.4978C30.3394 53.4978 26.7151 53.6413 23.4537 51.5218C22.7485 51.0547 22.0902 50.5256 21.4873 49.9414L21.5036 49.9531C24.7657 52.0726 28.3893 51.929 28.3893 51.929C29.0168 51.9017 31.1135 51.929 33.5007 50.8509C36.1475 49.6559 37.6516 47.8812 37.6516 47.8812C37.8763 47.6128 39.1167 46.2999 39.9135 44.299C40.5247 42.7708 40.7274 40.9369 40.7274 40.2028V27.0209C40.8153 27.0693 41.9019 27.7519 41.9019 27.7519C41.9019 27.7519 43.4768 28.7098 45.9258 29.3331C47.6806 29.7793 50.0499 29.8721 50.0499 29.8721V24.8695C50.8606 25.0512 51.5516 25.1004 52.0001 25.0551Z" fill="#EE1D52"/>
<path d="M50.0508 24.8695V29.8706C50.0508 29.8706 47.6815 29.7778 45.9267 29.3315C43.4776 28.7075 41.9027 27.7503 41.9027 27.7503C41.9027 27.7503 40.8161 27.0677 40.7282 27.0194V40.2044C40.7282 40.9384 40.5272 42.7724 39.9143 44.3006C39.1143 46.3015 37.8795 47.6144 37.6525 47.8827C37.6525 47.8827 36.15 49.6574 33.5015 50.8525C31.1143 51.9306 29.0177 51.9033 28.3901 51.9306C28.3901 51.9306 24.7666 52.0741 21.5044 49.9546L21.4882 49.9429C21.1437 49.6094 20.8196 49.2573 20.5172 48.8883C19.4762 47.6191 18.8381 46.1182 18.6777 45.6899C18.6774 45.6881 18.6774 45.6863 18.6777 45.6844C18.4197 44.9402 17.8776 43.1531 17.9517 41.4221C18.0828 38.368 19.1571 36.4935 19.4412 36.0239C20.1935 34.7433 21.1719 33.5975 22.333 32.6375C23.3576 31.8092 24.5189 31.1501 25.7693 30.6873C27.1211 30.144 28.5686 29.8527 30.0342 29.8292V34.892C30.0342 34.892 27.3532 34.0417 25.2077 35.5473C23.7077 36.6612 22.9117 37.7479 22.6773 39.6887C22.6675 41.1171 23.033 43.1383 25.0376 44.4862C25.2715 44.6345 25.501 44.766 25.7262 44.881C26.0764 45.3362 26.5027 45.7329 26.9878 46.055C28.946 47.2945 30.5869 47.3811 32.6852 46.5761C34.0843 46.0378 35.1375 44.8248 35.6258 43.4807C35.9327 42.6413 35.9286 41.7965 35.9286 40.9228V16.0693H40.8121C41.0139 17.2168 41.5723 18.8503 43.0487 20.4682C43.641 21.0791 44.3081 21.6192 45.0355 22.0768C45.2503 22.2991 46.3491 23.3982 47.7596 24.073C48.489 24.4218 49.2577 24.689 50.0508 24.8695Z" fill="black"/>
<path d="M16.7339 44.1353V44.1392L16.8551 44.4676C16.8411 44.4293 16.7961 44.3131 16.7339 44.1353Z" fill="#69C9D0"/>
<path d="M25.7692 30.6875C24.5188 31.1502 23.3575 31.8093 22.3329 32.6377C21.1714 33.5998 20.1932 34.748 19.4419 36.031C19.1578 36.4991 18.0834 38.3752 17.9524 41.4292C17.8783 43.1602 18.4204 44.9474 18.6784 45.6916C18.6781 45.6934 18.6781 45.6953 18.6784 45.6971C18.8412 46.1214 19.4769 47.6223 20.5179 48.8954C20.8202 49.2644 21.1444 49.6166 21.4889 49.9501C20.3854 49.2186 19.4012 48.3342 18.5685 47.3259C17.5365 46.0676 16.9 44.5823 16.734 44.1439C16.7338 44.1408 16.7338 44.1377 16.734 44.1346V44.1291C16.4752 43.3857 15.9315 41.5977 16.0072 39.8644C16.1382 36.8103 17.2126 34.9358 17.4966 34.4662C18.2478 33.183 19.226 32.0348 20.3876 31.0728C21.412 30.2442 22.5734 29.5851 23.824 29.1226C24.604 28.8124 25.4167 28.5836 26.2478 28.44C27.5004 28.2305 28.7797 28.2123 30.0382 28.3862V29.8294C28.5712 29.8524 27.1223 30.1436 25.7692 30.6875Z" fill="#69C9D0"/>
<path d="M40.8162 16.0695H35.9327V40.9238C35.9327 41.7975 35.9327 42.64 35.6299 43.4817C35.1367 44.825 34.0876 46.038 32.6893 46.5763C30.5902 47.3844 28.9493 47.2947 26.9919 46.0552C26.5059 45.7345 26.0786 45.3392 25.7271 44.8851C27.3948 45.7377 28.8875 45.7229 30.7367 45.0114C32.1342 44.4732 33.1849 43.2601 33.6765 41.916C33.9842 41.0767 33.9801 40.2318 33.9801 39.3589V14.5H40.7234C40.7234 14.5 40.6477 15.1178 40.8162 16.0695ZM50.0508 23.4866V24.8697C49.2592 24.6889 48.4918 24.4217 47.7637 24.0732C46.3532 23.3984 45.2544 22.2993 45.0396 22.077C45.2889 22.2339 45.5476 22.3766 45.8144 22.5044C47.5293 23.3251 49.2182 23.57 50.0508 23.4866Z" fill="#69C9D0"/>
</g>
<defs>
<filter id="filter0_d_6380_2721" x="0" y="0" width="68" height="68" filterUnits="userSpaceOnUse" color-interpolation-filters="sRGB">
<feFlood flood-opacity="0" result="BackgroundImageFix"/>
<feColorMatrix in="SourceAlpha" type="matrix" values="0 0 0 0 0 0 0 0 0 0 0 0 0 0 0 0 0 0 127 0" result="hardAlpha"/>
<feOffset/>
<feGaussianBlur stdDeviation="5"/>
<feComposite in2="hardAlpha" operator="out"/>
<feColorMatrix type="matrix" values="0 0 0 0 0 0 0 0 0 0 0 0 0 0 0 0 0 0 0.08 0"/>
<feBlend mode="normal" in2="BackgroundImageFix" result="effect1_dropShadow_6380_2721"/>
<feBlend mode="normal" in="SourceGraphic" in2="effect1_dropShadow_6380_2721" result="shape"/>
</filter>
</defs>
</svg>
