<svg width="24" height="24" viewBox="0 0 24 24" fill="none" xmlns="http://www.w3.org/2000/svg">
<rect x="0.00146484" width="24" height="24" rx="4" fill="#FAC515"/>
<path d="M13.3349 18H10.6682M16.0016 9.33334C16.0016 8.27247 15.5801 7.25505 14.83 6.50491C14.0798 5.75476 13.0624 5.33334 12.0016 5.33334C10.9407 5.33334 9.92328 5.75476 9.17313 6.50491C8.42299 7.25505 8.00156 8.27247 8.00156 9.33334C8.00156 11.3935 7.48187 12.804 6.90134 13.7369C6.41164 14.5239 6.1668 14.9174 6.17578 15.0272C6.18572 15.1487 6.21147 15.1951 6.30941 15.2677C6.39786 15.3333 6.79662 15.3333 7.59413 15.3333H16.409C17.2065 15.3333 17.6053 15.3333 17.6937 15.2677C17.7917 15.1951 17.8174 15.1487 17.8273 15.0272C17.8363 14.9174 17.5915 14.5239 17.1018 13.7369C16.5212 12.804 16.0016 11.3935 16.0016 9.33334Z" stroke="white" stroke-width="1.5" stroke-linecap="round" stroke-linejoin="round"/>
</svg>
