<svg width="40" height="40" viewBox="0 0 40 40" fill="none" xmlns="http://www.w3.org/2000/svg">
<path d="M35.6668 19.9997C35.6668 28.6521 28.6526 35.6663 20.0002 35.6663C11.3477 35.6663 4.3335 28.6521 4.3335 19.9997C4.3335 11.3472 11.3477 4.33301 20.0002 4.33301C28.6526 4.33301 35.6668 11.3472 35.6668 19.9997Z" stroke="#2A50D7" stroke-width="2"/>
<path d="M26.1832 26.5499C25.9666 26.5499 25.7499 26.4999 25.5499 26.3666L20.3832 23.2833C19.0999 22.5166 18.1499 20.8333 18.1499 19.3499V12.5166C18.1499 11.8333 18.7166 11.2666 19.3999 11.2666C20.0832 11.2666 20.6499 11.8333 20.6499 12.5166V19.3499C20.6499 19.9499 21.1499 20.8333 21.6666 21.1333L26.8332 24.2166C27.4332 24.5666 27.6166 25.3333 27.2666 25.9333C27.0166 26.3333 26.5999 26.5499 26.1832 26.5499Z" fill="#1E3BA2"/>
</svg>
