<svg width="48" height="48" viewBox="0 0 48 48" fill="none" xmlns="http://www.w3.org/2000/svg">
<g id="Frame" clip-path="url(#clip0_4798_78927)">
<g id="Group">
<g id="Group_2">
<path id="Vector" d="M10.3297 18.8983H6.47785C6.16765 18.8983 5.87015 19.0216 5.6508 19.2409C5.43146 19.4603 5.30823 19.7578 5.30823 20.068C5.30823 20.3782 5.43146 20.6757 5.6508 20.895C5.87015 21.1144 6.16765 21.2376 6.47785 21.2376H10.3299C10.3299 21.2376 10.9377 21.1144 11.157 20.895C11.3763 20.6757 11.4996 20.3782 11.4996 20.068C11.4996 19.7578 11.3763 19.4603 11.157 19.2409C10.9377 19.0216 10.6399 18.8983 10.3297 18.8983ZM9.05654 27.3974C9.05652 27.0873 8.93328 26.7898 8.71393 26.5704C8.49459 26.3511 8.1971 26.2279 7.88692 26.2279H1.16935C1.01488 26.2265 0.861666 26.2558 0.718553 26.3139C0.575439 26.3721 0.445264 26.458 0.335544 26.5667C0.225823 26.6755 0.13873 26.8049 0.0792947 26.9475C0.0198591 27.0901 -0.0107422 27.243 -0.0107422 27.3975C-0.0107422 27.552 0.0198591 27.7049 0.0792947 27.8475C0.13873 27.9901 0.225823 28.1195 0.335544 28.2282C0.445264 28.337 0.575439 28.4229 0.718553 28.4811C0.861666 28.5392 1.01488 28.5684 1.16935 28.5671H7.88692C8.19712 28.5671 8.49462 28.4438 8.71397 28.2245C8.93331 28.0051 9.05654 27.7076 9.05654 27.3974ZM9.36535 33.5575H3.65907C3.5046 33.5561 3.35138 33.5853 3.20827 33.6435C3.06516 33.7016 2.93498 33.7876 2.82526 33.8963C2.71554 34.005 2.62845 34.1344 2.56901 34.277C2.50958 34.4196 2.47898 34.5726 2.47898 34.727C2.47898 34.8815 2.50958 35.0345 2.56901 35.1771C2.62845 35.3196 2.71554 35.449 2.82526 35.5578C2.93498 35.6665 3.06516 35.7525 3.20827 35.8106C3.35138 35.8688 3.5046 35.898 3.65907 35.8966H9.36535C9.51983 35.898 9.67304 35.8688 9.81616 35.8106C9.95927 35.7525 10.0894 35.6665 10.1992 35.5578C10.3089 35.449 10.396 35.3196 10.4554 35.1771C10.5148 35.0345 10.5455 34.8815 10.5455 34.727C10.5455 34.5726 10.5148 34.4196 10.4554 34.277C10.396 34.1344 10.3089 34.005 10.1992 33.8963C10.0894 33.7876 9.95927 33.7016 9.81616 33.6435C9.67304 33.5853 9.51983 33.5561 9.36535 33.5575ZM29.6368 15.3125C22.1535 15.3125 16.0654 21.4005 16.0654 28.8838C16.0654 36.3672 22.1535 42.4552 29.6368 42.4552C37.1201 42.4552 43.2083 36.3672 43.2083 28.8838C43.2083 21.4005 37.1201 15.3125 29.6368 15.3125ZM29.6368 40.116C27.4153 40.116 25.2437 39.4572 23.3966 38.223C21.5495 36.9888 20.1098 35.2346 19.2597 33.1822C18.4096 31.1297 18.1872 28.8713 18.6206 26.6925C19.054 24.5137 20.1237 22.5123 21.6946 20.9415C23.2654 19.3706 25.2668 18.3009 27.4457 17.8675C29.6245 17.4341 31.8829 17.6565 33.9353 18.5067C35.9877 19.3568 37.7419 20.7965 38.9761 22.6436C40.2104 24.4907 40.8691 26.6623 40.8691 28.8838C40.8657 31.8618 39.6812 34.7167 37.5754 36.8224C35.4697 38.9281 32.6147 40.1127 29.6368 40.116Z" fill="#A3BAF5"/>
<path id="Vector_2" d="M29.6471 15.3125C22.1638 15.3125 16.0756 21.4005 16.0756 28.8838C16.0756 36.3672 22.1638 42.4552 29.6471 42.4552C37.1304 42.4552 43.2185 36.3672 43.2185 28.8838C43.2185 21.4005 37.1304 15.3125 29.6471 15.3125ZM29.6471 40.116C27.4256 40.116 25.2539 39.4572 23.4068 38.223C21.5597 36.9888 20.1201 35.2346 19.27 33.1822C18.4198 31.1297 18.1974 28.8713 18.6308 26.6925C19.0642 24.5137 20.134 22.5123 21.7048 20.9415C23.2757 19.3706 25.2771 18.3009 27.4559 17.8675C29.6347 17.4341 31.8932 17.6565 33.9456 18.5067C35.998 19.3568 37.7522 20.7965 38.9864 22.6436C40.2206 24.4907 40.8794 26.6623 40.8794 28.8838C40.8759 31.8618 39.6914 34.7167 37.5857 36.8224C35.48 38.9281 32.625 40.1127 29.6471 40.116Z" fill="#1E3BA2"/>
</g>
<path id="Vector_3" d="M36.0043 31.2034L30.806 28.2076V24.2768C30.8074 24.1223 30.7782 23.9691 30.72 23.826C30.6618 23.6829 30.5759 23.5527 30.4672 23.443C30.3584 23.3332 30.229 23.2462 30.0864 23.1867C29.9439 23.1273 29.7909 23.0967 29.6364 23.0967C29.4819 23.0967 29.329 23.1273 29.1864 23.1867C29.0438 23.2462 28.9144 23.3332 28.8057 23.443C28.6969 23.5527 28.611 23.6829 28.5528 23.826C28.4947 23.9691 28.4655 24.1223 28.4668 24.2768V28.8835C28.4668 29.0775 28.5151 29.2684 28.6073 29.4391C28.6995 29.6097 28.8328 29.7547 28.9951 29.861C29.0126 29.8727 29.0311 29.8845 29.0524 29.8968L34.8358 33.2301C35.1045 33.3833 35.4229 33.4239 35.7214 33.343C36.0199 33.262 36.2742 33.0661 36.4287 32.7982C36.5831 32.5302 36.6251 32.212 36.5455 31.9131C36.466 31.6142 36.2712 31.3591 36.004 31.2034H36.0043Z" fill="#2A50D7"/>
<path id="Vector_4" d="M44.8729 18.6426L46.3814 17.1341C47.1414 16.3674 47.5667 15.3309 47.5643 14.2513C47.562 13.1718 47.1321 12.1372 46.3687 11.3738C45.6054 10.6105 44.5708 10.1806 43.4912 10.1782C42.4117 10.1758 41.3752 10.6011 40.6085 11.361L38.9234 13.0461C37.248 12.0591 35.4256 11.3463 33.5252 10.9346V7.7828C34.2957 7.59093 34.9801 7.14709 35.4695 6.52178C35.9589 5.89647 36.2253 5.12555 36.2264 4.33148V4.3118C36.2253 3.36901 35.8503 2.46515 35.1837 1.79851C34.517 1.13188 33.6132 0.756902 32.6704 0.755859H26.6033C25.6605 0.756902 24.7566 1.13188 24.0899 1.79851C23.4233 2.46515 23.0483 3.36901 23.0472 4.3118V4.33148C23.0483 5.12556 23.3147 5.89651 23.8041 6.52184C24.2935 7.14717 24.9779 7.59102 25.7484 7.78289V10.9347C17.4846 12.7234 11.2734 20.0904 11.2734 28.8819C11.2734 39.0069 19.5111 47.2448 29.6363 47.2448C39.7616 47.2448 47.9997 39.0072 47.9997 28.8818C48.004 25.233 46.9149 21.6665 44.8729 18.6426ZM42.2622 13.0152C42.5891 12.6882 43.0324 12.5045 43.4948 12.5044C43.9571 12.5043 44.4005 12.6879 44.7275 13.0148C45.0544 13.3417 45.2382 13.785 45.2382 14.2473C45.2383 14.7097 45.0547 15.1531 44.7278 15.48L43.4321 16.7758C42.663 15.9005 41.813 15.0997 40.8935 14.3841L42.2622 13.0152ZM25.3864 4.33148V4.3118C25.3867 3.98918 25.5151 3.67989 25.7432 3.45178C25.9713 3.22367 26.2806 3.09536 26.6033 3.09502H32.6704C32.993 3.09536 33.3023 3.22367 33.5304 3.45178C33.7586 3.67989 33.8869 3.98918 33.8873 4.3118V4.33148C33.8867 4.65405 33.7584 4.96326 33.5303 5.19134C33.3022 5.41942 32.9929 5.54777 32.6704 5.54827H26.6033C26.2807 5.54777 25.9715 5.41942 25.7434 5.19134C25.5153 4.96326 25.3869 4.65405 25.3864 4.33148ZM28.0872 7.88733H31.1857V10.5846C30.6747 10.5417 30.1583 10.519 29.6364 10.519C29.1146 10.519 28.5982 10.542 28.0872 10.5846V7.88733ZM29.6368 44.9055C20.8013 44.9055 13.6132 37.7173 13.6132 28.8818C13.6132 20.0463 20.8013 12.858 29.6368 12.858C38.4723 12.858 45.6606 20.0462 45.6606 28.8818C45.6606 37.7174 38.4723 44.9055 29.6368 44.9055Z" fill="#1E3BA2"/>
</g>
</g>
<defs>
<clipPath id="clip0_4798_78927">
<rect width="48" height="48" fill="white"/>
</clipPath>
</defs>
</svg>
