<svg width="64" height="64" viewBox="0 0 64 64" fill="none" xmlns="http://www.w3.org/2000/svg">
<path d="M53.333 11.9045L10.5335 11.9045C8.85441 11.9064 7.24461 12.5743 6.05729 13.7616C4.86997 14.949 4.2021 16.5588 4.2002 18.2379L4.2002 45.7613C4.2021 47.4404 4.86997 49.0502 6.05729 50.2376C7.24461 51.4249 8.85441 52.0927 10.5335 52.0947L53.333 52.0947C55.0121 52.0927 56.6219 51.4249 57.8093 50.2376C58.9966 49.0502 59.6645 47.4404 59.6664 45.7613L59.6664 18.2379C59.6645 16.5588 58.9966 14.949 57.8093 13.7616C56.6219 12.5743 55.0121 11.9064 53.333 11.9045ZM53.333 13.9045C53.923 13.9048 54.5066 14.0263 55.0477 14.2615L34.4528 28.9722C33.7169 29.4957 32.8363 29.777 31.9333 29.777C31.0302 29.777 30.1496 29.4957 29.4137 28.9722L8.81822 14.2618C9.35943 14.0263 9.9433 13.9047 10.5335 13.9045L53.333 13.9045ZM57.6664 45.7613C57.6652 46.9102 57.2083 48.0118 56.3959 48.8242C55.5835 49.6366 54.482 50.0935 53.333 50.0947L10.5335 50.0947C9.3846 50.0935 8.28304 49.6366 7.47062 48.8242C6.65821 48.0118 6.2013 46.9102 6.2002 45.7613L6.2002 18.2379C6.20435 17.2537 6.54673 16.3009 7.16993 15.5392L28.251 30.5973C29.3246 31.3662 30.6121 31.7796 31.9326 31.7796C33.2532 31.7796 34.5406 31.3662 35.6143 30.5973L56.696 15.5387C57.3195 16.3005 57.6621 17.2535 57.6663 18.2379L57.6664 45.7613Z" fill="#1E3BA2" stroke="#1E3BA2"/>
<path d="M31.999 27C30.6101 27.0041 29.2556 26.4628 28.1283 25.453L23.4204 21.2716C23.2038 21.0787 23.0576 20.7868 23.0137 20.4598C22.9699 20.1328 23.032 19.7975 23.1866 19.5275C23.3411 19.2575 23.5754 19.0749 23.838 19.0197C24.1006 18.9645 24.37 19.0412 24.5872 19.233L29.2977 23.4177C30.0899 24.1082 31.0334 24.4788 32.0005 24.4794C32.9675 24.48 33.9113 24.1105 34.7041 23.4211L39.4093 19.2364C39.5165 19.1401 39.6378 19.0711 39.7665 19.0333C39.8951 18.9956 40.0285 18.9898 40.1589 19.0164C40.2893 19.043 40.4143 19.1015 40.5265 19.1883C40.6387 19.2752 40.7361 19.3888 40.8129 19.5227C40.8898 19.6565 40.9446 19.808 40.9743 19.9683C41.004 20.1286 41.008 20.2946 40.986 20.4569C40.964 20.6191 40.9165 20.7743 40.8461 20.9136C40.7758 21.0529 40.684 21.1735 40.5761 21.2685L35.8709 25.453C34.7428 26.4621 33.3881 27.0033 31.999 27Z" fill="#1E3BA2" stroke="#1E3BA2" stroke-width="0.5"/>
<path d="M21.7379 41.3316L11.7757 41.3316C11.4221 41.3316 11.083 41.1911 10.8329 40.9411C10.5829 40.691 10.4424 40.3519 10.4424 39.9983C10.4424 39.6446 10.5829 39.3055 10.8329 39.0554C11.083 38.8054 11.4221 38.6649 11.7757 38.6649L21.7379 38.6649C22.0916 38.6649 22.4307 38.8054 22.6807 39.0554C22.9308 39.3055 23.0713 39.6446 23.0713 39.9983C23.0713 40.3519 22.9308 40.691 22.6807 40.9411C22.4307 41.1911 22.0916 41.3316 21.7379 41.3316Z" fill="#2A50D7"/>
<path d="M16.4046 36.7222L11.7757 36.7222C11.4221 36.7222 11.083 36.5817 10.8329 36.3317C10.5829 36.0816 10.4424 35.7425 10.4424 35.3889C10.4424 35.0353 10.5829 34.6961 10.8329 34.4461C11.083 34.196 11.4221 34.0555 11.7757 34.0555L16.4046 34.0555C16.7582 34.0555 17.0974 34.196 17.3474 34.4461C17.5975 34.6961 17.7379 35.0353 17.7379 35.3889C17.7379 35.7425 17.5975 36.0816 17.3474 36.3317C17.0974 36.5817 16.7582 36.7222 16.4046 36.7222Z" fill="#A3BAF5"/>
</svg>
