<svg width="28" height="28" viewBox="0 0 28 28" fill="none" xmlns="http://www.w3.org/2000/svg">
<path d="M19.8335 24.7916H8.16683C3.9085 24.7916 1.4585 22.3416 1.4585 18.0833V9.91658C1.4585 5.65825 3.9085 3.20825 8.16683 3.20825H19.8335C24.0918 3.20825 26.5418 5.65825 26.5418 9.91658V18.0833C26.5418 22.3416 24.0918 24.7916 19.8335 24.7916ZM8.16683 4.95825C4.83016 4.95825 3.2085 6.57992 3.2085 9.91658V18.0833C3.2085 21.4199 4.83016 23.0416 8.16683 23.0416H19.8335C23.1702 23.0416 24.7918 21.4199 24.7918 18.0833V9.91658C24.7918 6.57992 23.1702 4.95825 19.8335 4.95825H8.16683Z" fill="#252F4A"/>
<path d="M13.9996 15.015C13.0196 15.015 12.0279 14.7116 11.2696 14.0933L7.61791 11.1766C7.24458 10.8733 7.17458 10.325 7.47792 9.95163C7.78125 9.5783 8.32959 9.5083 8.70292 9.81164L12.3546 12.7283C13.2412 13.44 14.7462 13.44 15.6329 12.7283L19.2846 9.81164C19.6579 9.5083 20.2179 9.56663 20.5096 9.95163C20.8129 10.325 20.7546 10.885 20.3696 11.1766L16.7179 14.0933C15.9712 14.7116 14.9796 15.015 13.9996 15.015Z" fill="#252F4A"/>
</svg>
