<svg width="24" height="25" viewBox="0 0 24 25" fill="none" xmlns="http://www.w3.org/2000/svg">
<g id="layers-two-02">
<path id="Icon" d="M7 12.5001L2 15.0001L11.6422 19.8212C11.7734 19.8868 11.839 19.9196 11.9078 19.9325C11.9687 19.9439 12.0313 19.9439 12.0922 19.9325C12.161 19.9196 12.2266 19.8868 12.3578 19.8212L22 15.0001L17 12.5001M2 10.0001L11.6422 5.17895C11.7734 5.11336 11.839 5.08056 11.9078 5.06766C11.9687 5.05622 12.0313 5.05622 12.0922 5.06766C12.161 5.08056 12.2266 5.11336 12.3578 5.17895L22 10.0001L12.3578 14.8212C12.2266 14.8868 12.161 14.9196 12.0922 14.9325C12.0313 14.9439 11.9687 14.9439 11.9078 14.9325C11.839 14.9196 11.7734 14.8868 11.6422 14.8212L2 10.0001Z" stroke="black" stroke-width="2" stroke-linecap="round" stroke-linejoin="round"/>
</g>
</svg>
