<svg width="24" height="24" viewBox="0 0 24 24" fill="none" xmlns="http://www.w3.org/2000/svg">
<rect x="0.00146484" width="24" height="24" rx="4" fill="#4CA30D"/>
<g clip-path="url(#clip0_12_835)">
<path d="M18.3347 16L13.9061 12M10.0966 12L5.66807 16M5.33472 8.66667L10.778 12.477C11.2188 12.7855 11.4392 12.9398 11.6789 12.9995C11.8906 13.0523 12.1121 13.0523 12.3239 12.9995C12.5636 12.9398 12.784 12.7855 13.2248 12.477L18.6681 8.66667M8.53472 17.3333H15.4681C16.5882 17.3333 17.1482 17.3333 17.576 17.1154C17.9524 16.9236 18.2583 16.6176 18.4501 16.2413C18.6681 15.8135 18.6681 15.2534 18.6681 14.1333V9.86667C18.6681 8.74657 18.6681 8.18651 18.4501 7.75869C18.2583 7.38237 17.9524 7.07641 17.576 6.88466C17.1482 6.66667 16.5882 6.66667 15.4681 6.66667H8.53472C7.41461 6.66667 6.85456 6.66667 6.42674 6.88466C6.05041 7.07641 5.74445 7.38237 5.5527 7.75869C5.33472 8.18651 5.33472 8.74657 5.33472 9.86667V14.1333C5.33472 15.2534 5.33472 15.8135 5.5527 16.2413C5.74445 16.6176 6.05041 16.9236 6.42674 17.1154C6.85456 17.3333 7.41461 17.3333 8.53472 17.3333Z" stroke="white" stroke-width="1.5" stroke-linecap="round" stroke-linejoin="round"/>
</g>
<defs>
<clipPath id="clip0_12_835">
<rect width="16" height="16" fill="white" transform="translate(4.00146 4)"/>
</clipPath>
</defs>
</svg>
