<svg width="24" height="24" viewBox="0 0 24 24" fill="none" xmlns="http://www.w3.org/2000/svg">
<rect x="0.00146484" width="24" height="24" rx="4" fill="#3369E4"/>
<path d="M8.66813 9.66667H12.0015M8.66813 12H14.0015M10.4573 16H14.8015C15.9216 16 16.4816 16 16.9094 15.782C17.2858 15.5903 17.5917 15.2843 17.7835 14.908C18.0015 14.4802 18.0015 13.9201 18.0015 12.8V9.2C18.0015 8.07989 18.0015 7.51984 17.7835 7.09202C17.5917 6.71569 17.2858 6.40973 16.9094 6.21799C16.4816 6 15.9216 6 14.8015 6H9.20147C8.08136 6 7.52131 6 7.09348 6.21799C6.71716 6.40973 6.4112 6.71569 6.21945 7.09202C6.00146 7.51984 6.00146 8.0799 6.00146 9.2V17.557C6.00146 17.9122 6.00146 18.0898 6.07428 18.1811C6.13761 18.2604 6.23364 18.3066 6.33516 18.3065C6.45188 18.3063 6.59058 18.1954 6.86797 17.9735L8.45827 16.7012C8.78314 16.4413 8.94558 16.3114 9.12646 16.219C9.28693 16.137 9.45775 16.0771 9.63427 16.0408C9.83324 16 10.0413 16 10.4573 16Z" stroke="white" stroke-width="1.5" stroke-linecap="round" stroke-linejoin="round"/>
</svg>
