<svg width="64" height="64" viewBox="0 0 64 64" fill="none" xmlns="http://www.w3.org/2000/svg">
<path d="M50.6665 23.333C45.1465 23.333 40.6665 18.853 40.6665 13.333C40.6665 7.81301 45.1465 3.33301 50.6665 3.33301C56.1865 3.33301 60.6665 7.81301 60.6665 13.333C60.6665 18.853 56.1865 23.333 50.6665 23.333ZM50.6665 7.33301C47.3598 7.33301 44.6665 10.0263 44.6665 13.333C44.6665 16.6397 47.3598 19.333 50.6665 19.333C53.9732 19.333 56.6665 16.6397 56.6665 13.333C56.6665 10.0263 53.9732 7.33301 50.6665 7.33301Z" fill="#2A50D7"/>
<path d="M31.3333 32H18C16.9067 32 16 31.0933 16 30C16 28.9067 16.9067 28 18 28H31.3333C32.4267 28 33.3333 28.9067 33.3333 30C33.3333 31.0933 32.4267 32 31.3333 32Z" fill="#A3BAF5"/>
<path d="M38.2857 40H17.7143C16.7771 40 16 39.0933 16 38C16 36.9067 16.7771 36 17.7143 36H38.2857C39.2229 36 40 36.9067 40 38C40 39.0933 39.2229 40 38.2857 40Z" fill="#A3BAF5"/>
<path d="M44.5236 48H18.8094C17.6379 48 16.6665 47.0933 16.6665 46C16.6665 44.9067 17.6379 44 18.8094 44H44.5236C45.6951 44 46.6665 44.9067 46.6665 46C46.6665 47.0933 45.6951 48 44.5236 48Z" fill="#A3BAF5"/>
<path d="M40.1744 60H24.8256C10.9349 60 5 54.0651 5 40.1744V24.8256C5 10.9349 10.9349 5 24.8256 5H37.6163C38.6651 5 39.5349 5.86977 39.5349 6.9186C39.5349 7.96744 38.6651 8.83721 37.6163 8.83721H24.8256C13.0326 8.83721 8.83721 13.0326 8.83721 24.8256V40.1744C8.83721 51.9674 13.0326 56.1628 24.8256 56.1628H40.1744C51.9674 56.1628 56.1628 51.9674 56.1628 40.1744V27.3837C56.1628 26.3349 57.0326 25.4651 58.0814 25.4651C59.1302 25.4651 60 26.3349 60 27.3837V40.1744C60 54.0651 54.0651 60 40.1744 60Z" fill="#1E3BA2"/>
</svg>
