<svg width="20" height="21" viewBox="0 0 20 21" fill="none" xmlns="http://www.w3.org/2000/svg">
<g id="play">
<path id="Icon" d="M4.16675 4.65803C4.16675 3.84873 4.16675 3.44407 4.33549 3.22101C4.48249 3.02669 4.70718 2.90644 4.95041 2.89192C5.22961 2.87525 5.5663 3.09971 6.23968 3.54863L15.0026 9.39061C15.5591 9.76154 15.8373 9.94701 15.9342 10.1808C16.019 10.3852 16.019 10.6149 15.9342 10.8192C15.8373 11.053 15.5591 11.2385 15.0026 11.6094L6.23968 17.4514C5.5663 17.9003 5.22961 18.1248 4.95041 18.1081C4.70718 18.0936 4.48249 17.9733 4.33549 17.779C4.16675 17.5559 4.16675 17.1513 4.16675 16.342V4.65803Z" stroke="#4CA30D" stroke-width="1.66667" stroke-linecap="round" stroke-linejoin="round"/>
</g>
</svg>
