<svg width="24" height="25" viewBox="0 0 24 25" fill="none" xmlns="http://www.w3.org/2000/svg">
<g id="send-01">
<path id="Icon" d="M10.4995 14.0002L20.9995 3.50017M10.6271 14.3282L13.2552 21.0862C13.4867 21.6816 13.6025 21.9793 13.7693 22.0662C13.9139 22.1415 14.0862 22.1416 14.2308 22.0664C14.3977 21.9797 14.5139 21.6822 14.7461 21.0871L21.3364 4.19937C21.5461 3.66219 21.6509 3.3936 21.5935 3.22197C21.5437 3.07292 21.4268 2.95596 21.2777 2.90616C21.1061 2.84883 20.8375 2.95364 20.3003 3.16327L3.41258 9.75361C2.8175 9.98584 2.51997 10.102 2.43326 10.2689C2.35809 10.4135 2.35819 10.5858 2.43353 10.7304C2.52043 10.8972 2.81811 11.013 3.41345 11.2445L10.1715 13.8726C10.2923 13.9196 10.3527 13.9431 10.4036 13.9794C10.4487 14.0115 10.4881 14.051 10.5203 14.0961C10.5566 14.147 10.5801 14.2074 10.6271 14.3282Z" stroke="black" stroke-width="2" stroke-linecap="round" stroke-linejoin="round"/>
</g>
</svg>
