<svg width="64" height="64" viewBox="0 0 64 64" fill="none" xmlns="http://www.w3.org/2000/svg">
<path d="M15.8954 43.6417C17.2531 43.6417 18.3537 42.541 18.3537 41.1833C18.3537 39.8256 17.2531 38.725 15.8954 38.725C14.5377 38.725 13.437 39.8256 13.437 41.1833C13.437 42.541 14.5377 43.6417 15.8954 43.6417Z" fill="#1E3BA2"/>
<path d="M24.5765 43.6417C25.9342 43.6417 27.0349 42.541 27.0349 41.1833C27.0349 39.8256 25.9342 38.725 24.5765 38.725C23.2188 38.725 22.1182 39.8256 22.1182 41.1833C22.1182 42.541 23.2188 43.6417 24.5765 43.6417Z" fill="#2A50D7"/>
<path d="M33.2577 43.6417C34.6154 43.6417 35.716 42.541 35.716 41.1833C35.716 39.8256 34.6154 38.725 33.2577 38.725C31.9 38.725 30.7993 39.8256 30.7993 41.1833C30.7993 42.541 31.9 43.6417 33.2577 43.6417Z" fill="#A3BAF5"/>
<path d="M41.1274 20.9516H32.3436C31.99 20.9516 31.6508 20.8111 31.4008 20.5611C31.1507 20.311 31.0103 19.9719 31.0103 19.6182C31.0103 19.2646 31.1507 18.9255 31.4008 18.6754C31.6508 18.4254 31.99 18.2849 32.3436 18.2849H41.1274C41.4811 18.2849 41.8202 18.4254 42.0702 18.6754C42.3203 18.9255 42.4608 19.2646 42.4608 19.6182C42.4608 19.9719 42.3203 20.311 42.0702 20.5611C41.8202 20.8111 41.4811 20.9516 41.1274 20.9516Z" fill="#A3BAF5"/>
<path d="M47.0532 27.3448H32.3436C31.99 27.3448 31.6508 27.2043 31.4008 26.9542C31.1507 26.7042 31.0103 26.3651 31.0103 26.0114C31.0103 25.6578 31.1507 25.3187 31.4008 25.0686C31.6508 24.8186 31.99 24.6781 32.3436 24.6781H47.0532C47.4068 24.6781 47.746 24.8186 47.996 25.0686C48.2461 25.3187 48.3865 25.6578 48.3865 26.0114C48.3865 26.3651 48.2461 26.7042 47.996 26.9542C47.746 27.2043 47.4068 27.3448 47.0532 27.3448Z" fill="#2A50D7"/>
<path d="M57.4971 31.2875C59.0143 28.8961 59.8616 26.1412 59.9503 23.3105C60.039 20.4798 59.3659 17.6772 58.0013 15.1956C56.6367 12.7139 54.6308 10.6442 52.193 9.20273C49.7552 7.76126 46.975 7.00089 44.1429 7.00106H35.2549C32.9562 6.98626 30.6823 7.47596 28.5935 8.43562C26.5046 9.39527 24.6518 10.8015 23.1656 12.5552C21.6794 14.3089 20.596 16.3672 19.9919 18.5852C19.3877 20.8031 19.2776 23.1265 19.6691 25.3917C16.8665 25.4704 14.1353 26.2937 11.7561 27.777C9.3769 29.2603 7.43538 31.3502 6.13096 33.832C4.82654 36.3139 4.20623 39.0982 4.33373 41.899C4.46123 44.6998 5.33194 47.4162 6.85646 49.7693L5.31219 54.1964C5.20608 54.5013 5.19518 54.8313 5.28094 55.1426C5.36669 55.4539 5.54504 55.7318 5.79234 55.9394C6.03964 56.147 6.3442 56.2745 6.66564 56.3051C6.98708 56.3356 7.31021 56.2677 7.59219 56.1104L11.1051 54.1494C13.7473 56.0095 16.9012 57.0049 20.1325 56.9984H29.0205C31.3216 57.0179 33.5988 56.5308 35.6905 55.5715C37.7822 54.6123 39.6372 53.2045 41.1239 51.4481C42.6106 49.6916 43.6925 47.6295 44.2929 45.4081C44.8933 43.1866 44.9976 40.8602 44.5982 38.594C47.692 38.5204 50.6943 37.529 53.2237 35.7458L56.8005 37.7406C57.0822 37.8982 57.4051 37.9664 57.7265 37.9361C58.0478 37.9059 58.3524 37.7786 58.5997 37.5713C58.8471 37.3639 59.0255 37.0862 59.1114 36.7751C59.1972 36.4639 59.1864 36.134 59.0805 35.8292L57.4971 31.2875ZM29.0205 54.9984H20.1325C17.1129 55.0023 14.177 54.007 11.7822 52.1677C11.6278 52.049 11.4418 51.9784 11.2474 51.965C11.0531 51.9516 10.8591 51.9958 10.6898 52.0922L7.55307 53.8422L8.90984 49.9569C8.9619 49.8077 8.97795 49.6483 8.95668 49.4917C8.93541 49.3351 8.87742 49.1857 8.78744 49.0558C7.3484 46.9859 6.50363 44.5614 6.34476 42.0455C6.18589 39.5295 6.71898 37.018 7.88623 34.7835C9.05347 32.549 10.8103 30.6768 12.9661 29.3699C15.1219 28.063 17.5944 27.3714 20.1154 27.3701C21.0977 30.6223 23.0997 33.4724 25.8257 35.4997C28.5518 37.527 31.8575 38.624 35.2547 38.6288H42.5746C42.9701 40.625 42.9161 42.6842 42.4166 44.657C41.9171 46.6297 40.9845 48.4665 39.6867 50.034C38.3889 51.6014 36.7583 52.8602 34.9133 53.7189C33.0683 54.5776 31.0553 55.0148 29.0204 54.9986L29.0205 54.9984ZM53.6365 33.6859C53.466 33.5903 53.2711 33.547 53.0762 33.5614C52.8812 33.5757 52.6948 33.6471 52.5402 33.7667C50.1369 35.6274 47.1823 36.6344 44.143 36.6287H35.255C33.4393 36.6312 31.641 36.2757 29.9628 35.5827C28.2846 34.8896 26.7595 33.8725 25.4748 32.5895C24.19 31.3065 23.1708 29.7828 22.4754 28.1056C21.7799 26.4284 21.422 24.6305 21.422 22.8149C21.422 20.9992 21.7799 19.2013 22.4754 17.5241C23.1708 15.8469 24.19 14.3232 25.4748 13.0402C26.7595 11.7573 28.2846 10.7401 29.9628 10.0471C31.641 9.35398 33.4393 8.99854 35.255 9.00106H44.143C46.6547 9.00068 49.1189 9.68514 51.2706 10.9808C53.4223 12.2764 55.18 14.1343 56.3546 16.3544C57.5292 18.5744 58.0762 21.0728 57.9368 23.5806C57.7975 26.0884 56.977 28.5107 55.5636 30.587C55.4757 30.7159 55.4193 30.8637 55.3989 31.0184C55.3786 31.1731 55.3948 31.3304 55.4464 31.4776L56.8384 35.4723L53.6365 33.6859Z" fill="#1E3BA2" stroke="#1E3BA2"/>
</svg>
