<svg width="28" height="28" viewBox="0 0 28 28" fill="none" xmlns="http://www.w3.org/2000/svg">
<path d="M18.0832 13.125H9.9165C9.43817 13.125 9.0415 12.7283 9.0415 12.25C9.0415 11.7717 9.43817 11.375 9.9165 11.375H18.0832C18.5615 11.375 18.9582 11.7717 18.9582 12.25C18.9582 12.7283 18.5615 13.125 18.0832 13.125Z" fill="#252F4A"/>
<path d="M18.6668 26.04C18.2702 26.04 17.8735 25.9234 17.5352 25.7017L12.5651 22.3883H8.16683C4.1535 22.3883 1.4585 19.6933 1.4585 15.68V8.68001C1.4585 4.66668 4.1535 1.97168 8.16683 1.97168H19.8335C23.8468 1.97168 26.5418 4.66668 26.5418 8.68001V15.68C26.5418 19.39 24.2318 21.98 20.7085 22.3417V23.9984C20.7085 24.7567 20.3001 25.445 19.6351 25.795C19.3318 25.9583 18.9935 26.04 18.6668 26.04ZM8.16683 3.71C5.15683 3.71 3.2085 5.65834 3.2085 8.66834V15.6683C3.2085 18.6783 5.15683 20.6267 8.16683 20.6267H12.8335C13.0085 20.6267 13.1718 20.6733 13.3235 20.7783L18.5152 24.2317C18.6435 24.3134 18.7602 24.2784 18.8185 24.2434C18.8768 24.2084 18.9702 24.1383 18.9702 23.9867V21.5017C18.9702 21.0233 19.3668 20.6267 19.8452 20.6267C22.8552 20.6267 24.8035 18.6783 24.8035 15.6683V8.66834C24.8035 5.65834 22.8552 3.71 19.8452 3.71H8.16683Z" fill="#252F4A"/>
</svg>
