<svg width="28" height="28" viewBox="0 0 28 28" fill="none" xmlns="http://www.w3.org/2000/svg">
<path d="M13.9998 26.5417C7.8865 26.5417 2.9165 21.5717 2.9165 15.4583C2.9165 9.345 7.8865 4.375 13.9998 4.375C20.1132 4.375 25.0832 9.345 25.0832 15.4583C25.0832 21.5717 20.1132 26.5417 13.9998 26.5417ZM13.9998 6.125C8.85484 6.125 4.6665 10.3133 4.6665 15.4583C4.6665 20.6033 8.85484 24.7917 13.9998 24.7917C19.1448 24.7917 23.3332 20.6033 23.3332 15.4583C23.3332 10.3133 19.1448 6.125 13.9998 6.125Z" fill="#465373"/>
<path d="M14 16.0416C13.5217 16.0416 13.125 15.6449 13.125 15.1666V9.33325C13.125 8.85492 13.5217 8.45825 14 8.45825C14.4783 8.45825 14.875 8.85492 14.875 9.33325V15.1666C14.875 15.6449 14.4783 16.0416 14 16.0416Z" fill="#465373"/>
<path d="M17.5 3.20825H10.5C10.0217 3.20825 9.625 2.81159 9.625 2.33325C9.625 1.85492 10.0217 1.45825 10.5 1.45825H17.5C17.9783 1.45825 18.375 1.85492 18.375 2.33325C18.375 2.81159 17.9783 3.20825 17.5 3.20825Z" fill="#465373"/>
</svg>
