<svg width="25" height="25" viewBox="0 0 25 25" fill="none" xmlns="http://www.w3.org/2000/svg">
<path d="M19.938 0.654785H5.12633C2.58888 0.654785 0.53186 2.7118 0.53186 5.24926V20.0609C0.53186 22.5984 2.58888 24.6554 5.12633 24.6554H19.938C22.4754 24.6554 24.5325 22.5984 24.5325 20.0609V5.24926C24.5325 2.7118 22.4754 0.654785 19.938 0.654785Z" fill="#0291FF"/>
<path d="M16.8138 11.1136L14.6247 12.963L16.9697 15.0474C17.1627 15.2195 17.179 15.5173 17.0069 15.7104C16.9185 15.8151 16.7882 15.8662 16.6579 15.8662C16.5486 15.8662 16.4346 15.829 16.3462 15.7523L13.9012 13.5795L12.9009 14.4286C12.8125 14.5007 12.7078 14.5379 12.5985 14.5379C12.4892 14.5379 12.3845 14.5007 12.2961 14.4286L11.2911 13.5795L8.84616 15.7523C8.75776 15.8313 8.64842 15.8662 8.53908 15.8662C8.40881 15.8662 8.27853 15.8151 8.18548 15.7104C8.01333 15.5173 8.03427 15.2195 8.22736 15.0474L10.5676 12.963L8.23899 10.988C8.04125 10.8205 8.01566 10.525 8.18083 10.3319C8.34833 10.1295 8.64376 10.1086 8.84383 10.2738L12.6008 13.4538L16.1764 10.432C15.8693 9.96903 15.6855 9.41071 15.6855 8.81052C15.6855 8.71747 15.6902 8.62209 15.7018 8.53369H7.69696C6.94556 8.53369 6.33606 9.14319 6.33606 9.89924V16.1314C6.33606 16.8875 6.94556 17.497 7.69696 17.497H17.5001C18.2561 17.497 18.8656 16.8875 18.8656 16.1314V11.7277C18.7865 11.7324 18.7051 11.737 18.6213 11.737C17.9444 11.737 17.3139 11.5067 16.8184 11.1112L16.8138 11.1136Z" fill="white"/>
<path d="M18.6166 10.8045C19.7189 10.8045 20.6126 9.91083 20.6126 8.80848C20.6126 7.70613 19.7189 6.8125 18.6166 6.8125C17.5142 6.8125 16.6206 7.70613 16.6206 8.80848C16.6206 9.91083 17.5142 10.8045 18.6166 10.8045Z" stroke="white" stroke-width="0.465263" stroke-miterlimit="10"/>
</svg>
