<svg width="25" height="25" viewBox="0 0 25 25" fill="none" xmlns="http://www.w3.org/2000/svg">
<path d="M20.0311 0.654785H5.21947C2.68202 0.654785 0.625 2.7118 0.625 5.24926V20.0609C0.625 22.5984 2.68202 24.6554 5.21947 24.6554H20.0311C22.5686 24.6554 24.6256 22.5984 24.6256 20.0609V5.24926C24.6256 2.7118 22.5686 0.654785 20.0311 0.654785Z" fill="#48DC6C"/>
<path d="M19.0519 13.9168C19.8963 13.2329 20.4244 12.2768 20.4244 11.2137C20.4244 9.13626 18.4261 7.45898 15.9555 7.45898C14.6993 7.45898 13.5594 7.89633 12.7476 8.59888C14.6249 9.47125 15.9067 11.195 15.9067 13.1794C15.9067 13.8005 15.7811 14.3984 15.5531 14.9497C15.6834 14.959 15.8206 14.9637 15.9555 14.9637C16.3254 14.9637 16.679 14.9241 17.0187 14.852C17.4932 15.3033 18.4075 15.9477 19.78 16.0268C20.0126 16.0408 20.1545 15.7639 19.994 15.5895C19.566 15.1149 19.2426 14.41 19.0519 13.9145V13.9168Z" stroke="#FAFBFA" stroke-width="0.465263" stroke-miterlimit="10"/>
<path d="M9.96061 9.2035C7.34583 9.2035 5.22888 10.9831 5.22888 13.1792C5.22888 14.3051 5.78952 15.3194 6.68516 16.0429C6.48277 16.5663 6.14312 17.313 5.68717 17.8155C5.51967 17.9993 5.6639 18.2924 5.91282 18.2785C7.36909 18.197 8.33219 17.5108 8.83467 17.0339C9.19525 17.1083 9.57211 17.1525 9.96061 17.1525C12.5754 17.1525 14.6923 15.3729 14.6923 13.1768C14.6923 10.9808 12.5731 9.20117 9.96061 9.20117V9.2035ZM7.64592 13.9585C7.21323 13.9585 6.85963 13.6072 6.85963 13.1745C6.85963 12.7418 7.2109 12.3882 7.64592 12.3882C8.08095 12.3882 8.42989 12.7395 8.42989 13.1745C8.42989 13.6095 8.07862 13.9585 7.64592 13.9585ZM9.96061 13.9585C9.52791 13.9585 9.17431 13.6072 9.17431 13.1745C9.17431 12.7418 9.52559 12.3882 9.96061 12.3882C10.3956 12.3882 10.7446 12.7395 10.7446 13.1745C10.7446 13.6095 10.3933 13.9585 9.96061 13.9585ZM12.2753 13.9585C11.8426 13.9585 11.4913 13.6072 11.4913 13.1745C11.4913 12.7418 11.8426 12.3882 12.2753 12.3882C12.708 12.3882 13.0616 12.7395 13.0616 13.1745C13.0616 13.6095 12.7103 13.9585 12.2753 13.9585Z" fill="#FAFBFA"/>
</svg>
