<svg width="24" height="23" viewBox="0 0 24 23" fill="none" xmlns="http://www.w3.org/2000/svg">
<path d="M0.562467 16.3493L8.53047 2.68451C9.54261 3.28141 14.6463 6.11088 15.4706 6.64891L7.50261 20.3146C6.63116 21.4677 -0.541533 18.0994 0.562467 16.3485V16.3493Z" fill="#FBBC04"/>
<path d="M23.4547 16.3494L15.4867 2.68537C14.3728 0.828348 11.9736 0.153521 10.0031 1.25032C8.03266 2.34712 7.43266 4.70985 8.54659 6.64977L16.5146 20.3154C17.6285 22.1716 20.0277 22.8464 21.9982 21.7496C23.8826 20.6528 24.5687 18.2064 23.4547 16.351V16.3494Z" fill="#4285F4"/>
<path d="M4.009 22.2779C6.21799 22.2779 8.00873 20.5286 8.00873 18.3707C8.00873 16.2128 6.21799 14.4635 4.009 14.4635C1.80001 14.4635 0.00927734 16.2128 0.00927734 18.3707C0.00927734 20.5286 1.80001 22.2779 4.009 22.2779Z" fill="#34A853"/>
</svg>
