<svg width="20" height="24" viewBox="0 0 20 24" fill="none" xmlns="http://www.w3.org/2000/svg">
<path fill-rule="evenodd" clip-rule="evenodd" d="M10.6172 13.0415V8.35473C10.6172 7.49237 10.034 6.79248 9.31537 6.79248C8.59673 6.79248 8.01349 7.49237 8.01349 8.35473V16.166L6.24989 15.4609C5.73521 15.2547 5.16759 15.4161 4.78311 15.8764C4.18685 16.592 4.23198 17.7657 4.87858 18.4135L8.39798 21.9328C8.7113 22.2442 9.10446 22.415 9.50978 22.415H13.4241C14.2998 22.415 15.0375 21.6328 15.1469 20.5903L15.6182 16.067C15.7336 14.9578 15.0992 13.9382 14.1809 13.7539L10.6172 13.0415Z" stroke="#EC8E00" stroke-width="1.3" stroke-linecap="round" stroke-linejoin="round"/>
<path d="M4.10938 7.83398H4.97729" stroke="#EC8E00" stroke-width="1.3" stroke-linecap="round" stroke-linejoin="round"/>
<path d="M14.5242 7.83398H13.6562" stroke="#EC8E00" stroke-width="1.3" stroke-linecap="round" stroke-linejoin="round"/>
<path d="M12.996 3.41794L12.3798 4.14699" stroke="#EC8E00" stroke-width="1.3" stroke-linecap="round" stroke-linejoin="round"/>
<path d="M5.62975 3.41794L6.24597 4.14699" stroke="#EC8E00" stroke-width="1.3" stroke-linecap="round" stroke-linejoin="round"/>
<path d="M9.31677 1.58496V2.62646" stroke="#EC8E00" stroke-width="1.3" stroke-linecap="round" stroke-linejoin="round"/>
</svg>
