<svg width="24" height="24" viewBox="0 0 24 24" fill="none" xmlns="http://www.w3.org/2000/svg">
<g clip-path="url(#clip0_2323_11220)">
<mask id="path-1-outside-1_2323_11220" maskUnits="userSpaceOnUse" x="0.799805" y="0.800049" width="23" height="23" fill="black">
<rect fill="white" x="0.799805" y="0.800049" width="23" height="23"/>
<path d="M11.9998 22.8C17.9592 22.8 22.7998 17.9595 22.7998 12C22.7998 6.04061 17.9592 1.20005 11.9998 1.20005C6.04036 1.20005 1.19981 6.04061 1.19981 12C1.19981 17.9595 6.04036 22.8 11.9998 22.8ZM11.9998 21.8609C6.54845 21.8609 2.13894 17.4514 2.13894 12C2.13894 6.54869 6.54845 2.13918 11.9998 2.13918C17.4512 2.13918 21.8607 6.54869 21.8607 12C21.8607 17.4514 17.4512 21.8609 11.9998 21.8609ZM15.7618 16.2316C15.9526 16.2298 16.1232 16.1142 16.1965 15.9382C16.2681 15.7602 16.2259 15.5585 16.0883 15.4246L9.37684 8.71309H13.5552C13.7258 8.71493 13.8836 8.62688 13.9679 8.48015C14.0542 8.33341 14.0542 8.15365 13.9679 8.00691C13.8836 7.86017 13.7258 7.77213 13.5552 7.77396H8.31482C8.16441 7.74828 8.01217 7.79781 7.90395 7.90419C7.79756 8.01241 7.74804 8.16466 7.77372 8.31506V13.5555C7.77188 13.6839 7.82141 13.8049 7.91129 13.8948C8.00116 13.9847 8.12406 14.0342 8.25062 14.0324C8.50925 14.0287 8.71652 13.8159 8.71285 13.5555V9.37709L15.4243 16.0886C15.5124 16.1803 15.6334 16.2298 15.7618 16.2316Z"/>
</mask>
<path d="M11.9998 22.8C17.9592 22.8 22.7998 17.9595 22.7998 12C22.7998 6.04061 17.9592 1.20005 11.9998 1.20005C6.04036 1.20005 1.19981 6.04061 1.19981 12C1.19981 17.9595 6.04036 22.8 11.9998 22.8ZM11.9998 21.8609C6.54845 21.8609 2.13894 17.4514 2.13894 12C2.13894 6.54869 6.54845 2.13918 11.9998 2.13918C17.4512 2.13918 21.8607 6.54869 21.8607 12C21.8607 17.4514 17.4512 21.8609 11.9998 21.8609ZM15.7618 16.2316C15.9526 16.2298 16.1232 16.1142 16.1965 15.9382C16.2681 15.7602 16.2259 15.5585 16.0883 15.4246L9.37684 8.71309H13.5552C13.7258 8.71493 13.8836 8.62688 13.9679 8.48015C14.0542 8.33341 14.0542 8.15365 13.9679 8.00691C13.8836 7.86017 13.7258 7.77213 13.5552 7.77396H8.31482C8.16441 7.74828 8.01217 7.79781 7.90395 7.90419C7.79756 8.01241 7.74804 8.16466 7.77372 8.31506V13.5555C7.77188 13.6839 7.82141 13.8049 7.91129 13.8948C8.00116 13.9847 8.12406 14.0342 8.25062 14.0324C8.50925 14.0287 8.71652 13.8159 8.71285 13.5555V9.37709L15.4243 16.0886C15.5124 16.1803 15.6334 16.2298 15.7618 16.2316Z" fill="#0CAC9E"/>
<path d="M11.9998 22.8C17.9592 22.8 22.7998 17.9595 22.7998 12C22.7998 6.04061 17.9592 1.20005 11.9998 1.20005C6.04036 1.20005 1.19981 6.04061 1.19981 12C1.19981 17.9595 6.04036 22.8 11.9998 22.8ZM11.9998 21.8609C6.54845 21.8609 2.13894 17.4514 2.13894 12C2.13894 6.54869 6.54845 2.13918 11.9998 2.13918C17.4512 2.13918 21.8607 6.54869 21.8607 12C21.8607 17.4514 17.4512 21.8609 11.9998 21.8609ZM15.7618 16.2316C15.9526 16.2298 16.1232 16.1142 16.1965 15.9382C16.2681 15.7602 16.2259 15.5585 16.0883 15.4246L9.37684 8.71309H13.5552C13.7258 8.71493 13.8836 8.62688 13.9679 8.48015C14.0542 8.33341 14.0542 8.15365 13.9679 8.00691C13.8836 7.86017 13.7258 7.77213 13.5552 7.77396H8.31482C8.16441 7.74828 8.01217 7.79781 7.90395 7.90419C7.79756 8.01241 7.74804 8.16466 7.77372 8.31506V13.5555C7.77188 13.6839 7.82141 13.8049 7.91129 13.8948C8.00116 13.9847 8.12406 14.0342 8.25062 14.0324C8.50925 14.0287 8.71652 13.8159 8.71285 13.5555V9.37709L15.4243 16.0886C15.5124 16.1803 15.6334 16.2298 15.7618 16.2316Z" stroke="#0CAC9E" stroke-width="0.6" mask="url(#path-1-outside-1_2323_11220)"/>
</g>
<defs>
<clipPath id="clip0_2323_11220">
<rect width="24" height="24" fill="white" transform="matrix(-1 0 0 -1 24 24)"/>
</clipPath>
</defs>
</svg>
