<svg width="19" height="19" viewBox="0 0 19 19" fill="none" xmlns="http://www.w3.org/2000/svg">
<path d="M8.74952 10.3936L17.4995 1.64358M8.85584 10.667L11.0459 16.2986C11.2389 16.7948 11.3353 17.0428 11.4743 17.1152C11.5948 17.178 11.7384 17.1781 11.859 17.1155C11.998 17.0432 12.0948 16.7953 12.2883 16.2994L17.7803 2.22624C17.955 1.77859 18.0423 1.55477 17.9945 1.41174C17.953 1.28754 17.8556 1.19006 17.7314 1.14857C17.5883 1.10079 17.3645 1.18813 16.9169 1.36283L2.84373 6.85478C2.34784 7.0483 2.09989 7.14506 2.02763 7.28415C1.96499 7.40472 1.96508 7.54826 2.02786 7.66876C2.10028 7.80776 2.34834 7.90423 2.84446 8.09717L8.47613 10.2873C8.57684 10.3264 8.62719 10.346 8.66959 10.3762C8.70717 10.4031 8.74004 10.4359 8.76685 10.4735C8.79709 10.5159 8.81667 10.5663 8.85584 10.667Z" stroke="#0044DD" stroke-width="2" stroke-linecap="round" stroke-linejoin="round"/>
</svg>
