<svg width="24" height="24" viewBox="0 0 24 24" fill="none" xmlns="http://www.w3.org/2000/svg">
<g clip-path="url(#clip0_2323_11214)">
<mask id="path-1-outside-1_2323_11214" maskUnits="userSpaceOnUse" x="0.200195" y="0.199951" width="23" height="23" fill="black">
<rect fill="white" x="0.200195" y="0.199951" width="23" height="23"/>
<path d="M12.0002 1.19995C6.04075 1.19995 1.2002 6.04051 1.2002 12C1.2002 17.9594 6.04075 22.7999 12.0002 22.7999C17.9596 22.7999 22.8002 17.9594 22.8002 12C22.8002 6.04051 17.9596 1.19995 12.0002 1.19995ZM12.0002 2.13908C17.4516 2.13908 21.8611 6.54859 21.8611 12C21.8611 17.4513 17.4516 21.8608 12.0002 21.8608C6.54884 21.8608 2.13933 17.4513 2.13933 12C2.13933 6.54859 6.54884 2.13908 12.0002 2.13908ZM8.23817 7.76836C8.04741 7.7702 7.87683 7.88575 7.80346 8.06184C7.73192 8.23976 7.77411 8.44153 7.91168 8.57543L14.6232 15.2869H10.4448C10.2742 15.2851 10.1164 15.3731 10.0321 15.5199C9.94585 15.6666 9.94585 15.8463 10.0321 15.9931C10.1164 16.1398 10.2742 16.2279 10.4448 16.226H15.6852C15.8356 16.2517 15.9878 16.2022 16.096 16.0958C16.2024 15.9876 16.252 15.8353 16.2263 15.6849V10.4445C16.2281 10.3161 16.1786 10.1951 16.0887 10.1052C15.9988 10.0153 15.8759 9.96578 15.7494 9.96761C15.4908 9.97128 15.2835 10.1841 15.2872 10.4445V14.6229L8.57567 7.91143C8.48763 7.81972 8.36657 7.7702 8.23817 7.76836Z"/>
</mask>
<path d="M12.0002 1.19995C6.04075 1.19995 1.2002 6.04051 1.2002 12C1.2002 17.9594 6.04075 22.7999 12.0002 22.7999C17.9596 22.7999 22.8002 17.9594 22.8002 12C22.8002 6.04051 17.9596 1.19995 12.0002 1.19995ZM12.0002 2.13908C17.4516 2.13908 21.8611 6.54859 21.8611 12C21.8611 17.4513 17.4516 21.8608 12.0002 21.8608C6.54884 21.8608 2.13933 17.4513 2.13933 12C2.13933 6.54859 6.54884 2.13908 12.0002 2.13908ZM8.23817 7.76836C8.04741 7.7702 7.87683 7.88575 7.80346 8.06184C7.73192 8.23976 7.77411 8.44153 7.91168 8.57543L14.6232 15.2869H10.4448C10.2742 15.2851 10.1164 15.3731 10.0321 15.5199C9.94585 15.6666 9.94585 15.8463 10.0321 15.9931C10.1164 16.1398 10.2742 16.2279 10.4448 16.226H15.6852C15.8356 16.2517 15.9878 16.2022 16.096 16.0958C16.2024 15.9876 16.252 15.8353 16.2263 15.6849V10.4445C16.2281 10.3161 16.1786 10.1951 16.0887 10.1052C15.9988 10.0153 15.8759 9.96578 15.7494 9.96761C15.4908 9.97128 15.2835 10.1841 15.2872 10.4445V14.6229L8.57567 7.91143C8.48763 7.81972 8.36657 7.7702 8.23817 7.76836Z" fill="#F43F5E"/>
<path d="M12.0002 1.19995C6.04075 1.19995 1.2002 6.04051 1.2002 12C1.2002 17.9594 6.04075 22.7999 12.0002 22.7999C17.9596 22.7999 22.8002 17.9594 22.8002 12C22.8002 6.04051 17.9596 1.19995 12.0002 1.19995ZM12.0002 2.13908C17.4516 2.13908 21.8611 6.54859 21.8611 12C21.8611 17.4513 17.4516 21.8608 12.0002 21.8608C6.54884 21.8608 2.13933 17.4513 2.13933 12C2.13933 6.54859 6.54884 2.13908 12.0002 2.13908ZM8.23817 7.76836C8.04741 7.7702 7.87683 7.88575 7.80346 8.06184C7.73192 8.23976 7.77411 8.44153 7.91168 8.57543L14.6232 15.2869H10.4448C10.2742 15.2851 10.1164 15.3731 10.0321 15.5199C9.94585 15.6666 9.94585 15.8463 10.0321 15.9931C10.1164 16.1398 10.2742 16.2279 10.4448 16.226H15.6852C15.8356 16.2517 15.9878 16.2022 16.096 16.0958C16.2024 15.9876 16.252 15.8353 16.2263 15.6849V10.4445C16.2281 10.3161 16.1786 10.1951 16.0887 10.1052C15.9988 10.0153 15.8759 9.96578 15.7494 9.96761C15.4908 9.97128 15.2835 10.1841 15.2872 10.4445V14.6229L8.57567 7.91143C8.48763 7.81972 8.36657 7.7702 8.23817 7.76836Z" stroke="#F43F5E" stroke-width="0.6" mask="url(#path-1-outside-1_2323_11214)"/>
</g>
<defs>
<clipPath id="clip0_2323_11214">
<rect width="24" height="24" fill="white"/>
</clipPath>
</defs>
</svg>
