<svg width="82" height="80" viewBox="0 0 82 80" fill="none" xmlns="http://www.w3.org/2000/svg">
<path d="M40.9999 6.66663C22.2931 6.66663 7.04932 21.6333 7.04932 40C7.04932 58.3666 22.2931 73.3333 40.9999 73.3333C59.7067 73.3333 74.9506 58.3666 74.9506 40C74.9506 21.6333 59.7067 6.66663 40.9999 6.66663ZM57.2283 32.3333L37.9783 51.2333C37.503 51.7 36.858 51.9666 36.1789 51.9666C35.4999 51.9666 34.8549 51.7 34.3796 51.2333L24.7715 41.8C23.787 40.8333 23.787 39.2333 24.7715 38.2666C25.7561 37.3 27.3857 37.3 28.3703 38.2666L36.1789 45.9333L53.6296 28.8C54.6141 27.8333 56.2438 27.8333 57.2283 28.8C58.2129 29.7666 58.2129 31.3333 57.2283 32.3333Z" fill="#31AB13"/>
</svg>
