<svg width="24" height="25" viewBox="0 0 24 25" fill="none" xmlns="http://www.w3.org/2000/svg">
<g id="Money/cash-banknote-time">
<g id="Group">
<g id="Layer_2">
<path id="Path" d="M9.83333 19.25H5.5C3.70507 19.25 2.25 17.739 2.25 15.875V6.875C2.25 5.01104 3.70507 3.5 5.5 3.5H18.5C20.2949 3.5 21.75 5.01104 21.75 6.875V10.25" stroke="#465373" stroke-width="1.5" stroke-linecap="round" stroke-linejoin="round"/>
<circle id="Oval" cx="17.625" cy="17.375" r="4.875" stroke="#0CAC9E" stroke-width="1.5" stroke-linecap="round" stroke-linejoin="round"/>
<path id="Vector" d="M16.5 19.25H18.75C19.5 19.25 19.5 18.578 19.5 17.75C19.5 17.1082 19.5 16.7855 19.1508 16.4981C18.911 16.3009 18.5884 16.25 18.2779 16.25H16.5" stroke="#0CAC9E" stroke-width="1.3" stroke-miterlimit="10" stroke-linecap="round" stroke-linejoin="round"/>
<path id="Vector_2" d="M16.5 17L15.75 16.25L16.5 15.5" stroke="#0CAC9E" stroke-width="1.3" stroke-linecap="round" stroke-linejoin="round"/>
<path id="Path_2" d="M5.25 15.875H6.75" stroke="#465373" stroke-width="1.5" stroke-linecap="round" stroke-linejoin="round"/>
<path id="Path_3" d="M17.25 6.875H18.75" stroke="#465373" stroke-width="1.5" stroke-linecap="round" stroke-linejoin="round"/>
<path id="Path_4" d="M9.90076 13.25C8.69975 12.2206 8.69975 10.5515 9.90076 9.52208C11.1018 8.49264 13.049 8.49264 14.25 9.52208" stroke="#465373" stroke-width="1.5" stroke-linecap="round" stroke-linejoin="round"/>
</g>
</g>
</g>
</svg>
