<svg width="25" height="25" viewBox="0 0 25 25" fill="none" xmlns="http://www.w3.org/2000/svg">
<g id="vuesax/linear/card-receive">
<g id="vuesax/linear/card-receive_2">
<g id="card-receive">
<path id="Vector" d="M2.54688 9H15.0469" stroke="#465373" stroke-width="1.5" stroke-miterlimit="10" stroke-linecap="round" stroke-linejoin="round"/>
<path id="Vector_2" d="M21.4635 3.5H19.7969C18.6415 3.5 18.3068 4.48191 18.9306 5.16883L22.1631 8.73788C22.7869 9.42481 22.6978 10.5 21.5424 10.5L19.5513 10.5C18.396 10.5 18.3068 9.42481 18.9306 8.73788L22.1631 5.16883C22.7869 4.48191 22.6189 3.5 21.4635 3.5Z" stroke="#EC8E00" stroke-width="1.4" stroke-linecap="round" stroke-linejoin="round"/>
<path id="Vector_3" d="M6.54688 17H8.54688" stroke="#465373" stroke-width="1.5" stroke-miterlimit="10" stroke-linecap="round" stroke-linejoin="round"/>
<path id="Vector_4" d="M11.0469 17H15.0469" stroke="#465373" stroke-width="1.5" stroke-miterlimit="10" stroke-linecap="round" stroke-linejoin="round"/>
<path id="Vector_5" d="M22.5469 14.53V16.61C22.5469 20.12 21.6569 21 18.1069 21H6.98688C3.43688 21 2.54688 20.12 2.54688 16.61V8.39C2.54688 4.88 3.43688 4 6.98688 4H15.0469" stroke="#465373" stroke-width="1.5" stroke-linecap="round" stroke-linejoin="round"/>
</g>
</g>
</g>
</svg>
