<svg width="49" height="49" viewBox="0 0 49 49" fill="none" xmlns="http://www.w3.org/2000/svg">
<g id="icons8-stack-of-coins 1">
<path id="Vector" d="M44.0464 30.6953H20.0464C20.0464 31.3973 20.0464 33.9933 20.0464 34.6953C20.0464 38.0093 25.4194 40.6953 32.0464 40.6953C38.6734 40.6953 44.0464 38.0093 44.0464 34.6953C44.0464 33.9933 44.0464 31.3973 44.0464 30.6953Z" fill="url(#paint0_linear_264_1666)"/>
<path id="Vector_2" d="M44.0464 26.6953H20.0464C20.0464 27.3973 20.0464 29.9933 20.0464 30.6953C20.0464 34.0093 25.4194 36.6953 32.0464 36.6953C38.6734 36.6953 44.0464 34.0093 44.0464 30.6953C44.0464 29.9933 44.0464 27.3973 44.0464 26.6953Z" fill="url(#paint1_linear_264_1666)"/>
<path id="Vector_3" d="M44.0464 22.6953H20.0464C20.0464 23.3973 20.0464 25.9933 20.0464 26.6953C20.0464 30.0093 25.4194 32.6953 32.0464 32.6953C38.6734 32.6953 44.0464 30.0093 44.0464 26.6953C44.0464 25.9933 44.0464 23.3973 44.0464 22.6953Z" fill="url(#paint2_linear_264_1666)"/>
<path id="Vector_4" d="M44.0464 18.6953H20.0464C20.0464 19.3973 20.0464 21.9933 20.0464 22.6953C20.0464 26.0093 25.4194 28.6953 32.0464 28.6953C38.6734 28.6953 44.0464 26.0093 44.0464 22.6953C44.0464 21.9933 44.0464 19.3973 44.0464 18.6953Z" fill="url(#paint3_linear_264_1666)"/>
<path id="Vector_5" d="M44.0464 14.6953H20.0464C20.0464 15.3973 20.0464 17.9933 20.0464 18.6953C20.0464 22.0093 25.4194 24.6953 32.0464 24.6953C38.6734 24.6953 44.0464 22.0093 44.0464 18.6953C44.0464 17.9933 44.0464 15.3973 44.0464 14.6953Z" fill="url(#paint4_linear_264_1666)"/>
<path id="Vector_6" d="M44.0464 10.6953H20.0464C20.0464 11.3973 20.0464 13.9933 20.0464 14.6953C20.0464 18.0093 25.4194 20.6953 32.0464 20.6953C38.6734 20.6953 44.0464 18.0093 44.0464 14.6953C44.0464 13.9933 44.0464 11.3973 44.0464 10.6953Z" fill="url(#paint5_linear_264_1666)"/>
<path id="Vector_7" d="M32.0464 16.6953C38.6739 16.6953 44.0464 14.009 44.0464 10.6953C44.0464 7.3816 38.6739 4.69531 32.0464 4.69531C25.419 4.69531 20.0464 7.3816 20.0464 10.6953C20.0464 14.009 25.419 16.6953 32.0464 16.6953Z" fill="url(#paint6_linear_264_1666)"/>
<path id="Vector_8" d="M32.0464 14.6953C37.017 14.6953 41.0464 12.9045 41.0464 10.6953C41.0464 8.48617 37.017 6.69531 32.0464 6.69531C27.0759 6.69531 23.0464 8.48617 23.0464 10.6953C23.0464 12.9045 27.0759 14.6953 32.0464 14.6953Z" fill="#FFC800"/>
<path id="Vector_9" opacity="0.05" d="M20.0464 19.0068C20.0464 25.7748 20.0464 34.2688 20.0464 34.6948C20.0464 37.6028 24.1834 40.0258 29.6744 40.5768C29.9094 39.9758 30.0464 39.3488 30.0464 38.6948V26.6948C30.0464 22.9358 25.9534 19.9438 20.0464 19.0068Z" fill="black"/>
<path id="Vector_10" opacity="0.07" d="M20.0464 20.0234C20.0464 26.5954 20.0464 34.2904 20.0464 34.6954C20.0464 37.4164 23.6714 39.7104 28.6364 40.4464C28.8944 39.8874 29.0464 39.3034 29.0464 38.6954V26.6954C29.0464 23.5254 25.3194 20.9124 20.0464 20.0234Z" fill="black"/>
<path id="Vector_11" d="M28.0473 34.6953H4.04727C4.04727 35.3973 4.04727 37.9933 4.04727 38.6953C4.04727 42.0093 9.42027 44.6953 16.0473 44.6953C22.6743 44.6953 28.0473 42.0093 28.0473 38.6953C28.0473 37.9933 28.0473 35.3973 28.0473 34.6953Z" fill="url(#paint7_linear_264_1666)"/>
<path id="Vector_12" d="M28.0473 30.6953H4.04727C4.04727 31.3973 4.04727 33.9933 4.04727 34.6953C4.04727 38.0093 9.42027 40.6953 16.0473 40.6953C22.6743 40.6953 28.0473 38.0093 28.0473 34.6953C28.0473 33.9933 28.0473 31.3973 28.0473 30.6953Z" fill="url(#paint8_linear_264_1666)"/>
<path id="Vector_13" d="M28.0473 26.6953H4.04727C4.04727 27.3973 4.04727 29.9933 4.04727 30.6953C4.04727 34.0093 9.42027 36.6953 16.0473 36.6953C22.6743 36.6953 28.0473 34.0093 28.0473 30.6953C28.0473 29.9933 28.0473 27.3973 28.0473 26.6953Z" fill="url(#paint9_linear_264_1666)"/>
<path id="Vector_14" d="M16.0473 32.6953C22.6747 32.6953 28.0473 30.009 28.0473 26.6953C28.0473 23.3816 22.6747 20.6953 16.0473 20.6953C9.41985 20.6953 4.04727 23.3816 4.04727 26.6953C4.04727 30.009 9.41985 32.6953 16.0473 32.6953Z" fill="url(#paint10_linear_264_1666)"/>
<path id="Vector_15" d="M16.0473 30.6953C21.0178 30.6953 25.0473 28.9045 25.0473 26.6953C25.0473 24.4862 21.0178 22.6953 16.0473 22.6953C11.0767 22.6953 7.04727 24.4862 7.04727 26.6953C7.04727 28.9045 11.0767 30.6953 16.0473 30.6953Z" fill="#FFC800"/>
</g>
<defs>
<linearGradient id="paint0_linear_264_1666" x1="31.4704" y1="28.9113" x2="33.3604" y2="41.7033" gradientUnits="userSpaceOnUse">
<stop stop-color="#FEDE00"/>
<stop offset="1" stop-color="#FFD000"/>
</linearGradient>
<linearGradient id="paint1_linear_264_1666" x1="31.4704" y1="24.9113" x2="33.3604" y2="37.7033" gradientUnits="userSpaceOnUse">
<stop stop-color="#E5A505"/>
<stop offset="0.116" stop-color="#EAA804"/>
<stop offset="0.595" stop-color="#F8B301"/>
<stop offset="1" stop-color="#FDB700"/>
</linearGradient>
<linearGradient id="paint2_linear_264_1666" x1="31.4704" y1="20.9113" x2="33.3604" y2="33.7033" gradientUnits="userSpaceOnUse">
<stop stop-color="#FEDE00"/>
<stop offset="1" stop-color="#FFD000"/>
</linearGradient>
<linearGradient id="paint3_linear_264_1666" x1="31.4704" y1="16.9113" x2="33.3604" y2="29.7033" gradientUnits="userSpaceOnUse">
<stop stop-color="#E5A505"/>
<stop offset="0.116" stop-color="#EAA804"/>
<stop offset="0.595" stop-color="#F8B301"/>
<stop offset="1" stop-color="#FDB700"/>
</linearGradient>
<linearGradient id="paint4_linear_264_1666" x1="31.4704" y1="12.9113" x2="33.3604" y2="25.7033" gradientUnits="userSpaceOnUse">
<stop stop-color="#FEDE00"/>
<stop offset="1" stop-color="#FFD000"/>
</linearGradient>
<linearGradient id="paint5_linear_264_1666" x1="31.4704" y1="8.91131" x2="33.3604" y2="21.7033" gradientUnits="userSpaceOnUse">
<stop stop-color="#E5A505"/>
<stop offset="0.116" stop-color="#EAA804"/>
<stop offset="0.595" stop-color="#F8B301"/>
<stop offset="1" stop-color="#FDB700"/>
</linearGradient>
<linearGradient id="paint6_linear_264_1666" x1="25.5054" y1="4.15431" x2="38.7304" y2="17.3793" gradientUnits="userSpaceOnUse">
<stop stop-color="#FEDE00"/>
<stop offset="1" stop-color="#FFD000"/>
</linearGradient>
<linearGradient id="paint7_linear_264_1666" x1="15.4713" y1="32.9113" x2="17.3613" y2="45.7033" gradientUnits="userSpaceOnUse">
<stop stop-color="#E5A505"/>
<stop offset="0.116" stop-color="#EAA804"/>
<stop offset="0.595" stop-color="#F8B301"/>
<stop offset="1" stop-color="#FDB700"/>
</linearGradient>
<linearGradient id="paint8_linear_264_1666" x1="15.4713" y1="28.9113" x2="17.3613" y2="41.7033" gradientUnits="userSpaceOnUse">
<stop stop-color="#FEDE00"/>
<stop offset="1" stop-color="#FFD000"/>
</linearGradient>
<linearGradient id="paint9_linear_264_1666" x1="15.4713" y1="24.9113" x2="17.3613" y2="37.7033" gradientUnits="userSpaceOnUse">
<stop stop-color="#E5A505"/>
<stop offset="0.116" stop-color="#EAA804"/>
<stop offset="0.595" stop-color="#F8B301"/>
<stop offset="1" stop-color="#FDB700"/>
</linearGradient>
<linearGradient id="paint10_linear_264_1666" x1="9.50627" y1="20.1543" x2="22.7313" y2="33.3793" gradientUnits="userSpaceOnUse">
<stop stop-color="#FEDE00"/>
<stop offset="1" stop-color="#FFD000"/>
</linearGradient>
</defs>
</svg>
