<svg width="33" height="33" viewBox="0 0 33 33" fill="none" xmlns="http://www.w3.org/2000/svg">
<g id="Group">
<circle id="Oval" cx="24.6465" cy="13.959" r="6" fill="#EC1354" stroke="#EC1354" stroke-width="1.5" stroke-linecap="round" stroke-linejoin="round"/>
<path id="Path" d="M28.6465 22.8079V24.4746C28.6465 26.6838 26.8556 28.4746 24.6465 28.4746H8.64648C6.43735 28.4746 4.64648 26.6838 4.64648 24.4746V14.2885C4.64649 13.4586 5.0329 12.6759 5.69182 12.1713L15.0252 5.02408C15.9819 4.29145 17.311 4.29145 18.2677 5.02408L19.6464 6.07983" stroke="#EC1354" stroke-width="1.5" stroke-linecap="round" stroke-linejoin="round"/>
<path id="Path_2" d="M18.2679 21.2586C17.3112 21.9912 15.9821 21.9912 15.0253 21.2586L4.79297 13.4229" stroke="#EC1354" stroke-width="1.5" stroke-linecap="round" stroke-linejoin="round"/>
<path id="Path_3" d="M24.6335 14.5586V16.2253" stroke="white" stroke-width="1.5" stroke-linecap="round" stroke-linejoin="round"/>
<path id="Path_4" d="M24.6398 11.6919C24.6666 11.6948 24.6925 11.6813 24.7055 11.6576C24.7184 11.6339 24.7158 11.6048 24.6989 11.5838C24.6819 11.5628 24.654 11.5541 24.6282 11.5617C24.6023 11.5693 24.5835 11.5917 24.5807 11.6185V11.6328C24.584 11.664 24.6086 11.6886 24.6398 11.6919" stroke="white" stroke-width="1.5" stroke-linecap="round" stroke-linejoin="round"/>
</g>
</svg>
