<svg width="25" height="25" viewBox="0 0 25 25" fill="none" xmlns="http://www.w3.org/2000/svg">
<g id="Full_Redo_Icon_UIA">
<g id="Group 5880">
<path id="Ellipse 188" d="M4.39648 12.4996C4.39648 10.7257 4.97301 8.99733 6.04342 7.56221C7.11384 6.12709 8.62319 5.0589 10.3552 4.51073C12.0871 3.96257 13.9528 3.96257 15.6848 4.51074C17.4167 5.0589 18.9261 6.1271 19.9965 7.56222" stroke="#465373" stroke-width="1.5" stroke-linecap="round"/>
<path id="Ellipse 189" d="M21.1969 12.5C21.1969 14.2739 20.6647 16.0023 19.6766 17.4374C18.6886 18.8725 17.2953 19.9407 15.6966 20.4889C14.0978 21.037 12.3757 21.037 10.7769 20.4889C9.1782 19.9407 7.78495 18.8725 6.79688 17.4374" stroke="#465373" stroke-width="1.5" stroke-linecap="round"/>
<path id="Vector 47" d="M20.7969 5.5V8.5H16.7969" stroke="#465373" stroke-width="1.5" stroke-linecap="round" stroke-linejoin="round"/>
<path id="Vector 48" d="M5.79687 19.5L5.79688 16.5L8.79688 16.5" stroke="#465373" stroke-width="1.5" stroke-linecap="round" stroke-linejoin="round"/>
</g>
</g>
</svg>
