<svg width="21" height="21" viewBox="0 0 21 21" fill="none" xmlns="http://www.w3.org/2000/svg">
<g id="Group">
<g id="Group_2">
<path id="Path" d="M15.981 7.16553H16.8651C17.5818 7.16553 18.1618 7.74553 18.1618 8.46219V16.703C18.1618 17.4189 17.5818 17.9989 16.8651 17.9989H7.79178C7.07512 17.9989 6.49512 17.4189 6.49512 16.7022V15.4989" stroke="#252F4A" stroke-width="1.2" stroke-linecap="round" stroke-linejoin="round"/>
<path id="Path_2" fill-rule="evenodd" clip-rule="evenodd" d="M3.99733 15.5002H13.424C13.9815 15.5002 14.5015 15.2218 14.8107 14.7577L15.4223 13.8393C15.7873 13.2918 15.9823 12.6485 15.9823 11.9902V5.50016C15.9823 4.57933 15.2365 3.8335 14.3157 3.8335H5.98233C5.0615 3.8335 4.31566 4.57933 4.31566 5.50016V11.3802C4.31566 11.8977 4.19483 12.4077 3.964 12.871L3.25233 14.2943C2.97483 14.8485 3.37816 15.5002 3.99733 15.5002Z" stroke="#252F4A" stroke-width="1.2" stroke-linecap="round" stroke-linejoin="round"/>
<path id="Path_3" d="M12.0389 8.49365L9.69475 10.8388L8.28809 9.43238" stroke="#252F4A" stroke-width="1.2" stroke-linecap="round" stroke-linejoin="round"/>
<path id="Path_4" d="M7.64633 2.99951V4.66687" stroke="#252F4A" stroke-width="1.2" stroke-linecap="round" stroke-linejoin="round"/>
<path id="Path_5" d="M12.6466 2.99951V4.66687" stroke="#252F4A" stroke-width="1.2" stroke-linecap="round" stroke-linejoin="round"/>
</g>
</g>
</svg>
