<svg width="21" height="21" viewBox="0 0 21 21" fill="none" xmlns="http://www.w3.org/2000/svg">
<g id="Group">
<path id="Path" d="M8.16547 17.1731H5.58106C5.16091 17.1732 4.7579 17.0064 4.46081 16.7093C4.16371 16.4122 3.99688 16.0092 3.99707 15.5891V4.58448C3.99688 4.16432 4.16371 3.76132 4.46081 3.46422C4.7579 3.16713 5.16091 3.0003 5.58106 3.00049H13.1676C13.5877 3.0003 13.9907 3.16713 14.2878 3.46422C14.5849 3.76132 14.7517 4.16432 14.7515 4.58448V8.00257" stroke="#252F4A" stroke-width="1.2" stroke-linecap="round" stroke-linejoin="round"/>
<path id="Path_2" d="M8.14149 11.4863C7.3682 10.713 7.3682 9.45922 8.14149 8.68592C8.91478 7.91263 10.1685 7.91263 10.9418 8.68592" stroke="#252F4A" stroke-width="1.2" stroke-linecap="round" stroke-linejoin="round"/>
<path id="Path_3" d="M7.33246 14.6722H6.49878" stroke="#252F4A" stroke-width="1.2" stroke-linecap="round" stroke-linejoin="round"/>
<path id="Path_4" d="M12.3347 5.50131H11.501" stroke="#252F4A" stroke-width="1.2" stroke-linecap="round" stroke-linejoin="round"/>
<path id="Path_5" d="M10.667 11.8374V17.5064C10.6679 18.2429 12.16 18.8403 14.0017 18.8403C15.8434 18.8403 17.3355 18.2429 17.3364 17.5064V11.8374" stroke="#252F4A" stroke-width="1.2" stroke-linecap="round" stroke-linejoin="round"/>
<path id="Path_6" d="M17.3355 11.8373C17.3355 12.5738 15.8425 13.1712 14.0008 13.1712C12.159 13.1712 10.667 12.5738 10.667 11.8373C10.667 11.0999 12.1609 10.5034 14.0017 10.5034C15.8425 10.5034 17.3355 11.1008 17.3364 11.8373" stroke="#252F4A" stroke-width="1.2" stroke-linecap="round" stroke-linejoin="round"/>
<path id="Path_7" d="M10.667 14.6724C10.667 15.4089 12.159 16.0063 14.0008 16.0063C15.8425 16.0063 17.3355 15.4089 17.3355 14.6724" stroke="#252F4A" stroke-width="1.2" stroke-linecap="round" stroke-linejoin="round"/>
</g>
</svg>
