<svg width="40" height="41" viewBox="0 0 40 41" fill="none" xmlns="http://www.w3.org/2000/svg">
<path d="M7.75 4.5C7.75 2.70508 9.20508 1.25 11 1.25H27C27.1212 1.25 27.2375 1.29816 27.3232 1.38388L38.1161 12.1768C38.2018 12.2625 38.25 12.3788 38.25 12.5V36.5C38.25 38.2949 36.7949 39.75 35 39.75H11C9.20507 39.75 7.75 38.2949 7.75 36.5V4.5Z" fill="white" stroke="#D0D5DD" stroke-width="1.5"/>
<path d="M27 1V8.5C27 10.7091 28.7909 12.5 31 12.5H38.5" stroke="#D0D5DD" stroke-width="1.5"/>
<rect x="1.5" y="18.5" width="28" height="16" rx="2" fill="#17B26A"/>
<path d="M11.7726 25.7734H10.2172C10.1888 25.5722 10.1308 25.3935 10.0432 25.2372C9.95564 25.0786 9.84319 24.9437 9.70588 24.8324C9.56857 24.7211 9.40995 24.6359 9.23002 24.5767C9.05247 24.5175 8.85952 24.4879 8.65119 24.4879C8.27477 24.4879 7.94688 24.5814 7.66752 24.7685C7.38817 24.9531 7.17155 25.223 7.01767 25.5781C6.86378 25.9309 6.78684 26.3594 6.78684 26.8636C6.78684 27.3821 6.86378 27.8177 7.01767 28.1705C7.17392 28.5232 7.39172 28.7895 7.67108 28.9695C7.95043 29.1494 8.27359 29.2393 8.64054 29.2393C8.8465 29.2393 9.03708 29.2121 9.21227 29.1577C9.38983 29.1032 9.54726 29.0239 9.68457 28.9197C9.82188 28.8132 9.93552 28.6842 10.0255 28.5327C10.1178 28.3812 10.1817 28.2083 10.2172 28.0142L11.7726 28.0213C11.7324 28.3551 11.6318 28.6771 11.4708 28.9872C11.3122 29.295 11.0979 29.5708 10.828 29.8146C10.5605 30.0561 10.2409 30.2479 9.86923 30.3899C9.49991 30.5296 9.08206 30.5994 8.61568 30.5994C7.967 30.5994 7.38699 30.4527 6.87562 30.1591C6.36663 29.8655 5.96416 29.4406 5.66824 28.8842C5.37467 28.3279 5.22789 27.6544 5.22789 26.8636C5.22789 26.0705 5.37704 25.3958 5.67534 24.8395C5.97363 24.2831 6.37846 23.8594 6.88983 23.5682C7.40119 23.2746 7.97647 23.1278 8.61568 23.1278C9.03708 23.1278 9.4277 23.187 9.78755 23.3054C10.1498 23.4238 10.4706 23.5966 10.7499 23.8239C11.0293 24.0488 11.2565 24.3246 11.4317 24.6513C11.6093 24.978 11.7229 25.352 11.7726 25.7734ZM16.8206 25.3189C16.7922 25.0324 16.6702 24.8099 16.4548 24.6513C16.2394 24.4927 15.947 24.4134 15.5777 24.4134C15.3267 24.4134 15.1148 24.4489 14.942 24.5199C14.7692 24.5885 14.6366 24.6844 14.5443 24.8075C14.4543 24.9306 14.4094 25.0703 14.4094 25.2266C14.4046 25.3568 14.4318 25.4704 14.491 25.5675C14.5526 25.6645 14.6366 25.7486 14.7432 25.8196C14.8497 25.8883 14.9728 25.9486 15.1125 26.0007C15.2522 26.0504 15.4013 26.093 15.5599 26.1286L16.2133 26.2848C16.5306 26.3558 16.8218 26.4505 17.0869 26.5689C17.3521 26.6873 17.5817 26.8329 17.7758 27.0057C17.97 27.1785 18.1203 27.3821 18.2268 27.6165C18.3357 27.8509 18.3914 28.1196 18.3937 28.4226C18.3914 28.8677 18.2777 29.2536 18.0528 29.5803C17.8303 29.9046 17.5083 30.1567 17.0869 30.3366C16.6679 30.5142 16.1624 30.603 15.5706 30.603C14.9835 30.603 14.4721 30.513 14.0365 30.3331C13.6032 30.1532 13.2647 29.8868 13.0209 29.5341C12.7794 29.179 12.6527 28.7398 12.6409 28.2166H14.1288C14.1454 28.4605 14.2152 28.6641 14.3383 28.8274C14.4638 28.9884 14.6307 29.1103 14.839 29.1932C15.0497 29.2737 15.2877 29.3139 15.5528 29.3139C15.8132 29.3139 16.0393 29.276 16.2311 29.2003C16.4252 29.1245 16.5756 29.0192 16.6821 28.8842C16.7886 28.7493 16.8419 28.5942 16.8419 28.419C16.8419 28.2557 16.7934 28.1184 16.6963 28.0071C16.6016 27.8958 16.4619 27.8011 16.2773 27.723C16.095 27.6449 15.8712 27.5739 15.6061 27.5099L14.8142 27.3111C14.201 27.1619 13.7169 26.9287 13.3618 26.6115C13.0067 26.2943 12.8303 25.867 12.8327 25.3295C12.8303 24.8892 12.9475 24.5045 13.1842 24.1754C13.4233 23.8464 13.7512 23.5895 14.1679 23.4048C14.5845 23.2202 15.058 23.1278 15.5883 23.1278C16.1281 23.1278 16.5992 23.2202 17.0017 23.4048C17.4065 23.5895 17.7214 23.8464 17.9463 24.1754C18.1712 24.5045 18.2872 24.8857 18.2943 25.3189H16.8206ZM20.7419 23.2273L22.4997 28.7528H22.5672L24.3286 23.2273H26.0331L23.526 30.5H21.5445L19.0338 23.2273H20.7419Z" fill="white"/>
</svg>
