<svg width="25" height="25" viewBox="0 0 25 25" fill="none" xmlns="http://www.w3.org/2000/svg">
<g id="vuesax/linear/global">
<g id="vuesax/linear/global_2">
<g id="global">
<path id="Vector" d="M12.2002 21.1172C17.1708 21.1172 21.2002 17.0878 21.2002 12.1172C21.2002 7.14662 17.1708 3.11719 12.2002 3.11719C7.22963 3.11719 3.2002 7.14662 3.2002 12.1172C3.2002 17.0878 7.22963 21.1172 12.2002 21.1172Z" fill="white" stroke="#14286C" stroke-width="1.5" stroke-linecap="round" stroke-linejoin="round"/>
<path id="Vector_2" d="M8.51643 4.11719H9.2002C7.86686 9.3083 7.86686 14.9261 9.2002 20.1172H8.51643" stroke="#14286C" stroke-width="1.5" stroke-linecap="round" stroke-linejoin="round"/>
<path id="Vector_3" d="M15.2002 4.11719C16.5335 9.3083 16.5335 14.9261 15.2002 20.1172" stroke="#14286C" stroke-width="1.5" stroke-linecap="round" stroke-linejoin="round"/>
<path id="Vector_4" d="M4.2002 15.8009V15.1172C9.39131 16.4505 15.0091 16.4505 20.2002 15.1172V15.8009" stroke="#14286C" stroke-width="1.5" stroke-linecap="round" stroke-linejoin="round"/>
<path id="Vector_5" d="M4.2002 9.11719C9.39131 7.78385 15.0091 7.78385 20.2002 9.11719" stroke="#14286C" stroke-width="1.5" stroke-linecap="round" stroke-linejoin="round"/>
</g>
</g>
</g>
</svg>
