<svg width="25" height="25" viewBox="0 0 25 25" fill="none" xmlns="http://www.w3.org/2000/svg">
<g id="Support, Help, Question/message-question-checkmark">
<g id="Group">
<path id="Path" fill-rule="evenodd" clip-rule="evenodd" d="M5.029 17.2777C2.3459 13.448 3.03541 8.20265 6.61711 5.19644C10.1988 2.19024 15.4842 2.42066 18.7907 5.72715C22.0972 9.03365 22.3277 14.3191 19.3215 17.9008C16.3152 21.4825 11.0699 22.172 7.24019 19.4889L4.39727 20.1206L5.029 17.2777Z" fill="white" stroke="#14286C" stroke-width="1.5" stroke-linecap="round" stroke-linejoin="round"/>
<path id="Path_2" d="M10.085 9.80103C10.322 8.77947 11.2524 8.07117 12.3002 8.11466C13.4729 8.0497 14.4782 8.9433 14.5512 10.1155C14.5512 11.62 12.4003 12.1163 12.4003 13.1167" stroke="#14286C" stroke-width="1.5" stroke-linecap="round" stroke-linejoin="round"/>
<path id="Path_3" d="M12.5257 15.8676C12.5256 15.9366 12.4696 15.9925 12.4005 15.9924C12.3315 15.9924 12.2756 15.9365 12.2755 15.8674C12.2755 15.7984 12.3314 15.7424 12.4004 15.7423C12.4337 15.7423 12.4655 15.7555 12.489 15.779C12.5125 15.8025 12.5257 15.8343 12.5257 15.8676" stroke="#14286C" stroke-width="1.5" stroke-linecap="round" stroke-linejoin="round"/>
</g>
</g>
</svg>
