<svg width="25" height="25" viewBox="0 0 25 25" fill="none" xmlns="http://www.w3.org/2000/svg">
<g id="vuesax/linear/note-2">
<g id="note-2">
<path id="Vector" d="M22.46 10.5577L21.48 14.7377C20.64 18.3477 18.98 19.8077 15.86 19.5077C15.36 19.4677 14.82 19.3777 14.24 19.2377L12.56 18.8377C8.38998 17.8477 7.09998 15.7877 8.07998 11.6077L9.05998 7.41768C9.25998 6.56768 9.49998 5.82768 9.79998 5.21768C10.97 2.79768 12.96 2.14768 16.3 2.93768L17.97 3.32768C22.16 4.30768 23.44 6.37768 22.46 10.5577Z" fill="white" stroke="#14286C" stroke-width="1.5" stroke-linecap="round" stroke-linejoin="round"/>
<path id="Vector_2" d="M15.8601 19.5068C15.2401 19.9268 14.4601 20.2768 13.5101 20.5868L11.9301 21.1068C7.96015 22.3868 5.87015 21.3168 4.58015 17.3468L3.30015 13.3968C2.02015 9.4268 3.08015 7.3268 7.05015 6.0468L8.63015 5.5268C9.04015 5.3968 9.43015 5.2868 9.80015 5.2168C9.50015 5.8268 9.26015 6.5668 9.06015 7.4168L8.08015 11.6068C7.10015 15.7868 8.39015 17.8468 12.5601 18.8368L14.2401 19.2368C14.8201 19.3768 15.3601 19.4668 15.8601 19.5068Z" fill="white" stroke="#14286C" stroke-width="1.5" stroke-linecap="round" stroke-linejoin="round"/>
<path id="Vector_3" d="M13.4395 8.64648L18.2895 9.87648" stroke="#14286C" stroke-width="1.5" stroke-linecap="round" stroke-linejoin="round"/>
<path id="Vector_4" d="M12.46 12.5176L15.36 13.2576" stroke="#14286C" stroke-width="1.5" stroke-linecap="round" stroke-linejoin="round"/>
</g>
</g>
</svg>
