<svg width="32" height="32" viewBox="0 0 32 32" fill="none" xmlns="http://www.w3.org/2000/svg">
<g id="plug 1">
<path id="Vector" d="M24.0007 7.99992H22.6673V2.66659C22.6673 1.93032 22.0702 1.33325 21.334 1.33325C20.5977 1.33325 20.0007 1.93032 20.0007 2.66659V7.99992H12.0007V2.66659C12.0007 1.93032 11.4036 1.33325 10.6673 1.33325C9.93105 1.33325 9.33398 1.93032 9.33398 2.66659V7.99992H8.00065C6.52785 7.99992 5.33398 9.19378 5.33398 10.6666V12.9679C5.33398 18.4377 9.31198 23.2269 14.6673 23.9045V29.3334C14.6673 30.0696 15.2644 30.6667 16.0007 30.6667C16.7369 30.6667 17.334 30.0696 17.334 29.3334V23.9078C22.5944 23.2505 26.6673 18.7718 26.6673 13.3334V10.6667C26.6673 9.19392 25.4734 7.99992 24.0007 7.99992ZM19.5532 16.5423L15.3665 21.1448C14.9452 21.6081 14.2589 21.1498 14.4003 20.4997L15.1903 16.8677C15.2807 16.4522 14.9641 16.0593 14.5389 16.0593H12.8501C12.3123 16.0593 12.0625 15.2921 12.4684 14.8865L16.5236 10.8337C16.9588 10.3989 17.62 10.8785 17.4656 11.517L16.7283 14.5675C16.6269 14.987 16.9448 15.3907 17.3763 15.3907H19.151C19.6754 15.3907 19.9323 16.1257 19.5532 16.5423Z" fill="#1E3BA2"/>
</g>
</svg>
