<svg width="24" height="25" viewBox="0 0 24 25" fill="none" xmlns="http://www.w3.org/2000/svg">
<g id="Support, Help, Question/Headphones, Customer, support">
<g id="Group">
<g id="Group_2">
<path id="Path" fill-rule="evenodd" clip-rule="evenodd" d="M19 17.1172H18C17.448 17.1172 17 16.6692 17 16.1172V11.1172C17 10.5652 17.448 10.1172 18 10.1172H19C20.105 10.1172 21 11.0122 21 12.1172V15.1172C21 16.2222 20.105 17.1172 19 17.1172Z" fill="white" stroke="#14286C" stroke-width="1.5" stroke-linecap="round" stroke-linejoin="round"/>
<path id="Path_2" fill-rule="evenodd" clip-rule="evenodd" d="M6 17.1172H5C3.895 17.1172 3 16.2222 3 15.1172V12.1172C3 11.0122 3.895 10.1172 5 10.1172H6C6.552 10.1172 7 10.5652 7 11.1172V16.1172C7 16.6692 6.552 17.1172 6 17.1172Z" fill="white" stroke="#14286C" stroke-width="1.5" stroke-linecap="round" stroke-linejoin="round"/>
<path id="Path_3" d="M18.5 10.1172V9.61719C18.5 6.02719 15.59 3.11719 12 3.11719V3.11719C8.41 3.11719 5.5 6.02719 5.5 9.61719V10.1172" stroke="#14286C" stroke-width="1.5" stroke-linecap="round" stroke-linejoin="round"/>
<path id="Path_4" fill-rule="evenodd" clip-rule="evenodd" d="M12.625 21.3672H11.375C10.685 21.3672 10.125 20.8072 10.125 20.1172V20.1172C10.125 19.4272 10.685 18.8672 11.375 18.8672H12.625C13.315 18.8672 13.875 19.4272 13.875 20.1172V20.1172C13.875 20.8072 13.315 21.3672 12.625 21.3672Z" stroke="#14286C" stroke-width="1.5" stroke-linecap="round" stroke-linejoin="round"/>
<path id="Path_5" d="M13.875 20.1172H16C17.105 20.1172 18 19.2222 18 18.1172V17.1172" stroke="#14286C" stroke-width="1.5" stroke-linecap="round" stroke-linejoin="round"/>
</g>
</g>
</g>
</svg>
