<svg width="24" height="25" viewBox="0 0 24 25" fill="none" xmlns="http://www.w3.org/2000/svg">
<g id="Group">
<g id="Group_2">
<path id="Path" d="M15.0005 5.31719C16.7005 7.01719 16.7005 9.71719 15.0005 11.3172C13.3005 12.9172 10.6005 13.0172 9.00048 11.3172C7.40048 9.61719 7.30048 6.91719 9.00048 5.31719C10.7005 3.71719 13.3005 3.71719 15.0005 5.31719" stroke="#14286C" stroke-width="1.5" stroke-linecap="round" stroke-linejoin="round"/>
<path id="Path_2" d="M4 20.1172C4 17.6172 6 15.6172 8.5 15.6172H11.1" stroke="#14286C" stroke-width="1.5" stroke-linecap="round" stroke-linejoin="round"/>
<path id="Path_3" fill-rule="evenodd" clip-rule="evenodd" d="M14 21.1172H16.3L19.7 17.7172C20.1 17.3172 20.1 16.7172 19.7 16.3172L18.8 15.4172C18.4 15.0172 17.8 15.0172 17.4 15.4172L14 18.8172V21.1172H14Z" fill="white" stroke="#14286C" stroke-width="1.5" stroke-linecap="round" stroke-linejoin="round"/>
</g>
</g>
</svg>
