<svg width="25" height="25" viewBox="0 0 25 25" fill="none" xmlns="http://www.w3.org/2000/svg">
<g id="Money/Wallet, Add">
<g id="Group">
<g id="Group_2">
<g id="Path">
<path fill-rule="evenodd" clip-rule="evenodd" d="M4.59961 12.0236V8.20858C4.59961 6.96058 5.37261 5.84258 6.53961 5.40158L14.8926 2.24758C16.2016 1.75458 17.5996 2.72058 17.5996 4.11958V7.46958" fill="white"/>
<path d="M4.59961 12.0236V8.20858C4.59961 6.96058 5.37261 5.84258 6.53961 5.40158L14.8926 2.24758C16.2016 1.75458 17.5996 2.72058 17.5996 4.11958V7.46958" stroke="#14286C" stroke-width="1.5" stroke-linecap="round" stroke-linejoin="round"/>
</g>
<g id="Path_2">
<path fill-rule="evenodd" clip-rule="evenodd" d="M11.2616 21.1178H18.5996C20.2496 21.1178 21.5996 19.7677 21.5996 18.1178V10.4688C21.5996 8.81175 20.2566 7.46875 18.5996 7.46875H6.59961C5.49461 7.46875 4.59961 8.36375 4.59961 9.46875V12.3748" fill="white"/>
<path d="M11.2616 21.1178H18.5996C20.2496 21.1178 21.5996 19.7678 21.5996 18.1178V10.4688C21.5996 8.81175 20.2566 7.46875 18.5996 7.46875H6.59961C5.49461 7.46875 4.59961 8.36375 4.59961 9.46875V12.3748" stroke="#14286C" stroke-width="1.5" stroke-linecap="round" stroke-linejoin="round"/>
</g>
<g id="Path_3">
<path fill-rule="evenodd" clip-rule="evenodd" d="M8.09961 22.1172C5.06261 22.1172 2.59961 19.6542 2.59961 16.6172C2.59961 13.5802 5.06261 11.1172 8.09961 11.1172C11.1376 11.1172 13.5996 13.5802 13.5996 16.6172C13.5996 19.6542 11.1376 22.1172 8.09961 22.1172Z" fill="white"/>
<path d="M8.09961 22.1172C5.06261 22.1172 2.59961 19.6542 2.59961 16.6172C2.59961 13.5802 5.06261 11.1172 8.09961 11.1172C11.1376 11.1172 13.5996 13.5802 13.5996 16.6172C13.5996 19.6542 11.1376 22.1172 8.09961 22.1172" stroke="#14286C" stroke-width="1.5" stroke-linecap="round" stroke-linejoin="round"/>
</g>
<path id="Path_4" d="M17.8486 14.2187C17.7106 14.2197 17.5996 14.3317 17.5996 14.4697C17.5996 14.6077 17.7116 14.7197 17.8496 14.7187C17.9876 14.7187 18.0996 14.6067 18.0996 14.4687C18.0996 14.3307 17.9876 14.2187 17.8486 14.2187" stroke="#14286C" stroke-width="1.5" stroke-linecap="round" stroke-linejoin="round"/>
<path id="Path_5" d="M8.09961 14.4238V18.8108" stroke="#14286C" stroke-width="1.5" stroke-linecap="round" stroke-linejoin="round"/>
<path id="Path_6" d="M10.2923 16.6172H5.90625" stroke="#14286C" stroke-width="1.5" stroke-linecap="round" stroke-linejoin="round"/>
</g>
</g>
</g>
</svg>
