<svg width="38" height="38" viewBox="0 0 38 38" fill="none" xmlns="http://www.w3.org/2000/svg">
<circle cx="19" cy="19" r="19" fill="#F8F8F8"/>
<path d="M22.2268 24H27.2558L25.8427 22.5951C25.4595 22.2141 25.2442 21.6973 25.2442 21.1585V18C25.2442 15.3876 23.5649 13.1651 21.221 12.3414V12C21.221 10.8954 20.3203 10 19.2093 10C18.0983 10 17.1977 10.8954 17.1977 12V12.3414C14.8538 13.1651 13.1745 15.3876 13.1745 18V21.1585C13.1745 21.6973 12.9592 22.2141 12.5759 22.5951L11.1628 24H16.1919M22.2268 24V25C22.2268 26.6569 20.8758 28 19.2093 28C17.5428 28 16.1919 26.6569 16.1919 25V24M22.2268 24H16.1919" stroke="#0044DD" stroke-width="2" stroke-linecap="round" stroke-linejoin="round"/>
</svg>
