<svg width="21" height="20" viewBox="0 0 21 20" fill="none" xmlns="http://www.w3.org/2000/svg">
<g id="help-circle">
<path id="Icon" d="M8.07499 7.49999C8.27091 6.94305 8.65762 6.47341 9.16662 6.17427C9.67562 5.87512 10.2741 5.76577 10.856 5.86558C11.4379 5.96539 11.9657 6.26793 12.3459 6.7196C12.7261 7.17127 12.9342 7.74293 12.9333 8.33332C12.9333 9.99999 10.4333 10.8333 10.4333 10.8333M10.5 14.1667H10.5083M18.8333 9.99999C18.8333 14.6024 15.1024 18.3333 10.5 18.3333C5.89762 18.3333 2.16666 14.6024 2.16666 9.99999C2.16666 5.39762 5.89762 1.66666 10.5 1.66666C15.1024 1.66666 18.8333 5.39762 18.8333 9.99999Z" stroke="#667085" stroke-width="2" stroke-linecap="round" stroke-linejoin="round"/>
</g>
</svg>
