<svg width="32" height="32" viewBox="0 0 32 32" fill="none" xmlns="http://www.w3.org/2000/svg">
<g clip-path="url(#clip0_28_31285)">
<path d="M0.318179 31.9923C0.0743249 31.8253 -0.00918673 31.5973 -4.50702e-07 31.3C0.0183721 30.7288 0.0025049 30.1567 0.00668048 29.5847C0.00918583 29.1755 0.188736 28.9968 0.597108 28.9934C1.23096 28.9876 1.86565 28.9876 2.4995 28.9842C2.99974 28.9842 3.50081 28.9851 4.00104 28.9859H9.51031C10.3404 28.9851 11.1705 28.9842 12.0006 28.9834C13.3335 28.9834 14.6663 28.9851 16 28.9859C17.3362 28.9859 18.6724 28.9859 20.0094 28.9859C20.8387 28.9859 21.6679 28.9859 22.4964 28.9859C24.3328 28.9859 26.1692 28.9859 28.0048 28.9859C28.505 28.9859 29.0061 28.9851 29.5063 28.9842C30.0976 28.9867 30.6889 29.0043 31.2793 28.9867C31.5841 28.9776 31.8263 29.0485 32 29.3049C32 30.1484 31.9958 30.9919 32.0042 31.8353C32.0058 31.9698 31.9783 32.0199 31.8438 31.9932C31.8037 31.9848 31.7612 31.9923 31.7194 31.9923H0.318179Z" fill="#7285A2"/>
<path d="M12.0006 28.9834C11.1705 28.9834 10.3404 28.9851 9.51031 28.9859C9.50697 26.6568 9.50363 24.3268 9.50029 21.9977C9.50029 17.2258 9.50029 12.4548 9.50029 7.68292C9.50112 6.66492 9.50196 5.64774 9.50279 4.62974C9.50196 4.08775 9.50112 3.54492 9.50029 3.00293C13.8354 3.00293 18.1705 3.00293 22.5056 3.00293C22.5047 3.54492 22.5039 4.08775 22.5022 4.62974C22.5031 5.64691 22.5039 6.66492 22.5047 7.68209C22.5047 12.4539 22.5047 17.2258 22.5047 21.9968L22.4947 28.9851C21.6654 28.9851 20.8362 28.9851 20.0077 28.9851C20.0061 26.8564 20.0044 24.7277 20.001 22.5989C20.001 22.1638 19.8324 21.9943 19.4014 21.9943C18.2698 21.9943 17.1374 21.996 16.0058 21.9977C14.8943 21.9968 13.7828 21.9952 12.6712 21.9943C12.1526 21.9943 12.004 22.1413 12.004 22.6574C12.0023 24.7661 12.0015 26.8747 12.0006 28.9842V28.9834ZM15.9883 12.9959C18.482 12.9976 20.5004 10.9892 20.5021 8.50384C20.5038 6.01353 18.4912 3.99839 16.0025 3.99839C13.5289 3.99839 11.5087 6.00851 11.5046 8.47461C11.5004 10.9691 13.5088 12.9943 15.9883 12.9959ZM12.2645 14.9952C12.4407 14.9952 12.622 15.0211 12.7923 14.9902C13.2149 14.9142 12.941 14.5768 12.9927 14.3655C13.0261 14.2302 13.1013 13.9872 12.7881 13.9939C12.4257 14.0014 12.0624 13.9972 11.6991 13.9947C11.5756 13.9939 11.5188 14.0357 11.5012 14.1701C11.4044 14.9501 11.4386 14.9944 12.2019 14.9944C12.2228 14.9944 12.2436 14.9944 12.2645 14.9944V14.9952ZM14.7298 14.9952C14.9169 14.9952 15.1031 14.9935 15.2902 14.9952C15.6275 14.9985 15.5198 14.7271 15.4906 14.5918C15.4472 14.3914 15.7219 14.044 15.291 14.0023C14.9419 13.9688 14.5861 14.0023 14.2337 13.9922C14.0558 13.9872 14.0074 14.059 14.0007 14.2294C13.9707 14.9944 13.9657 14.9944 14.7306 14.9944L14.7298 14.9952ZM17.2769 13.9964C17.0898 13.9964 16.9036 13.9981 16.7165 13.9964C16.3791 13.9931 16.4869 14.2645 16.5161 14.3998C16.5595 14.6002 16.2848 14.9476 16.7157 14.9894C17.0648 15.0228 17.4205 14.9894 17.773 14.9994C17.9508 15.0044 17.9993 14.9326 18.0059 14.7622C18.036 13.9972 18.041 13.9972 17.2761 13.9972L17.2769 13.9964ZM19.7438 14.9952C19.9309 14.9952 20.1171 14.9885 20.3042 14.9969C20.5121 15.0061 20.5322 14.8649 20.4979 14.7313C20.4353 14.4883 20.6959 14.105 20.3334 14.0173C19.961 13.9271 19.5501 13.9981 19.1559 13.9981C19.0524 13.9981 19.0198 14.0549 19.0031 14.1517C18.877 14.8808 18.968 14.9952 19.682 14.9952C19.7029 14.9952 19.7238 14.9952 19.7447 14.9952H19.7438ZM12.2378 16.9953C13.0612 16.9953 13.0562 16.9953 13.0069 16.2078C12.9969 16.0441 12.9393 15.9907 12.7823 15.994C12.4299 16.0007 12.0766 16.0007 11.7242 15.994C11.5689 15.9915 11.5096 16.0433 11.4996 16.207C11.4494 16.9953 11.4444 16.9953 12.237 16.9953H12.2378ZM14.7457 16.9953C14.9327 16.9953 15.1223 17.017 15.3052 16.9903C15.6827 16.9352 15.4714 16.6304 15.4881 16.4466C15.5014 16.2997 15.6518 16.0124 15.3043 15.999C14.9419 15.9848 14.5786 16.0007 14.2154 15.9932C14.05 15.9898 14.0082 16.0608 13.9999 16.2153C13.9565 16.9953 13.9523 16.9945 14.7148 16.9945C14.7248 16.9945 14.7356 16.9945 14.7457 16.9945V16.9953ZM17.2385 16.9953C18.0627 16.9953 18.0569 16.9953 18.0059 16.2053C17.9951 16.0399 17.9333 15.9907 17.7796 15.994C17.4272 15.9999 17.074 16.0007 16.7215 15.994C16.5637 15.9907 16.5086 16.0475 16.4994 16.2095C16.4526 16.9961 16.4476 16.9961 17.2393 16.9961L17.2385 16.9953ZM19.7455 15.9965C19.5584 15.9965 19.3722 15.9923 19.1851 15.9973C18.8953 16.0057 18.9864 16.2454 19.0131 16.3673C19.059 16.5769 18.8118 16.8759 19.1826 16.9945C19.1918 16.9978 19.2035 16.9945 19.2135 16.9945C19.5768 16.9945 19.9392 16.9911 20.3025 16.9961C20.4503 16.9978 20.4929 16.9343 20.5046 16.7924C20.5673 15.9948 20.5714 15.9957 19.7764 15.9957C19.7664 15.9957 19.7555 15.9957 19.7455 15.9957V15.9965ZM12.2361 18.9954C13.0596 18.9954 13.0545 18.9954 13.0061 18.2087C12.9961 18.0459 12.9401 17.9908 12.7831 17.9941C12.4307 18.0008 12.0775 18.0008 11.725 17.9941C11.5705 17.9916 11.5096 18.0417 11.4987 18.2062C11.4478 18.9954 11.4428 18.9954 12.2353 18.9954H12.2361ZM14.7657 18.9954C14.9419 18.9954 15.119 18.9871 15.2943 18.9971C15.5257 19.0104 15.5357 18.8451 15.4948 18.7098C15.4246 18.4735 15.7152 18.0952 15.311 18.0116C14.9528 17.9373 14.5678 17.9974 14.1945 17.9949C14.0692 17.9941 14.0158 18.04 13.9999 18.1737C13.9064 18.9612 13.9323 18.9954 14.7031 18.9954C14.7239 18.9954 14.7448 18.9954 14.7657 18.9954ZM17.2351 18.9954C18.0586 18.9954 18.0536 18.9954 18.0059 18.2096C17.9959 18.0476 17.9408 17.9916 17.783 17.9941C17.4306 18.0008 17.0773 18.0008 16.7249 17.9941C16.5704 17.9916 16.5094 18.0409 16.4986 18.2062C16.4476 18.9962 16.4426 18.9954 17.2351 18.9954ZM19.7363 18.9954C20.5597 18.9954 20.5547 18.9954 20.5055 18.2079C20.4954 18.0442 20.4378 17.9908 20.2808 17.9941C19.9284 18.0008 19.5751 18.0008 19.2227 17.9941C19.0674 17.9916 19.0081 18.0434 18.9981 18.2071C18.948 18.9954 18.943 18.9954 19.7355 18.9954H19.7363ZM12.2812 19.9959C12.0841 19.9959 11.887 19.9959 11.69 19.9959C11.4219 19.9959 11.4829 20.213 11.5138 20.3333C11.5697 20.5529 11.3041 20.8611 11.6824 20.993C11.71 21.003 11.7442 20.9947 11.7751 20.9947C12.0967 20.9947 12.4182 20.9847 12.7397 20.998C12.9426 21.0064 13.0053 20.9354 13.0086 20.7325C13.0195 19.995 13.027 19.995 12.2812 19.9959ZM14.7373 20.9947C15.5607 20.9947 15.5557 20.9947 15.5073 20.2072C15.4973 20.0443 15.4405 19.99 15.2835 19.9925C14.931 19.9992 14.5778 19.9992 14.2254 19.9925C14.07 19.99 14.0108 20.041 13.9999 20.2055C13.9498 20.9947 13.9448 20.9938 14.7373 20.9938V20.9947ZM17.251 20.9947C17.4381 20.9947 17.6243 20.9888 17.8114 20.9964C17.9943 21.0039 18.0327 20.887 17.9993 20.7558C17.9358 20.5061 18.1721 20.2013 17.8623 20.0001C17.8473 19.99 17.8214 19.9967 17.8005 19.9967C17.4372 19.9967 17.0748 20.0001 16.7115 19.995C16.5712 19.9934 16.5144 20.041 16.5002 20.1896C16.4267 20.9964 16.4226 20.9955 17.2193 20.9955C17.2293 20.9955 17.2401 20.9955 17.2502 20.9955L17.251 20.9947ZM19.743 20.9947C19.9301 20.9947 20.1163 20.993 20.3034 20.9947C20.5931 20.9989 20.5255 20.765 20.4921 20.6398C20.4345 20.4251 20.7209 20.0685 20.3059 20.0067C19.9509 19.9533 19.581 20.0009 19.2185 19.9934C19.0557 19.99 19.0089 20.0552 18.9997 20.213C18.9546 20.9955 18.9505 20.9955 19.743 20.9947Z" fill="#D2E3F3"/>
<path d="M22.5056 21.9974C22.5056 17.2255 22.5056 12.4536 22.5056 7.68262C22.5757 7.69765 22.6475 7.70851 22.7168 7.72938C24.3178 8.19788 25.9195 8.66471 27.5188 9.13823C28.1818 9.33448 28.8408 9.54493 29.5013 9.7487C29.5013 16.0672 29.5013 22.3857 29.5013 28.7033C29.5013 28.7969 29.5047 28.8904 29.5063 28.9839C29.0061 28.9839 28.505 28.9848 28.0048 28.9856C28.004 26.8561 28.0031 24.7265 28.0006 22.597C28.0006 22.1627 27.8319 21.994 27.3985 21.994C25.7675 21.994 24.1365 21.9957 22.5056 21.9965V21.9974ZM27.2565 10.9964C27.4436 10.9964 27.6298 10.9913 27.8169 10.998C28.0065 11.0047 28.0299 10.8736 27.9964 10.75C27.9296 10.5028 28.1785 10.1946 27.8528 10.0009C27.8369 9.99171 27.8119 9.99756 27.791 9.99756C27.4277 9.99756 27.0653 10.0009 26.702 9.99589C26.5559 9.99422 26.5108 10.0552 26.4991 10.198C26.4348 10.9964 26.4314 10.9964 27.2256 10.9964C27.2357 10.9964 27.2465 10.9964 27.2565 10.9964ZM24.7303 12.9965C25.5546 12.9965 25.5504 12.9965 25.5053 12.2148C25.4961 12.0578 25.4493 11.9918 25.2873 11.9952C24.9349 12.0027 24.5817 12.0043 24.2292 11.9952C24.0489 11.9901 24.0054 12.0661 23.9987 12.2348C23.9704 12.9973 23.9653 12.9973 24.7303 12.9973V12.9965ZM27.244 12.9965C27.4311 12.9965 27.6206 13.0182 27.8035 12.9915C28.181 12.9363 27.9697 12.6315 27.9864 12.4478C27.9998 12.3008 28.1501 12.0135 27.8027 12.0002C27.4403 11.986 27.077 12.0018 26.7137 11.9943C26.5484 11.991 26.5066 12.062 26.4983 12.2165C26.4548 12.9965 26.4506 12.9956 27.2131 12.9956C27.2231 12.9956 27.234 12.9956 27.244 12.9956V12.9965ZM24.7387 14.9957C24.9257 14.9957 25.112 14.9899 25.299 14.9974C25.5621 15.0074 25.5245 14.8062 25.4936 14.675C25.4393 14.4487 25.7041 14.0838 25.3065 14.012C24.9449 13.946 24.5625 14.0003 24.1892 13.9969C24.0589 13.9961 24.0138 14.0504 23.9996 14.1807C23.9119 14.9849 23.9202 14.9966 24.7395 14.9966L24.7387 14.9957ZM27.2557 14.9957C27.4428 14.9957 27.629 14.9907 27.8161 14.9974C28.0056 15.0041 28.029 14.873 27.9956 14.7502C27.9288 14.503 28.1768 14.1949 27.852 14.0011C27.8361 13.9919 27.8111 13.9978 27.7902 13.9978C27.4269 13.9978 27.0645 14.0011 26.7012 13.9961C26.555 13.9944 26.5091 14.0554 26.4983 14.1982C26.4331 14.9974 26.4298 14.9966 27.2248 14.9966C27.2348 14.9966 27.2457 14.9966 27.2557 14.9966V14.9957ZM24.7337 10.9972C25.5571 10.9972 25.5521 10.9972 25.5045 10.2105C25.4944 10.0485 25.4393 9.99255 25.2815 9.99506C24.9291 10.0017 24.5758 10.0017 24.2234 9.99506C24.0689 9.99255 24.0079 10.0418 23.9971 10.2072C23.9461 10.9972 23.9411 10.9964 24.7337 10.9964V10.9972ZM24.7337 16.9958C25.5571 16.9958 25.5521 16.9958 25.5045 16.2092C25.4944 16.0471 25.4393 15.9912 25.2815 15.9937C24.9291 16.0004 24.5758 16.0004 24.2234 15.9937C24.0689 15.9912 24.0079 16.0405 23.9971 16.2058C23.9461 16.9958 23.9411 16.995 24.7337 16.995V16.9958ZM27.2565 16.9958C27.4436 16.9958 27.6298 16.9967 27.8169 16.9958C28.0858 16.9942 28.0215 16.7745 27.9906 16.6568C27.9338 16.438 28.2027 16.1282 27.8202 15.9979C27.8111 15.9945 27.7994 15.9979 27.7893 15.9979C27.4261 15.9979 27.0636 16.0012 26.7003 15.9962C26.5534 15.9945 26.5091 16.0572 26.4983 16.2C26.4348 16.9975 26.4314 16.9975 27.2256 16.9975C27.2357 16.9975 27.2465 16.9975 27.2565 16.9975V16.9958ZM24.7646 17.9963C23.9411 17.9963 23.9461 17.9963 23.9979 18.7863C24.0088 18.9517 24.0706 19.0001 24.2242 18.9976C24.5766 18.9918 24.9299 18.9909 25.2823 18.9976C25.4402 19.001 25.4953 18.9433 25.5045 18.7822C25.5521 17.9963 25.5571 17.9963 24.7646 17.9963ZM27.2649 17.9963C26.4415 17.9963 26.4465 17.9963 26.4974 18.7855C26.5083 18.95 26.5684 19.001 26.7237 18.9976C27.0762 18.9909 27.4294 18.9909 27.7818 18.9976C27.9388 19.001 27.9956 18.945 28.0048 18.783C28.0532 17.9963 28.0574 17.9963 27.2657 17.9963H27.2649ZM24.742 19.9964C24.5549 19.9964 24.3595 19.9597 24.1841 20.0039C23.8075 20.0983 24.0589 20.4148 24.0138 20.6236C23.9879 20.7438 23.8919 20.9885 24.185 20.9927C24.5583 20.9977 24.9316 20.9927 25.3049 20.9952C25.4276 20.996 25.4869 20.9568 25.5036 20.8207C25.603 20.0448 25.5638 19.9947 24.8046 19.9947C24.7838 19.9947 24.7629 19.9947 24.742 19.9947V19.9964ZM27.2499 20.9944C27.4369 20.9944 27.6232 20.9885 27.8102 20.996C27.9948 21.0036 28.0299 20.8833 27.9964 20.7539C27.9321 20.5042 28.171 20.1993 27.8578 19.9998C27.8428 19.9897 27.8169 19.9964 27.796 19.9964C27.4327 19.9964 27.0703 19.9998 26.707 19.9947C26.5651 19.9931 26.5108 20.044 26.4983 20.191C26.4264 20.996 26.4231 20.9952 27.219 20.9952C27.229 20.9952 27.2398 20.9952 27.2499 20.9952V20.9944Z" fill="#B9C7E1"/>
<path d="M9.50112 7.68345C9.50112 12.4553 9.50112 17.2263 9.50112 21.9982C7.89102 21.9974 6.28091 21.9957 4.67081 21.9948C4.15471 21.9948 4.00606 22.1435 4.00606 22.6604C4.00438 24.7691 4.00355 26.8778 4.00271 28.9864C3.50248 28.9864 3.00141 28.9856 2.50117 28.9848C2.50285 27.1734 2.50619 25.3629 2.50619 23.5515C2.50619 18.9508 2.50619 14.3502 2.50619 9.7487C2.52122 9.7345 2.53374 9.71279 2.55128 9.70778C4.8679 9.03217 7.18451 8.35739 9.50196 7.68262L9.50112 7.68345ZM4.73845 12.9973C5.56188 12.9973 5.55687 12.9973 5.50927 12.2115C5.49924 12.0494 5.44413 11.9935 5.28629 11.996C4.93387 12.0027 4.58062 12.0027 4.2282 11.996C4.0737 11.9935 4.01274 12.0428 4.00188 12.2081C3.95094 12.9981 3.94593 12.9973 4.73845 12.9973ZM7.27888 11.9977C7.09181 11.9977 6.90558 11.9993 6.71851 11.9977C6.38113 11.9943 6.48886 12.2657 6.51809 12.401C6.56151 12.6015 6.28676 12.9489 6.71768 12.9906C7.06676 13.024 7.42252 12.9906 7.77494 13.0006C7.95282 13.0057 8.00125 12.9338 8.00793 12.7635C8.038 11.9985 8.04301 11.9985 7.27804 11.9985L7.27888 11.9977ZM4.74179 14.9966C5.56522 14.9966 5.56021 14.9966 5.50927 14.2074C5.49841 14.042 5.43744 13.9928 5.28295 13.9953C4.93053 14.0011 4.57727 14.0019 4.22486 13.9953C4.06702 13.9919 4.0119 14.0487 4.00188 14.2107C3.95428 14.9974 3.94927 14.9974 4.74179 14.9974V14.9966ZM7.23378 14.9966C8.05804 14.9966 8.05387 14.9966 8.00877 14.2149C7.99958 14.0579 7.95282 13.9919 7.7908 13.9953C7.43838 14.0028 7.08513 14.0045 6.73271 13.9953C6.55233 13.9903 6.5089 14.0662 6.50222 14.2349C6.47382 14.9974 6.46881 14.9974 7.23378 14.9974V14.9966ZM7.2413 16.9958C8.06472 16.9958 8.05971 16.9958 8.00877 16.2067C7.99791 16.0413 7.93695 15.992 7.78245 15.9945C7.43003 16.0004 7.07678 16.0012 6.72436 15.9945C6.56652 15.9912 6.5114 16.048 6.50138 16.21C6.45378 16.9967 6.44877 16.9967 7.2413 16.9967V16.9958ZM4.74179 18.9951C5.56522 18.9951 5.56021 18.9951 5.50927 18.2059C5.49841 18.0406 5.43744 17.9913 5.28295 17.9938C4.93053 17.9996 4.57727 18.0005 4.22486 17.9938C4.06702 17.9905 4.0119 18.0472 4.00188 18.2093C3.95428 18.9959 3.94927 18.9959 4.74179 18.9959V18.9951ZM7.25466 18.9951C7.44173 18.9951 7.62796 18.9893 7.81502 18.9968C7.99958 19.0043 8.03466 18.884 8.00125 18.7546C7.93695 18.5049 8.17579 18.2001 7.86262 17.9996C7.84759 17.9896 7.8217 17.9963 7.80083 17.9963C7.43755 17.9963 7.07511 17.9996 6.71183 17.9946C6.56986 17.993 6.51558 18.0439 6.50222 18.1909C6.4304 18.9959 6.42622 18.9951 7.22292 18.9951C7.23295 18.9951 7.2438 18.9951 7.25382 18.9951H7.25466ZM4.76518 20.9944C4.95224 20.9944 5.14766 21.0311 5.32303 20.9869C5.69967 20.8925 5.44747 20.576 5.49423 20.3672C5.52096 20.2453 5.61282 20.0023 5.3222 19.9981C4.9489 19.9922 4.5756 19.9981 4.20231 19.9956C4.07955 19.9947 4.02109 20.034 4.00355 20.1701C3.90417 20.9468 3.94259 20.996 4.70254 20.996C4.72342 20.996 4.7443 20.996 4.76518 20.996V20.9944ZM7.23879 20.9944C8.06222 20.9944 8.05721 20.9944 8.0096 20.2077C7.99958 20.0457 7.94447 19.9897 7.78663 19.9922C7.43421 19.9989 7.08095 19.9989 6.72854 19.9922C6.57404 19.9897 6.51308 20.039 6.50222 20.2044C6.45128 20.9944 6.44627 20.9935 7.23879 20.9935V20.9944ZM7.26217 10.9964C7.44924 10.9964 7.63547 11.0005 7.82254 10.9955C8.11232 10.9872 8.0213 10.7475 7.99457 10.6256C7.94864 10.416 8.19584 10.117 7.82504 9.9984C7.81586 9.99506 7.80417 9.9984 7.79414 9.9984C7.43087 9.9984 7.06843 10.0017 6.70515 9.99673C6.55734 9.99506 6.51475 10.0585 6.50305 10.2005C6.44042 10.998 6.43624 10.9972 7.23128 10.9972C7.2413 10.9972 7.25215 10.9972 7.26217 10.9972V10.9964ZM4.77019 9.99756C3.94676 9.99756 3.95177 9.99756 4.00271 10.7867C4.01357 10.9513 4.0737 11.0022 4.22903 10.9989C4.58145 10.9922 4.93471 10.9922 5.28712 10.9989C5.44413 11.0022 5.50091 10.9463 5.5101 10.7842C5.55854 9.99756 5.56271 9.99756 4.77102 9.99756H4.77019ZM4.74513 16.995C4.9322 16.995 5.11843 16.9925 5.3055 16.995C5.59528 16.9992 5.52847 16.7662 5.49507 16.6409C5.43745 16.4263 5.72389 16.0697 5.30967 16.0071C4.95475 15.9536 4.58563 16.0004 4.22235 15.9937C4.06034 15.9904 4.01274 16.0547 4.00355 16.2125C3.95762 16.9958 3.95344 16.995 4.7468 16.995H4.74513Z" fill="#B9C7E1"/>
<path d="M22.5056 3.00308C18.1705 3.00308 13.8354 3.00308 9.50029 3.00308C9.18795 3.00141 8.87562 3.00308 8.56329 2.99807C8.18999 2.99222 8.00877 2.81434 8.00543 2.44105C8.00042 1.83726 8.00292 1.23347 8.00459 0.629678C8.00543 0.159507 8.16828 0 8.6468 0C12.0524 0 15.4563 0 18.8611 0C20.3601 0 21.8592 0 23.359 0C23.8376 0 24.0004 0.160342 24.0021 0.629678C24.0038 1.22345 24.0046 1.81638 24.0021 2.41015C24.0004 2.82186 23.825 2.99473 23.4125 2.9989C23.111 3.00224 22.8087 3.00224 22.5064 3.00308H22.5056Z" fill="#B9C7E1"/>
<path d="M9.50112 7.68321C7.18451 8.35799 4.86706 9.03192 2.55045 9.70837C2.53291 9.71338 2.52038 9.73509 2.50535 9.74929C2.23561 9.82111 1.96587 9.89209 1.69612 9.96391C1.2961 10.0708 1.01216 9.86621 1.00799 9.45032C1.00131 8.82649 1.01133 8.20349 1.00381 7.57966C1.00047 7.26148 1.14411 7.08026 1.44642 6.99173C3.42648 6.41383 5.40571 5.83092 7.38494 5.24968C8.09061 5.04257 8.79712 4.83713 9.50363 4.63086C9.50279 5.64887 9.50196 6.66604 9.50112 7.68405V7.68321Z" fill="#9FAECD"/>
<path d="M29.5013 9.74915C28.8408 9.54538 28.1818 9.33493 27.5188 9.13868C25.9195 8.66517 24.3178 8.19834 22.7168 7.72984C22.6475 7.70979 22.5757 7.69894 22.5056 7.68307C22.5047 6.66506 22.5039 5.64789 22.5031 4.62988C24.6618 5.26123 26.8206 5.89258 28.9785 6.52393C29.4955 6.67508 30.0133 6.82624 30.5285 6.98324C30.9018 7.09682 30.9987 7.22793 30.9995 7.60958C31.0012 8.21253 31.0037 8.81549 30.9995 9.41761C30.9962 9.87358 30.7189 10.0748 30.2813 9.95292C30.0224 9.8811 29.7619 9.81679 29.5013 9.74831V9.74915Z" fill="#9FAECD"/>
<path d="M22.5056 21.9976C24.1365 21.9968 25.7675 21.9951 27.3985 21.9951C27.8319 21.9951 27.9998 22.1638 28.0006 22.5981C28.0031 24.7276 28.0031 26.8572 28.0048 28.9867C26.1684 28.9867 24.332 28.9867 22.4964 28.9867C22.4997 26.6576 22.5031 24.3276 22.5064 21.9985L22.5056 21.9976Z" fill="#9EADCD"/>
<path d="M4.00188 28.9857C4.00271 26.8771 4.00438 24.7684 4.00522 22.6597C4.00522 22.1428 4.15387 21.9941 4.66997 21.9941C6.28008 21.9941 7.89018 21.9958 9.50029 21.9975C9.50363 24.3266 9.50697 26.6566 9.51031 28.9857C7.67389 28.9857 5.83747 28.9857 4.00188 28.9857Z" fill="#9EADCD"/>
<path d="M16.0067 21.9975C17.1383 21.9966 18.2707 21.9941 19.4023 21.9941C19.834 21.9941 20.0019 22.1645 20.0019 22.5988C20.0052 24.7275 20.0061 26.8562 20.0086 28.9849C18.6724 28.9849 17.3362 28.9849 16 28.9849C16.0025 26.6558 16.0042 24.3258 16.0067 21.9966V21.9975Z" fill="#9EADCD"/>
<path d="M16.0067 21.9973C16.0042 24.3265 16.0025 26.6565 16 28.9856C14.6672 28.9856 13.3343 28.9839 12.0006 28.9831C12.0015 26.8744 12.0023 24.7658 12.004 22.6562C12.004 22.141 12.1526 21.9932 12.6712 21.9932C13.7828 21.9932 14.8943 21.9957 16.0058 21.9965L16.0067 21.9973Z" fill="#B9C7E1"/>
<path d="M15.9883 12.9966C13.508 12.9949 11.4996 10.9697 11.5046 8.47525C11.5087 6.00915 13.5289 3.99986 16.0025 3.99902C18.4912 3.99902 20.5038 6.01416 20.5021 8.50448C20.5004 10.9898 18.482 12.9982 15.9883 12.9966ZM15.5031 9.48407C15.5031 9.5776 15.5131 9.67281 15.5006 9.76467C15.4856 9.87992 15.5749 10.0578 15.4279 10.0979C15.2576 10.1438 15.1482 9.99767 15.0839 9.84568C15.0513 9.77052 15.0221 9.69118 15.0062 9.61101C14.9352 9.25274 14.7181 9.07319 14.4116 9.12664C14.1076 9.17925 13.9339 9.47822 14.0216 9.82647C14.1853 10.477 14.5536 10.9539 15.2217 11.1334C15.4438 11.1927 15.5148 11.2854 15.5106 11.5126C15.5056 11.809 15.7261 11.9994 16.0075 11.9969C16.2773 11.9944 16.5128 11.8082 16.491 11.5351C16.4668 11.2303 16.6322 11.1835 16.856 11.1226C17.3788 10.9781 17.7704 10.6574 17.9333 10.1355C18.1412 9.46737 17.9199 8.83685 17.1917 8.50949C16.5403 8.2172 16.4226 7.79713 16.5044 7.19919C16.5186 7.09397 16.4393 6.93195 16.5796 6.89688C16.7349 6.85763 16.8476 6.98039 16.9094 7.12487C16.9462 7.21005 16.9821 7.2969 17.0005 7.38709C17.0723 7.74369 17.2903 7.92407 17.5967 7.87062C17.8999 7.81718 18.0719 7.51821 17.9851 7.16996C17.8197 6.50437 17.4322 6.03337 16.7549 5.85131C16.5579 5.7987 16.4936 5.7202 16.4961 5.5156C16.5011 5.19324 16.2906 4.99782 15.9967 5.00116C15.7035 5.0045 15.5031 5.19909 15.509 5.52729C15.5131 5.74275 15.4313 5.79202 15.235 5.83795C14.4801 6.015 13.9398 6.69311 14.0049 7.35118C14.0684 7.99255 14.4784 8.38756 15.0246 8.62306C15.4112 8.78925 15.5824 9.01306 15.5023 9.42394C15.4981 9.44398 15.5023 9.4657 15.5023 9.48658L15.5031 9.48407Z" fill="#FECE56"/>
<path d="M12.2645 14.9957C12.2436 14.9957 12.2228 14.9957 12.2019 14.9957C11.4386 14.9957 11.4044 14.9515 11.5012 14.1715C11.5179 14.0362 11.5747 13.9944 11.6991 13.9961C12.0624 13.9986 12.4249 14.0028 12.7881 13.9953C13.1005 13.9886 13.0253 14.2316 12.9927 14.3669C12.941 14.5782 13.2157 14.9156 12.7923 14.9915C12.6211 15.0224 12.4407 14.9966 12.2645 14.9966V14.9957Z" fill="#B9C7E1"/>
<path d="M14.7298 14.9962C13.9648 14.9962 13.9698 14.9962 13.9999 14.2313C14.0066 14.0609 14.055 13.9891 14.2329 13.9941C14.5853 14.0033 14.9402 13.9699 15.2902 14.0041C15.7211 14.0459 15.4463 14.3933 15.4897 14.5937C15.519 14.729 15.6267 15.0004 15.2893 14.9971C15.1022 14.9954 14.916 14.9971 14.729 14.9971L14.7298 14.9962Z" fill="#B9C7E1"/>
<path d="M17.2769 13.997C18.0419 13.997 18.0368 13.997 18.0068 14.7619C18.0001 14.9323 17.9517 15.0041 17.7738 14.9991C17.4214 14.9899 17.0664 15.0233 16.7165 14.9891C16.2856 14.9473 16.5604 14.5999 16.5169 14.3995C16.4877 14.2642 16.38 13.9928 16.7174 13.9961C16.9044 13.9978 17.0907 13.9961 17.2777 13.9961L17.2769 13.997Z" fill="#B9C7E1"/>
<path d="M19.7438 14.9963C19.723 14.9963 19.7021 14.9963 19.6812 14.9963C18.9672 14.9963 18.8761 14.8819 19.0022 14.1529C19.0189 14.0552 19.0515 13.9992 19.1551 13.9992C19.5492 13.9992 19.9601 13.9282 20.3326 14.0184C20.695 14.1061 20.4345 14.4894 20.4971 14.7324C20.5322 14.8661 20.5113 15.0072 20.3034 14.998C20.1171 14.9896 19.9301 14.9963 19.743 14.9963H19.7438Z" fill="#B9C7E1"/>
<path d="M12.2378 16.9956C11.4453 16.9956 11.4503 16.9956 11.5004 16.2072C11.5104 16.0436 11.5697 15.9909 11.725 15.9943C12.0775 16.001 12.4307 16.001 12.7831 15.9943C12.9393 15.9918 12.9969 16.0452 13.0078 16.2081C13.057 16.9956 13.0621 16.9956 12.2386 16.9956H12.2378Z" fill="#B9C7E1"/>
<path d="M14.7465 16.9958C14.7365 16.9958 14.7256 16.9958 14.7156 16.9958C13.9531 16.9958 13.9573 16.9958 14.0007 16.2166C14.0091 16.0621 14.0517 15.9911 14.2162 15.9945C14.5786 16.002 14.9427 15.9861 15.3052 16.0003C15.6518 16.0137 15.5023 16.3009 15.4889 16.4479C15.4722 16.6316 15.6835 16.9356 15.306 16.9916C15.1231 17.0183 14.9336 16.9966 14.7465 16.9966V16.9958Z" fill="#B9C7E1"/>
<path d="M17.2393 16.9954C16.4485 16.9954 16.4526 16.9954 16.4994 16.2088C16.5094 16.0467 16.5637 15.99 16.7215 15.9933C17.074 16 17.4272 16 17.7796 15.9933C17.9333 15.9908 17.9959 16.0392 18.006 16.2046C18.0577 16.9946 18.0627 16.9946 17.2385 16.9946L17.2393 16.9954Z" fill="#B9C7E1"/>
<path d="M19.7463 15.9969C19.7564 15.9969 19.7672 15.9969 19.7772 15.9969C20.5714 15.9969 20.5681 15.9969 20.5055 16.7936C20.4946 16.9356 20.4512 16.9999 20.3034 16.9974C19.9401 16.9924 19.5776 16.9957 19.2144 16.9957C19.2043 16.9957 19.1927 16.9982 19.1835 16.9957C18.8127 16.8771 19.0607 16.5782 19.0139 16.3686C18.9872 16.2466 18.8954 16.007 19.186 15.9986C19.3722 15.9936 19.5593 15.9978 19.7463 15.9969Z" fill="#B9C7E1"/>
<path d="M12.237 18.9956C11.4444 18.9956 11.4495 18.9956 11.5004 18.2064C11.5112 18.0419 11.5714 17.991 11.7267 17.9943C12.0791 18.001 12.4324 18.001 12.7848 17.9943C12.9418 17.991 12.9986 18.0469 13.0078 18.2089C13.0562 18.9956 13.0604 18.9956 12.2378 18.9956H12.237Z" fill="#B9C7E1"/>
<path d="M14.7665 18.9957C14.7457 18.9957 14.7248 18.9957 14.7039 18.9957C13.9331 18.9957 13.9072 18.9614 14.0007 18.1739C14.0166 18.0403 14.07 17.9944 14.1953 17.9952C14.5686 17.9977 14.9544 17.9376 15.3119 18.0119C15.7161 18.0954 15.4246 18.4737 15.4956 18.7101C15.5357 18.8454 15.5265 19.0107 15.2952 18.9974C15.1198 18.9873 14.9427 18.9957 14.7665 18.9957Z" fill="#B9C7E1"/>
<path d="M17.236 18.9956C16.4434 18.9956 16.4485 18.9956 16.4994 18.2064C16.5103 18.041 16.5712 17.9918 16.7257 17.9943C17.0781 18.0001 17.4314 18.001 17.7838 17.9943C17.9416 17.9909 17.9968 18.0477 18.0068 18.2097C18.0544 18.9964 18.0594 18.9956 17.236 18.9956Z" fill="#B9C7E1"/>
<path d="M19.7363 18.9956C18.9438 18.9956 18.9488 18.9956 18.9989 18.2072C19.0089 18.0436 19.0682 17.9909 19.2236 17.9943C19.576 18.001 19.9292 18.001 20.2816 17.9943C20.4378 17.9918 20.4954 18.0452 20.5063 18.2081C20.5556 18.9956 20.5606 18.9956 19.7371 18.9956H19.7363Z" fill="#B9C7E1"/>
<path d="M12.2812 19.9951C13.0261 19.9951 13.0195 19.9951 13.0086 20.7317C13.0053 20.9355 12.9435 21.0064 12.7397 20.9973C12.419 20.9839 12.0967 20.9939 11.7751 20.9939C11.7442 20.9939 11.71 21.0014 11.6824 20.9922C11.305 20.8603 11.5697 20.5521 11.5138 20.3325C11.4829 20.2131 11.4219 19.9951 11.69 19.9951C11.8871 19.9951 12.0841 19.9951 12.2812 19.9951Z" fill="#B9C7E1"/>
<path d="M14.7373 20.9946C13.9448 20.9946 13.9498 20.9946 13.9999 20.2063C14.0099 20.0417 14.07 19.9908 14.2254 19.9933C14.5778 20 14.9311 20 15.2835 19.9933C15.4405 19.99 15.4973 20.0451 15.5073 20.2079C15.5557 20.9954 15.5607 20.9954 14.7373 20.9954V20.9946Z" fill="#B9C7E1"/>
<path d="M17.251 20.9948C17.241 20.9948 17.2301 20.9948 17.2201 20.9948C16.4226 20.9948 16.4267 20.9948 16.5011 20.1889C16.5144 20.0402 16.5712 19.9918 16.7124 19.9943C17.0756 19.9993 17.4381 19.996 17.8013 19.996C17.8222 19.996 17.8481 19.9901 17.8631 19.9993C18.173 20.2014 17.9366 20.5054 18.0001 20.7551C18.0335 20.8862 17.9951 21.0031 17.8122 20.9956C17.626 20.9881 17.4389 20.9939 17.2518 20.9939L17.251 20.9948Z" fill="#B9C7E1"/>
<path d="M19.743 20.9948C18.9505 20.9948 18.9546 20.9948 18.9997 20.2131C19.0089 20.0552 19.0557 19.9901 19.2185 19.9935C19.581 20.001 19.9509 19.9542 20.3059 20.0068C20.7209 20.0686 20.4345 20.4252 20.4921 20.6398C20.5255 20.7651 20.5931 20.9989 20.3034 20.9948C20.1163 20.9923 19.9301 20.9948 19.743 20.9948Z" fill="#B9C7E1"/>
<path d="M27.2565 10.9967C27.2465 10.9967 27.2357 10.9967 27.2256 10.9967C26.4306 10.9967 26.4348 10.9967 26.4991 10.1984C26.5108 10.0556 26.5559 9.99375 26.702 9.99626C27.0653 10.0013 27.4277 9.99793 27.791 9.99793C27.8119 9.99793 27.8369 9.99208 27.8528 10.0013C28.1785 10.195 27.9305 10.5032 27.9965 10.7504C28.0299 10.8731 28.0065 11.0042 27.8169 10.9984C27.6307 10.9926 27.4436 10.9967 27.2565 10.9976V10.9967Z" fill="#9EADCD"/>
<path d="M24.7303 12.9965C23.9653 12.9965 23.9695 12.9965 23.9987 12.2341C24.0054 12.0654 24.0489 11.9894 24.2292 11.9944C24.5817 12.0044 24.9349 12.0027 25.2873 11.9944C25.4502 11.991 25.4969 12.057 25.5053 12.214C25.5504 12.9965 25.5546 12.9957 24.7303 12.9957V12.9965Z" fill="#9EADCD"/>
<path d="M27.244 12.9967C27.234 12.9967 27.2231 12.9967 27.2131 12.9967C26.4506 12.9967 26.4548 12.9967 26.4983 12.2176C26.5066 12.0631 26.5492 11.9921 26.7137 11.9954C27.0762 12.0029 27.4403 11.9871 27.8027 12.0013C28.1493 12.0146 27.9998 12.3019 27.9864 12.4489C27.9697 12.6326 28.181 12.9366 27.8035 12.9926C27.6206 13.0193 27.4311 12.9976 27.244 12.9976V12.9967Z" fill="#9EADCD"/>
<path d="M24.7387 14.996C23.9194 14.996 23.9111 14.9843 23.9987 14.1801C24.0129 14.0498 24.058 13.9955 24.1883 13.9964C24.5616 13.9997 24.9441 13.9454 25.3057 14.0114C25.7032 14.0832 25.4385 14.4482 25.4928 14.6745C25.5245 14.8056 25.5621 15.0069 25.2982 14.9968C25.112 14.9901 24.9249 14.9952 24.7378 14.996H24.7387Z" fill="#9EADCD"/>
<path d="M27.2565 14.9958C27.2465 14.9958 27.2357 14.9958 27.2256 14.9958C26.4306 14.9958 26.4339 14.9957 26.4991 14.1974C26.5108 14.0537 26.5559 13.9928 26.702 13.9953C27.0653 14.0003 27.4277 13.997 27.791 13.997C27.8119 13.997 27.8369 13.9911 27.8528 14.0003C28.1777 14.194 27.9296 14.5022 27.9964 14.7494C28.0299 14.873 28.0065 15.0033 27.8169 14.9966C27.6307 14.9899 27.4436 14.9949 27.2565 14.9958Z" fill="#9EADCD"/>
<path d="M24.7345 10.9975C23.942 10.9975 23.947 10.9975 23.9979 10.2084C24.0088 10.043 24.0697 9.99373 24.2242 9.99623C24.5766 10.0021 24.9299 10.0029 25.2823 9.99623C25.4402 9.99289 25.4953 10.0497 25.5053 10.2117C25.5529 10.9984 25.5579 10.9984 24.7345 10.9984V10.9975Z" fill="#9EADCD"/>
<path d="M24.7345 16.9956C23.942 16.9956 23.947 16.9956 23.9979 16.2064C24.0088 16.041 24.0697 15.9918 24.2242 15.9943C24.5766 16.0001 24.9299 16.001 25.2823 15.9943C25.4402 15.9909 25.4953 16.0477 25.5053 16.2097C25.5529 16.9964 25.5579 16.9964 24.7345 16.9964V16.9956Z" fill="#9EADCD"/>
<path d="M27.2574 16.9955C27.2474 16.9955 27.2365 16.9955 27.2265 16.9955C26.4323 16.9955 26.4356 16.9955 26.4991 16.1979C26.5108 16.0551 26.5542 15.9925 26.7012 15.9942C27.0645 15.9992 27.4269 15.9958 27.7902 15.9958C27.8002 15.9958 27.8119 15.9933 27.8211 15.9958C28.2036 16.1261 27.9347 16.4351 27.9914 16.6547C28.0223 16.7725 28.0866 16.9921 27.8177 16.9938C27.6307 16.9946 27.4444 16.9938 27.2574 16.9938V16.9955Z" fill="#9EADCD"/>
<path d="M24.7654 17.9961C25.5579 17.9961 25.5529 17.9961 25.5053 18.7819C25.4953 18.9431 25.441 19.0007 25.2832 18.9974C24.9307 18.9907 24.5775 18.9907 24.2251 18.9974C24.0714 18.9999 24.0088 18.9515 23.9987 18.7861C23.9478 17.9961 23.9428 17.9961 24.7654 17.9961Z" fill="#9EADCD"/>
<path d="M27.2657 17.9961C28.0574 17.9961 28.0532 17.9961 28.0048 18.7828C27.9948 18.9456 27.9388 19.0007 27.7818 18.9974C27.4294 18.9907 27.0762 18.9907 26.7237 18.9974C26.5692 18.9999 26.5083 18.9498 26.4974 18.7853C26.4465 17.9961 26.4415 17.9961 27.2649 17.9961H27.2657Z" fill="#9EADCD"/>
<path d="M24.7428 19.9951C24.7637 19.9951 24.7846 19.9951 24.8055 19.9951C25.5654 19.9951 25.6038 20.0452 25.5045 20.821C25.4869 20.9571 25.4276 20.9964 25.3057 20.9955C24.9324 20.993 24.5591 20.9989 24.1858 20.993C23.8927 20.9889 23.9887 20.7442 24.0146 20.6239C24.0597 20.4143 23.8083 20.0978 24.185 20.0043C24.3604 19.96 24.5566 19.9967 24.7428 19.9967V19.9951Z" fill="#9EADCD"/>
<path d="M27.2507 20.9948C27.2407 20.9948 27.2298 20.9948 27.2198 20.9948C26.4231 20.9948 26.4273 20.9948 26.4991 20.1906C26.5125 20.0427 26.5667 19.9918 26.7079 19.9943C27.0711 19.9993 27.4336 19.996 27.7969 19.996C27.8177 19.996 27.8436 19.9901 27.8587 19.9993C28.1718 20.1997 27.9321 20.5046 27.9973 20.7534C28.0307 20.8829 27.9956 21.0031 27.8111 20.9956C27.6248 20.9881 27.4378 20.9939 27.2507 20.9939V20.9948Z" fill="#9EADCD"/>
<path d="M4.73845 12.9966C3.94593 12.9966 3.95094 12.9966 4.00188 12.2074C4.01274 12.042 4.0737 11.9928 4.2282 11.9953C4.58062 12.0011 4.93387 12.0019 5.28629 11.9953C5.44413 11.9919 5.49924 12.0487 5.50927 12.2107C5.55687 12.9974 5.56188 12.9966 4.73845 12.9966Z" fill="#9EADCD"/>
<path d="M7.27888 11.997C8.04384 11.997 8.03883 11.997 8.00877 12.7619C8.00209 12.9323 7.95365 13.0041 7.77577 12.9991C7.42335 12.9899 7.06843 13.0233 6.71851 12.9891C6.28759 12.9473 6.56235 12.5999 6.51892 12.3995C6.48969 12.2642 6.38196 11.9928 6.71935 11.9961C6.90641 11.9978 7.09265 11.9961 7.27971 11.9961L7.27888 11.997Z" fill="#9EADCD"/>
<path d="M4.74096 14.9964C3.94843 14.9964 3.95344 14.9964 4.00104 14.2097C4.01107 14.0477 4.06618 13.9917 4.22402 13.9942C4.57644 14.0009 4.92969 14.0009 5.28211 13.9942C5.43661 13.9917 5.49757 14.041 5.50843 14.2063C5.55937 14.9964 5.56438 14.9955 4.74096 14.9955V14.9964Z" fill="#9EADCD"/>
<path d="M7.23295 14.9965C6.46798 14.9965 6.47215 14.9965 6.50138 14.2341C6.50806 14.0654 6.55149 13.9894 6.73188 13.9944C7.08429 14.0044 7.43755 14.0027 7.78997 13.9944C7.95282 13.991 7.99958 14.057 8.00793 14.214C8.05303 14.9965 8.05721 14.9957 7.23295 14.9957V14.9965Z" fill="#9EADCD"/>
<path d="M7.2413 16.9954C6.44877 16.9954 6.45378 16.9954 6.50138 16.2087C6.5114 16.0467 6.56652 15.9907 6.72436 15.9933C7.07678 15.9999 7.43003 15.9999 7.78245 15.9933C7.93695 15.9907 7.99791 16.04 8.00877 16.2054C8.05971 16.9954 8.06472 16.9946 7.2413 16.9946V16.9954Z" fill="#9EADCD"/>
<path d="M4.74096 18.9954C3.94843 18.9954 3.95344 18.9954 4.00104 18.2087C4.01107 18.0467 4.06618 17.9907 4.22402 17.9933C4.57644 17.9999 4.92969 17.9999 5.28211 17.9933C5.43661 17.9907 5.49757 18.04 5.50843 18.2054C5.55937 18.9954 5.56438 18.9946 4.74096 18.9946V18.9954Z" fill="#9EADCD"/>
<path d="M7.25382 18.9948C7.2438 18.9948 7.23295 18.9948 7.22292 18.9948C6.42622 18.9948 6.4304 18.9948 6.50222 18.1906C6.51558 18.0427 6.56986 17.9918 6.71183 17.9943C7.07511 17.9993 7.43755 17.996 7.80082 17.996C7.8217 17.996 7.84759 17.9901 7.86262 17.9993C8.17496 18.1997 7.93611 18.5046 8.00125 18.7543C8.03466 18.8837 7.99958 19.0031 7.81502 18.9964C7.62879 18.9889 7.44172 18.9948 7.25466 18.9948H7.25382Z" fill="#9EADCD"/>
<path d="M4.76434 20.9948C4.74346 20.9948 4.72258 20.9948 4.70171 20.9948C3.94175 20.9948 3.90334 20.9455 4.00271 20.1689C4.02025 20.0328 4.07871 19.9935 4.20147 19.9943C4.57477 19.9968 4.94807 19.991 5.32136 19.9968C5.61115 20.0019 5.52012 20.244 5.4934 20.366C5.44747 20.5756 5.69884 20.8921 5.3222 20.9856C5.14682 21.0299 4.95057 20.9931 4.76434 20.9931V20.9948Z" fill="#9EADCD"/>
<path d="M7.23796 20.9946C6.44543 20.9946 6.45044 20.9946 6.50138 20.2054C6.51224 20.0401 6.5732 19.9908 6.7277 19.9933C7.08012 19.9991 7.43337 20 7.78579 19.9933C7.94363 19.99 7.99875 20.0467 8.00877 20.2088C8.05637 20.9954 8.06138 20.9954 7.23796 20.9954V20.9946Z" fill="#9EADCD"/>
<path d="M7.26134 10.9966C7.25132 10.9966 7.24046 10.9966 7.23044 10.9966C6.43624 10.9966 6.43958 10.9966 6.50222 10.1999C6.51308 10.058 6.5565 9.99366 6.70432 9.99616C7.06759 10.0012 7.43003 9.99783 7.79331 9.99783C7.80333 9.99783 7.81502 9.99533 7.82421 9.99783C8.195 10.1164 7.94697 10.4154 7.99374 10.625C8.02046 10.7469 8.11232 10.9866 7.8217 10.995C7.63547 11 7.44841 10.9958 7.26134 10.9966Z" fill="#9EADCD"/>
<path d="M4.76935 9.99805C5.56104 9.99805 5.55687 9.99805 5.50843 10.7847C5.49841 10.9476 5.44246 11.0027 5.28545 10.9994C4.93303 10.9927 4.57978 10.9927 4.22736 10.9994C4.07286 11.0019 4.0119 10.9517 4.00104 10.7872C3.9501 9.99805 3.94509 9.99805 4.76852 9.99805H4.76935Z" fill="#9EADCD"/>
<path d="M4.74513 16.9951C3.95261 16.9951 3.95678 16.9951 4.00188 16.2126C4.01107 16.0548 4.0595 15.9905 4.22068 15.9938C4.58312 16.0013 4.95308 15.9537 5.308 16.0072C5.72222 16.0698 5.43577 16.4264 5.4934 16.641C5.5268 16.7663 5.59445 16.9993 5.30383 16.9951C5.1176 16.9926 4.93053 16.9951 4.74346 16.9951H4.74513Z" fill="#9EADCD"/>
<path d="M15.5031 9.4835C15.5031 9.46262 15.4998 9.44091 15.5031 9.42087C15.5833 9.00999 15.4121 8.78618 15.0254 8.61999C14.4793 8.38449 14.0692 7.99031 14.0057 7.34811C13.9406 6.69004 14.4809 6.01192 15.2359 5.83488C15.4321 5.78894 15.514 5.74051 15.5098 5.52421C15.5031 5.19601 15.7044 5.00143 15.9975 4.99809C16.2915 4.99475 16.5011 5.191 16.4969 5.51252C16.4936 5.71712 16.5587 5.79563 16.7558 5.84824C17.4331 6.03029 17.8206 6.50213 17.9859 7.16689C18.0728 7.51513 17.9007 7.8141 17.5976 7.86755C17.2903 7.921 17.0731 7.74145 17.0013 7.38402C16.9829 7.29382 16.947 7.20614 16.9103 7.12179C16.8476 6.97815 16.7357 6.85539 16.5804 6.8938C16.4401 6.92888 16.5203 7.09089 16.5052 7.19612C16.4234 7.79489 16.5412 8.21412 17.1925 8.50641C17.9208 8.83378 18.1421 9.46346 17.9341 10.1324C17.7713 10.6543 17.3796 10.975 16.8568 11.1195C16.633 11.1813 16.4677 11.2281 16.4919 11.532C16.5136 11.8051 16.2781 11.9914 16.0084 11.9939C15.7269 11.9964 15.5064 11.8051 15.5115 11.5095C15.5156 11.2823 15.4438 11.1896 15.2225 11.1304C14.5544 10.9508 14.1853 10.4739 14.0224 9.82339C13.9348 9.47515 14.1085 9.17618 14.4124 9.12357C14.7198 9.07095 14.9369 9.24967 15.007 9.60793C15.0229 9.6881 15.0521 9.76661 15.0847 9.8426C15.1499 9.99459 15.2593 10.1416 15.4288 10.0948C15.5766 10.0547 15.4864 9.87684 15.5014 9.76159C15.514 9.66973 15.5039 9.57453 15.5039 9.481L15.5031 9.4835ZM15.5031 7.72725C15.5031 7.46001 15.4998 7.22451 15.5039 6.98984C15.5081 6.79108 15.4021 6.81029 15.2927 6.88963C15.1624 6.98483 14.9895 7.07586 15.0121 7.26877C15.0421 7.53016 15.2526 7.6262 15.5031 7.72725ZM16.5036 9.27055C16.5036 9.53695 16.5069 9.77245 16.5027 10.008C16.4994 10.2101 16.6088 10.1833 16.7149 10.1057C16.8451 10.0105 17.0172 9.91943 16.9938 9.72652C16.9621 9.46596 16.7533 9.36992 16.5027 9.27138L16.5036 9.27055Z" fill="#E7A334"/>
<path d="M15.5031 7.72709C15.2526 7.6252 15.0421 7.52916 15.0121 7.26861C14.9903 7.07569 15.1624 6.98467 15.2927 6.88946C15.4021 6.81013 15.5081 6.79092 15.5039 6.98968C15.4989 7.22434 15.5031 7.45985 15.5031 7.72709Z" fill="#FDCD54"/>
<path d="M16.5036 9.27037C16.7533 9.36891 16.9629 9.46495 16.9946 9.7255C17.018 9.91842 16.8451 10.0094 16.7157 10.1046C16.6096 10.1823 16.5002 10.209 16.5036 10.0069C16.5078 9.77144 16.5044 9.53677 16.5044 9.26953L16.5036 9.27037Z" fill="#FDCD54"/>
</g>
<defs>
<clipPath id="clip0_28_31285">
<rect width="32.0042" height="32" fill="white"/>
</clipPath>
</defs>
</svg>
