<svg width="34" height="32" viewBox="0 0 34 32" fill="none" xmlns="http://www.w3.org/2000/svg">
<g clip-path="url(#clip0_28_31267)">
<path d="M31.2284 29.2555C31.3123 30.6234 30.6234 31.5708 29.2805 31.9407C29.2512 31.949 29.2296 31.9802 29.2051 32.0013H3.25695C3.23433 31.9361 3.17119 31.9343 3.11747 31.915C1.83298 31.4624 1.20345 30.5114 1.3156 29.1895C1.34952 29.217 1.40513 29.239 1.41361 29.273C1.68785 30.3379 2.81496 31.053 3.94678 31.0503C12.1806 31.0301 20.4153 31.0392 28.649 31.0392C29.7912 31.0392 30.678 30.4536 31.087 29.4272C31.1163 29.3538 31.12 29.2656 31.2275 29.2555H31.2284Z" fill="#5094FD"/>
<path d="M34 15.5193C33.886 15.59 33.9067 15.7195 33.87 15.8214C33.6824 16.329 33.378 16.7522 32.9115 17.0441C32.3828 17.3746 31.8287 17.6656 31.2623 17.9309C31.2623 17.5637 31.2623 17.1965 31.2623 16.8293C31.5592 16.6714 31.8513 16.5071 32.1529 16.3584C32.8965 15.9912 33.3055 15.389 33.4798 14.6123C33.5637 14.236 33.4647 13.8669 33.4421 13.4951C33.7211 13.8293 33.8257 14.2451 34.001 14.6279V15.5202L34 15.5193Z" fill="#FDBC20"/>
<path d="M31.2284 29.2552C31.121 29.2653 31.1172 29.3526 31.088 29.4269C30.679 30.4533 29.7922 31.0389 28.65 31.0389C20.4162 31.0389 12.1815 31.0298 3.94773 31.05C2.8159 31.0527 1.68879 30.3385 1.41455 29.2727C1.40607 29.2387 1.35047 29.2167 1.31654 29.1892C1.30712 28.9385 1.28827 28.6888 1.28827 28.4382C1.28638 24.7625 1.28733 21.0859 1.28638 17.4102C1.28638 17.2624 1.27979 17.1136 1.27602 16.9658C1.28544 16.3976 1.29204 15.8293 1.30335 15.2611C1.31465 14.7039 1.43151 14.1788 1.80188 13.7326C2.18826 13.7299 2.57088 13.7574 2.95632 13.7969C3.83747 13.8868 4.72615 13.9135 5.60447 14.0209C6.74761 14.1613 7.89074 14.31 9.03105 14.4762C10.5898 14.7029 12.1325 15.0004 13.6639 15.3483C15.4978 15.7651 17.2987 16.304 19.062 16.9548C20.8083 17.6002 22.4829 18.3888 24.0756 19.338C25.7936 20.3625 27.3363 21.5945 28.634 23.1027C29.3115 23.8913 29.8808 24.7497 30.3444 25.6759C30.7723 26.5297 31.0597 27.4247 31.2388 28.3556C31.2359 28.6558 31.2331 28.956 31.2303 29.2552H31.2284ZM3.26637 19.1636C3.25223 19.819 3.66595 20.2633 4.32657 20.267C5.75808 20.2753 7.19053 20.2762 8.62204 20.267C9.28738 20.2633 9.69356 19.8199 9.67094 19.159C9.76612 18.7697 9.71994 18.3768 9.70204 17.9848C9.72937 17.8288 9.73973 17.6727 9.69261 17.5185C9.76235 17.222 9.70109 16.9273 9.68319 16.6317C9.64643 16.0451 9.26193 15.6246 8.65974 15.6155C7.20467 15.5934 5.74866 15.5943 4.29359 15.6155C3.67443 15.6237 3.26354 16.0827 3.25506 16.6932C3.25129 16.9677 3.26072 17.2412 3.26354 17.5157C3.2626 17.6755 3.26166 17.8361 3.26072 17.9959C3.2626 18.3851 3.26354 18.7752 3.26543 19.1645L3.26637 19.1636ZM19.8649 28.0068C20.24 28.0068 20.6151 28.0086 20.9901 28.0068C21.6988 28.0031 22.0598 27.6515 22.0796 26.9483C22.1003 26.2194 21.7327 25.7861 21.0316 25.7686C20.2353 25.7484 19.4371 25.7521 18.6407 25.7677C18.0376 25.7787 17.6427 26.2185 17.6493 26.8308C17.6569 27.578 18.0159 27.9948 18.669 28.0058C19.0676 28.0132 19.4663 28.0068 19.8649 28.0077V28.0068ZM12.6508 28.0068C13.0259 28.0068 13.401 28.0086 13.776 28.0068C14.5026 28.0031 14.8645 27.6377 14.8843 26.8868C14.9022 26.2277 14.5055 25.7852 13.8335 25.7686C13.0259 25.7494 12.2164 25.7484 11.4087 25.7686C10.799 25.7852 10.4371 26.2332 10.4531 26.8895C10.4701 27.5881 10.8292 27.9921 11.4558 28.0049C11.8545 28.0132 12.2522 28.0068 12.6508 28.0068ZM5.45651 28.0068C5.86646 28.0068 6.2764 28.0068 6.68729 28.0068C7.00111 28.0068 7.27252 27.8938 7.44875 27.6487C7.73713 27.2466 7.77482 26.7922 7.57409 26.3488C7.39127 25.9431 7.02279 25.7714 6.57986 25.7659C5.90038 25.7585 5.22091 25.7631 4.54144 25.7641C3.54344 25.7641 3.20511 26.112 3.2626 27.0768C3.29653 27.6441 3.67066 27.9967 4.26249 28.0068C4.66113 28.0141 5.05882 28.0077 5.45746 28.0077L5.45651 28.0068ZM27.0847 28.0068C27.4475 28.0068 27.8112 28.0077 28.1741 28.0068C28.9299 28.004 29.2578 27.6763 29.2804 26.9042C29.3012 26.2102 28.9261 25.7852 28.2297 25.7677C27.4333 25.7484 26.6361 25.7475 25.8397 25.7677C25.2423 25.7833 24.8455 26.2277 24.8615 26.8042C24.8832 27.5992 25.2159 27.9911 25.8897 28.004C26.2883 28.0113 26.686 28.0049 27.0847 28.0058V28.0068ZM26.408 29.8575C25.7568 29.5692 21.1975 29.5683 20.4982 29.852C22.448 30.0539 24.3979 30.0787 26.408 29.8575Z" fill="#57B2FD"/>
<path d="M33.4402 13.4941C33.4628 13.8659 33.5627 14.2349 33.4779 14.6113C33.3045 15.3879 32.8946 15.9901 32.151 16.3573C31.8504 16.5061 31.5573 16.6704 31.2604 16.8283C31.2557 16.2564 31.2538 15.6844 31.2454 15.1125C31.2284 13.9411 30.3209 12.9414 29.1363 12.7652C28.8196 12.7184 28.5049 12.7165 28.1882 12.7165C23.8418 12.7128 19.4955 12.711 15.1491 12.7083C15.2255 12.6578 15.299 12.6018 15.38 12.5586C16.6947 11.8518 18.0093 11.1458 19.3249 10.4408C21.925 9.04632 24.5251 7.6537 27.1242 6.25924C27.7293 5.93426 27.8423 5.54503 27.5069 4.95291C27.2072 4.42322 26.9065 3.89353 26.5965 3.36934C26.2487 2.77998 25.8935 2.68359 25.2875 3.00856C22.1304 4.69954 18.9772 6.39786 15.8173 8.08241C15.2132 8.40463 14.6355 8.77918 13.9843 9.01602C13.9937 8.89944 14.0936 8.84435 14.1653 8.77367C15.183 7.76386 16.2659 6.82473 17.3741 5.91131C19.3673 4.26807 21.4698 2.76805 23.6317 1.34421C24.2009 0.968746 24.805 0.641934 25.3299 0.203125C25.8482 0.390399 26.2374 0.739243 26.4994 1.19549C27.8103 3.47675 29.108 5.76535 30.4047 8.05395C31.3735 9.76237 32.3348 11.4754 33.2979 13.1875C33.3535 13.2857 33.3922 13.3931 33.4383 13.4959L33.4402 13.4941ZM30.7167 11.2899C30.5433 10.3921 28.6867 7.39665 28.2542 7.25436C28.9091 8.69839 29.7149 10.0534 30.7167 11.2899Z" fill="#FDD375"/>
<path d="M25.3309 0.201398C24.8069 0.640207 24.2028 0.967937 23.6326 1.34248C21.4708 2.76632 19.3683 4.26635 17.3751 5.90959C16.2668 6.82392 15.1831 7.76305 14.1662 8.77194C14.0946 8.84355 13.9947 8.89771 13.9853 9.0143L13.9806 8.99777C13.9542 9.02899 13.9287 9.06112 13.9023 9.09233C12.778 9.70005 11.6538 10.3069 10.5304 10.9164C9.43912 11.5085 8.34876 12.1043 7.25746 12.6974C6.15484 12.7038 5.05129 12.7038 3.94868 12.7185C3.07413 12.7295 2.31738 12.9939 1.8 13.731C1.42964 14.1772 1.31278 14.7023 1.30147 15.2595C1.29016 15.8278 1.28262 16.396 1.27414 16.9643C0.870793 16.3483 0.501372 15.7103 0.201687 15.0438C-0.31098 13.9064 0.182839 12.6257 1.34199 11.9969C2.40785 11.4186 3.47842 10.8485 4.54711 10.2756C10.6925 6.98274 16.8398 3.69167 22.9814 0.391426C23.7118 -0.000563986 24.4488 -0.128167 25.2423 0.147236C25.2743 0.158252 25.3016 0.18212 25.3309 0.20048V0.201398ZM11.2561 8.68014C9.51734 9.40353 7.91243 10.3463 6.41589 11.47C8.15462 10.7493 9.7633 9.81205 11.2561 8.68014Z" fill="#FDBC20"/>
<path d="M1.79999 13.7309C2.31737 12.9938 3.07412 12.7294 3.94867 12.7184C5.05128 12.7046 6.15483 12.7037 7.25744 12.6973C8.18571 12.7009 9.11303 12.7083 10.0413 12.7092C11.7442 12.711 13.4471 12.7092 15.1501 12.7074C19.4964 12.7101 23.8428 12.712 28.1891 12.7156C28.5058 12.7156 28.8206 12.7165 29.1372 12.7643C30.3218 12.9405 31.2293 13.9403 31.2463 15.1116C31.2548 15.6836 31.2567 16.2555 31.2614 16.8274C31.2614 17.1946 31.2614 17.5618 31.2614 17.929C31.2576 20.3755 31.2548 22.822 31.2501 25.2676C31.2482 26.2967 31.2416 27.3248 31.2378 28.3539C31.0588 27.4231 30.7713 26.528 30.3435 25.6743C29.8789 24.748 29.3106 23.8896 28.633 23.1011C27.3353 21.5928 25.7926 20.3608 24.0746 19.3363C22.482 18.3871 20.8073 17.5985 19.061 16.9532C17.2978 16.3014 15.4969 15.7634 13.663 15.3466C12.1315 14.9987 10.5888 14.7013 9.0301 14.4745C7.88979 14.3084 6.74666 14.1597 5.60352 14.0192C4.72521 13.9118 3.83652 13.8852 2.95537 13.7952C2.56993 13.7557 2.18732 13.7282 1.80093 13.7309H1.79999ZM26.31 16.4079C25.4995 16.4079 24.6891 16.4079 23.8786 16.4079C23.5817 16.4079 23.4027 16.5621 23.3914 16.8393C23.3801 17.1056 23.5638 17.2506 23.8268 17.2937C23.8956 17.3048 23.9672 17.3002 24.0379 17.3002C25.5759 17.3002 27.1148 17.3002 28.6528 17.3002C29.0731 17.3002 29.271 17.1588 29.2795 16.8623C29.288 16.5575 29.0797 16.4097 28.634 16.4088C27.8593 16.4069 27.0837 16.4088 26.3091 16.4088L26.31 16.4079ZM27.4051 18.3247C26.9706 18.3247 26.5362 18.3219 26.1017 18.3247C25.7116 18.3274 25.5231 18.478 25.5297 18.7727C25.5363 19.0582 25.7361 19.2161 26.1187 19.2179C26.9753 19.2216 27.8329 19.2216 28.6896 19.2179C29.0778 19.217 29.272 19.0673 29.2804 18.7782C29.2889 18.4899 29.092 18.3293 28.7075 18.3247C28.273 18.3192 27.8386 18.3238 27.4041 18.3238L27.4051 18.3247Z" fill="#5094FD"/>
<path d="M3.26449 17.5154C3.26166 17.2409 3.25223 16.9673 3.256 16.6928C3.26449 16.0824 3.67537 15.6243 4.29453 15.6151C5.7496 15.5949 7.20561 15.594 8.66068 15.6151C9.26382 15.6243 9.64832 16.0447 9.68413 16.6313C9.70204 16.9269 9.76424 17.2216 9.69356 17.5181C8.69649 17.5163 7.70037 17.5044 6.70331 17.52C6.41494 17.5246 6.34143 17.4309 6.35368 17.1675C6.37347 16.7461 6.35368 16.3229 6.36122 15.8997C6.36405 15.7344 6.32164 15.6482 6.1275 15.6463C5.93054 15.6445 5.85704 15.7087 5.86175 15.9034C5.87211 16.3367 5.85232 16.7718 5.86929 17.2051C5.87871 17.4447 5.79766 17.5209 5.55075 17.5163C4.78835 17.5035 4.02689 17.5126 3.26449 17.5126V17.5154Z" fill="#FDD375"/>
<path d="M3.26448 17.5148C4.02689 17.5148 4.78929 17.5056 5.55075 17.5185C5.79766 17.5231 5.87871 17.4469 5.86928 17.2073C5.85232 16.774 5.87211 16.3397 5.86174 15.9055C5.85703 15.7109 5.93054 15.6466 6.1275 15.6485C6.32164 15.6503 6.36404 15.7357 6.36122 15.9018C6.35462 16.3241 6.37347 16.7473 6.35368 17.1696C6.34143 17.4322 6.41493 17.5258 6.70331 17.5221C7.69943 17.5065 8.69649 17.5185 9.69355 17.5203C9.73973 17.6745 9.72936 17.8306 9.70298 17.9866C9.20068 17.9903 8.69837 18.0023 8.19607 17.994C7.98403 17.9903 7.90676 18.0573 7.91241 18.2676C7.92466 18.7339 7.92372 19.2012 7.91241 19.6675C7.90864 19.864 7.99252 19.9016 8.18005 19.9236C8.86612 20.0044 9.33638 19.7153 9.67093 19.1608C9.69355 19.8208 9.28738 20.2642 8.62204 20.2688C7.19053 20.278 5.75808 20.2771 4.32657 20.2688C3.66594 20.2651 3.25223 19.8208 3.26637 19.1654C3.55191 19.7428 3.87422 19.9448 4.42741 19.9218C4.61117 19.9145 4.67337 19.853 4.67055 19.6776C4.66301 19.1975 4.66301 18.7165 4.67055 18.2363C4.67337 18.0592 4.60646 17.9922 4.42364 17.9958C4.03631 18.0041 3.64898 17.9977 3.26071 17.9967C3.26165 17.837 3.2626 17.6764 3.26354 17.5166L3.26448 17.5148ZM6.28017 19.9154C6.57326 19.9154 6.86729 19.9071 7.16037 19.9181C7.36111 19.9255 7.42707 19.8493 7.4233 19.6583C7.41388 19.1902 7.41388 18.7211 7.4233 18.2529C7.42707 18.061 7.35828 17.9903 7.15943 17.9931C6.59587 18.0023 6.03232 18.0023 5.4697 17.9931C5.2407 17.9894 5.15683 18.0784 5.16154 18.2979C5.1719 18.7201 5.18416 19.1443 5.15777 19.5656C5.13892 19.8658 5.25955 19.9429 5.54133 19.9191C5.78635 19.8989 6.0342 19.9145 6.28017 19.9145V19.9154Z" fill="#FDBC20"/>
<path d="M9.67094 19.1595C9.33638 19.714 8.86612 20.0041 8.18005 19.9224C7.99252 19.9003 7.90864 19.8627 7.91241 19.6662C7.92278 19.1999 7.92466 18.7326 7.91241 18.2663C7.90676 18.056 7.98403 17.989 8.19608 17.9927C8.69838 18.001 9.20068 17.989 9.70298 17.9854C9.71994 18.3773 9.76612 18.7702 9.67188 19.1595H9.67094Z" fill="#FDD375"/>
<path d="M3.26166 17.9952C3.64899 17.9952 4.03726 18.0025 4.42458 17.9943C4.60741 17.9906 4.67432 18.0576 4.67149 18.2348C4.66395 18.7149 4.66395 19.196 4.67149 19.6761C4.67432 19.8514 4.61212 19.9129 4.42835 19.9203C3.87516 19.9432 3.55286 19.7422 3.26731 19.1638C3.26543 18.7746 3.26448 18.3844 3.2626 17.9952H3.26166Z" fill="#FDD375"/>
<path d="M15.1501 12.7079C13.4471 12.7079 11.7442 12.7107 10.0413 12.7098C9.11398 12.7098 8.18571 12.7024 7.25745 12.6978C8.34781 12.1039 9.43817 11.509 10.5304 10.9169C11.6538 10.3073 12.779 9.70052 13.9023 9.09279C13.9429 9.0726 13.9928 9.05974 13.9805 8.99824L13.9853 9.01476C14.6355 8.77791 15.2132 8.40337 15.8182 8.08114C18.979 6.3966 22.1323 4.69919 25.2884 3.0073C25.8953 2.68233 26.2497 2.77872 26.5974 3.36808C26.9075 3.89226 27.2081 4.42196 27.5078 4.95165C27.8433 5.54376 27.7302 5.93392 27.1252 6.25798C24.526 7.65335 21.925 9.04597 19.3259 10.4395C18.0103 11.1445 16.6956 11.8505 15.381 12.5574C15.2999 12.6005 15.2264 12.6565 15.1501 12.707V12.7079Z" fill="#4C5C74"/>
<path d="M13.9805 8.99805C13.9928 9.05955 13.9429 9.07241 13.9023 9.0926C13.9278 9.06139 13.9542 9.02926 13.9805 8.99805Z" fill="#FDD375"/>
<path d="M6.28018 19.9156C6.03327 19.9156 5.78542 19.9 5.54134 19.9202C5.25956 19.9441 5.13987 19.867 5.15778 19.5668C5.18322 19.1454 5.17191 18.7213 5.16155 18.299C5.15589 18.0796 5.23977 17.9906 5.46971 17.9942C6.03327 18.0034 6.59683 18.0025 7.15944 17.9942C7.35829 17.9915 7.42708 18.0622 7.42331 18.254C7.41389 18.7222 7.41389 19.1913 7.42331 19.6595C7.42708 19.8505 7.36111 19.9267 7.16038 19.9193C6.8673 19.9083 6.57327 19.9166 6.28018 19.9166V19.9156Z" fill="#FDD375"/>
</g>
<defs>
<clipPath id="clip0_28_31267">
<rect width="34" height="32" fill="white"/>
</clipPath>
</defs>
</svg>
