<svg width="20" height="20" viewBox="0 0 23 22" fill="none" xmlns="http://www.w3.org/2000/svg">
<path d="M11.3594 1C13.8607 3.73835 15.2821 7.29203 15.3594 11C15.2821 14.708 13.8607 18.2616 11.3594 21M11.3594 1C8.85809 3.73835 7.43662 7.29203 7.35938 11C7.43662 14.708 8.85809 18.2616 11.3594 21M11.3594 1C5.83653 1 1.35938 5.47715 1.35938 11C1.35938 16.5228 5.83653 21 11.3594 21M11.3594 1C16.8822 1 21.3594 5.47715 21.3594 11C21.3594 16.5228 16.8822 21 11.3594 21M1.85939 8H20.8594M1.85938 14H20.8594" stroke="currentColor" stroke-width="2" stroke-linecap="round" stroke-linejoin="round"/>
</svg>
