<svg width="24" height="22" viewBox="0 0 24 22" fill="none" xmlns="http://www.w3.org/2000/svg">
<path d="M15.3852 5.91714C16.4654 4.0306 15.8243 1.61829 13.9532 0.529097C12.0822 -0.560097 9.6896 0.0862795 8.60932 1.97282L0.530884 16.0806C-0.549393 17.9671 0.0916934 20.3794 1.96279 21.4686C3.83388 22.5578 6.22644 21.9114 7.30672 20.0249L15.3852 5.91714Z" fill="#F8BB2D"/>
<path d="M7.82626 18.0546C7.82626 20.2336 6.07429 22 3.91313 22C1.75197 22 0 20.2336 0 18.0546C0 15.8756 1.75197 14.1091 3.91313 14.1091C6.07429 14.1091 7.82626 15.8756 7.82626 18.0546Z" fill="#3BA757"/>
<path d="M8.62097 5.91714C7.54069 4.0306 8.18178 1.61829 10.0529 0.529097C11.924 -0.560097 14.3165 0.0862795 15.3968 1.97282L23.4752 16.0806C24.5555 17.9671 23.9144 20.3794 22.0433 21.4686C20.1722 22.5578 17.7797 21.9114 16.6994 20.0249L8.62097 5.91714Z" fill="#4689F2"/>
</svg>
