<svg width="238" height="36" viewBox="0 0 238 36" fill="none" xmlns="http://www.w3.org/2000/svg">
<path fill-rule="evenodd" clip-rule="evenodd" d="M156.163 16.4902C158.96 16.4902 160.824 18.4605 160.824 21.2266C160.824 23.9927 158.96 25.9636 156.163 25.9636C153.366 25.9636 151.469 23.9927 151.469 21.2266C151.469 18.4605 153.366 16.4902 156.163 16.4902ZM155.519 12.9607C151.662 12.9607 147.611 15.6958 147.611 21.0684C147.611 26.0596 151.148 29.4924 156.194 29.4924C161.178 29.4924 164.649 26.1853 164.649 21.0994V6.50769H160.824V15.664C159.698 13.9148 157.802 12.9607 155.519 12.9607ZM113.916 7.8113V23.0386C113.916 27.3943 116.552 29.4924 120.41 29.4924C124.268 29.4924 126.904 27.3943 126.904 23.0386V22.6255H123.079V23.0386C123.079 25.1684 121.985 25.9643 120.41 25.9643C118.835 25.9643 117.742 25.1374 117.742 23.0386V16.8087H125.94V13.3739H117.742V7.8113H113.916ZM0 18.6836C0 12.4523 4.62884 7.87415 11.1879 7.87415C16.6844 7.87415 20.8319 11.0858 22.0209 15.8222H17.682C16.6844 13.311 14.3057 11.6578 11.1879 11.6578C7.00825 11.6578 4.17967 14.6146 4.17967 18.6836C4.17967 22.7526 7.00825 25.7411 11.1879 25.7411C14.3057 25.7411 16.6844 24.0555 17.682 21.545H22.0209C20.8319 26.2814 16.6844 29.4924 11.1879 29.4924C4.62884 29.4924 0 24.9149 0 18.6836ZM37.1988 21.2266C37.1988 18.4605 35.3343 16.4902 32.5371 16.4902C29.7399 16.4902 27.8426 18.4605 27.8426 21.2266C27.8426 23.9927 29.7399 25.9636 32.5371 25.9636C35.3343 25.9636 37.1988 23.9927 37.1988 21.2266ZM23.9857 21.2266C23.9857 16.4584 27.5226 12.9607 32.5371 12.9607C37.5523 12.9607 41.0885 16.4584 41.0885 21.2266C41.0885 25.9954 37.5523 29.4924 32.5371 29.4924C27.5226 29.4924 23.9857 25.9954 23.9857 21.2266ZM51.4422 12.9613C46.7491 12.9613 43.5992 15.6639 43.5992 20.9086V29.0791H47.4246V20.9086C47.4246 17.9208 49.0321 16.4901 51.4422 16.4901C53.8538 16.4901 55.4605 17.9208 55.4605 20.9086V29.0791H59.2867V20.9086C59.2867 15.6314 56.1368 12.9613 51.4422 12.9613ZM60.5758 13.3742H64.7547L69.1586 25.6144L73.5625 13.3742H77.6458L71.4088 29.0789H66.8121L60.5758 13.3742ZM86.9392 16.3949C89.028 16.3949 90.7647 17.4436 91.3752 19.5423H82.5025C83.113 17.476 84.7847 16.3949 86.9392 16.3949ZM86.9392 12.9614C81.924 12.9614 78.3878 16.4584 78.3878 21.2266C78.3878 25.9954 81.924 29.4924 86.9392 29.4924C90.6997 29.4924 93.5932 27.5532 94.783 24.5647H90.6997C89.8963 25.5823 88.6423 26.0596 86.9392 26.0596C84.6883 26.0596 82.9202 24.8521 82.4061 22.5619H95.4249V21.2266C95.4249 16.4584 91.9537 12.9614 86.9392 12.9614ZM97.9368 19.9558C97.9368 15.2188 100.765 12.9611 104.913 12.9611C109.06 12.9611 111.856 15.2188 111.856 20.0187V20.1147H108.063V19.9558C108.063 17.4122 106.777 16.4906 104.913 16.4906C103.048 16.4906 101.762 17.4122 101.762 19.9558V29.0789H97.9368V19.9558ZM141.694 19.5423C141.083 17.4436 139.347 16.3949 137.257 16.3949C135.103 16.3949 133.432 17.476 132.821 19.5423H141.694ZM128.706 21.2266C128.706 16.4584 132.243 12.9614 137.257 12.9614C142.272 12.9614 145.743 16.4584 145.743 21.2266V22.5619H132.724C133.239 24.8521 135.007 26.0596 137.257 26.0596C138.96 26.0596 140.214 25.5823 141.018 24.5647H145.101C143.911 27.5532 141.018 29.4924 137.257 29.4924C132.243 29.4924 128.706 25.9954 128.706 21.2266Z" fill="#344054"/>
<rect x="174.308" y="0.280518" width="62.7561" height="35.439" rx="6.43902" fill="#0044DD"/>
<path d="M198.351 15.1892C198.351 15.9103 198.177 16.5864 197.829 17.2175C197.495 17.8485 196.96 18.3572 196.226 18.7435C195.505 19.1299 194.591 19.323 193.483 19.323H191.223V24.5H188.519V11.0167H193.483C194.526 11.0167 195.415 11.197 196.149 11.5576C196.883 11.9181 197.43 12.414 197.791 13.045C198.164 13.676 198.351 14.3907 198.351 15.1892ZM193.367 17.1402C194.114 17.1402 194.668 16.9728 195.028 16.638C195.389 16.2902 195.569 15.8073 195.569 15.1892C195.569 13.8756 194.835 13.2188 193.367 13.2188H191.223V17.1402H193.367ZM199.576 19.1105C199.576 18.0288 199.788 17.0694 200.213 16.2323C200.651 15.3952 201.237 14.7513 201.971 14.3006C202.718 13.8499 203.549 13.6245 204.463 13.6245C205.261 13.6245 205.957 13.7855 206.549 14.1074C207.154 14.4294 207.637 14.835 207.998 15.3244V13.7983H210.722V24.5H207.998V22.9353C207.65 23.4376 207.167 23.8561 206.549 24.1909C205.944 24.5129 205.242 24.6739 204.444 24.6739C203.542 24.6739 202.718 24.442 201.971 23.9784C201.237 23.5148 200.651 22.8645 200.213 22.0274C199.788 21.1775 199.576 20.2052 199.576 19.1105ZM207.998 19.1492C207.998 18.4924 207.869 17.9322 207.612 17.4686C207.354 16.9921 207.006 16.6315 206.568 16.3868C206.131 16.1293 205.661 16.0005 205.158 16.0005C204.656 16.0005 204.192 16.1228 203.767 16.3675C203.342 16.6122 202.995 16.9728 202.724 17.4493C202.467 17.9129 202.338 18.4666 202.338 19.1105C202.338 19.7544 202.467 20.3211 202.724 20.8104C202.995 21.2869 203.342 21.654 203.767 21.9115C204.205 22.1691 204.669 22.2979 205.158 22.2979C205.661 22.2979 206.131 22.1755 206.568 21.9308C207.006 21.6733 207.354 21.3127 207.612 20.8491C207.869 20.3726 207.998 19.806 207.998 19.1492ZM223.601 13.7983L216.975 29.5611H214.097L216.415 24.2296L212.127 13.7983H215.159L217.922 21.274L220.723 13.7983H223.601Z" fill="#FEFFFF"/>
</svg>
