<svg width="20" height="20" viewBox="0 0 20 20" fill="none" xmlns="http://www.w3.org/2000/svg">
<path d="M4.16675 4.15803C4.16675 3.34873 4.16675 2.94407 4.33549 2.72101C4.48249 2.52669 4.70718 2.40644 4.95041 2.39192C5.22961 2.37525 5.5663 2.59971 6.23968 3.04863L15.0026 8.89061C15.5591 9.26154 15.8373 9.44701 15.9342 9.68078C16.019 9.88516 16.019 10.1149 15.9342 10.3192C15.8373 10.553 15.5591 10.7385 15.0026 11.1094L6.23968 16.9514C5.5663 17.4003 5.22961 17.6248 4.95041 17.6081C4.70718 17.5936 4.48249 17.4733 4.33549 17.279C4.16675 17.0559 4.16675 16.6513 4.16675 15.842V4.15803Z" fill="#344054"/>
</svg>
