<svg width="57" height="57" viewBox="0 0 57 57" fill="none" xmlns="http://www.w3.org/2000/svg">
<g clip-path="url(#clip0_387_3215)">
<path d="M9.39033 0.0883869C10.0464 -0.0875646 10.7107 0.0535286 11.3684 0.0535286C22.3017 0.0468889 33.235 0.0435691 44.1683 0.0502088C49.8982 0.0535286 54.6515 3.44475 56.3871 8.73657C56.8106 10.0247 56.9983 11.3476 56.9983 12.7021C56.995 24.9756 57.0049 37.249 56.9916 49.5225C56.9883 53.3569 54.5701 56.2501 50.8698 56.9025C50.4048 56.9838 49.9215 56.9921 49.4481 56.9938C40.7918 56.9988 32.1372 57.0037 23.4809 56.9938C19.6028 56.9905 16.6798 54.5935 16.0237 50.8853C15.9307 50.3607 15.9307 49.8146 15.9307 49.2768C15.9241 43.0255 15.9257 36.7759 15.9257 30.5247C15.934 30.2558 15.9473 29.9869 15.9473 29.7196C15.9473 23.4269 15.954 17.1358 15.944 10.843C15.9423 9.58479 16.0071 8.32491 15.8444 7.06503C15.5321 4.64819 14.3679 2.77414 12.3765 1.38644C11.4647 0.752355 10.4068 0.466849 9.38867 0.0850671L9.39033 0.0883869ZM36.4637 23.8983C33.8744 23.8983 31.2868 23.8933 28.6976 23.8999C27.4088 23.9033 26.5319 24.7033 26.5235 25.8586C26.5152 27.0057 27.4104 27.8671 28.666 27.8705C33.8645 27.8788 39.0629 27.8738 44.2613 27.8738C44.6616 27.8738 45.0452 27.8008 45.3957 27.6032C46.1547 27.1733 46.5616 26.2487 46.3589 25.432C46.1331 24.5274 45.384 23.9116 44.4191 23.9066C41.7684 23.8933 39.1177 23.9016 36.467 23.8999L36.4637 23.8983ZM36.4936 31.8493C33.9259 31.8476 31.3582 31.846 28.7889 31.8493C28.48 31.8493 28.1711 31.8393 27.8688 31.9456C26.9504 32.2693 26.3807 33.2088 26.5435 34.1499C26.7179 35.1525 27.5566 35.8198 28.6976 35.8215C33.8744 35.8281 39.0529 35.8232 44.2298 35.8248C44.63 35.8248 45.0137 35.7601 45.3674 35.5675C46.1347 35.1476 46.5549 34.2329 46.3656 33.4113C46.158 32.5116 45.3957 31.8626 44.4473 31.8576C41.7966 31.8427 39.1459 31.8526 36.4952 31.8526L36.4936 31.8493ZM36.4902 39.7987C33.9226 39.797 31.3549 39.7953 28.7856 39.7987C28.4767 39.7987 28.1678 39.7904 27.8655 39.8966C26.9687 40.2153 26.4073 41.1117 26.5352 42.0412C26.6747 43.0471 27.5201 43.7659 28.6378 43.7675C33.8562 43.7758 39.0762 43.7725 44.2945 43.7708C44.6948 43.7708 45.0751 43.6879 45.4222 43.482C46.1829 43.0289 46.5632 42.1192 46.3423 41.2959C46.1048 40.4112 45.3757 39.8103 44.4407 39.8036C41.79 39.7887 39.1393 39.7987 36.4886 39.7987H36.4902ZM32.5225 15.9473C31.2171 15.9473 29.9133 15.9373 28.6079 15.9506C27.4071 15.9622 26.5501 16.7656 26.5235 17.8728C26.497 18.9999 27.3656 19.9045 28.568 19.9145C31.1772 19.9377 33.7864 19.9361 36.3956 19.9145C37.6063 19.9045 38.4716 19.0131 38.45 17.8827C38.4284 16.7805 37.5615 15.9622 36.3723 15.9506C35.0885 15.9373 33.8047 15.9473 32.5208 15.9473H32.5225Z" fill="#0036B1"/>
<path d="M9.39015 0.0881363C10.4082 0.469918 11.4645 0.755424 12.378 1.38951C14.371 2.77555 15.5336 4.6496 15.8458 7.0681C16.0086 8.32798 15.9438 9.5862 15.9455 10.8461C15.9554 17.1388 15.9505 23.4299 15.9488 29.7227C15.9488 29.9916 15.9339 30.2605 15.9272 30.5278C13.1337 30.5228 10.3401 30.5161 7.54662 30.5112C3.1919 30.5045 0.0296582 27.3606 0.0246757 23.01C0.0196931 18.4585 -0.0484013 13.907 0.062875 9.35879C0.174151 4.76745 3.81969 0.566193 9.14434 0.0765168C9.22572 0.0682172 9.30877 0.0848164 9.39181 0.0881363H9.39015Z" fill="#0044DD"/>
</g>
<defs>
<clipPath id="clip0_387_3215">
<rect width="57" height="57" fill="white"/>
</clipPath>
</defs>
</svg>
