<svg width="32" height="32" viewBox="0 0 32 32" fill="none" xmlns="http://www.w3.org/2000/svg">
<path d="M26.7412 9.05278V8.88467C25.2537 8.88467 23.8814 8.39262 22.7764 7.56528C22.8765 7.69845 22.9804 7.82878 23.0899 7.95439C24.1373 8.64762 25.3916 9.05278 26.7412 9.05278ZM12.0229 24.2876C14.1309 24.2876 15.8461 22.5725 15.8461 20.4645L15.881 17.1004V16.9323L15.8461 20.2964C15.8461 22.4044 14.1309 24.1195 12.0229 24.1195C11.3118 24.1195 10.6469 23.924 10.0764 23.5849C10.1303 23.6756 10.1879 23.7634 10.2493 23.8494C10.7791 24.129 11.3826 24.2876 12.0229 24.2876ZM20.1168 2.4275C20.1168 2.5635 20.1206 2.6995 20.1291 2.83362C20.1452 3.09239 20.1773 3.34645 20.2217 3.59673H20.2528C20.1905 3.29356 20.1489 2.98284 20.1301 2.66645C20.1216 2.53234 20.1178 2.39634 20.1178 2.26034V2.25562H15.8819V2.42373H20.1178V2.4275H20.1168ZM12.0229 12.3583C12.4366 12.3583 12.8427 12.3895 13.2384 12.449L13.2432 13.5342H13.2441L13.2384 12.2818C12.8418 12.2223 12.4357 12.1912 12.0229 12.1912C7.54628 12.1912 3.91678 15.8207 3.91678 20.2973C3.91678 20.3257 3.91772 20.3531 3.91772 20.3814C3.96306 15.9425 7.57461 12.3583 12.0229 12.3583Z" fill="#08FFF9"/>
<path d="M3.91772 20.3804C3.91772 20.4087 3.91678 20.4361 3.91678 20.4644C3.91678 23.2184 5.29094 25.6513 7.39044 27.1161C7.25539 26.9688 7.126 26.8168 7.00133 26.66C5.14267 25.1923 3.94417 22.9266 3.91772 20.3804Z" fill="#08FFF9"/>
<path d="M7.00134 26.66C5.91051 25.2792 5.25884 23.5348 5.25884 21.6384C5.25884 17.2023 8.82317 13.5983 13.2451 13.5331L13.2403 12.448C12.8437 12.3885 12.4376 12.3573 12.0248 12.3573C7.57651 12.3573 3.96495 15.9415 3.91962 20.3794C3.94417 22.9266 5.14267 25.1923 7.00134 26.66ZM26.7412 10.0888V9.05176C25.3916 9.05176 24.1364 8.64659 23.09 7.95337C24.024 9.02531 25.2971 9.7922 26.7412 10.0888Z" fill="#08FFF9"/>
<path d="M15.846 20.4643C15.846 22.5723 14.1309 24.2874 12.0229 24.2874C11.3826 24.2874 10.7791 24.1288 10.2483 23.8492C10.9415 24.8239 12.0796 25.4614 13.364 25.4614C15.472 25.4614 17.1872 23.7463 17.1872 21.6383L17.2221 18.2742V3.59655H20.2217C20.1773 3.34627 20.1452 3.09222 20.1291 2.83344C20.1206 2.69933 20.1168 2.56333 20.1168 2.42733V2.42261H15.881V16.9331V17.1012L15.846 20.4643Z" fill="#08FFF9"/>
<path d="M26.7412 10.0886V13.1099V13.278L26.6429 13.2752C24.2733 13.2251 21.9849 12.4006 20.1291 10.9273V20.2962V20.4643C20.1291 21.5957 19.8968 22.6743 19.4774 23.6527C18.2383 26.5446 15.3672 28.5705 12.022 28.5705C10.2993 28.5705 8.70227 28.0321 7.38855 27.116C8.87038 28.731 10.9982 29.7444 13.3631 29.7444C16.7083 29.7444 19.5794 27.7186 20.8186 24.8267C21.2369 23.8482 21.4702 22.7697 21.4702 21.6382V12.1022C23.326 13.5755 25.6144 14.4 27.984 14.4501L28.0823 14.4529V10.2265C27.6233 10.2265 27.1747 10.1783 26.7412 10.0886Z" fill="#F00044"/>
<path d="M13.2592 16.6763L13.2602 16.8444C13.0467 16.7717 12.8267 16.7178 12.6028 16.6838C12.413 16.6555 12.2184 16.6413 12.0239 16.6413C9.94328 16.6413 8.248 18.3111 8.20267 20.3804C8.23195 21.7432 8.97711 22.9313 10.0764 23.5849C9.73739 23.0145 9.54189 22.3486 9.54189 21.6384C9.54189 19.5304 11.257 17.8153 13.365 17.8153C13.5596 17.8153 13.7541 17.8295 13.9439 17.8578C14.1687 17.8918 14.3878 17.9447 14.6013 18.0183L14.5805 13.6229C14.1838 13.5634 13.7777 13.5322 13.365 13.5322C13.3253 13.5322 13.2847 13.5332 13.2451 13.5341L13.2592 16.6763ZM22.7764 7.56524C22.0256 6.56129 21.5514 5.33824 21.4712 4.00751C21.4627 3.8734 21.4589 3.7374 21.4589 3.6014V3.59668H20.2528C20.5834 5.21168 21.5033 6.61229 22.7764 7.56524Z" fill="#F00044"/>
<path d="M23.09 7.95435C22.9804 7.82873 22.8765 7.6984 22.7764 7.56524C21.5033 6.61229 20.5834 5.21168 20.2528 3.59668H20.2217C20.5456 5.41379 21.6081 6.97307 23.09 7.95435Z" fill="#08FFF9"/>
<path d="M13.2592 16.6761L13.2602 16.677L13.2451 13.5339H13.2441L13.2592 16.6761Z" fill="black"/>
<path d="M8.20268 20.3804C8.20173 20.4087 8.20079 20.4361 8.20079 20.4644C8.20079 21.9321 9.03284 23.209 10.2493 23.8493C10.1888 23.7634 10.1303 23.6755 10.0765 23.5849C8.97618 22.9323 8.23195 21.7432 8.20268 20.3804ZM20.1291 10.7603V10.9284C21.985 12.4017 24.2733 13.2262 26.643 13.2763L26.7412 13.2791V13.111L26.643 13.1081C24.2743 13.0581 21.9859 12.2345 20.1291 10.7603ZM19.4784 23.6529C19.8968 22.6744 20.1301 21.5959 20.1301 20.4644V20.2963C20.1301 21.4278 19.8977 22.5063 19.4784 23.4848C18.2393 26.3766 15.3682 28.4025 12.023 28.4025C10.1265 28.4025 8.38212 27.7508 7.00134 26.66C7.12506 26.8168 7.2554 26.9688 7.39045 27.1161C8.70418 28.0323 10.3003 28.5706 12.0239 28.5706C15.3682 28.5706 18.2393 26.5448 19.4784 23.6529Z" fill="black"/>
<path d="M12.0229 16.4741C9.91494 16.4741 8.19983 18.1892 8.19983 20.2972C8.19983 20.3256 8.20172 20.353 8.20172 20.3813C8.24705 18.312 9.94233 16.6422 12.0229 16.6422C12.2175 16.6422 12.4121 16.6564 12.6019 16.6847C12.8267 16.7187 13.0458 16.7716 13.2592 16.8453L13.2583 16.6772C13.0448 16.6045 12.8257 16.5516 12.6019 16.5176C12.413 16.4883 12.2175 16.4741 12.0229 16.4741Z" fill="black"/>
<path d="M23.09 7.95435C21.6081 6.97307 20.5456 5.41379 20.2217 3.59668H17.2221V18.2743L17.1872 21.6384C17.1872 23.7464 15.4721 25.4615 13.3641 25.4615C12.0796 25.4615 10.9416 24.824 10.2483 23.8493C9.0319 23.209 8.19985 21.9321 8.19985 20.4645C8.19985 20.4361 8.20174 20.4087 8.20174 20.3804C8.20079 20.3521 8.19985 20.3247 8.19985 20.2963C8.19985 18.1883 9.91496 16.4732 12.023 16.4732C12.2175 16.4732 12.4121 16.4874 12.6019 16.5157C12.8257 16.5497 13.0458 16.6026 13.2583 16.6753L13.2432 13.5322C8.82224 13.5965 5.25696 17.2005 5.25696 21.6375C5.25696 23.5339 5.90862 25.2783 6.99946 26.6591C8.38024 27.7508 10.1246 28.4016 12.0211 28.4016C15.3663 28.4016 18.2374 26.3757 19.4765 23.4838C19.8949 22.5054 20.1282 21.4268 20.1282 20.2954V10.9265V10.7584C21.984 12.2317 24.2724 13.0562 26.642 13.1063L26.7402 13.1091V10.0878C25.2971 9.79224 24.024 9.02535 23.09 7.95435Z" fill="black"/>
</svg>
