<svg width="46" height="46" viewBox="0 0 46 46" fill="none" xmlns="http://www.w3.org/2000/svg">
<rect x="3" y="3" width="40" height="40" rx="20" fill="#CCDAF8"/>
<rect x="3" y="3" width="40" height="40" rx="20" stroke="#E6ECFC" stroke-width="6"/>
<path d="M23.8331 14.6666L16.4109 23.5732C16.1203 23.922 15.9749 24.0964 15.9727 24.2437C15.9708 24.3717 16.0278 24.4935 16.1274 24.574C16.242 24.6666 16.469 24.6666 16.9231 24.6666H22.9997L22.1664 31.3333L29.5885 22.4267C29.8792 22.0779 30.0245 21.9035 30.0267 21.7562C30.0287 21.6282 29.9716 21.5064 29.872 21.4259C29.7574 21.3333 29.5304 21.3333 29.0764 21.3333H22.9997L23.8331 14.6666Z" stroke="#0036B1" stroke-width="1.66667" stroke-linecap="round" stroke-linejoin="round"/>
</svg>
