<svg width="196" height="41" viewBox="0 0 196 41" fill="none" xmlns="http://www.w3.org/2000/svg">
<path d="M53.9663 16.5946C53.2291 16.5946 52.6976 16.8367 52.1588 17.0834V22.6641C52.6749 22.7134 52.9708 22.7134 53.4605 22.7134C55.23 22.7134 55.4726 21.9019 55.4726 20.7688V18.1034C55.4726 17.2667 55.1953 16.5946 53.9663 16.5946ZM42.2143 16.2901C40.9865 16.2901 40.7063 16.965 40.7063 17.8009V18.2706H43.7206V17.8009C43.7206 16.965 43.4404 16.2901 42.2143 16.2901ZM19.4483 22.0989C19.4483 22.7602 19.7599 23.1036 20.4475 23.1036C21.1852 23.1036 21.622 22.8628 22.1605 22.6153V21.2915H20.5475C19.7839 21.2915 19.4483 21.4339 19.4483 22.0989ZM65.3981 16.5946C64.1682 16.5946 63.7422 17.2667 63.7422 18.1034V21.157C63.7422 21.9958 64.1682 22.6699 65.3981 22.6699C66.6246 22.6699 67.054 21.9958 67.054 21.157V18.1034C67.0536 17.2667 66.6242 16.5946 65.3981 16.5946ZM13.4214 25.5228H9.80632V16.7606H8V13.7413H9.80673V11.928C9.80673 9.46451 10.8262 8 13.7239 8H16.1365V11.0201H14.6285C13.5004 11.0201 13.426 11.4422 13.426 12.2297L13.4214 13.7409H16.153L15.8336 16.7602H13.4214V25.5228ZM25.7764 25.5456H22.7634L22.6332 24.7825C21.2575 25.5456 20.0297 25.6693 19.2198 25.6693C17.0101 25.6693 15.834 24.1911 15.834 22.1469C15.834 19.7351 17.2064 18.8744 19.6615 18.8744H22.1605V18.353C22.1605 17.1218 22.0195 16.7606 20.1289 16.7606H17.0378L17.3399 13.7413H20.7186C24.8668 13.7413 25.7764 15.0536 25.7764 18.3774V25.5456ZM36.0221 16.982C34.1472 16.66 33.6087 16.5893 32.7066 16.5893C31.0863 16.5893 30.5966 16.9472 30.5966 18.3252V20.9319C30.5966 22.3099 31.0863 22.6695 32.7066 22.6695C33.6087 22.6695 34.1472 22.5975 36.0221 22.2743V25.2195C34.3799 25.5882 33.31 25.685 32.4058 25.685C28.5245 25.685 26.9819 23.6412 26.9819 20.6886V18.5735C26.9819 15.6184 28.5245 13.5709 32.4058 13.5709C33.31 13.5709 34.3799 13.6681 36.0221 14.0385V16.982ZM47.3353 20.6886H40.7059V20.9319C40.7059 22.3099 41.196 22.6695 42.816 22.6695C44.2723 22.6695 45.1612 22.5975 47.0328 22.2743V25.2195C45.2277 25.5882 44.2872 25.685 42.5164 25.685C38.6347 25.685 37.0912 23.6412 37.0912 20.6886V18.2702C37.0912 15.6867 38.2363 13.5709 42.2139 13.5709C46.1914 13.5709 47.3353 15.6623 47.3353 18.2702V20.6886ZM59.0869 20.7444C59.0869 23.5981 58.2724 25.6797 53.3382 25.6797C51.5562 25.6797 50.5111 25.5228 48.5445 25.2199V8.9071L52.1583 8.30333V14.0095C52.9394 13.719 53.9502 13.5713 54.8701 13.5713C58.4844 13.5713 59.0865 15.1939 59.0865 17.8013V20.7444H59.0869ZM70.6716 20.8065C70.6716 23.2683 69.6566 25.6561 65.4101 25.6561C61.1614 25.6561 60.1275 23.2683 60.1275 20.8065V18.4295C60.1275 15.9665 61.1614 13.5783 65.4101 13.5783C69.6566 13.5783 70.6716 15.9665 70.6716 18.4295V20.8065ZM82.2484 20.8065C82.2484 23.2683 81.2322 25.6561 76.9865 25.6561C72.7378 25.6561 71.7039 23.2683 71.7039 20.8065V18.4295C71.7039 15.9665 72.7378 13.5783 76.9865 13.5783C81.2322 13.5783 82.2484 15.9665 82.2484 18.4295V20.8065ZM94.1289 25.5228H90.2117L86.8987 19.9847V25.5228H83.2836V8.90668L86.8987 8.30292V18.9998L90.2117 13.7413H94.1289L90.5122 19.4798L94.1289 25.5228ZM76.9741 16.5946C75.7463 16.5946 75.3202 17.2667 75.3202 18.1034V21.157C75.3202 21.9958 75.7463 22.6699 76.9741 22.6699C78.2002 22.6699 78.6341 21.9958 78.6341 21.157V18.1034C78.6341 17.2667 78.2002 16.5946 76.9741 16.5946ZM96.1923 23.4562C96.801 23.4562 97.2858 23.9532 97.2858 24.5739C97.2858 25.2042 96.8006 25.6958 96.1878 25.6958C95.5778 25.6958 95.0831 25.2042 95.0831 24.5739C95.0831 23.9532 95.5778 23.4562 96.1878 23.4562H96.1923ZM96.1878 23.63C95.6972 23.63 95.296 24.0525 95.296 24.5739C95.296 25.1049 95.6976 25.522 96.1923 25.522C96.6874 25.527 97.0829 25.1049 97.0829 24.5789C97.0829 24.0529 96.6874 23.63 96.1923 23.63H96.1878ZM95.9799 25.2245H95.7815V23.9772C95.8857 23.9627 95.9849 23.9482 96.1336 23.9482C96.3221 23.9482 96.4452 23.988 96.5208 24.0422C96.594 24.0972 96.6332 24.1812 96.6332 24.3C96.6332 24.4647 96.525 24.5636 96.3915 24.6037V24.6132C96.5002 24.6335 96.5741 24.732 96.5993 24.9153C96.6283 25.1094 96.6584 25.1835 96.6779 25.224H96.47C96.4407 25.1835 96.4105 25.0697 96.3857 24.9054C96.3568 24.7469 96.2766 24.6873 96.1179 24.6873H95.9803V25.2245H95.9799ZM95.9799 24.5342H96.1237C96.2865 24.5342 96.425 24.4742 96.425 24.3198C96.425 24.2106 96.3464 24.1018 96.1237 24.1018C96.0588 24.1018 96.0138 24.1067 95.9799 24.1113V24.5342Z" fill="#3B5998"/>
<g clip-path="url(#clip0_662_27748)">
<path d="M144.777 20.8206C144.777 24.2907 142.059 26.8478 138.723 26.8478C135.388 26.8478 132.67 24.2907 132.67 20.8206C132.67 17.3261 135.388 14.7935 138.723 14.7935C142.059 14.7935 144.777 17.3261 144.777 20.8206ZM142.127 20.8206C142.127 18.6522 140.551 17.1685 138.723 17.1685C136.895 17.1685 135.32 18.6522 135.32 20.8206C135.32 22.9674 136.895 24.4728 138.723 24.4728C140.551 24.4728 142.127 22.9647 142.127 20.8206Z" fill="#EA4335"/>
<path d="M157.835 20.8206C157.835 24.2907 155.118 26.8478 151.782 26.8478C148.447 26.8478 145.729 24.2907 145.729 20.8206C145.729 17.3288 148.447 14.7935 151.782 14.7935C155.118 14.7935 157.835 17.3261 157.835 20.8206ZM155.186 20.8206C155.186 18.6522 153.61 17.1685 151.782 17.1685C149.954 17.1685 148.379 18.6522 148.379 20.8206C148.379 22.9674 149.954 24.4728 151.782 24.4728C153.61 24.4728 155.186 22.9647 155.186 20.8206Z" fill="#FBBC05"/>
<path d="M170.35 15.1576V25.9782C170.35 30.4293 167.722 32.2473 164.615 32.2473C161.69 32.2473 159.93 30.2935 159.266 28.6956L161.573 27.7364C161.984 28.7174 162.991 29.875 164.612 29.875C166.601 29.875 167.833 28.6494 167.833 26.3424V25.4755H167.741C167.148 26.2065 166.005 26.8451 164.563 26.8451C161.546 26.8451 158.782 24.2201 158.782 20.8424C158.782 17.4402 161.546 14.7935 164.563 14.7935C166.002 14.7935 167.145 15.432 167.741 16.1413H167.833V15.1603H170.35V15.1576ZM168.021 20.8424C168.021 18.7201 166.604 17.1685 164.8 17.1685C162.972 17.1685 161.44 18.7201 161.44 20.8424C161.44 22.9429 162.972 24.4728 164.8 24.4728C166.604 24.4728 168.021 22.9429 168.021 20.8424Z" fill="#4285F4"/>
<path d="M174.499 8.81519V26.4782H171.914V8.81519H174.499Z" fill="#34A853"/>
<path d="M184.57 22.8044L186.627 24.1739C185.963 25.1549 184.364 26.8451 181.6 26.8451C178.172 26.8451 175.612 24.1984 175.612 20.8179C175.612 17.2337 178.193 14.7908 181.303 14.7908C184.434 14.7908 185.966 17.2799 186.467 18.625L186.741 19.3098L178.675 22.6467C179.293 23.856 180.253 24.4728 181.6 24.4728C182.949 24.4728 183.885 23.8098 184.57 22.8044ZM178.24 20.6359L183.632 18.3995C183.335 17.6467 182.443 17.1223 181.393 17.1223C180.046 17.1223 178.172 18.3098 178.24 20.6359Z" fill="#EA4335"/>
<path d="M122.887 19.2527V16.6956H131.514C131.598 17.1413 131.641 17.6684 131.641 18.2391C131.641 20.1576 131.116 22.5299 129.424 24.2201C127.778 25.932 125.675 26.8451 122.889 26.8451C117.726 26.8451 113.384 22.644 113.384 17.4864C113.384 12.3288 117.726 8.12769 122.889 8.12769C125.746 8.12769 127.781 9.24725 129.31 10.7065L127.503 12.5108C126.407 11.4837 124.922 10.6848 122.887 10.6848C119.116 10.6848 116.167 13.7201 116.167 17.4864C116.167 21.2527 119.116 24.288 122.887 24.288C125.332 24.288 126.725 23.307 127.618 22.4157C128.341 21.6929 128.817 20.6603 129.005 19.25L122.887 19.2527Z" fill="#4285F4"/>
</g>
<defs>
<clipPath id="clip0_662_27748">
<rect width="74" height="25" fill="white" transform="translate(113.286 8)"/>
</clipPath>
</defs>
</svg>
