<svg width="119" height="43" viewBox="0 0 119 43" fill="none" xmlns="http://www.w3.org/2000/svg">
<path d="M31.2256 21.3318C31.2256 18.1141 33.3465 15.75 36.3519 15.75C38.8704 15.75 40.7708 17.4085 41.3156 19.8542H39.3275C38.8704 18.5575 37.7805 17.7038 36.3519 17.7038C34.4368 17.7038 33.1407 19.2307 33.1407 21.3318C33.1407 23.433 34.4368 24.9763 36.3519 24.9763C37.7805 24.9763 38.8704 24.1058 39.3275 22.8094H41.3156C40.7708 25.2552 38.8704 26.9133 36.3519 26.9133C33.3465 26.9133 31.2256 24.5496 31.2256 21.3318Z" fill="#0044DD"/>
<path d="M48.2706 22.645C48.2706 21.2166 47.4163 20.1992 46.1346 20.1992C44.8529 20.1992 43.9835 21.2166 43.9835 22.645C43.9835 24.0734 44.8529 25.0911 46.1346 25.0911C47.4163 25.0911 48.2706 24.0734 48.2706 22.645ZM42.2163 22.645C42.2163 20.1828 43.837 18.3766 46.1346 18.3766C48.4326 18.3766 50.0529 20.1828 50.0529 22.645C50.0529 25.1075 48.4326 26.9133 46.1346 26.9133C43.837 26.9133 42.2163 25.1075 42.2163 22.645Z" fill="#0044DD"/>
<path d="M51.2031 22.4806C51.2031 19.7723 52.6464 18.3767 54.7968 18.3767C56.9479 18.3767 58.3912 19.7555 58.3912 22.4806V26.6997H56.638V22.4806C56.638 20.9377 55.9018 20.1989 54.7968 20.1989C53.6925 20.1989 52.956 20.9377 52.956 22.4806V26.6997H51.2031V22.4806Z" fill="#0044DD"/>
<path d="M58.9822 18.59H60.897L62.9149 24.9107L64.9327 18.59H66.8037L63.9459 26.6997H61.8397L58.9822 18.59Z" fill="#0044DD"/>
<path d="M73.094 21.7745C72.8142 20.6908 72.0184 20.1492 71.0614 20.1492C70.0742 20.1492 69.3082 20.7075 69.0284 21.7745H73.094ZM67.1431 22.6443C67.1431 20.1821 68.7634 18.3763 71.0614 18.3763C73.359 18.3763 74.9496 20.1821 74.9496 22.6443V23.3338H68.9843C69.2198 24.5164 70.03 25.14 71.0614 25.14C71.8417 25.14 72.4163 24.8935 72.7844 24.368H74.6554C74.1103 25.9112 72.7844 26.9126 71.0614 26.9126C68.7634 26.9126 67.1431 25.1068 67.1431 22.6443Z" fill="#0044DD"/>
<path d="M76.1013 21.9887C76.1013 19.5425 77.3971 18.3767 79.2978 18.3767C81.1979 18.3767 82.4792 19.5425 82.4792 22.0211V22.0707H80.7411V21.9887C80.7411 20.6752 80.1518 20.1993 79.2978 20.1993C78.4431 20.1993 77.8538 20.6752 77.8538 21.9887V26.6997H76.1013V21.9887Z" fill="#0044DD"/>
<path d="M83.4226 23.5807V15.7175H85.1754V18.59H88.9318V20.3637H85.1754V23.5807C85.1754 24.6645 85.6764 25.0915 86.3982 25.0915C87.1197 25.0915 87.621 24.6805 87.621 23.5807V23.3674H89.3735V23.5807C89.3735 25.8299 88.1658 26.9133 86.3982 26.9133C84.6303 26.9133 83.4226 25.8299 83.4226 23.5807Z" fill="#0044DD"/>
<path d="M96.1511 21.7745C95.8713 20.6908 95.0759 20.1492 94.1182 20.1492C93.1313 20.1492 92.3653 20.7075 92.0856 21.7745H96.1511ZM90.2002 22.6443C90.2002 20.1821 91.8205 18.3763 94.1182 18.3763C96.4161 18.3763 98.0067 20.1821 98.0067 22.6443V23.3338H92.0411C92.277 24.5164 93.0871 25.14 94.1182 25.14C94.8985 25.14 95.4731 24.8935 95.8416 24.368H97.7125C97.1671 25.9112 95.8416 26.9126 94.1182 26.9126C91.8205 26.9126 90.2002 25.1068 90.2002 22.6443Z" fill="#0044DD"/>
<path d="M104.917 22.645C104.917 21.2166 104.062 20.1992 102.781 20.1992C101.499 20.1992 100.63 21.2166 100.63 22.645C100.63 24.0734 101.499 25.0911 102.781 25.0911C104.062 25.0911 104.917 24.0734 104.917 22.645ZM98.8623 22.5633C98.8623 19.789 100.719 18.3766 102.486 18.3766C103.532 18.3766 104.401 18.8693 104.917 19.7726V15.0444H106.669V22.5793C106.669 25.2056 105.079 26.9133 102.795 26.9133C100.483 26.9133 98.8623 25.1407 98.8623 22.5633Z" fill="#0044DD"/>
<path d="M108.364 18.59H110.117V26.6997H108.364V18.59ZM108.084 16.2427C108.084 15.4871 108.57 14.9292 109.248 14.9292C109.925 14.9292 110.412 15.4871 110.412 16.2427C110.412 16.9979 109.925 17.5394 109.248 17.5394C108.57 17.5394 108.084 16.9979 108.084 16.2427Z" fill="#0044DD"/>
<path d="M111.812 22.4806C111.812 19.7723 113.255 18.3767 115.406 18.3767C117.557 18.3767 119 19.7555 119 22.4806V26.6997H117.247V22.4806C117.247 20.9377 116.511 20.1989 115.406 20.1989C114.301 20.1989 113.565 20.9377 113.565 22.4806V26.6997H111.812V22.4806Z" fill="#0044DD"/>
<path d="M19.3225 1.2525C19.3268 1.8458 18.8975 2.33043 18.3651 2.33444C17.8328 2.33882 17.3979 1.86075 17.3943 1.26781C17.3901 0.674146 17.8194 0.189512 18.3517 0.185501C18.8841 0.180761 19.3189 0.659195 19.3225 1.2525Z" fill="#0044DD"/>
<path d="M1.92858 21.3676C1.93218 21.9609 1.50354 22.4459 0.971174 22.4499C0.43881 22.4543 0.00395321 21.9762 2.67415e-05 21.3829C-0.00389973 20.7896 0.425067 20.3046 0.957432 20.3006C1.49012 20.2966 1.92498 20.7743 1.92858 21.3676Z" fill="#0044DD"/>
<path d="M5.87942 16.6555C6.84533 16.6631 7.63357 15.7971 7.63979 14.7206C7.64731 13.6452 6.86955 12.7664 5.90396 12.7587C4.9387 12.7511 4.15079 13.6171 4.14359 14.6936C4.13737 15.7697 4.91416 16.6478 5.87942 16.6555Z" fill="#0044DD"/>
<path d="M14.1401 7.25707C14.1473 8.33282 13.3699 9.21129 12.4046 9.21894C11.439 9.2266 10.6511 8.36053 10.6436 7.28442C10.6371 6.20831 11.4138 5.32984 12.3798 5.32255C13.3453 5.31489 14.1332 6.1806 14.1401 7.25707Z" fill="#0044DD"/>
<path d="M22.897 7.34331C22.933 8.4187 23.7441 9.25778 24.7091 9.2184C25.6737 9.17828 26.4272 8.27393 26.3912 7.19818C26.3552 6.1228 25.5438 5.28371 24.5792 5.32383C23.6139 5.36394 22.861 6.26757 22.897 7.34331Z" fill="#0044DD"/>
<path d="M19.3225 41.4684C19.3268 40.8751 18.8975 40.3908 18.3651 40.3864C17.8328 40.3821 17.3979 40.8601 17.3943 41.4538C17.3901 42.0467 17.8194 42.5314 18.3517 42.5361C18.8841 42.5401 19.3189 42.0617 19.3225 41.4684Z" fill="#0044DD"/>
<path d="M5.87942 26.0666C6.84533 26.0585 7.63357 26.925 7.63979 28.0007C7.64731 29.0768 6.86955 29.9553 5.90396 29.9633C4.9387 29.971 4.15079 29.1049 4.14359 28.0284C4.13737 26.9523 4.91416 26.0742 5.87942 26.0666Z" fill="#0044DD"/>
<path d="M14.1401 35.464C14.1473 34.3875 13.3699 33.5098 12.4046 33.5014C11.439 33.4937 10.6511 34.3605 10.6436 35.4359C10.6371 36.5124 11.4138 37.3905 12.3798 37.3981C13.3453 37.4062 14.1332 36.5405 14.1401 35.464Z" fill="#0044DD"/>
<path d="M22.897 35.3773C22.933 34.3016 23.7441 33.4625 24.7091 33.5019C25.6737 33.5427 26.4272 34.4463 26.3912 35.5221C26.3552 36.5978 25.5438 37.4369 24.5792 37.3968C23.6139 37.3563 22.861 36.4527 22.897 35.3773Z" fill="#0044DD"/>
<path d="M18.8685 28.2508C15.4508 28.2508 12.6807 25.1673 12.6729 21.3606C12.6807 17.5543 15.4508 14.4711 18.8685 14.4711C20.228 14.4711 21.4858 14.9601 22.5074 15.7882C23.1569 16.3151 24.0593 16.213 24.6277 15.5793L26.6661 13.3078C27.0994 12.8246 27.0774 12.0344 26.6174 11.5822L26.6148 11.58C26.0202 10.9947 25.1705 10.8354 24.4497 11.2052C24.1974 11.3353 23.9157 11.4068 23.6192 11.4043C22.5365 11.3955 21.7136 10.3114 21.6723 8.75901C21.616 6.61518 20.3406 5.13721 18.54 5.15107C16.989 5.16347 15.3399 6.10939 15.2611 9.75271C15.2381 10.8226 14.5304 11.7733 13.5799 11.9257C12.8823 12.0373 12.2652 11.7233 11.8512 11.2037C11.8107 11.1505 11.7698 11.0968 11.724 11.0487C11.7223 11.0465 11.7204 11.0451 11.7187 11.0429L11.7181 11.0436C11.3254 10.6315 10.7672 10.4124 10.1596 10.5513C9.51041 10.6994 8.97543 11.2759 8.8236 11.9943C8.65836 12.7819 8.92831 13.5025 9.41028 13.9492C9.91909 14.5611 10.1491 15.4633 9.77577 16.4344C9.46133 17.2541 8.69828 17.7482 7.89925 17.7421C7.78538 17.7413 8.06907 17.7439 7.77065 17.7413C5.96906 17.7256 4.55389 19.3542 4.62882 21.3606C4.55389 23.3673 5.96971 24.9959 7.77131 24.9802C8.06906 24.9776 7.78571 24.9802 7.89925 24.9795C8.69828 24.9733 9.46133 25.4674 9.77577 26.2868C10.1491 27.2582 9.91909 28.16 9.41028 28.7716C8.92831 29.219 8.65836 29.9392 8.8236 30.7272C8.97543 31.446 9.51041 32.0221 10.1596 32.1702C10.7672 32.3091 11.3254 32.09 11.7181 31.6779L11.7187 31.6786C11.7204 31.6768 11.7223 31.675 11.724 31.6728C11.7698 31.6243 11.8107 31.5714 11.8512 31.5174C12.2652 30.9985 12.8823 30.6842 13.5799 30.7962C14.5304 30.9479 15.2381 31.8989 15.2611 32.9688C15.3399 36.6125 16.989 37.558 18.54 37.5697C20.3406 37.5847 21.616 36.1067 21.6723 33.9625C21.7136 32.4101 22.5365 31.326 23.6192 31.3173C23.9157 31.3147 24.1974 31.3869 24.4497 31.516C25.1705 31.8865 26.0202 31.726 26.6148 31.1422L26.6174 31.1393C27.0774 30.6864 27.0994 29.8969 26.6661 29.4137L24.6277 27.1419C24.0593 26.5085 23.1569 26.4064 22.5074 26.9329C21.4858 27.7615 20.228 28.2508 18.8685 28.2508Z" fill="#0044DD"/>
</svg>
