<svg width="24" height="32" viewBox="0 0 24 32" fill="none" xmlns="http://www.w3.org/2000/svg">
<path fill-rule="evenodd" clip-rule="evenodd" d="M14.902 15.0331L20.5714 14.2876V14.2838L14.902 13.5383C12.8872 13.2745 11.2969 11.688 11.0331 9.66947L10.2876 4L9.53832 9.67329C9.27454 11.6918 7.688 13.2784 5.66947 13.5421L0 14.2876L5.67329 15.0331C7.69183 15.2969 9.27836 16.8834 9.54214 18.902L10.2876 24.5714L11.0331 18.902C11.2969 16.8834 12.8872 15.2969 14.902 15.0331ZM20.6928 22.436L24 22.0011V21.9989L20.6928 21.564C19.5176 21.4101 18.5899 20.4847 18.436 19.3072L18.0011 16L17.564 19.3094C17.4101 20.4869 16.4847 21.4124 15.3072 21.5663L12 22.0011L15.3094 22.436C16.4869 22.5899 17.4124 23.5153 17.5663 24.6928L18.0011 28L18.436 24.6928C18.5899 23.5153 19.5176 22.5899 20.6928 22.436Z" fill="#344054"/>
</svg>
