<svg width="340" height="340" viewBox="0 0 340 340" fill="none" xmlns="http://www.w3.org/2000/svg">
<rect width="340" height="340" fill="#F2F4F7"/>
<path d="M138.444 205.639L165.38 178.703C166.997 177.086 167.806 176.277 168.738 175.975C169.558 175.708 170.442 175.708 171.262 175.975C172.194 176.277 173.003 177.086 174.62 178.703L201.376 205.459M178.167 182.25L189.88 170.536C191.497 168.919 192.306 168.111 193.238 167.808C194.058 167.541 194.942 167.541 195.762 167.808C196.694 168.111 197.503 168.919 199.12 170.536L210.833 182.25M161.833 157.75C161.833 162.26 158.177 165.917 153.667 165.917C149.156 165.917 145.5 162.26 145.5 157.75C145.5 153.24 149.156 149.583 153.667 149.583C158.177 149.583 161.833 153.24 161.833 157.75ZM148.767 206.75H191.233C198.094 206.75 201.524 206.75 204.145 205.415C206.45 204.24 208.324 202.366 209.498 200.061C210.833 197.441 210.833 194.011 210.833 187.15V152.85C210.833 145.989 210.833 142.559 209.498 139.939C208.324 137.634 206.45 135.76 204.145 134.585C201.524 133.25 198.094 133.25 191.233 133.25H148.767C141.906 133.25 138.476 133.25 135.855 134.585C133.55 135.76 131.676 137.634 130.502 139.939C129.167 142.559 129.167 145.989 129.167 152.85V187.15C129.167 194.011 129.167 197.441 130.502 200.061C131.676 202.366 133.55 204.24 135.855 205.415C138.476 206.75 141.906 206.75 148.767 206.75Z" stroke="#667085" stroke-width="5" stroke-linecap="round" stroke-linejoin="round"/>
</svg>
