<svg width="20" height="21" viewBox="0 0 20 21" fill="none" xmlns="http://www.w3.org/2000/svg">
<g id="Group">
<path id="Path" d="M12.5 13L10 10.5" stroke="#667085" stroke-width="1.5" stroke-linecap="round" stroke-linejoin="round"/>
<path id="Path_2" d="M10 10.5L7.5 13" stroke="#667085" stroke-width="1.5" stroke-linecap="round" stroke-linejoin="round"/>
<path id="Path_3" d="M10 17.1667V10.5" stroke="#667085" stroke-width="1.5" stroke-linecap="round" stroke-linejoin="round"/>
<path id="Path_4" d="M6.66663 16.333H4.99996C3.15901 16.333 1.66663 14.8406 1.66663 12.9997C1.66663 11.1587 3.15901 9.66634 4.99996 9.66634L4.99163 9.60771C4.78421 8.15583 5.21705 6.6854 6.17798 5.57743C7.1389 4.46947 8.53334 3.83302 9.99996 3.83301C11.4666 3.83302 12.861 4.46947 13.8219 5.57743C14.7829 6.6854 15.2157 8.15583 15.0083 9.60771L15 9.66634C16.8409 9.66634 18.3333 11.1587 18.3333 12.9997C18.3333 14.8406 16.8409 16.333 15 16.333H13.3333" stroke="#667085" stroke-width="1.5" stroke-linecap="round" stroke-linejoin="round"/>
</g>
</svg>
