<svg width="56" height="57" viewBox="0 0 56 57" fill="none" xmlns="http://www.w3.org/2000/svg">
<g id="Group">
<path id="Path" d="M7 36.2056L11.6667 36.2058" stroke="#667085" stroke-width="4" stroke-linecap="round" stroke-linejoin="round"/>
<path id="Path_2" d="M7.00049 28.0379L11.6667 28.0386" stroke="#667085" stroke-width="4" stroke-linecap="round" stroke-linejoin="round"/>
<path id="Path_3" d="M7 19.8722L11.6658 19.8723" stroke="#667085" stroke-width="4" stroke-linecap="round" stroke-linejoin="round"/>
<path id="Path_4" d="M49.0002 19.8723L44.3335 19.8722" stroke="#667085" stroke-width="4" stroke-linecap="round" stroke-linejoin="round"/>
<path id="Path_5" d="M48.9997 28.0401L44.3335 28.0393" stroke="#667085" stroke-width="4" stroke-linecap="round" stroke-linejoin="round"/>
<path id="Path_6" d="M48.9993 36.2058L44.3335 36.2057" stroke="#667085" stroke-width="4" stroke-linecap="round" stroke-linejoin="round"/>
<path id="Path_7" d="M19.8332 7.03906L19.8331 11.7057" stroke="#667085" stroke-width="4" stroke-linecap="round" stroke-linejoin="round"/>
<path id="Path_8" d="M28.0006 7.03955L27.9998 11.7058" stroke="#667085" stroke-width="4" stroke-linecap="round" stroke-linejoin="round"/>
<path id="Path_9" d="M36.1667 7.04004L36.1666 11.7059" stroke="#667085" stroke-width="4" stroke-linecap="round" stroke-linejoin="round"/>
<path id="Path_10" d="M36.1666 49.0392L36.1668 44.3726" stroke="#667085" stroke-width="4" stroke-linecap="round" stroke-linejoin="round"/>
<path id="Path_11" d="M27.9998 49.0388L28.0006 44.3726" stroke="#667085" stroke-width="4" stroke-linecap="round" stroke-linejoin="round"/>
<path id="Path_12" d="M19.8331 49.0384L19.8332 44.3726" stroke="#667085" stroke-width="4" stroke-linecap="round" stroke-linejoin="round"/>
<path id="Path_13" fill-rule="evenodd" clip-rule="evenodd" d="M34.9998 44.3722H20.9998C15.8452 44.3722 11.6665 40.1936 11.6665 35.0389V21.0389C11.6665 15.8842 15.8452 11.7056 20.9998 11.7056H34.9998C40.1545 11.7056 44.3332 15.8842 44.3332 21.0389V35.0389C44.3332 40.1936 40.1545 44.3722 34.9998 44.3722Z" stroke="#667085" stroke-width="4" stroke-linecap="round" stroke-linejoin="round"/>
<path id="Path_14" d="M20.3755 31.259H28.6455" stroke="#667085" stroke-width="4" stroke-linecap="round" stroke-linejoin="round"/>
<path id="Path_15" d="M29.3519 33.4057L25.8752 22.6724H23.1686L19.6919 33.4057" stroke="#667085" stroke-width="4" stroke-linecap="round" stroke-linejoin="round"/>
<path id="Path_16" d="M35.255 33.4057V22.6724" stroke="#667085" stroke-width="4" stroke-linecap="round" stroke-linejoin="round"/>
</g>
</svg>
