<svg width="21" height="21" viewBox="0 0 21 21" fill="none" xmlns="http://www.w3.org/2000/svg">
<g id="Group">
<g id="Group_2">
<path id="Path" d="M12.2238 9.32139C12.9857 10.0832 12.9857 11.3184 12.2238 12.0803C11.462 12.8421 10.2268 12.8421 9.46494 12.0803C8.70309 11.3184 8.70309 10.0832 9.46494 9.32139C10.2268 8.55954 11.462 8.55954 12.2238 9.32139" stroke="#192038" stroke-width="1.5" stroke-linecap="round" stroke-linejoin="round"/>
<path id="Path_2" d="M18.7186 9.4591C19.4043 10.1448 19.4043 11.2565 18.7186 11.9422C18.0329 12.6279 16.9212 12.6279 16.2355 11.9422C15.5498 11.2565 15.5498 10.1448 16.2355 9.4591C16.9212 8.7734 18.0329 8.7734 18.7186 9.4591" stroke="#192038" stroke-width="1.5" stroke-linecap="round" stroke-linejoin="round"/>
<path id="Path_3" d="M5.45345 9.4591C6.13915 10.1448 6.13915 11.2565 5.45345 11.9422C4.76776 12.6279 3.65603 12.6279 2.97033 11.9422C2.28463 11.2565 2.28463 10.1448 2.97033 9.4591C3.65602 8.7734 4.76775 8.7734 5.45345 9.4591" stroke="#192038" stroke-width="1.5" stroke-linecap="round" stroke-linejoin="round"/>
<path id="Path_4" d="M15.4017 3.71496C16.0874 4.40065 16.0874 5.51238 15.4017 6.19808C14.716 6.88378 13.6043 6.88378 12.9186 6.19808C12.2329 5.51238 12.2329 4.40066 12.9186 3.71496C13.6043 3.02926 14.716 3.02926 15.4017 3.71496" stroke="#192038" stroke-width="1.5" stroke-linecap="round" stroke-linejoin="round"/>
<path id="Path_5" d="M8.77035 15.2032C9.45604 15.8889 9.45604 17.0007 8.77035 17.6864C8.08465 18.3721 6.97292 18.3721 6.28722 17.6864C5.60153 17.0007 5.60153 15.8889 6.28722 15.2032C6.97292 14.5175 8.08465 14.5175 8.77035 15.2032" stroke="#192038" stroke-width="1.5" stroke-linecap="round" stroke-linejoin="round"/>
<path id="Path_6" d="M8.77035 3.71496C9.45604 4.40065 9.45604 5.51238 8.77035 6.19808C8.08465 6.88378 6.97292 6.88378 6.28722 6.19808C5.60153 5.51238 5.60153 4.40066 6.28722 3.71496C6.97292 3.02926 8.08465 3.02926 8.77035 3.71496" stroke="#192038" stroke-width="1.5" stroke-linecap="round" stroke-linejoin="round"/>
<path id="Path_7" d="M15.4017 15.2032C16.0874 15.8889 16.0874 17.0007 15.4017 17.6864C14.716 18.3721 13.6043 18.3721 12.9186 17.6864C12.2329 17.0007 12.2329 15.8889 12.9186 15.2032C13.6043 14.5175 14.716 14.5175 15.4017 15.2032" stroke="#192038" stroke-width="1.5" stroke-linecap="round" stroke-linejoin="round"/>
<path id="Path_8" d="M8.40283 14.9255L9.8695 12.3838" stroke="#192038" stroke-width="1.5" stroke-linecap="round" stroke-linejoin="round"/>
<path id="Path_9" d="M8.40283 6.47559L9.8695 9.01725" stroke="#192038" stroke-width="1.5" stroke-linecap="round" stroke-linejoin="round"/>
<path id="Path_10" d="M15.7194 10.7008H12.7944" stroke="#192038" stroke-width="1.5" stroke-linecap="round" stroke-linejoin="round"/>
</g>
</g>
</svg>
