<svg width="21" height="21" viewBox="0 0 21 21" fill="none" xmlns="http://www.w3.org/2000/svg">
<g id="Group">
<g id="Group_2">
<path id="Path" fill-rule="evenodd" clip-rule="evenodd" d="M18.0317 4.99152C18.0317 4.17485 17.3701 3.51318 16.5534 3.51318H5.13507C4.3184 3.51318 3.65674 4.17485 3.65674 4.99152V16.4098C3.65674 17.2265 4.3184 17.8882 5.13507 17.8882H16.5534C17.3701 17.8882 18.0317 17.2265 18.0317 16.4098V4.99152V4.99152Z" stroke="#192038" stroke-width="1.5" stroke-linecap="round" stroke-linejoin="round"/>
<path id="Path_2" d="M14.9195 10.7008H10.5361" stroke="#192038" stroke-width="1.5" stroke-linecap="round" stroke-linejoin="round"/>
<path id="Path_3" d="M7.24171 10.5535C7.32307 10.6349 7.32307 10.7668 7.24171 10.8482C7.16036 10.9295 7.02845 10.9295 6.94709 10.8482C6.86573 10.7668 6.86573 10.6349 6.94709 10.5535C7.02845 10.4722 7.16036 10.4722 7.24171 10.5535" stroke="#192038" stroke-width="1.5" stroke-linecap="round" stroke-linejoin="round"/>
<path id="Path_4" d="M14.9195 6.95085H10.5361" stroke="#192038" stroke-width="1.5" stroke-linecap="round" stroke-linejoin="round"/>
<path id="Path_5" d="M7.24171 6.80597C7.32307 6.88733 7.32307 7.01924 7.24171 7.1006C7.16036 7.18196 7.02845 7.18196 6.94709 7.1006C6.86573 7.01924 6.86573 6.88733 6.94709 6.80597C7.02845 6.72461 7.16036 6.72461 7.24171 6.80597" stroke="#192038" stroke-width="1.5" stroke-linecap="round" stroke-linejoin="round"/>
<path id="Path_6" d="M14.9942 14.4508H10.6108" stroke="#192038" stroke-width="1.5" stroke-linecap="round" stroke-linejoin="round"/>
<path id="Path_7" d="M7.31496 14.3065C7.39632 14.3878 7.39632 14.5197 7.31496 14.6011C7.2336 14.6824 7.10169 14.6824 7.02033 14.6011C6.93897 14.5197 6.93897 14.3878 7.02033 14.3065C7.10169 14.2251 7.2336 14.2251 7.31496 14.3065" stroke="#192038" stroke-width="1.5" stroke-linecap="round" stroke-linejoin="round"/>
</g>
</g>
</svg>
