<svg width="21" height="21" viewBox="0 0 21 21" fill="none" xmlns="http://www.w3.org/2000/svg">
<g id="Group">
<g id="Group_2">
<path id="Path" d="M17.7182 8.29553C18.3766 8.95389 18.3766 10.0213 17.7182 10.6797C17.0599 11.338 15.9925 11.338 15.3341 10.6797C14.6757 10.0213 14.6757 8.95389 15.3341 8.29553C15.9925 7.63717 17.0599 7.63717 17.7182 8.29553" stroke="#192038" stroke-width="1.5" stroke-linecap="round" stroke-linejoin="round"/>
<path id="Path_2" d="M12.2248 5.28667C13.2386 6.3004 13.2386 7.94399 12.2248 8.95773C11.2111 9.97147 9.5675 9.97147 8.55376 8.95773C7.54002 7.944 7.54002 6.30041 8.55376 5.28667C9.56749 4.27293 11.2111 4.27293 12.2248 5.28667" stroke="#192038" stroke-width="1.5" stroke-linecap="round" stroke-linejoin="round"/>
<path id="Path_3" d="M5.4487 8.29553C6.10705 8.95389 6.10705 10.0213 5.4487 10.6797C4.79034 11.338 3.72293 11.338 3.06457 10.6797C2.40621 10.0213 2.40621 8.95389 3.06457 8.29553C3.72293 7.63717 4.79034 7.63717 5.4487 8.29553" stroke="#192038" stroke-width="1.5" stroke-linecap="round" stroke-linejoin="round"/>
<path id="Path_4" d="M19.556 16.193V15.2796C19.556 14.1288 18.6235 13.1963 17.4727 13.1963H16.8052" stroke="#192038" stroke-width="1.5" stroke-linecap="round" stroke-linejoin="round"/>
<path id="Path_5" d="M1.22314 16.193V15.2796C1.22314 14.1288 2.15564 13.1963 3.30648 13.1963H3.97398" stroke="#192038" stroke-width="1.5" stroke-linecap="round" stroke-linejoin="round"/>
<path id="Path_6" d="M14.8372 16.1932V14.859C14.8372 13.2482 13.5313 11.9424 11.9205 11.9424H8.85465C7.24382 11.9424 5.93799 13.2482 5.93799 14.859V16.1932" stroke="#192038" stroke-width="1.5" stroke-linecap="round" stroke-linejoin="round"/>
</g>
</g>
</svg>
