<svg width="21" height="21" viewBox="0 0 21 21" fill="none" xmlns="http://www.w3.org/2000/svg">
<g id="Group">
<g id="Group_2">
<path id="Path" d="M11.5943 9.9248L5.5918 15.9273" stroke="#192038" stroke-width="1.5" stroke-linecap="round" stroke-linejoin="round"/>
<path id="Path_2" d="M9.34326 9.9248H11.5942V12.1757" stroke="#192038" stroke-width="1.5" stroke-linecap="round" stroke-linejoin="round"/>
<path id="Path_3" d="M7.8427 17.5495C8.76224 17.9514 9.776 18.1781 10.8439 18.1781C14.9882 18.1781 18.3471 14.8192 18.3471 10.675C18.3471 6.53077 14.9882 3.17188 10.8439 3.17188C6.69972 3.17188 3.34082 6.53077 3.34082 10.675C3.34082 11.7538 3.57258 12.7767 3.98275 13.7038" stroke="#192038" stroke-width="1.5" stroke-linecap="round" stroke-linejoin="round"/>
<path id="Path_4" d="M10.0938 15.1104C10.3381 15.1529 10.5882 15.1771 10.8442 15.1771C13.3302 15.1771 15.346 13.1613 15.346 10.6752C15.346 8.18918 13.3302 6.17334 10.8442 6.17334C8.35812 6.17334 6.34229 8.18918 6.34229 10.6752C6.34229 10.9312 6.36646 11.1813 6.40898 11.4255" stroke="#192038" stroke-width="1.5" stroke-linecap="round" stroke-linejoin="round"/>
</g>
</g>
</svg>
