<svg width="21" height="21" viewBox="0 0 21 21" fill="none" xmlns="http://www.w3.org/2000/svg">
<g id="Group">
<g id="Group_2">
<g id="Path">
<path fill-rule="evenodd" clip-rule="evenodd" d="M14.5157 6.58354C16.7938 8.8616 16.7938 12.5551 14.5157 14.8331C12.2377 17.1112 8.54422 17.1112 6.26616 14.8331C3.9881 12.5551 3.9881 8.8616 6.26616 6.58354C8.54422 4.30549 12.2377 4.30549 14.5157 6.58354Z" fill="white"/>
<path d="M14.5157 6.58354C16.7938 8.8616 16.7938 12.5551 14.5157 14.8331C12.2377 17.1112 8.54422 17.1112 6.26616 14.8331C3.9881 12.5551 3.9881 8.8616 6.26616 6.58354C8.54422 4.30549 12.2377 4.30549 14.5157 6.58354" stroke="#192038" stroke-width="1.5" stroke-linecap="round" stroke-linejoin="round"/>
</g>
<path id="Path_2" d="M10.3913 18.2083V14.875" stroke="#192038" stroke-width="1.5" stroke-linecap="round" stroke-linejoin="round"/>
<path id="Path_3" d="M10.3913 3.2085V6.54183" stroke="#192038" stroke-width="1.5" stroke-linecap="round" stroke-linejoin="round"/>
<path id="Path_4" d="M6.22445 10.7087H2.89111" stroke="#192038" stroke-width="1.5" stroke-linecap="round" stroke-linejoin="round"/>
<path id="Path_5" d="M17.891 10.7087H14.5576" stroke="#192038" stroke-width="1.5" stroke-linecap="round" stroke-linejoin="round"/>
</g>
</g>
</svg>
