<svg width="25" height="24" viewBox="0 0 25 24" fill="none" xmlns="http://www.w3.org/2000/svg">
<g id="vuesax/linear/wallet-2">
<path id="Vector" d="M13.4 9.85294H7.99999M20.6 14.3088C21.104 14.2912 21.5 13.8941 21.5 13.4088V11.5912C21.5 11.1059 21.104 10.7088 20.6 10.6912M20.6 14.3088H18.836C17.864 14.3088 16.973 13.6118 16.892 12.6588C16.838 12.1029 17.054 11.5823 17.432 11.2206C17.765 10.8853 18.224 10.6912 18.728 10.6912H20.6M20.6 14.3088L20.6 15.5882C20.6 18.2353 18.8 20 16.1 20H7.99999C5.3 20 3.5 18.2353 3.5 15.5882V9.41176C3.5 7.01176 4.976 5.33529 7.271 5.05294C7.505 5.01764 7.74799 5 7.99999 5H16.1C16.334 5 16.559 5.00881 16.775 5.04411C19.097 5.30881 20.6 6.99412 20.6 9.41176L20.6 10.6912" stroke="#EC1354" stroke-width="1.5" stroke-linecap="round" stroke-linejoin="round"/>
</g>
</svg>
