<svg width="177" height="170" viewBox="0 0 177 170" fill="none" xmlns="http://www.w3.org/2000/svg">
<g id="Frame 418">
<g id="backgrpund">
<circle id="Ellipse 6" cx="86.9812" cy="96.7898" r="73.2155" fill="#FBFCFC"/>
<circle id="Ellipse 5" cx="18.3546" cy="47.3527" r="4.58901" fill="#F0F3F6"/>
<circle id="Ellipse 4" cx="137.044" cy="29.2046" r="8.55224" fill="#F0F3F6"/>
<circle id="Ellipse 3" cx="19.8147" cy="143.93" r="8.13506" fill="#F0F3F6"/>
<circle id="Ellipse 2" cx="165.416" cy="136.004" r="8.13506" fill="#F0F3F6"/>
<circle id="Ellipse 1" cx="149.557" cy="145.182" r="3.96323" fill="#F0F3F6"/>
<path id="Star 1" d="M100.138 35.3677C99.5946 35.2228 99.5946 34.4516 100.138 34.3067L102.49 33.6796C102.679 33.6292 102.827 33.482 102.878 33.2932L103.516 30.9452C103.663 30.4052 104.429 30.4052 104.576 30.9452L105.214 33.2932C105.266 33.482 105.414 33.6292 105.603 33.6796L107.955 34.3067C108.498 34.4516 108.498 35.2228 107.955 35.3677L105.603 35.9947C105.414 36.0451 105.266 36.1923 105.214 36.3812L104.576 38.7292C104.429 39.2692 103.663 39.2692 103.516 38.7292L102.878 36.3812C102.827 36.1923 102.679 36.0451 102.49 35.9947L100.138 35.3677Z" fill="#CDD3DC"/>
<path id="Star 2" d="M9.54697 101.474C9.81007 100.483 11.217 100.483 11.4801 101.474L12.5961 105.679C12.6875 106.023 12.9553 106.293 13.2991 106.387L17.4954 107.533C18.4774 107.801 18.4774 109.194 17.4954 109.463L13.2991 110.609C12.9553 110.703 12.6875 110.972 12.5961 111.317L11.4801 115.522C11.217 116.513 9.81007 116.513 9.54697 115.522L8.43094 111.317C8.33952 110.972 8.07169 110.703 7.7279 110.609L3.53161 109.463C2.5496 109.194 2.5496 107.801 3.53161 107.533L7.7279 106.387C8.07169 106.293 8.33952 106.023 8.43094 105.679L9.54697 101.474Z" fill="#CDD3DC"/>
<path id="Star 5" d="M41.1825 13.9157C41.3287 13.365 42.1102 13.365 42.2564 13.9157L42.8764 16.2517C42.9272 16.4431 43.076 16.593 43.2669 16.6451L45.5981 17.2819C46.1436 17.4309 46.1436 18.2047 45.5981 18.3537L43.2669 18.9904C43.076 19.0426 42.9272 19.1925 42.8764 19.3838L42.2564 21.7199C42.1102 22.2706 41.3287 22.2706 41.1825 21.7199L40.5625 19.3838C40.5117 19.1925 40.363 19.0426 40.172 18.9904L37.8408 18.3537C37.2953 18.2047 37.2953 17.4309 37.8408 17.2819L40.172 16.6451C40.363 16.593 40.5117 16.4431 40.5625 16.2517L41.1825 13.9157Z" fill="#CDD3DC"/>
<path id="Star 3" d="M151.854 50.9934C152.117 50.0021 153.524 50.0021 153.787 50.9934L154.206 52.5714C154.297 52.9159 154.565 53.1857 154.909 53.2796L156.516 53.7185C157.498 53.9867 157.498 55.3796 156.516 55.6478L154.909 56.0867C154.565 56.1806 154.297 56.4504 154.206 56.7949L153.787 58.373C153.524 59.3643 152.117 59.3643 151.854 58.373L151.435 56.7949C151.344 56.4504 151.076 56.1806 150.732 56.0867L149.125 55.6478C148.143 55.3796 148.143 53.9867 149.125 53.7185L150.732 53.2796C151.076 53.1857 151.344 52.9159 151.435 52.5714L151.854 50.9934Z" fill="#CDD3DC"/>
<path id="Star 4" d="M169.235 110.902L170.768 116.679L176.462 118.234L170.768 119.789L169.235 125.566L167.702 119.789L162.008 118.234L167.702 116.679L169.235 110.902Z" fill="white"/>
</g>
<g id="illustration">
<path id="Ellipse 2_2" d="M78.0059 25.5138C79.1533 29.7472 76.4867 34.3328 71.783 35.6077C67.0793 36.8826 62.462 34.2712 61.3146 30.0378C60.1672 25.8045 62.8338 21.2189 67.5375 19.944C72.2412 18.6691 76.8585 21.2805 78.0059 25.5138Z" fill="#CDD3DC" stroke="#CDD3DC" stroke-width="4"/>
<path id="Vector 2" d="M66.4484 27.8085L69.562 26.5471L75.3696 24.973C79.8002 23.7721 84.4506 23.6264 88.9477 24.5475C90.6152 24.8891 92.2499 25.3749 93.8332 25.9995L99.7348 28.3278L103.245 30.2312C105.919 31.6811 108.41 33.445 110.666 35.4853C113.256 37.8277 115.512 40.5138 117.373 43.4688L120.749 48.8311L127.377 63.1218L131.951 73.2198L139.178 85.2032L144.776 94.5639L148.587 99.7956C150.258 102.09 152.717 103.688 155.492 104.284L155.735 104.336C157.519 104.718 159.173 105.555 160.538 106.765L161.328 107.465C162.408 108.422 163.175 109.684 163.528 111.084C163.881 112.486 163.802 113.961 163.302 115.318L163.269 115.407C163.087 115.902 162.853 116.376 162.571 116.821L162.43 117.045C161.498 118.517 160.197 119.719 158.657 120.533L156.059 121.904L151.111 124.517L137.234 130.785L127.849 134.545L119.715 137.678L112.832 139.974L105.741 142.48L99.6916 144.149L95.5196 145.191L84.2548 147.483L73.6157 149.565L53.588 152.432L47.4712 153.104C46.2677 153.237 45.053 153.231 43.8507 153.088L40.7816 152.724C39.0965 152.523 37.5334 151.744 36.3599 150.518C35.0585 149.158 34.331 147.349 34.3288 145.467L34.3281 144.797C34.3275 144.315 34.3658 143.833 34.4424 143.357L34.4855 143.09C34.8241 140.988 35.7001 139.01 37.0287 137.346L37.9132 136.239C40.6311 132.836 42.0023 128.553 41.7659 124.204L41.0908 111.789L39.4935 94.6024L38.6411 82.4233L38.197 77.2125C37.932 74.1024 37.9196 70.9759 38.1601 67.8638L38.2736 66.3958C38.5447 62.8879 39.2247 59.4238 40.2999 56.0738C41.2651 53.0668 42.5429 50.1693 44.1126 47.4289L44.5654 46.6383C46.0787 43.9963 47.8719 41.5249 49.9142 39.2668C52.0201 36.9382 54.3779 34.8506 56.9444 33.0422L57.2557 32.8229C60.1184 30.8058 63.2027 29.1234 66.4484 27.8085Z" fill="url(#paint0_linear_95_8821)"/>
<path id="Ellipse 1_2" d="M152.215 113.969C152.322 114.359 152.206 114.896 151.67 115.622C151.14 116.339 150.26 117.155 149.034 118.053C146.587 119.845 142.864 121.889 138.128 124.055C128.662 128.382 115.233 133.156 100.088 137.345C84.9419 141.533 70.9687 144.338 60.6248 145.489C55.4488 146.065 51.2047 146.225 48.1845 145.944C46.6715 145.804 45.4969 145.556 44.674 145.213C43.841 144.866 43.4649 144.465 43.3573 144.075C43.2496 143.686 43.3661 143.149 43.9024 142.423C44.4321 141.706 45.3123 140.889 46.5382 139.992C48.9852 138.199 52.7081 136.155 57.4445 133.99C66.9099 129.662 80.3386 124.889 95.4844 120.7C110.63 116.511 124.603 113.707 134.947 112.555C140.123 111.979 144.367 111.82 147.388 112.1C148.901 112.241 150.075 112.489 150.898 112.832C151.731 113.179 152.107 113.58 152.215 113.969Z" fill="#D1D8E1" stroke="#D1D8E1"/>
<path id="Vector 1" d="M89.6592 130.461L89.1466 129.914C88.6001 129.33 88.1335 128.676 87.7591 127.969C87.5032 127.486 87.2917 126.981 87.1271 126.46L86.2383 123.646L88.3232 122.905L90.4137 122.129L95.5554 120.743L101.347 119.202L104.753 118.462L104.9 118.965C105.394 120.652 105.622 122.406 105.579 124.163L105.459 125.422C105.317 126.91 104.811 128.341 103.987 129.588L103.943 129.654C103.606 130.163 103.215 130.634 102.776 131.058C101.549 132.245 99.9895 133.029 98.3053 133.307L97.6901 133.409C97.166 133.495 96.6349 133.532 96.1039 133.519C94.3624 133.475 92.6769 132.895 91.2777 131.857L90.9624 131.624C90.4939 131.276 90.0577 130.887 89.6592 130.461Z" fill="white" stroke="white"/>
</g>
</g>
<defs>
<linearGradient id="paint0_linear_95_8821" x1="70.8837" y1="26.1888" x2="102.639" y2="143.35" gradientUnits="userSpaceOnUse">
<stop stop-color="#CDD4DE"/>
<stop offset="1" stop-color="#F0F2F4"/>
</linearGradient>
</defs>
</svg>
