<svg width="177" height="171" viewBox="0 0 177 171" fill="none" xmlns="http://www.w3.org/2000/svg">
<g id="Frame 418">
<g id="backgrpund">
<circle id="Ellipse 6" cx="87.2155" cy="97.2214" r="73.2155" fill="#FBFCFC"/>
<g id="Group 48095521">
<path id="Vector" d="M139.054 77.6876V116.858C139.054 123.272 135.618 129.228 130.063 132.492L96.0466 152.134C90.4917 155.341 83.6196 155.341 78.0074 152.134L43.9909 132.492C38.4361 129.285 35 123.329 35 116.858V77.6876C35 71.2737 38.4361 65.3177 43.9909 62.0535L78.0074 42.4111C83.5623 39.2041 90.4345 39.2041 96.0466 42.4111L130.063 62.0535C135.618 65.3177 139.054 71.2165 139.054 77.6876Z" fill="url(#paint0_linear_96_10830)"/>
<path id="Vector_2" d="M87.0557 72.9336V102.999" stroke="white" stroke-width="6" stroke-linecap="round" stroke-linejoin="round"/>
<path id="Vector_3" d="M87.0557 121.324V121.897" stroke="white" stroke-width="6" stroke-linecap="round" stroke-linejoin="round"/>
</g>
<circle id="Ellipse 5" cx="18.3546" cy="47.3488" r="4.58901" fill="#F0F3F6"/>
<circle id="Ellipse 4" cx="137.044" cy="29.2007" r="8.55224" fill="#F0F3F6"/>
<circle id="Ellipse 3" cx="19.8147" cy="143.926" r="8.13506" fill="#F0F3F6"/>
<circle id="Ellipse 2" cx="165.416" cy="136" r="8.13506" fill="#F0F3F6"/>
<circle id="Ellipse 1" cx="149.557" cy="145.178" r="3.96323" fill="#F0F3F6"/>
<path id="Star 2" d="M9.54697 101.47C9.81007 100.479 11.217 100.479 11.4801 101.47L12.5961 105.675C12.6875 106.019 12.9553 106.289 13.2991 106.383L17.4954 107.529C18.4774 107.798 18.4774 109.19 17.4954 109.459L13.2991 110.605C12.9553 110.699 12.6875 110.969 12.5961 111.313L11.4801 115.518C11.217 116.509 9.81007 116.509 9.54697 115.518L8.43094 111.313C8.33952 110.969 8.07169 110.699 7.7279 110.605L3.53161 109.459C2.5496 109.19 2.5496 107.798 3.53161 107.529L7.7279 106.383C8.07169 106.289 8.33952 106.019 8.43094 105.675L9.54697 101.47Z" fill="#CDD3DC"/>
<path id="Star 5" d="M41.1825 13.9118C41.3287 13.3611 42.1102 13.3611 42.2564 13.9118L42.8764 16.2478C42.9272 16.4392 43.076 16.5891 43.2669 16.6412L45.5981 17.278C46.1436 17.427 46.1436 18.2008 45.5981 18.3498L43.2669 18.9865C43.076 19.0387 42.9272 19.1886 42.8764 19.3799L42.2564 21.716C42.1102 22.2667 41.3287 22.2667 41.1825 21.716L40.5625 19.3799C40.5117 19.1886 40.363 19.0387 40.172 18.9865L37.8408 18.3498C37.2953 18.2008 37.2953 17.427 37.8408 17.278L40.172 16.6412C40.363 16.5891 40.5117 16.4392 40.5625 16.2478L41.1825 13.9118Z" fill="#CDD3DC"/>
<path id="Star 3" d="M151.854 50.9895C152.117 49.9981 153.524 49.9981 153.787 50.9895L154.206 52.5675C154.297 52.912 154.565 53.1818 154.909 53.2757L156.516 53.7146C157.498 53.9828 157.498 55.3757 156.516 55.6439L154.909 56.0828C154.565 56.1767 154.297 56.4465 154.206 56.791L153.787 58.3691C153.524 59.3604 152.117 59.3604 151.854 58.3691L151.435 56.791C151.344 56.4465 151.076 56.1767 150.732 56.0828L149.125 55.6439C148.143 55.3757 148.143 53.9828 149.125 53.7146L150.732 53.2757C151.076 53.1818 151.344 52.912 151.435 52.5675L151.854 50.9895Z" fill="#CDD3DC"/>
<path id="Star 4" d="M169.235 110.898L170.768 116.675L176.462 118.23L170.768 119.785L169.235 125.562L167.702 119.785L162.008 118.23L167.702 116.675L169.235 110.898Z" fill="white"/>
</g>
</g>
<defs>
<linearGradient id="paint0_linear_96_10830" x1="87.027" y1="40.0059" x2="87.027" y2="154.54" gradientUnits="userSpaceOnUse">
<stop stop-color="#CDD4DE"/>
<stop offset="1" stop-color="#F0F2F4"/>
</linearGradient>
</defs>
</svg>
