<svg width="20" height="20" viewBox="0 0 20 20" fill="none" xmlns="http://www.w3.org/2000/svg">
<g clip-path="url(#clip0_452_677)">
<path d="M10 5.83366H6.25002C5.69749 5.83366 5.16758 5.61417 4.77688 5.22346C4.38618 4.83276 4.16669 4.30286 4.16669 3.75033C4.16669 3.19779 4.38618 2.66789 4.77688 2.27719C5.16758 1.88649 5.69749 1.66699 6.25002 1.66699C9.16669 1.66699 10 5.83366 10 5.83366ZM10 5.83366H13.75C14.3026 5.83366 14.8325 5.61417 15.2232 5.22346C15.6139 4.83276 15.8334 4.30286 15.8334 3.75033C15.8334 3.19779 15.6139 2.66789 15.2232 2.27719C14.8325 1.88649 14.3026 1.66699 13.75 1.66699C10.8334 1.66699 10 5.83366 10 5.83366ZM10 5.83366L10 18.3337M1.66669 11.667H18.3334M1.66669 8.50033L1.66669 15.667C1.66669 16.6004 1.66669 17.0671 1.84834 17.4236C2.00813 17.7372 2.2631 17.9922 2.5767 18.152C2.93322 18.3337 3.39993 18.3337 4.33335 18.3337L15.6667 18.3337C16.6001 18.3337 17.0668 18.3337 17.4233 18.152C17.7369 17.9922 17.9919 17.7372 18.1517 17.4236C18.3334 17.0671 18.3334 16.6004 18.3334 15.667V8.50033C18.3334 7.56691 18.3334 7.1002 18.1517 6.74368C17.9919 6.43007 17.7369 6.17511 17.4233 6.01532C17.0668 5.83366 16.6001 5.83366 15.6667 5.83366L4.33335 5.83366C3.39993 5.83366 2.93322 5.83366 2.5767 6.01531C2.2631 6.1751 2.00813 6.43007 1.84834 6.74367C1.66669 7.10019 1.66669 7.5669 1.66669 8.50033Z" stroke="#475467" stroke-width="2" stroke-linecap="round" stroke-linejoin="round"/>
</g>
<defs>
<clipPath id="clip0_452_677">
<rect width="20" height="20" fill="white"/>
</clipPath>
</defs>
</svg>
