<svg width="20" height="20" viewBox="0 0 20 20" fill="none" xmlns="http://www.w3.org/2000/svg">
<g id="help-circle" clip-path="url(#clip0_161_1126)">
<path id="Icon" d="M7.57502 7.49984C7.77094 6.94289 8.15765 6.47326 8.66665 6.17411C9.17565 5.87497 9.7741 5.76562 10.356 5.86543C10.9379 5.96524 11.4657 6.26777 11.8459 6.71944C12.2261 7.17111 12.4342 7.74277 12.4334 8.33317C12.4334 9.99984 9.93335 10.8332 9.93335 10.8332M10 14.1665H10.0084M18.3334 9.99984C18.3334 14.6022 14.6024 18.3332 10 18.3332C5.39765 18.3332 1.66669 14.6022 1.66669 9.99984C1.66669 5.39746 5.39765 1.6665 10 1.6665C14.6024 1.6665 18.3334 5.39746 18.3334 9.99984Z" stroke="#475467" stroke-width="2" stroke-linecap="round" stroke-linejoin="round"/>
</g>
<defs>
<clipPath id="clip0_161_1126">
<rect width="20" height="20" fill="white"/>
</clipPath>
</defs>
</svg>
