<svg width="20" height="20" viewBox="0 0 20 20" fill="none" xmlns="http://www.w3.org/2000/svg">
<g id="settings-01" clip-path="url(#clip0_161_1122)">
<g id="Icon">
<path d="M10 12.4998C11.3807 12.4998 12.5 11.3805 12.5 9.99984C12.5 8.61913 11.3807 7.49984 10 7.49984C8.61931 7.49984 7.50002 8.61913 7.50002 9.99984C7.50002 11.3805 8.61931 12.4998 10 12.4998Z" stroke="#475467" stroke-width="2" stroke-linecap="round" stroke-linejoin="round"/>
<path d="M15.6061 12.2726C15.5052 12.5011 15.4752 12.7545 15.5197 13.0003C15.5643 13.246 15.6814 13.4728 15.8561 13.6514L15.9015 13.6968C16.0424 13.8375 16.1542 14.0046 16.2304 14.1886C16.3067 14.3725 16.3459 14.5697 16.3459 14.7688C16.3459 14.9679 16.3067 15.1651 16.2304 15.349C16.1542 15.5329 16.0424 15.7 15.9015 15.8407C15.7608 15.9816 15.5937 16.0934 15.4098 16.1696C15.2258 16.2459 15.0287 16.2851 14.8296 16.2851C14.6305 16.2851 14.4333 16.2459 14.2494 16.1696C14.0654 16.0934 13.8983 15.9816 13.7576 15.8407L13.7121 15.7953C13.5336 15.6206 13.3068 15.5035 13.0611 15.4589C12.8153 15.4144 12.5619 15.4444 12.3334 15.5453C12.1093 15.6413 11.9182 15.8008 11.7836 16.004C11.649 16.2073 11.5768 16.4455 11.5758 16.6892V16.818C11.5758 17.2199 11.4161 17.6052 11.132 17.8894C10.8479 18.1735 10.4625 18.3332 10.0606 18.3332C9.65878 18.3332 9.2734 18.1735 8.98925 17.8894C8.70511 17.6052 8.54548 17.2199 8.54548 16.818V16.7498C8.53961 16.4991 8.45844 16.2559 8.31253 16.0519C8.16661 15.8479 7.9627 15.6925 7.72729 15.6059C7.4988 15.5051 7.24533 15.475 6.99957 15.5195C6.75382 15.5641 6.52705 15.6812 6.34851 15.8559L6.30305 15.9014C6.16233 16.0422 5.99523 16.154 5.81129 16.2302C5.62736 16.3065 5.4302 16.3457 5.23108 16.3457C5.03197 16.3457 4.83481 16.3065 4.65087 16.2302C4.46693 16.154 4.29983 16.0422 4.15911 15.9014C4.01824 15.7606 3.90648 15.5935 3.83023 15.4096C3.75398 15.2257 3.71474 15.0285 3.71474 14.8294C3.71474 14.6303 3.75398 14.4331 3.83023 14.2492C3.90648 14.0652 4.01824 13.8981 4.15911 13.7574L4.20457 13.712C4.37922 13.5334 4.49637 13.3066 4.54093 13.0609C4.58549 12.8151 4.55541 12.5617 4.45457 12.3332C4.35853 12.1091 4.19908 11.918 3.99583 11.7834C3.79258 11.6488 3.5544 11.5766 3.31063 11.5756H3.18184C2.78 11.5756 2.39461 11.416 2.11046 11.1318C1.82632 10.8477 1.66669 10.4623 1.66669 10.0604C1.66669 9.6586 1.82632 9.27322 2.11046 8.98907C2.39461 8.70492 2.78 8.54529 3.18184 8.54529H3.25002C3.50077 8.53943 3.74396 8.45826 3.94797 8.31235C4.15199 8.16643 4.30738 7.96252 4.39396 7.72711C4.4948 7.49861 4.52489 7.24515 4.48033 6.99939C4.43577 6.75364 4.31861 6.52687 4.14396 6.34832L4.09851 6.30287C3.95763 6.16215 3.84588 5.99505 3.76963 5.81111C3.69338 5.62717 3.65413 5.43001 3.65413 5.2309C3.65413 5.03178 3.69338 4.83462 3.76963 4.65069C3.84588 4.46675 3.95763 4.29965 4.09851 4.15893C4.23922 4.01805 4.40633 3.9063 4.59026 3.83005C4.7742 3.7538 4.97136 3.71455 5.17048 3.71455C5.36959 3.71455 5.56675 3.7538 5.75069 3.83005C5.93462 3.9063 6.10173 4.01805 6.24244 4.15893L6.2879 4.20438C6.46644 4.37903 6.69321 4.49619 6.93897 4.54075C7.18472 4.58531 7.43819 4.55523 7.66669 4.45438H7.72729C7.95136 4.35835 8.14246 4.19889 8.27706 3.99564C8.41166 3.79239 8.4839 3.55422 8.48487 3.31044V3.18166C8.48487 2.77981 8.6445 2.39443 8.92865 2.11028C9.21279 1.82614 9.59818 1.6665 10 1.6665C10.4019 1.6665 10.7872 1.82614 11.0714 2.11028C11.3555 2.39443 11.5152 2.77981 11.5152 3.18166V3.24984C11.5161 3.49362 11.5884 3.73179 11.723 3.93504C11.8576 4.13829 12.0487 4.29774 12.2727 4.39378C12.5012 4.49462 12.7547 4.5247 13.0005 4.48014C13.2462 4.43558 13.473 4.31843 13.6515 4.14378L13.697 4.09832C13.8377 3.95745 14.0048 3.84569 14.1887 3.76944C14.3727 3.69319 14.5698 3.65395 14.769 3.65395C14.9681 3.65395 15.1652 3.69319 15.3492 3.76944C15.5331 3.84569 15.7002 3.95745 15.8409 4.09832C15.9818 4.23904 16.0936 4.40614 16.1698 4.59008C16.2461 4.77402 16.2853 4.97118 16.2853 5.17029C16.2853 5.36941 16.2461 5.56657 16.1698 5.7505C16.0936 5.93444 15.9818 6.10154 15.8409 6.24226L15.7955 6.28772C15.6208 6.46626 15.5037 6.69303 15.4591 6.93879C15.4145 7.18454 15.4446 7.43801 15.5455 7.6665V7.72711C15.6415 7.95118 15.801 8.14228 16.0042 8.27688C16.2075 8.41148 16.4456 8.48371 16.6894 8.48469H16.8182C17.22 8.48469 17.6054 8.64432 17.8896 8.92846C18.1737 9.21261 18.3334 9.59799 18.3334 9.99984C18.3334 10.4017 18.1737 10.7871 17.8896 11.0712C17.6054 11.3554 17.22 11.515 16.8182 11.515H16.75C16.5062 11.516 16.2681 11.5882 16.0648 11.7228C15.8616 11.8574 15.7021 12.0485 15.6061 12.2726Z" stroke="#475467" stroke-width="2" stroke-linecap="round" stroke-linejoin="round"/>
</g>
</g>
<defs>
<clipPath id="clip0_161_1122">
<rect width="20" height="20" fill="white"/>
</clipPath>
</defs>
</svg>
